/* XPM */
static char *_bbab0d1d7c445ecbf06ab7567b6b5b4[] = {
/* columns rows colors chars-per-pixel */
"85 85 256 2 ",
"   c #4C0F0C",
".  c #76130F",
"X  c #791915",
"o  c #4A3C3B",
"O  c #7F2621",
"+  c #4D403F",
"@  c #554848",
"#  c #5C5150",
"$  c #685D5C",
"%  c #6A605F",
"&  c #6C6262",
"*  c #756B6B",
"=  c #78706F",
"-  c #7D7474",
";  c #910E08",
":  c #99150C",
">  c #881B15",
",  c #971C15",
"<  c #A60E09",
"1  c #A81B16",
"2  c #B71A17",
"3  c #B31D1B",
"4  c #8C221C",
"5  c #97231C",
"6  c #A3221D",
"7  c #AB231D",
"8  c #A82B1E",
"9  c #B3231D",
"0  c #BA231D",
"q  c #B03A1D",
"w  c #882924",
"e  c #992923",
"r  c #99322B",
"t  c #923A34",
"y  c #A82A24",
"u  c #B32B24",
"i  c #B82824",
"p  c #BC2B24",
"a  c #A8322A",
"s  c #B9352B",
"d  c #A83A35",
"f  c #B83A34",
"g  c #C61C1C",
"h  c #D51C1D",
"j  c #C6231D",
"k  c #D3261C",
"l  c #E02A18",
"z  c #C62824",
"x  c #C32C24",
"c  c #CB2C24",
"v  c #D52A25",
"b  c #C5342B",
"n  c #CC342A",
"m  c #C9382C",
"M  c #D4352B",
"N  c #DA352B",
"B  c #D33A2E",
"V  c #C43C32",
"C  c #C73936",
"Z  c #CB3C32",
"A  c #D33D32",
"S  c #D93D33",
"D  c #E23C30",
"F  c #AC7917",
"G  c #98423B",
"H  c #B04330",
"J  c #B7443B",
"K  c #966820",
"L  c #B8742F",
"P  c #C74629",
"I  c #CC4235",
"U  c #C84539",
"Y  c #D44335",
"T  c #DB4334",
"R  c #D44539",
"E  c #DA4738",
"W  c #D44B3C",
"Q  c #DB4B3B",
"!  c #CC5237",
"~  c #DB533D",
"^  c #E3402F",
"/  c #E24837",
"(  c #E2523D",
")  c #C97237",
"_  c #9B4D48",
"`  c #A84F49",
"'  c #B64A44",
"]  c #B95549",
"[  c #A85A58",
"{  c #B85A56",
"}  c #99744F",
"|  c #AB6957",
" . c #BA645B",
".. c #98766D",
"X. c #837A79",
"o. c #A86967",
"O. c #B76966",
"+. c #AD766E",
"@. c #B87875",
"#. c #C74B46",
"$. c #D84C43",
"%. c #C8574A",
"&. c #D45343",
"*. c #DC5444",
"=. c #D8574A",
"-. c #DC5B4A",
";. c #C75B55",
":. c #D95A55",
">. c #E25444",
",. c #E35847",
"<. c #E2564E",
"1. c #E25C4A",
"2. c #DA634B",
"3. c #C9655A",
"4. c #DC6353",
"5. c #D96759",
"6. c #D17253",
"7. c #E5654A",
"8. c #E3624D",
"9. c #E3754D",
"0. c #E56A57",
"q. c #E6745B",
"w. c #C66B66",
"e. c #D96A65",
"r. c #C97569",
"t. c #D97569",
"y. c #C87A75",
"u. c #D97A75",
"i. c #E26D66",
"p. c #E67867",
"a. c #E37B76",
"s. c #B7821C",
"d. c #B98526",
"f. c #BA8938",
"g. c #BA8C38",
"h. c #C38B2A",
"j. c #D09A2A",
"k. c #C88938",
"l. c #CB9738",
"z. c #D09431",
"x. c #B98947",
"c. c #B68B52",
"v. c #A5896E",
"b. c #B28D71",
"n. c #C6974A",
"m. c #D4924F",
"M. c #C69857",
"N. c #E38B5B",
"B. c #D6A748",
"V. c #D6AD56",
"C. c #D6A958",
"Z. c #E1AC5B",
"A. c #C6886A",
"S. c #CD9466",
"D. c #C78679",
"F. c #D9847B",
"G. c #C89777",
"H. c #D69878",
"J. c #EA846A",
"K. c #E58577",
"L. c #E79474",
"P. c #CDA267",
"I. c #D5AA66",
"U. c #DCB465",
"Y. c #CAA578",
"T. c #D5A979",
"R. c #DBB678",
"E. c #E3B467",
"W. c #E3BA75",
"Q. c #E6C275",
"!. c #978A89",
"~. c #948C8C",
"^. c #BB8885",
"/. c #B1968F",
"(. c #A89898",
"). c #B1A092",
"_. c #B8A898",
"`. c #B49FA0",
"'. c #ACA5A5",
"]. c #B6A7A7",
"[. c #BEB1A4",
"{. c #BBB4B4",
"}. c #C88986",
"|. c #D88985",
" X c #D99789",
".X c #C99996",
"XX c #D39A90",
"oX c #E58B86",
"OX c #E6948A",
"+X c #E69A95",
"@X c #CAA887",
"#X c #D6A987",
"$X c #D8B688",
"%X c #C7A79A",
"&X c #D3AC97",
"*X c #D8B996",
"=X c #E9A78D",
"-X c #E3BC8A",
";X c #E7A49A",
":X c #E3B997",
">X c #C7A9A7",
",X c #D8A9A7",
"<X c #C5B6A9",
"1X c #D7BCA3",
"2X c #C6B8B6",
"3X c #D6B9B6",
"4X c #E6AAA7",
"5X c #E8B3AD",
"6X c #E9B9B6",
"7X c #F0BAB3",
"8X c #DEC188",
"9X c #DCC29B",
"0X c #E6C688",
"qX c #E4C899",
"wX c #EDD198",
"eX c #DBC5A7",
"rX c #D3C7B9",
"tX c #D8C7B8",
"yX c #E4C6A6",
"uX c #E4CCA4",
"iX c #E4CCAB",
"pX c #E8D3AA",
"aX c #F1D9AC",
"sX c #E6C8B9",
"dX c #E9D5B3",
"fX c #E8D6B8",
"gX c #F4E0B7",
"hX c #D9C8C5",
"jX c #DBD3CA",
"kX c #D8D2D0",
"lX c #E9CAC7",
"zX c #F1CCC8",
"xX c #E9D9C7",
"cX c #E7DAD7",
"vX c #F2D7D4",
"bX c #F3DDDB",
"nX c #EDE1CA",
"mX c #F5E4C1",
"MX c #E9E2DA",
"NX c #ECE2DE",
"BX c #F1E6DA",
"VX c #E6E3E2",
"CX c #ECE5E2",
"ZX c #EEE9E5",
"AX c #EEEBE9",
"SX c #F4E5E2",
"DX c #F3EAE5",
"FX c #F3EDEA",
"GX c #F9ECEA",
"HX c #F4F1ED",
"JX c #F8F1EB",
"KX c #F5F4F2",
"LX c #FAF5F3",
"PX c #FBF9F6",
"IX c #FDFDFC",
"UX c #FFFFFF",
/* pixels */
"UXUXUXUXUXUXPXxXeX9XqXuXuXqX0X-XR.T.P.M.M.c.c.x.n.M.C.I.U.R.W.W.W.W.U.U.C.C.n.n.n.n.n.n.n.n.n.n.n.n.n.x.n.x.g.g.k.g.g.g.g.x.x.x.x.n.M.P.T.R.-X-X0X0XqXqXyXcXPXUXUXUXUXUXUX",
"UXUXUXUXUXUXPXhX).c.M.P.I.U.I.C.M.n.g.g.g.g.g.g.n.B.V.V.U.U.U.U.I.V.C.n.n.g.g.f.f.d.d.d.f.f.f.f.f.f.f.f.f.f.f.g.g.g.k.k.k.k.k.g.k.n.n.n.n.M.I.R.R.R.P.M.@XxXPXUXUXUXUXUXUX",
"UXUXUXUXUXUXUXFXeXn.l.B.V.Z.Z.B.l.h.d.d.s.s.s.d.h.z.l.l.B.B.B.B.B.B.l.g.d.d.s.s.F F F F F s.d.d.s.s.d.s.s.d.d.d.d.h.h.h.h.h.h.k.z.l.l.l.B.U.0XwXaXwXW.I.iXJXUXUXUXUXUXUXUX",
"UXUXUXUXUXUXUXHXeXC.V.W.Q.W.E.B.l.h.d.f.x.x.c.c.M.P.M.P.I.C.I.C.B.I.n.M.c.x.c.b.c.c.c.} b.c.L f.b.b.x.b.c.x.x.c.x.M.M.M.M.M.P.n.M.n.l.B.C.Q.wXaXmXgX0XE.yXJXUXUXUXUXUXUXUX",
"UXUXUXUXUXUXPXxXR.U.wXaXaXwXQ.V.l.h.x.Y.@X@XtX*XtXiX*XdXdXqXfXuX$XpX$XeXtX@XeXtX1X&X@X@XtX&Xx.b.tXtX@XtXtX@X@XeXY.eXeX*X1X1XeXY.*XT.n.l.B.E.wXaXgXaXwXZ.R.xXPXUXUXUXUXUXUX",
"UXUXUXUXUXPXBX-XE.0XaXgXaX0XU.l.h.d.c.@X@X@X1X$XiXuX8XdXwXaXdXwXpXpX0XpXiX$X9XeX9X*X*X*XeXeXI.I.pXiX*XuXuX9X9XeX9X*X9XeX*X*X&X@X1X*XS.k.l.V.E.0XwXwXQ.Z.B.$XBXPXUXUXUXUXUX",
"UXUXUXUXLXnX-XW.0XwXaXaX0XE.B.z.h.d.L x.f.x.n.n.I.U.U.Q.Q.Q.Q.Q.W.E.V.V.C.n.M.c.n.n.n.M.C.I.B.B.U.V.C.V.U.C.V.V.V.B.M.M.n.n.x.x.c.c.f.h.k.B.V.E.Q.0X0XW.Z.C.$XvXPXUXUXUXUX",
"UXUXUXHXlX#XW.0XpXaXpXqXW.Z.m.k.) L L F L L ) m.m.m.Z.Z.Z.Z.Z.Z.m.m.k.k.) L L L L L L L ) k.k.k.k.k.k.k.k.m.k.k.k.k.) ) ) ) L L L L L L ) n.m.C.E.W.-X-XW.Z.N.#XxXLXUXUXUX",
"UXUXFXsXF.q.L.=X:X=X=XJ.q.~ ! H H H q q q s P ! ~ 2.7.9.0.2.2.2.~ ! P P H q s H s q q q H H P P P P P P P P P P P P m P P m P H H H H H ] ] ! ! 2.q.J.L.L.N.9.2.F.lXFXUXUX",
"UXFX6Xu.5.u.OXOXOXL.J.0.Q Z p 3 1 , , < 2 g c n S E *.,.-.*.*.T M Z b s 3 9 u 3 2 2 2 2 2 3 p x z z x p z g g g g g g g g g x b p ' ' { r.3.U c B Q 8.p.J.J.q.1.Q t.6XDXUX",
"FX3Xt.q.L.=X Xt.J.J.q.*.Z p 9 1 1 : 1 1 i z z n I R =.0.q.4.-.=.;.3.{ J u y y 7 1 1 1 1 2 3 i p p p J %.%.J U s V I V x g g z z z C ;.y.y.%.p x m R 1.q.J.K.t.t.4.&.e.,XDX",
",Xr.4.K.=X;X+Xp.p.q.-.I p 9 1 1 1 1 u s f Z Z Z U 3.F. X=XH.H. X#XG.b.| J y 6 6 1 1 1 1 1 1 y y 7 y ] | A.A.A.r.A.S.A.3.U m Z b c c Z U U b c c n B Q 8.p.p.5.t.K.5.1.e.XX",
"` V W 8.p.p.p.q.8.*.Y x 0 3 3 i p u x b U 5.F.F. X*XyXuXpXfXiX#XG.A.#X1X@X] H a 6 6 y 7 6 H  . .d 7 u H 3.A.T.*X1X*X$X$XH.F.F.6.&.B B B B n A B B B Z I W 8.0.J.J.q.7.R #.",
", u n T >.8.0.0.1.Q A x p 3 0 p p c n U 3.#XqXuXfXfXdXdXfXdXyX$XG.3.@XtXtX%X/.b._ 4 , , e | @X%Xb.` H a  .S.T.$X*XyXyXuXiXsXqX:XH.&.N N T T T T B A n Z R ~ 7.q.q.0.>.n 9 ",
"5 u b A ( 8.q.q.8.*.Y b p 0 i p i Z =.r.#X9XpXfXxXfXxXnXnXuX#XA.3.6.XXtXNXCXMXjX_..._ G G | b.<XtX%X}.b.A.A.A.T.$XiXfXiXdXnXdXuXyXH.4.&.R A T T B M n m Y W 2.q.q.0.~ n 9 ",
"5 u n T >.8.q.q.8.*.Y b p i i x b 3.#X@XeXtXpXnXnXfXnXxXpX:XH.r.r.#XxXNXHXKXHXFXMXhX<X/.b.%X%XrXcXcXcXxXsXeX*X$X$X9XiXiXiXxXxXdXxXiX$XH.&.A Y Y Z M n n Z U %.q.p.0.*.n 9 ",
"5 u m E ,.0.q.q.8.*.R s i 9 9 p %.XX*X$X9XxXxXnXnXnXxX:XH. X*XiXyXeXFXHXCXHXKXAXAXAXMXjXhXrXhXjXxXjXxXxXnXxXxXxXyXT.*XfXxXfXxXnXBXpXuX*Xt.U Z Z Z n n n B U 2.q.p.q.-.n u ",
"e u m R *.4.q.q.4.&.Y s u 9 u ' A.*XsX1XfXxXfXdXfXdXyX#X#XyXBXJXFXDXHXCXcXAXAXMXkXjXjXjXkXcXcXcXMXCXCXCXAXAXAXDXMX*XH.*XeXiXpXxXnXfXfXfX#X6.U Z I Z b n B ~ 4.p.J.q.1.Z u ",
"e a V W -.5.p.5.2.&.I x i 1 J A.#XqXiXtXfXeXtXxXiX-XqXxXxXBXJXJXJXJXCXcXtXjXcXcXMXMXCXCXAXAXAXAXAXFXFXAXAXAXFXFXDXiXr.6.#XeXfXdXfXxXxXpXuX#X{ s %.;.J Z Y ~ 0.J.J.q.,.Z u ",
"5 y V W 1.0.q.q.2.&.I U J H | @X*X*X9XtXtX1XeXiXqX:XxXDXHXKXHXHXHXJXFXCXxXjXCXAXAXZXAXFXFXFXFXFXFXAXAXAXAXAXFXFXDXsXr.%.H.$XuXdXpXxXnXqXpXyXG.r.r.{ #.V I &.0.p.J.q.-.V y ",
"5 y b W 1.q.p.q.4.&.U 3.A.b.G.*XeX*X9X9X*XtXeX#XH.1XBXHXKXKXKXKXKXKXKXHXAXMXCXCXCXNXMXCXMXMXMXNXCXAXAXAXAXFXFXFXFXxXH.r.r.A.*XfXfXuXfXuXdXfXiXyX#X%.V b V &.0.p.J.5.=.U y ",
"e a V W -.q.p.5.] U V ] @X&X@X$X$X*X9X9XeXeX#Xr.r.1XNXKXKXKXKXKXKXKXKXKXHXCXjX2XjXcXjXrX<X[._.<XrXjXcXMXMXNXCXDXDXxX*X$XG.A.*XiXdXqXqXqX0X0X0XiXH.U x s V ~ 0.p.J.q.=.V y ",
"e a V W -.0.p.3.%.W U ` G.&XY.M.G.*X9XR.Y.$X*X#XT.iXBXHXKXKXKXKXKXHXFXCXxXrX<XrXrXkXkXrX<X_.} } } c.S.Y.*XyXiXfXxXxXeXuXuXuX9X$X-XuXxXfXR.U.0XiXH.%.U s I W 4.p.p.0.=.I y ",
"5 a V W 4.q.q.q.5.t.F.b.@X*X*XT.#X9X9X*X$X$X9XuXiXxXBXFXHXHXHXJXBXxXeXY.c.c.c.b.<XjXcXjXrX[.} K K F d.h.l.B.C.C.R.pXuXdXfXdXeXuXuXpXpXuX0XuXiXyX:X#XA. .%.&.4.q.5.5.5.#.a ",
"4 a J W -.0.p.K.=X:X*XT.G.G.@X#XT.$X*XeX9XR.R.iXxXxXnXBXDXDXBXdX$XI.n.d.F F K } _.2XkXcXhX<Xv.K K F F h.j.j.j.j.B.qXqX0XpXqXR.-XdXfXpXqX0XpXdX-XR.T.$X#X Xt.5.5.%.4.5.#.a ",
"4 a f W -.0.OXyXiX0XR.S.S.Y.&X*X$X*X*X9X9XR.Q.uXuXdXfXnXFXDXnX0XB.j.h.s.F F K } [.<XrXcXjX2X/.K K F F s.h.j.j.j.B.$XqXqXqXuXqX0XqXpXqXfXpXqXpXiX-XR.T.T.*X#Xr.q.3.4.=.U y ",
"w d s I *.5.;XsXdX0XR.P.@X&X*X#X$XeXR.*X9X9XpXdXqXdXfXnXHXJXxX8XV.C.n.x.x.L } v.<X).<XjXkXrX_.} } x.x.n.n.B.B.C.V.$XfXfXuXdXpXuXqXqXqXdXqXqXfXdX:XC.m.S.#X@Xr.e.6.5.&.f y ",
"w e s I *.4.J.&XiX0XP.M.&X&X1X$X*X*XT.R.qXuXqXuXdXnXnXnXDXBXfX9X*X*X$X@XY.b./.)._.).[.<X<X]._./.b./.@X&X$X#X$X$X-X0XfXfXqX0X0XfXdXuXuXfXuXdXxXuX9XI.S.#XG.w.4.q.e.3.%.s 5 ",
"w e s U %.4.q.K.OX#X@XY.&X&X*XY.T.*X9X9XuXiX$X0XpXdXuX8X0XqX8XR.*X*XP.@X@Xb.%X_.!./._.v.} v.).v.).@Xc.#X$XP.T.R.I.R.qXdXdX0XpXpXqX$XqX0XqXuXiXuXiX*X&XA.] &.2.0.5.3.#.s y ",
"w e J %.%.%.t.=X XA.G.@X1X@X&X*X$X*XiXqXqXpXdXfXxX8XV.B.U.pXuX9XeXeXY.*X1XY.<X_./.).[.v.K v.<Xb.<X1Xb.eXeXT.eXiXC.B.B.R.fXpXdXdXpX9XeXdXdXfXpXuXiX#XG. .6.t.2.2.4.-.U a e ",
"w _  .r.y.r. XsXuX$XT.#X1X@X@X*XT.$XuXpXpXpXfXBXBX0XZ.V.U.qXqX$X$X$XP.Y.b.b.b.v.v.v.v.v...v.b.v.b.b.b.@X@XT.*X*XI.V.V.$XnXxXdXpXuX*X@XuXpXdXuXdXdX#XH.H.T.#Xy.t.t.t.5.J e ",
"t @.D. X X X;XsXqXI.m.S.*X*X@X$X#X$X9XuXqXpXiXnXBXfXpXqX-XqX:X:X*X*X#XG.b.+.......+.............+.b.G.#X#X#X#X#X$X$X9XiXBXxXuXpX0XY.M.R.Q.W.R.pXpXI.m.m.T.#X XOX+XOXF.w.t ",
"t  .3.e.u.t.t.=XyXT.m.M.&X*XG.Y.T.#X-XqXfXfXdXnXDXBXxX=Xp.0.0.0.5.5.;.#.J d G G G G t t t t t t G ' ] ;.;.%.=.=.5.H.iXxXBXxXpXfXfX$Xb.$X-XW.W.iXuXI.m.m.#XL.p.p.p.5.5.;.t ",
"t { #.=.u.F.e.F.1X*XT.@XG.@X@XD.A.6.q.H.yXsXsXfXxXxX5XK.,./ ^ D N v g 2 2 1 , 5 5 e 5 > > > , , 1 1 2 g g h h h N 5.:XsXxXfXuXiX&Xt.] A.L.=X:X:X#X#X#X#XH.q.,.2.8.-.*.3.t ",
"t { R E i.K.t.e.F.K.t.%.J ] { ;.=.%.=.:.p.oXOX XF.t.e.=./ >.<.<.=.$.$.C i 7 , , e G _ _ G t 5 : 6 f ' #.#.$.v v S =.5.a.oXOXK.a.:.S m :.0.0.i.0.-.=.5.r.w.5.q.0.0.,.*.3.t ",
"[  .Z $.|.6XsX6X6X4X|.;.f O..X%X,X,X4X4X4X4X|.u.:.:.5.e.i.+X5X5X5X,X,XXX' < : , _ /.>X>X>X/._ : d }.,X,X,X+X:.R |.4X5X5X5X4XoX<.B M e.4X4X4X4X+X$.v #.F.,X5X5XoX0.>.&.3.` ",
"^.r.Z =.5XGXLXLXGXSXlX,X{ }.hXcXcXbXCXSXDXSXcX5Xe.:.5.t.+XbXLXLXHXFXDXlXO.< : , [ hXCXCXcXhX[ ; [ 3XMXZXDXvX|.:.6XSXFXFXGXDXzXi.k =.4XSXGXGXDXvXe.v :.5XNXDXSX7Xp.( $.w.y.",
"O.w.R :.6XPXPXSXSXFXCXlXO.}.cXCXCXcXvXSXKXLXKXbXu.W =.5.+XLXUXUXUXPXLXCX}.a : , o.cXHXHXFXhX[ ; [ 3XAXKXLXSX|.:.6XLXPXPXUXPXGXOXD i.zXLXUXPXPXbXi.v 5.lXFXLXJXzXp.( $.3. .",
"] 3.I 5.3XLXJX4X6XSXCXlXO.}.cXCXbX5Xa.4XSXPXLXDXoXS / 0.7XLXUXUXPXPXLXAX,X' : , o.cXFXFXAXhX[ ; [ 3XAXHXKXCX|.:.6XKXPXPXPXPXLX7X0.OXSXPXPXPXPXbXe.M t.cXHXJXJXzXp.( $.3.' ",
"] ;.Z :.6XLXGX+X4XSXDXlXO..XcXCXbX4X:.|.CXLXPXGXoXD ^ i.vXPXUXPXDXLXLXHXhX{ < , o.cXFXHXAXhXo.5  .3XAXHXKXSXXXr.3XKXPXPXPXPXPXbXOX6XLXUXPXPXPXbXt.A |.bXFXSXJXvXK.E *.w.] ",
"] ;.Z :.6XLXLX5X7XDXDXlXw..XcXCXCX5Xt.+XNXLXPXGXoXS ^ a.SXUXUXGXlXFXPXLXcX@.: 5 o.cXHXHXAXkX/.^..XhXDXKXLXZX,Xu.lXKXPXPXLXLXPXGXsXbXPXPXHXPXPXbXt.$.XXNXDXcXFXSXK.E -.r.] ",
"' { Z :.6XLXPXSXSXFXbX,X{ .XcXCXCXcXlXcXFXLXFXvXa.D <.+XLXUXUXSX4XDXLXLXMX}.d 5 o.cXKXHXFXAXCXCXCXAXKXKXLXCX|.e.6XKXPXLXDXbXLXPXGXPXPXGXSXLXPXbXt.=.5XDXSXsXDXGXOX>.*.3.' ",
"' ;.Z :.6XPXPXFXGXFXlX|.{ .XcXCXCXNXbXDXLXLXvX4X0.D 0.6XPXUXPXvXOXbXKXLXZX>X` 5 o.cXKXFXAXZXcXcXMXAXKXKXLXbXu.:.sXKXPXPXSXlXHXUXUXUXPXvXbXLXPXbXe.:.sXDXbX5XDXFX;X-.$.3.] ",
"] 3.#.5.7XPXDX6XzXDXNX3Xw..XcXAXCXlX4XlXHXLXGXvXoX/ e.vXPXUXPXzX+XvXKXLXAXhX[ e +.cXHXFXAXhX^.+.^.hXAXKXKXCXu.:.sXKXPXPXbX4XDXUXUXUXGX7XbXLXPXbXe.e.vXFXbX5XDXGX4X:.%.3.3.",
"] 3.R :.7XPXDX+X5XSXZXhXO..XcXZXCX4X:.oXSXPXPXGX+X*.K.SXUXUXPXSXzXSXKXLXKXkXo.e +.cXKXHXAXhX[ ; [ 3XAXHXKXbXu.:.6XLXPXPXvXOXvXPXUXUXSX+XvXPXPXbXe.u.bXJXDXvXJXJX6X5.;.F.r.",
"] 3.#.:.6XPXGX;X5XSXAXhXO..XcXZXCX4X$.a.SXPXUXJX+X<.;XLXUXUXUXPXLXLXLXKXKXcX^.d +.cXKXHXAXhX[ ; [ 3XFXKXKXNXu.:.lXLXPXLXvXa.6XLXUXLXzXoXvXPXPXbXu.OXSXFXFXFXJXJXsXe.;.D.w.",
"] 3.Z :.7XPXLXsXzXDXCXhXO..XcXZXCX4X>.K.SXPXUXLX+Xi.6XLXUXUXLXSXbXbXFXKXKXCX>X_ o.cXKXKXAXrX[ < { rXAXKXKXbXu.:.lXLXPXPXvXp.OXGXUXGX5XK.vXPXPXvXa.4XSXFXcXzXBXGXzXt.&.r.] ",
"] 3.A :.6XPXUXLXLXKXMX3Xw..XcXAXCX4X=.oXSXUXUXLX+Xa.vXUXUXPXzXOXi.oXcXKXLXAXhX[ o.MXKXKXAXhX[ <  .hXFXKXLXSXu.:.lXLXPXPXvXe.t.bXUXDXOXp.cXPXPXbXoX6XDXSX5XF.6XFXvXa.$.r.] ",
"] ;.A :.5XSXGXDXSXbX6Xy.#..XhXcXlX+X*.oXvXSXGXbXOXK.vXGXGXSX4X<.l :.6XbXCXbXhX[ o.jXCXcXcX2X` ; [ 3XcXCXCXlXt.:.6XSXGXSXzXi.:.6XSXzXp.i.lXSXSXzXa.6XcXlX}.;.+XvXzXp.Q 3.] ",
"' 3.R S i.K.oX|.|.u.e.C s #.w.O.r.:.S :.oXoXOXOX5.4.OX+X+X+Xi.( ^ T e.|.XX}.@.J G ^.^.^.^.o.a < d @.}. X X|.$.S i.oXOXOXa.>./ i.oXa.>.>.a.oXK.i.>.e.t.w.%.#.0.K.K.,.Q 3.' ",
"' w.R N / ,.5.=.W T N C u i p p c N N ^ / / >.<.=.e.a.a.p.0.>.Q Q S $.e.w.' a 1 1 a d f d y , 1 9 u s C C n v v N S S S D D D ^ / / / / ( ( / D N c m z m Y Q -.7.( Q 3.] ",
"] w.#.T -.5.5.*.Q R M c p 3 g j c N N S T / ,.p.+X6XzXzX7Xp.,.>.:.e.+XlXlXy.s 1 6 a y 8 6 e d y 1 2 2 g n #.:.:.=.S N N D >.<.:.0.0.0.0.( / ^ D N v c j c S Q -.7.>.=.3.] ",
"` y.u.t.F.|.u.5.e.5.:.%.#.#.#.%.=.:.:.=.>.0.+XzXvX7X;X+X;XK.a.OX5XzXcXlX}.] ] { O.^.@.O.o.@.^.@.O. .{ w.F.;X6X6X6XoXa.a.a.oX+X+X4X5X7X4X0.8.0.8.:.=.%.%.%.:.p.K.a.e.e.r.] ",
"' y.|.|.+X4X+XOXOXOX|.}.}.}.D.}.}.|.|.u.u.4XvXzX4XoXoXoX;X6XzXSXGXDXbXlX,X}.,X3X3XcXhX>X3XcXhXrXhX3X,XhXlXlXlXlXvXzXlX6X5X;X+XOXoXOX+X+X0.K.OXoX|.|.D.y.y.|.OXOXF.u.u.r. .",
"J { }.|.u.+XK.p.i.5.;.{ [ [ ` { { { ;.;.F.vXDX6X;X4X7X6X7X6XvXDXSXlXzXbXlXlXcX3XrXjX>X.X3XtX3XrXhX>X3XlX,X,X6X5X4X+Xu.u.e.5.:.=.#.$.=.:.W :.5.5.:.;.] ` ' 3.OXoXu.F.F.t.w.",
"' #.t.+X+X4Xa.0.1.U f d ` ` r 1 3 i b Z e.6XvXzX7X;XoXu.a.;XsX5X|.t.+X,X}.}.,X>X.X@.^.>X}.O.o.o.O..XhX.X;.#.;.;.#.Z c c c n n A A Y T T S A T T n j 3 1 1 #.oXOX+X|.t.3.3.",
"@.r.t.oX4XlXF.0.-.U J ' ` G r y i x b V $.5.i.p.i.5.-.*.&.4.e.:.R U #.#.f a ` ` G d O.@._ 4 w w d O.y.' i 3 0 z x c n n n Z A I Y E R T R R R T n x i 1 1 #.OX5X+XF.F.y.y.",
"o.@.y.u. X;Xt.4.-.W U { ` a 6 7 i b m V R Z R W $.$.*.,.*.W Y I Z V f u 9 7 6 a 5 , r t w > X > e r d y 7 9 0 p z x b b n n Y Y R Q Q R %.%.=.R B x 0 1 9 I t.OXoXu.r.O.` ",
"t d ' #.:.5.4.;.%.W Z f a 6 7 y s s V I R W Q $.&.&.*.*.*.&.R I I b s i 9 7 6 5 , > 4 5 5 > > > , , 6 y a u p x c n n m B Z Y R R R T W 3.r.5.W B x 0 1 9 b W 4.4.&.#.d r ",
"4 5 9 b Y &.4.4.-.*.Z a y y 6 a ' J f V U U $.*.*.*.*.*.=.&.W I V b p 0 7 1 , , > > 4 4 4 > > > 5 d J d J ' f p b n n n n Z I W R R E Q &.=.&.R n x 0 9 0 m R ~ ~ Y s y 4 ",
"4 e u m W &.2.0.-.$.V u y y 1 u J ' V Y R U *.&.*.-.-.=.-.*.Q R Z V s u 1 , , e > . . > > > > > r { { ' f ] f u p n B B Z Z Y Q W W Y Q E Q Q R m x p u u f W ~ ~ R V y , ",
"4 e u V W =.2.0.-.$.s i u y 1 y f f m Y R I &.&.*.-.1.1.=.&.W R Z V a 5 , , , 5 X     . > > > X w t ' f i s s s s V B B A Y R R R W W E R W Y Y n x p i u s W *.&.R V y > ",
"4 y u V W =.2.8.1.$.V i u y y f ' V n R R R *.*.*.*.-.1.&.$.$.W I f e > > 5 1 , >     . > 5 > O X > a u 0 0 x b p b B A Y Y Y Y R W W Q R R I R B m p 0 i V W ~ *.Y V 7 , ",
"4 y u m $.-.2.8.1.W V s ]  .' d s b B R W W ,.>.*.&.=.1.-.$.&.W I a e w > > , , 4     . > , > X . > a 0 0 p x p x n B A Y Y R Q Q Q Q Q Q R I R B x 0 9 s ' %.&.&.W b 7 5 ",
"5 a f Z Q 1.8.8.1.W Z U  .@. .' p c m R R W *.*.&.*.=.-.1.=.=.&.R f r w 4 > , , >     . > > O X X > y i p p b p x n n n A Y Y W W Q Q Q Q Q R R B z 2 9 J O.D.3.4.&.b y r ",
"5 d f I Q 1.0.0.2.W Z V ' ' f s x n A R W W *.*.*.-.1.1.1.:.=.&.U d r e , 4 e > .     X > 4 w 4 > > , u p x b x n n n B Y Y I U U W Q Q Q Q E T B z 2 3 a  .D.r.t.:.V y r ",
"4 y s I *.8.0.q.2.W n x u 3 3 0 x m A R W Q *.*.1.8.8.8.4.:.=.W f w O 4 1 1 , > > > 4 e 5 4 5 4 X . X 6 p x p p n n B S Y I I U W W Q Q W Q E T m z 3 3 u #.%.&.-.W b 7 5 ",
"> 6 i Z *.8.4.0.8.Q B z u y 3 i x m A R W W ,.*.-.-.8.4.5.=.2.U r w r e , 1 : : 5 > > > > > > > X X , u i z z z c M B S R I Y W Q Q Q Q Q Q Q R B c j 9 u Z E ~ ~ R V y 5 ",
", 6 p Z ~ 8.0.0.8.~ B x u 1 3 i x m A Q W U ,.*.-.8.8.=.%.&.4.! V s y e 4 > X X 4 > X X X . . X w a u 0 z c c c n M S T T T Q Q Q ~ Q ( Q Q Q T A c p 0 0 n E ~ ( Y n 7 , ",
", 6 s I &.8.q.q.8.*.M z 3 3 3 p z M A Q W W *.-.=.8.-.=.&.U &.W A n x i y e > X 4 > . . X > ; , 6 y 7 0 j c c c M N S T T Y R Q Q Q Q Q R Q Q E B c j 0 p Z ~ ~ ( E n 7 5 ",
", 6 s R &.8.q.q.4.W n x 3 3 3 z c M A E W W *.,.-.8.8.-.,.*.Q E A M x x i 7 1 , , , > > ; ; : 1 8 u 7 2 j z c n M N B T T Y R Q Q ( ~ ~ R E E T B c x P P ! ~ 2.9.~ m u e ",
"5 y s Y *.8.q.0.2.&.U p 2 3 3 i z M A Q Q Q *.1.1.8.7.1.1.>.Q T M n 0 s 0 1 1 < : : ; , : ; : < 1 3 2 2 2 g z c v N A Y Q Q Q Q Q ( ~ Q Q T T S N c V ) 6.6.9.6.N.2.! s y ",
"5 y x A =.2.0.0.8.Q Z z 2 2 3 i z M S E ( >.*.,.,.1.0.0.0.0.1.=.#.#.U C ' d y d e r e 5 r d a d a u y f f J #.U R W S S T T E Q E ( Q ( Q Q T B N c n ! 2.6.m.N.9.9.) H y ",
"5 7 z S *.8.q.q.8.Q Z x 2 3 i g z M ^ ( >.,.1.*.*.0.oX+XOX+XOX+X XF.|.u.|.D.{ @.[ +.o._ o.}.O.@.@.O. .D.y.}.|.|.u.u.$.B T Y Y Q Q Q ( >.W Q V m Y M n %.6.2.6.N.N.9.) H 8 ",
"6 7 m =.-.8.q.0.8.Q V z 3 i p z z S T Q >.,.,.-.*.i.4X+X+X6X;X6X6X X5X X,X.X@..Xb.>X.Xo.^..X^.%X%X.X}.%XXX,XXXXX,X+X=.N T Y I R E Q ( ( Q *.V Y Q M V %.2.2.6.6.N.9.~ s y ",
"y 7 U u.u.=.0.0.8.=.m g 2 2 i x u A T ( >.,.,.*.,.8.i.p.p.K.p.a.t.:.t.;.w.O.{ O.[ O.O._ [ [ ` O.O.O.{ O.{ w.e.;.3.:.A N ^ T Y T T / / / / *.Y T S M x s P U ! *.7.~ Y p 6 ",
"6 y Z 5.t.0.0.p.e.5.#.p 9 3 3 z z M T Q *.,.,.>.1.,.( ,.*.*.>./ N v c j p u a f e 5 e , 5 y 6 5 6 7 1 3 2 g c j j c n N T Q Q / T / / / / E T T N v p s x b U ~ ~ E M j 6 ",
"1 u n Q 8.q.p.K.u.t.w.C 2 2 0 z v N T Q Q ~ ,.,.,.,.( ( ~ >.( / N v c z 3 1 1 6 5 5 , , , , , , : < 1 < 2 g g h j c v B =.5.:.$.T T ^ / / S n A M j g j j x n W 4.*.n 2 1 ",
"d ' %.5.p.K.K.K.t.t.y.%.f f C Z $.$.*.-.=.8.8.8.0.8.-.-.1.1.,.$.E A Z V s y y 5 e a s r 4 4 4 e e y y u p b C B A A S =.u.u.u.:.=.>.>.>.>.$.&.$.R C s s f f ' w.F.u.;.J d ",
"!.!..X,X6XsXlX6X,X,X>X}.^.b.b.}.}.|.|.}.|.|.|.|.OXoXoXoXF.F.F.u.u.t.r.r.w.O. .[ [ [ [ [ [ [ [ [ o.O.O.O.w.w.r.y.y.u.u.F.|.|.|.F.F.}.|.F.F.F.D.D.y.@.o.o.+.@.^./.%X.X/././.",
"{.'.'.].{.2XhX2X].'.(.(.!.!.!.!.(.(.].].].>X].].<X2X2X2X2X2X2X>X].].].].`.`.(.(.(.(.(.(.(.(.(.(.(.(.(.(.`.`.`.`.].].`.].].`.].].`./././.!.!.!.X.X.X.X.X.X.!.!.(.(.(.(.{.cX",
"AXVXcXkX{.].'.~.~.!.X.X.- * & $ & & * = !.~.X.= - - X.X.X.X.X.X.X.X.- - - X.!.X.- - - = = * * * * * * * * * * * * & % % & & = X.- $ $ $ # # @ @ # # $ & = X.~.'.{.kXcXHXPX",
"UXUXUXLXKXVXkX{.'.~.!.v.X.= % # @ @ @ @ # $ # @ @ @ @ @ @ @ @ @ @ @ @ @ @ # # # @ @ @ @ @ @ @ @ @ + o + o o o o o o o o o o @ # @ o o o o + @ # $ = X.~.'.2XkXZXKXPXUXUXUX",
"UXUXUXUXUXUXPXAXcX2X{.'.'.(.~.X.* $ $ $ $ $ & * * * * = - - - - - X.- - X.X.X.X.X.X.- - X.- X.- - - - = = * * * * * & & & & & $ $ $ $ $ * * - !.(.'.{.hXVXKXPXUXUXUXUXUXUX",
"UXUXUXUXUXUXUXUXPXAXcXhX2X{.'.~.X.= = - - X.X.!.~.~.(.(.'.'.'.'.'.{.{.{.{.{.{.{.{.{.{.{.{.{.{.'.'.'.'.'.(.(.(.~.(.~.~.~.~.!.X.X.= = = - !.(.(.{.hXkXVXKXPXUXUXUXUXUXUXUXUX"
};
