/* XPM */
static char *_bc8048c53964b9682f43a99c6dae90f[] = {
/* columns rows colors chars-per-pixel */
"85 85 244 2 ",
"   c #010203",
".  c #0A0B0C",
"X  c #070607",
"o  c #0D0E11",
"O  c #0E1112",
"+  c #121315",
"@  c #151619",
"#  c #16191B",
"$  c #1B1B1D",
"%  c #1A1816",
"&  c #120D0D",
"*  c #2C1514",
"=  c #26251D",
"-  c #1E1F21",
";  c #1E2122",
":  c #222325",
">  c #252629",
",  c #26292A",
"<  c #2A2B2D",
"1  c #2B2825",
"2  c #2D2E31",
"3  c #282932",
"4  c #2F3133",
"5  c #2B3933",
"6  c #323335",
"7  c #353639",
"8  c #36393A",
"9  c #3A3B3D",
"0  c #393736",
"q  c #312E2C",
"w  c #20201F",
"e  c #720D07",
"r  c #4F3330",
"t  c #6F3632",
"y  c #521D17",
"u  c #3B423B",
"i  c #654D32",
"p  c #3E3E41",
"a  c #363F41",
"s  c #423D44",
"d  c #3F4142",
"f  c #3F434C",
"g  c #424344",
"h  c #454749",
"j  c #4A4B4C",
"k  c #464949",
"l  c #4D4F51",
"z  c #474E54",
"x  c #4E5253",
"c  c #525355",
"v  c #5A5B5C",
"b  c #555759",
"n  c #504E4F",
"m  c #725652",
"M  c #77674D",
"N  c #5D5E61",
"B  c #5D6263",
"V  c #626365",
"C  c #68696B",
"Z  c #767879",
"A  c #706E6F",
"S  c #616062",
"D  c #890802",
"F  c #990A02",
"G  c #871607",
"H  c #991605",
"J  c #901A14",
"K  c #A50A03",
"L  c #B70C03",
"P  c #A81608",
"I  c #B61709",
"U  c #B21B13",
"Y  c #932A16",
"T  c #A92818",
"R  c #B22D14",
"E  c #8E3028",
"W  c #B2352A",
"Q  c #C71608",
"!  c #D51709",
"~  c #C71A14",
"^  c #CD130B",
"/  c #C82617",
"(  c #D82718",
")  c #D13015",
"_  c #E52919",
"`  c #E6341C",
"'  c #F02B1B",
"]  c #C83827",
"[  c #D93727",
"{  c #D23229",
"}  c #E82C22",
"|  c #E83827",
" . c #F33928",
".. c #EC3C32",
"X. c #E01A17",
"o. c #AF7515",
"O. c #8F4A37",
"+. c #AF4737",
"@. c #B0792C",
"#. c #94611F",
"$. c #D8442A",
"%. c #C94739",
"&. c #D94A37",
"*. c #D14D32",
"=. c #E9442B",
"-. c #F6452B",
";. c #E94737",
":. c #F84936",
">. c #F8543C",
",. c #E85439",
"<. c #D95D29",
"1. c #98504A",
"2. c #B0524A",
"3. c #897453",
"4. c #B46D52",
"5. c #907370",
"6. c #B66E6B",
"7. c #D85644",
"8. c #C9564C",
"9. c #E85747",
"0. c #FB5846",
"q. c #F0584F",
"w. c #D16B53",
"e. c #FB654B",
"r. c #FD6856",
"t. c #FD7459",
"y. c #EB6F52",
"u. c #CF736C",
"i. c #FD7866",
"p. c #F0756A",
"a. c #D05B61",
"s. c #7F817D",
"d. c #BB8418",
"f. c #BA8632",
"g. c #99823F",
"h. c #CD9131",
"j. c #D4941E",
"k. c #B68D4F",
"l. c #B58E72",
"z. c #988C6B",
"x. c #CC964C",
"c. c #F08D57",
"v. c #D9AB52",
"b. c #EAB154",
"n. c #CE916D",
"m. c #FD8769",
"M. c #FD8876",
"N. c #EE8F70",
"B. c #D5AF6F",
"V. c #E7B778",
"C. c #F0AF71",
"Z. c #F3C972",
"A. c #DFC676",
"S. c #7C7D81",
"D. c #9F7D84",
"F. c #7D8284",
"G. c #868789",
"H. c #8D8E91",
"J. c #929395",
"K. c #9A9C9D",
"L. c #979799",
"P. c #918D8D",
"I. c #B19490",
"U. c #9C9EA1",
"Y. c #9DA4A5",
"T. c #A3A4A5",
"R. c #A5A6A8",
"E. c #AAABAD",
"W. c #A7A9A9",
"Q. c #ADAEB1",
"!. c #A5A9B1",
"~. c #AEB1B2",
"^. c #ADB7B8",
"/. c #B3B3B5",
"(. c #B5B6B9",
"). c #B6B9BA",
"_. c #BABBBC",
"`. c #B7B7B7",
"'. c #B2B0AB",
"]. c #A6A29A",
"[. c #CD9590",
"{. c #FD9888",
"}. c #F3948F",
"|. c #D4AE91",
" X c #F7B687",
".X c #FBA49A",
"XX c #F4AE8D",
"oX c #D1B2AE",
"OX c #FFB7AA",
"+X c #EFB2AD",
"@X c #BCC2BF",
"#X c #D9C689",
"$X c #E9C788",
"%X c #FCD788",
"&X c #F3CD93",
"*X c #FFE596",
"=X c #D3C6B3",
"-X c #FAD7A7",
";X c #FCC6B8",
":X c #F5CFB0",
">X c #FBE8B3",
",X c #BDBEC1",
"<X c #B6B8C4",
"1X c #D0BBC5",
"2X c #BEC1C2",
"3X c #BBC6C4",
"4X c #C3C4C5",
"5X c #C5C6C8",
"6X c #C7C9CA",
"7X c #CACBCC",
"8X c #C8C7C6",
"9X c #CDCED1",
"0X c #C7CBD4",
"qX c #CED1D2",
"wX c #CAD6D4",
"eX c #D3D4D4",
"rX c #D5D6D9",
"tX c #D7D8DA",
"yX c #DADBDC",
"uX c #D9D6D6",
"iX c #D4CECA",
"pX c #FCCAC6",
"aX c #FED5C9",
"sX c #FED9D6",
"dX c #EAD2CE",
"fX c #DBE0DC",
"gX c #FEE5D9",
"hX c #F8ECD1",
"jX c #DDDEE1",
"kX c #D6DCE1",
"lX c #EEDBE0",
"zX c #DEE1E3",
"xX c #E2E3E4",
"cX c #EAEBEC",
"vX c #E7E7E8",
"bX c #FFEBEA",
"nX c #FDE9E4",
"mX c #FDF5E9",
"MX c #EDEEF1",
"NX c #FDEDF3",
"BX c #EEF0F2",
"VX c #FCFDFD",
"CX c #F9F5F5",
"ZX c #ECF3EE",
/* pixels */
"j p j d , p 9 G._.6XE.j - 8 c 9 9 n 0 j Y.wX9XG.7 7 j 0 > b < $ 4 g j j 6 7 7 A T._._.Z : 6 h l 3 j b 4 v rXuX/.s 4 g j 3 h 0 1 6 4 g c 8 4 9 8 H._.7XR.k - 7 c p 9 c 7 b ",
"6   . v c <   L.CXA . j @ 9 k $ <   q 6 n Y.jXS.+ : . N : 9 v g , :   9 c g   h zX6XO 8 d $ g , 2 O   d > G.tX8X# 7 . u l > c n 8 < X . V j > X K.CXC . l # p d $ ,   9 6 ",
": h < # 6 @ v yXv X ; k p > 8 2 + , c h     rXkX2 V X . < : n 4 h $ g @ < g : T.2X$ X g j : 6 h # $ 8 N #   v VXv l g   : : c 2 9 7 p : # d + S yXc X - k p : 9 6 @ : j j ",
"x c j : : ; J.jX. g < 7 9 p $ g 3 p 7 : S . C rXX   g < q X = n 0 j c < . 7 g xXS $ 8 < h 0 : 8 < < j < k 6 . 5XZ   7 6 0   o N 8 p c k : : ; T.rXX p < 8 9 9 : 8 6 g 6 9 ",
"6 < g < @ d eXZ . c > k p > 4 6 p ; - b 1 w   /.~.X g j X r * 1 % % 0 1 X & J._.% 9 q & u % = = = : & 1 q q X r vXd $ V 4 6 8 > g o 6 9 > $ h qXA o S : k 9 , < 7 9 : $ j ",
"b < g @ X U.CXc + k x $ < v 4 8 x b , 1 u q w C wXk   r r 3.M 5.3.3.3.3.3.3.hXI.i i z.M M M z.M M M M r 3.3.M M =X'.% X   C 6 7 p 8 6 g #   E.CXx @ p x @ 7 v 2 8 c l 2 4 ",
"< . . - T.VXtXh < < < p g d + : + $ 5 4 r 0 + C tXxXl.O.l.V.v.h.h.x.b.Z.V.Z.b.v.x.x.f.h.f.x.x.h.x.h.x.h.h.x.x.B.k.l.oXv X   @ B # @ o + ; E.VXtXg , < < g 9 8 O : $ @ 6 k ",
"8 C S.tXvX5XrXA   d 6 : @ k Z 7 V A , ; h r $ j eX=X>Xk.B.Z.h.d.j.h.h.h.b.b.h.d.d.o.o.d.j.d.d.h.h.h.h.h.j.j.v.Z.Z.k.dXmXA A s.7 d 6 V F.xXxX2XeXA X 8 4 $ # j Z 7 C C < 6 ",
"6XMX(.jX).~.4XZ 9 : @ A Q.).7X4XeX4X3XZ 0 1 < C ,XL.#XB.$XV.h.o.f.@.x.x.v.v.x.@.f.f.o.@.@.h.h.@.@.x.x.f.h.h.C.*X>X$XoX'.iX8XyXrX5XyXyX/.yX_.E.,XA d - # A /.).5X4XqX2X_.Z ",
"5XjXyXJ./.(.rXv @ b (.5XBX(.Y.rX7XyXrXzXs.6 + H.vXfX#XA.*XZ.j.j.b.Z.Z.Z.*X%XZ.Z.%X%Xv.V.x.Z.Z.C.v.C.%XV.C.x.v.Z.*X X=X].'.eXoXE._.6XjXrXH.(.,XrXv o N _.7XcX,XT.eX6XjXyXxX",
"cX7X5X).`.yX5X> k 6XyXH.4X6X6X9XeXVX<XH.BX2X  g 5Xz.A.%X*Xb.d.d.h.v.Z.Z.Z.Z.Z.Z.b.b.b.Z.Z.Z.b.Z.b.Z.v.x.v.v.j.b.%XB.B.=X=XrXJ._.).eXeX6X)._.yX4X: k qXrXH.4X6X).rXeXVXE.T.",
"/.R._.yXrXrXZ . tX7X).).).7X_.).tXU.!.0X(.VXC X uX=X X%X%Xb.h.o.o.h.b.Z.Z.Z.b.v.h.h.h.h.b.b.b.b.b.c.x.h.@.@.j.b.Z.*Xx.-X=XrXyXE./.U.U.8XyX6XyXA . xX6X_./.5X4X_.).uXL.~._.",
"7X4XW.2X8X4Xg n xXE.xXT.W.8XeX(.4XeX9XY.T.uXuXq l.|.-X&Xm.<.R P ) $.,.e.e.,.$.$.) R ) ) $.=.$.) =.[ $.$.R P ] <.c.C.m.+.+XvXwXY.@XvX2XE.2X7X2Xu v xXT.xXK.W.8XeX_.6X7X7X(.",
"/.Q.E.rXBXZ   H.xXK.W.eX7XK._._.K.Q.qXE._.8XyXM y u.{.M.,.I L K L ( :.0.0.:.Q Q Q Q Q ^ ( ( ^ ! _ _ ! ! Q { ,.) $.i.m.+.n.I./.kXT._.W.E.eXBXZ   H.jXL.E.eX5XK.4X).K.`.7X).",
"_.eX5XBXT.  . E.8X4X/.5XT.J.yX_.=X`.).eX`./.uXI.4.{.N.m.,.Q L Q ^ } [ >.&.$.&.I Q ! ^ ! ! / ;./ K Q ! _ ! 0.r.I [ i.M.y.+.[.dXs.iX2X7X_.CXK.  + W.5X6X~.4XW.L.yX4X_.`.).qX",
"BXrX_.V X O + L.CX_.5X/.rXeXR.jX7X`.xX5X/.8XiXI.N.XXm.y.) Q Q ! ( Q ] m.m.c.y.R P Q Q Q L P ,.t.y.t.) Q ( ` ` ( | e.t.t.7.N.oX_.5XcXtX/.v   + % K.BX_.4X/.rXtXW.yX7X).xX_.",
"V ; 9   2 h 7 Z ~._.yX2XH.v 7 l : s b R.Y.`.oX1.&.t.r.$.( ! ( [ &.y. X-X>XN.N.XXG H T R *.H H p.-X-XC.y.$.=.` -. .( 9.m.t.J * S C h , g   6 h 8 Z Q.,XyX4XH.v 7 c : p v E.",
"8 + 7 h < 7 > G.6X_.G.<   : 9 : 2 < + $ U.cXoXE / >.t.>.! ! } I w.hX>X-X-Xn.O.;X.XE e Y XX4.G +.B.$X&X>XM.U -.:.} ( ,.t.e.W y + $ # - 6 h < 7 > G.7X4XG.:   : d ; 6 , + 7 ",
"- O @ v g :   /.yXc . b < 7 7 $ ,   < b > 5.;X2.[ e.t.,./ ( / 7.OX>X=XhX&XY 4.sXmXsXO.e l.hXXX4.n.-X:X:X;Xp.[ -. .} =.t.t.T 3.u 9 @ . $ c j $ . ).rXj . N : 6 9 + <   9 c ",
"9 j , @ 6 o C rXp   2 g 8 ; g 6 % 0 b 7 . X 6.a.[ 0.i.,./ I W {.+XhXhX:X4.4.;XmXbXVXsXoX=X:XhXhX|.|.:X:XaX:X*.=.` } =.i.t.Y r 1 0 j k $ @ 9 . A tX9   2 g 9 : 9 8 @ 9 b h ",
"l h j 2 , $ T.6X. 9 @ g j 9 @ 8 : 4 4 2 v 1 t +.;.r.i.9.) P 8.&X#X:XhXz.l.mXhXhXcXiXiX=X=XdXvXvXmX[.|.-X>X-Xy.I } ( q.i.i.Y & b < 7 j l 6 > : R.4XX k # p j 7 $ 7 $ 7 > 9 ",
"6 6 g : + j cXA . V 7 7 7 < 9 6 k $ - b 6 * y E &.t.r.;.R H C.-X-X:X|.|.mXmXmX=X8X9XfXmXmXZXZXZXmX[.4.&X>XhX XH [ ..q.M.t.8.r . j o p g $ o l MXA X V 2 9 8 7 7 7 l : $ j ",
"v : g   . _.vXk : 9 h - 9 C : 8 k n < $ d q y E 7.r.t.;.R T XX&XB.#X&XhXmXcXmXiXyXVXVXVXCXcXcXvXmXl.Y &X&X&X:Xu.&./ ,.m.e.T * b 8 p > g   o 6XxXd : 9 l ; 8 v : 7 k c < 2 ",
"@   @ j 7XVXyXj $ < < k 7 $ $ # X # $ 6 8 0 y E 7.r.i.] y. X X$X$Xl.l.mXmXCXZXmXdXdXiX8XgXmXmXhXmX+XY x.-X#X-XhXy.I ,.i.e.Y y 9 .     $ b 9XCXeXk # < , l 4 - @ $ . O : h ",
"V L.L.BXjX_.7XZ : 9 , . < C J.N L.H.c , z r r E 7.t.&.H w. Xn.V.&X@.3.mXCXMXCXmX=X=XiXz.O.n.&X>XhX>XB.x.&X&XB.&X$.L 9.i.e.%.I.b v N L.K.BXyX(.6XZ ; 9 : . < C J.v L.G.b 7 ",
"eXcX/.4X5X_.6XA 7 @ < L.yXeX5X6XeX4XeXK.a . r t &.t.y.T 4.V.B. Xv. X:XmXCXmXhXn.3.#XhXI.#.#.f.x.B.$X*X%XB.*XA.&Xc.P ] i.0.8.dXMXjXxXtX/.6X2X).4XC 6 $ , K.yXeX6X6X7X,X7XK.",
"7XvXvXJ.W.,XvXb   Z yX~.xX/.R.rX2XVXeX6XK.j * E 9.e.y. XC.n.C.V.V.$XhXhXmX-Xh.d.i g.hXoX#.o.j.j.h.Z.%XV.$X$X$X&XC.C.y.%.9.a.I.Y.(.eXcXyXJ.E.4XvXb X Z rX/.zX(.W.yX6XCXeXeX",
"xX).5XrX).jXT.+ Z xXyXK.,X9X_.2XyXkXK.U.VXuXr e &.e.&X&Xx.n.V.V. X|.=X>XhXB.j.d.#.g.:X:X#.o.j.j.v.b.Z.V.%X%X$X&Xn.C.C.y.9.8.P.wX(._.).7XeX(.tXR.o Z cXeXK._.7X).6XxXyXL.W.",
"Q.K._.rX9XeXN o yX(.4X,XE._.qX(.6X!.4X8XL.vX[.e ] i.-XB.B.B.V.V.V.-X=X>X>XB.h.d.o.k.=XhXk.#.j.h.h.Z.*X%XA.$X&X-XV.c.N.7.9.8.pXW.(.Q.U.).rX7XrXb + yX/.4X_.(.).7X(.4XW.4X6X",
"eX6XE.9XeX/.6 A xXK.yXT.(.7X5X2X^.7XeXK.`.xX;XE { 9.C. Xk.&XV.B.$X|.>X>X&XA.v.x.x.@.z.l.k.k.v.v.v.%X&X|.#X#X-X&XC.c.+.7.&.Y +X4X/.vX4XW.5XyX/.4 A BXK.yXT./.eX7X4X_.9X6XQ.",
"E.4X(.7XCXV   K.yXE.K.jX4XJ.4X_.W.E._.8X@XuX[.E ] e.w.4.V.V.B.#X&X$XA.v.A.$XV.n.n.l.3.i k.x.B.b.b.v.&X&XA.#X&X-X XY +.t.&.Y oXqXQ.,X).).rXcXv   Y.rXR.K.zX,XH.,X).R.W.4XeX",
"7XjXyXvXC   . W.7X4X5X_.T.W.jX7XjXqX2X7X/.=X[.E W &.{.n.V.B.B.&X&X>XA.k.Z.$XB.B.|.n.4.4.n.n.B.Z.C.h.$X>X&XA.-X-XV.c.y.*.%.8.iXG.zXeXyXeXvXV   + W.9X5X,X_.W.E.xX8XyXeX_.2X",
"rXR.H.4 X $ O J.BX,X(.4XyX(.G.6XT.J.tX9XW.=X[.2.p.M.-XB.B.B.B.#X&X>X-XB.&XC.C.N.u.4.4.4.w.n.N.C.C.C.#X>XV.k.V.&XV.c.M.M.M.+.5.3X~.eXW.H.< X - @ L.BX,X).4XyX(.G.7XL.K.eX6X",
"p o 6 X 8 g 8 Z Q.4XxXK.N p : 6 $ 2 7 G.'.iXI.2.p.7.C.n.V.V.B. X&X>XhX-X<.,.&.R H Y Y e G R *.*.*. X>X-X Xc.C.&XC.w.M.m.m.E & 4 8 : @ 7 . 7 g 9 Z /.6XxXK.N p > 2 $ 2 9 L.",
"g @ : b 7 9 : J.rXW.h $   7 c ; < # # o G.iXoX1.q.e.9. Xy.y.y.9. X:X:Xm.)  .! Q L I P P P I Q ! ^ e.:X-Xm.R m.C.C.C.t.,.,.+.* 7 2 - $ < c 9 7 : J.rXR.g $   7 j : : $ # + ",
"@ $ : p 9 # $ 4X).< @ V , : 9 $ w   a b X v oX1.7.9.%.+.T H P P +.u.7.] ;.( Q I / K D D U I Q ^ } ~ W 8.7.U R R ] R ] e.y.Y m 6 7 : # : g 9 + : 6XE.2 @ C < 6 7 $ -   p V ",
"l l 4 # > + Z xX$ $ 7 8 7 : 6 8 w j l 3 ,   m u.2..XpX}.J p..X+X.X2.&.r.}.OX.X2.J W +X}.J 8..Xp.W .X.Xu.T 9.OX.XR 9.OX{.7.+.r 7 9 j j 2 # < + G.jX# $ 8 7 7 : 6 7 : j p g ",
"8 9 j < > , /.R.. h . h x 2 @ 9 1 : 2 f x % r 6.2.sXbXmX2.}.bXNXbXpX{ q.sXCXbX[.e 2.NXNXe a.bXpX2.nXbXpXJ .XbXbXU i.sXOX%.8.y l 6 : 7 l < : < /.R.. h . k j 6 - 9 2 > < g ",
"h g 9 < X N VXA O v g : 6 h 6 7 j 7 - k 5 = y 1.2.aX;XgXu.}.sX[.nXgX$.&.sXCXCX|.G +.bXnXe a.bX+X1.sXmXgX2..XbXsXW M.bXOX] w.r o h : h 9 >   C VXC @ v 9 , 6 g 7 6 j 7 > d ",
"l $ 6   p xXjXp < < d > g N - 4 s s 7 ; u q r O.4.pX[.nX[.}.gXt dXgX,.&.nXVXVX+Xe 2.NXsXe 2.bX+X1.gXmXmXu.pXmXgXW {.mX;X*.+.y B , 9 , 6   h xXyX9 : 2 g < h V # 6 g 9 2 7 ",
"@ X 7 G.yXvXeXv X 2 < k $ + 8 o + 3 & 2 5 = t 1.2.aX+XbX[..XsXt dXmX%.9.bXcXNXsXG 2.NXdXt n.bXpX6.gXbXVX+XsXCXsXW .XmX;X%.%.r ; -   . p J.yXcXeXc . < 2 j $ + 7 O @ : o d ",
"H._.E.VX7X/._.G.7 9 # - k G./.J._.W.G.p j r t O.2.gXnXsX1..XgXoXNXsXW i.nXiXlXNXJ 2.NXmXbXnXmX=X1.bXnXnXbXbXnXnX+.OXgX;XW w.oXF.Z L._.W.VX6XT._.G.8 7 # - j H.Q.J.(.T.G.k ",
"9XzX/./.2X2X7XV < - b 4XVXeX(.6XwX4XxX4Xz X t 1.2.aXNXsXt .XbXCXCX[.T M.bXoX1XNXW +.mXmXaXsXgXoX1.bXsXdXCXgXdXgX2.OXpXpX%.8.dXvXyXrXeX,XW.6X4X5XN 6 $ v ,XVXeX(.7X9X6XrX5X",
"tXMXxXH.E.5XBXj X H.xXL.yX4X/.yX@XVX4X!.<XA y 2.w.pX[.NXu.}.sX5.nXbX+.M.nXI.1XNX2.E mXlXy 6.bX+X1.bXpX+XmXdXdXgX4.aXpXpX%.p.I.U./.yXcXyXJ.W.rXcXp   K.xXL.yX,X(.yX5XVX2X~.",
"qXE.6XyX).xXG.o T.MXqX/.E.eX/._.yX_.L.(.VXNXt e w.aX|.sXu..XaXE dXnX8.OXnXbXcXVX2.1.mXdXe a.NX+X1.nXOX[.NX+XdXgX6.sXNXaX8.{.z.wX/././.7XyX/.rXG.+ E.cX7XE.(.eXE._.xX_.L.).",
"~.R.U.eX7X_.v $ cXR.qX_./.(.9X(.8X`.5X5XF.jX[.t 2.;X+XsXu..XaXE aXNX4.OXNXCXNXCXu.1.bXaXJ a.NX+X1.nXOX6.NX[.pXaXu.gXnXgX7.w.dXL.,X_.K.T.7XeX5Xc - cXW.rX(.Q.).rX(.4X/.4X2X",
"qX,XQ.5XyXE.+ S.jXL.4XE.4X6X_.5XE.7XyXL.5XuXaX1.+.gXNXCX6..XaX1.sXmX6.aXnX6.[.bX}.1.bXsXe u.bX+X1.gX;X4.nX[.pXsXn.gX[.pXy.W oXzXE.yX(.(.9XeXU.+ G.xXL.,XE.7X).4X4X/.eXrX/.",
"R.7X~.jXcX9   W.rX/.U.yX_.G.7X(.K.K.wX7X/.oXoX4.+.pXbXpXE .XpX2.aXsXu.gXaXE u.gX.X2.bXsXG p.sX.X2.aXOX8.pXu.OXaX{.OX2.OXy.2.oX!./.Q.4XE.xXcX7 X W.eXQ.U.yX(.H.9X_.L.L.7XqX",
"zXMXjX5X9   @ R.7X5X7XE./.7XyXrXvXeX3X3X).oX|.2.%.q.r.7.I { ..9.q.q.9.t.r.;...[ { W %.W I ( q...[ 0.0.:.0.q.9.e.;./ { t.;.p.oXY.zXvXcXyX,X8   $ R.eX4X7XW.~.7XyXrXxXyX5X(.",
"(.A A . . < : G.yX/.5XeXqXJ.V E.C A ~.6XT.oXoX4.{ 0.| [ } Q ! :...[ $.y.0.;./ &.U K P K L ~ ^ ^ ( ! _ ..( =.-..._ Q | :.>.W m Q.Y./.A C o . 4 - H.eX(.4XrXeXJ.C R.A Z /.7X",
"6 X 6 : 9 7 < Z ).eXrXA : < : - w < $ A ~.uXoX4.%.0.>.[ I ~ ( | ..q.OXOXr.R N.;XT H F H D H K ] &.R / 9.y.y.e.| ( / [ 0.e.+.* . # X @ 9 $ 8 p 6 Z _.yXeXA > , : $ $ 2 : S.",
"9 @ + b g 7 O H.cXG.$ , + 9 j : < X : + C =XoX6.M.M.i.i.q.0.r.r.9.OX{.2.w.OXhXO.e p.{.u.{.w.w.OX;X.X{.{.{.{.i.i.t.9.i.M.t.2.r g 9 , + o V p 4 + J.cXG.# 4 o 8 j - < X > - ",
"$ < < 6 9 # 9 eXG.$ @ b 8 > 6 , # . j b   1 +X[.w.i.t.9.{ / | / {.;Xa..X;XgXgXpX;XsXOXOXsX+X.X;XOX{.r.;.] ;.0.0.;.U q.y.p.w.m : 6 6 : < < 9 @ g rXG.O $ v < < 9 : # . k S ",
"b c 7 @ : + H.zX+ 6 9 8 6 < 6 d 2 g p 3 x X 5.4.8.i.t.] R U L ~ {.;XOXp..X}.u..X}.u.6.u.1.u.}.Y W I ~ | ;.=.| ../ K %.{.p.W * h p g b 9 @ > @ H.rXo 7 9 7 6 6 > 7 6 g 9 p ",
"6 : j 6 ; 6 ).H.o h O l k : $ 6 4 > < x d $ * 1.N.OXy.*.&.] ~ | [ q.&.$.,.$.] P F D 8.T e 8.%.K ~ } _  . .-.-.-.} L 7..Xp.u.r 7 p . < h 6 $ 7 _.H.X l . c h : : 7 6 > : j ",
"l 9 p :   Z VXV . b j $ 2 b 7 8 j h < 8 5 1 y 1.w.i.9.*.] P / ;.| | >.>.-.| } ( ~ U F D P K F ) _ _ '  .-.=.:.:._ ^ [ i.y.2.r ; p 9 9 g :   G.VXN + c j $ 2 c 7 8 j g < 7 ",
"h $ $   Z CXjXg : 6 2 7 h l $ < : < 8 ; 8 r r e T 0.0.&.I U { [ :.0.-.:.:.| [ / I K U P F H I / ` `  . .:.=.>.e._ ^ ` >.[ e r B # < - :   Z VXtXg : < 9 4 j j @ 4 : < 6 9 ",
"# 2 V (.xXxXrXV X 8 6 6 + , b # 6 k o ; 9 1 t E { 0.r.,.I I [ [ =.>.>.0.0.;.{ / K P H H G W &.[ ) `  . .:.;.,.=.` ! _ >.| T i < 4 O 2 V (.vXrXyXV   6 6 7 @ < c $ 6 g @ 6 ",
"/.yX).cX_.W./.G.6 < $ g Z T.4XE.6X/.T.B k 1 t E ] 0.r.[ I I / | =.;.0.0.:.;.{ U U H e G G W ;.( ! `  .-.:.:.:.-._ Q ) 0.| W pX^.T.(.eX/.MX_.T./.Z 9 < + h Z T.4XE.7X/.U.C ",
"4XrX5XT.4X_.eXv : 9 G.7XVX4XU.9X9X8XzXfXv & y e ] 0.e.;.I I ( ;.:.>.>.0.=.;./ F P D e Y G D / ( ( | -.:.-.:.-. .` / ) >.[ T +X9X9XrXeX5XT.,X_.7XV $ 9 H.qXVX5XT.7X5X7XzXzX",
"cXxXeXR.E.rXxX6 $ (.rXH.eX5X4XeX8XVX3XH.yXI.* e { 0.e.;.{ [ ( | :.0.:.0.0.;.U F U D e Y G D ~ ( ( `  . .:.:.-...( Q ] 9.[ W 5.<X_.rXcXqXR.Q.rXjX< > (.rXH.eX5X_.yX9XVX).L.",
",XY.7XyX7XxXG.+ 5XtX6X/.(.6X(._.eX~.K.4XjXbX5.e &.0.r.$.;.0.( | :.>.>.0.0.,.W D T D e G G H / ( _ `  . .-.:.:.:.| L ,.i.[ +.oX<X_.R.T.qXyX,XxXZ o eXyX,X/.(.eX(.,XrXR.E.,X",
"(._.T.4X7X2Xj 6 xXE.vX/.U.2XtX(.eX4X7X).H.lXoXE %.e.t.;./ ~ } ..:.;.0.e.0.;.W G J D e J G D U [ _ ` =.` =.-.-.:.` L ;.i...W pXU.4X9XQ.R.2X6X5Xg 9 yXE.BXR.R.,XyX).7X7X4X,X",
"4X/.E.qXvXL.  G.xXJ./.5X7X~.,X_.T.8XyXU.5XiX;XE W r.r.>.~ L ( -.>.0.0.r.r.{ D Y T H H T T e P [ _ ` -.| -.:.:.-._ ^ { r...D oXcXR.eXE.Q.qXvXH.  G.vXH.E.7X5X~._.).W.5XrX).",
"Q.eX).CXqXo . E.9X_.R.7X/.G.qX,X!.R.4XeX^.8XoXO.] 0.r.:.~ Q ( -.=.>.e.>.0.;.U P D J G G D H ( _ _  .-. .:.:.>.:.} ! | 0.[ W 1XU.2X`.6X(.VX8X. . E.eX(.R.7XE.H.eX_.R.E.4X9X",
"BXBXrXG.# X @ K.xX4X5XE.6XtX4XyXxXeXuX,X^.8X|.E / e.r.:.~ ~ ( -.:.>.r.>.=.,.[ I D D D D F U } } }  .-.-.:.:.:.:.' ^ ( >.) W oX,XjXBXcX9XG.+ . $ R.xX4X5XR.6XyX6XyXxX9XyX_.",
"G.d l   - 7 , Z _.).eXrX(.A j Z r n G./.U.oX[.E / r.r...( ~ ( -.>.>.0.0.;.;.| } ~ K F K I ~ ! } }  .-.-.>.:.:.:.' ! =.e.-.H t G.G.Z h k   $ 9 , Z _._.iXeX(.A k Z 9 b G.(.",
"4 o 9 7 < p : G.5X9X~.p   $ 6 $ : 1 & g ~.nX[.Y [ e.r.;.~ Q } -.=.>.e.e.e.=.} ( L I U P K / ( ! ( |  . .>.:.>.-._ | t.c.0.R *   + . @ 8 9 < 0 < J.4X7X(.9   $ < $ : < + b ",
"4   + v h ,   K.cXC   b $ g g $ <   1 0 d '.[.J ] e.t.;.~ Q ' -.>.>.0.q.,.[ { I K F P F H P K I / .. .:.:.:.>.-.( ) e.c.e.T i k 9 : . O v j : X U.vXS X k : 8 g @ < X < d ",
"< h > $ 9 o v tXc X - h d : 9 6 O , l h   X [.2.] r.t.| ( ! _ :.e.0.0.M.M.M.M.i.9.y.W 7.M.7.q.i.M.r.'  .>.>.=.) | :.e.m.t.W m ; 8 u 9 w : 9 + v rXc X : n 8 , 9 < o : c j ",
"b j h : $ : J.tX. p 2 9 9 8 - g > p s 3 N % m 2.&.e.r.;.Q ! _ -.0.0.e.m.{.{.i.i.y.i.y.%.p.M.r.M.M.e.|  . .:.-.=.| [ e.e.0.T y x 8 8 b k $ : : K.rX. 9 < 6 g 6 : d : k < d ",
"2 < g : $ 9 rXZ . v : k p , 7 6 p > : c 7 % y E r.r.r.;.^ ! _ :.0.0.>.>.9.&./ U R H H T F P U I I / :.-.:.:.:.:._ / ) 0...W r # g X 6 g : $ g yXA . v w j 8 , 6 6 p : : j ",
"c , p @   U.CXl @ h j $ 6 V < 7 k n , < u = t E 7.i.i.e.! ^ ' -.>.0.0.:.:.:. .! / U F U I L ^ X._ '  .:.=.:.:. .} ( | ....W r 0 g 8 6 g +   E.BXj # 7 h . : c # > 6 g 6 , ",
"< X o : Q.VXyXj : 2 : 9 h 6 . , . + 6 < 5 q t E 8.p.w.7.P K / [ &.,.;.;.;.[ ( L F F U F F K L Q ! ^ =.e.] [ =.( Q L K 9.p.e r x . . X O < E.VXuXg 4 j : 8 C j 8 j g 6 2 k ",
"9 V Z xXxX7XtXZ . 9 2 ; @ j S.4 V Z , ; k 6 y 1.+X;X+X[.6.u.u.n.n.}.N.u.N.w.8.8.2.2.2.+.+.W 8.8.a.u.}.N.N.N.u.u.a.2.4..X[.l.G.5 j 8 V G.jXxX7XeXv : rXcXCXrXrXCXBXCX).@ < ",
"6XvX(.rX,X~.,XA 9 - $ Z Q._.7X4XqX2X2XG.8 - q A oXdX=XoXoXI.oX+XoX|.|.:X:X+X|.+X+X[.[.[.|.|.[.[.oX|.[.+X[.5.5.5.I.I.I.I.oXoXyXqX4XyXjXQ.yX`.Q._.v g yXVXVXyX).cXCXVXcX/.F.",
",XjXxXG.Q._.yXN o v /.7XcX(.U.qX5XxXuXvXS.6 & P.xX8X=X5.iXoXL.5.K.].8XP.5.].oX5.r r 5.5.A 5.P.I.W.oXiXoXI.*   = 8X=XiXz.E.iX(.Q._.6XyXuXH.(.).yXg 6 4XVXVXuX_.xXVXVXMX_.cX",
"BX7X,X2X2XyX,X: l eXyXH.2X5X,XqXrXVX`.P.CX7X  g 2XF.xXeXeX_.U.9X(.MX5X7X3X~.cXS.X G.cXL.H.tX6X2XzXzXxXH.rXBXb   (.K.E.cX5XyXH.,X_.9X7X7X)./.jX2X$ c vXVXVXuX_.CXVXVXCXT.K.",
"/.J.,XjX7XeXZ X 9X5X_.)._.7X_.(.eXK.R.9X~.CXC X zXeX9XxXW.yX5XT.(.W.K.jXxX)._.: C zX4X_.(.eX8XE.6X5XJ.`._.xX0XX S.MX).vX).uXuXW.(.T.L.4XuXeXyXC . 8XxXVXVX4XrXVXVXVX7XR.5X",
"6X4XE.,XeX_.g v vXT.cXT.U.9XrX_.4X7X6XT.W.rXjX, H.cXG.G.xXuX_./.rX(.`.`.eX7XG.: 2X~.5XjXG.4XeX=X4XeX2X).E.Q.VXS.8 tX(.Z /.vXrXR._.yX4XR.8X7X).g N yX7XCXVXyXCXCXVXVXcX(.).",
"(./.~.5XcXG.  H.yXL.R.rX8XL.,X_.R.).6XT.4X7XrXC   qXVX).eXZ 9X7X(./.E.5XeXeX@ 6 7XE.K.4XrX(.T.)./.Q._.4X(.4XeX(.o V VX6XqXP.W.yXW.,XE./.5XMXZ   H.7XeXCXVX9XcXVXVXVXcX2X_.",
"_.rX5XCXK.  . E.6X_._.5XW.L.rX,X_._._.9X(.(.jXG.: 7 Z VXcXyXT.R.5X5X9XyXrXg   V _._.eX_.(.S.,XxX)._.).eX(.(.yX(.j $ j uXVX5XeXZ qX2X9X6XVXJ.  . Q._.7XVXVXxXVXVXVXVXBX(.4X",
"MXqX(.v X X @ L.BX4X_.W.uXuXR.yX7X).xX6X/.,XxXT.# #   C 5X4X).5XeXCX7XS.:   @ v 7XyXeXW._.xXQ.rXxXL.vXxXW.).yXrXk :   : R.7X(._.5XBXrXE.b . O + T.vX2X/.yXCX9X2XyX(.(.xX4X",
"b : 9   4 n 0 Z W.`.yX5XJ.v 9 j : p b T.W.E.4XL.2 V p + 6 @ 8 v C 2 7 @ + 9 p V J.E.eX4XR.G.8 g 9 - v G.R.E.).5X9 h c $ : $ + V V j > 8   6 h g Z W.4XrXE.G.l 4 h : 8 v T.",
"g ; h h 0 9 : H.4X(.G.4 . < j 6 7 4 : 8 L.6X6XG.> : g j < v , o # < 9 c 7 7 6 V /._.K.C o $ g 9 : 8 6 - j 6XuXE.8 , 7 c 7 9 d $ $ : 6 h g 9 7 , J.4X~.G.6 . : j < 7 9 > p "
};
