/* XPM */
static char *result[] = {
/* columns rows colors chars-per-pixel */
"85 85 248 2 ",
"   c #343434",
".  c #3C3C3C",
"X  c #56120B",
"o  c #760907",
"O  c #6C180A",
"+  c #771609",
"@  c #7A1B15",
"#  c #794C20",
"$  c #3B4D4F",
"%  c #454545",
"&  c #4C4C4C",
"*  c #545454",
"=  c #5C5C5C",
"-  c #785652",
";  c #5B6E70",
":  c #646464",
">  c #676868",
",  c #6C6C6C",
"<  c #66787A",
"1  c #737373",
"2  c #7B7B7B",
"3  c #860301",
"4  c #940301",
"5  c #9A0700",
"6  c #881408",
"7  c #981608",
"8  c #8E1B13",
"9  c #A80803",
"0  c #B90504",
"q  c #AB1A0F",
"w  c #B7190A",
"e  c #A61A13",
"r  c #B71916",
"t  c #862519",
"y  c #972411",
"u  c #AB2D0C",
"i  c #A72517",
"p  c #B6231B",
"a  c #BC2519",
"s  c #BB351E",
"d  c #B31A21",
"f  c #9A3529",
"g  c #98342E",
"h  c #AA2923",
"j  c #AA3425",
"k  c #AD302C",
"l  c #BB3528",
"z  c #B43E3A",
"x  c #C60504",
"c  c #D80301",
"v  c #C51306",
"b  c #C91915",
"n  c #E51C0A",
"m  c #CA2C15",
"M  c #C42819",
"N  c #D52916",
"B  c #D6361C",
"V  c #E83118",
"C  c #CC2A22",
"Z  c #D52F21",
"A  c #C93726",
"S  c #D73929",
"D  c #C93C36",
"F  c #D83B33",
"G  c #E23731",
"H  c #894A00",
"J  c #B24E12",
"K  c #9D6600",
"L  c #AB7604",
"P  c #AF760B",
"I  c #97442B",
"U  c #AF4E39",
"Y  c #BD4835",
"T  c #96712E",
"R  c #B5673F",
"E  c #C75A16",
"W  c #C9472C",
"Q  c #D8442A",
"!  c #CE592A",
"~  c #CA4636",
"^  c #D74936",
"/  c #C95337",
"(  c #D75339",
")  c #DB523B",
"_  c #E34B37",
"`  c #F44935",
"'  c #E3553E",
"]  c #D46B39",
"[  c #8D5550",
"{  c #AF514F",
"}  c #8F6857",
"|  c #B46951",
" . c #B56458",
".. c #8A6965",
"X. c #986865",
"o. c #9A7A79",
"O. c #AF6F6B",
"+. c #B87A79",
"@. c #CE4E4E",
"#. c #D74A46",
"$. c #CC5745",
"%. c #D95745",
"&. c #C85953",
"*. c #E55746",
"=. c #EA5043",
"-. c #D9624A",
";. c #C96657",
":. c #D86857",
">. c #D07655",
",. c #E3624B",
"<. c #ED6E4F",
"1. c #E76855",
"2. c #E8765C",
"3. c #F3785A",
"4. c #CD6D6B",
"5. c #C9786C",
"6. c #D87566",
"7. c #E87B66",
"8. c #EB7468",
"9. c #BA8113",
"0. c #B98E35",
"q. c #C88805",
"w. c #CEA713",
"e. c #C19323",
"r. c #D5A532",
"t. c #AC8849",
"y. c #BB9857",
"u. c #9E8E6B",
"i. c #B38E71",
"p. c #B8AA75",
"a. c #CC9257",
"s. c #E38A53",
"d. c #CCAF4E",
"f. c #CC8E6F",
"g. c #D88369",
"h. c #C59B64",
"j. c #DA8778",
"k. c #EA8D73",
"l. c #C6A466",
"z. c #D7AA65",
"x. c #CDBC69",
"c. c #CAAB79",
"v. c #D6A878",
"b. c #CAB578",
"n. c #D6B877",
"m. c #EFB569",
"M. c #DCC553",
"N. c #DBC575",
"B. c #D5CC72",
"V. c #E7CF79",
"C. c #E3D97E",
"Z. c #F17C89",
"A. c #738789",
"S. c #838383",
"D. c #8B8B8B",
"F. c #88999B",
"G. c #939393",
"H. c #9B9B9B",
"J. c #A88786",
"K. c #B78484",
"L. c #B29592",
"P. c #BA9899",
"I. c #BAB08F",
"U. c #98A8AA",
"Y. c #A3A3A3",
"T. c #A6A6A6",
"R. c #ABABAB",
"E. c #B6A8A6",
"W. c #A9B6B6",
"Q. c #B4B4B4",
"!. c #B6B9BB",
"~. c #BCBCBC",
"^. c #C78885",
"/. c #D98A87",
"(. c #CD928D",
"). c #DB9587",
"_. c #C79796",
"`. c #D79896",
"'. c #E48B85",
"]. c #E89D87",
"[. c #F0968E",
"{. c #D9B788",
"}. c #D1AB93",
"|. c #E9AF92",
" X c #DA98A4",
".X c #D8ABA3",
"XX c #D2ADAB",
"oX c #C7B8B8",
"OX c #D8B7B4",
"+X c #E4AEA7",
"@X c #E7BBB0",
"#X c #BAC2BF",
"$X c #DCC885",
"%X c #D7CF8E",
"&X c #DBC996",
"*X c #E4C988",
"=X c #E6CD90",
"-X c #E6D598",
";X c #EBE694",
":X c #D6CBB3",
">X c #F1CEAF",
",X c #E6D9A7",
"<X c #E6C5BC",
"1X c #DCE8AD",
"2X c #ECE5B5",
"3X c #B8BEC2",
"4X c #CDBCC2",
"5X c #BCC3C6",
"6X c #B9D3D5",
"7X c #C3C3C3",
"8X c #C6C6C8",
"9X c #CBCBCB",
"0X c #D3C9CB",
"qX c #D7D5C7",
"wX c #C4CBD6",
"eX c #CACED2",
"rX c #C7D7D8",
"tX c #D3D3D4",
"yX c #D6D9DB",
"uX c #DCDCDC",
"iX c #E8CAC8",
"pX c #FAC9CA",
"aX c #E9D9C7",
"sX c #E7DCD9",
"dX c #F4DADA",
"fX c #DEEAD4",
"gX c #ECEBCE",
"hX c #F6F8C7",
"jX c #F5E5DC",
"kX c #CCDFE1",
"lX c #D6DBE4",
"zX c #E6DCE5",
"xX c #CAE2E3",
"cX c #D6E7E8",
"vX c #DCF2F8",
"bX c #E3E3E3",
"nX c #E5E7E9",
"mX c #EBEBEB",
"MX c #F7E8E6",
"NX c #E7F5EF",
"BX c #F4FBE8",
"VX c #E8EDF1",
"CX c #F5EAF1",
"ZX c #EAF7F6",
"AX c #F3F3F3",
"SX c #FAF9F6",
"DX c #F4FEFE",
"FX c #FCFDFD",
/* pixels */
"2 G., : : 1 A.: 1 G.H.G.o.1 D.D.D.1 1 1 , 2 o.= < , 2 2 2 1 2 2 1 2 , S.D.H.S.2 S.: G.Q.G.2 S.T.: % % 1 D.% : Y.S.D.H.1 D.D.% S.2 = : G.D., = : : H.eXH.G.D.S.2 = : Y.H.S.",
"2 T.H.: 1 1 G.R.o.: . 1 A.G.D., D.: = & 2 2 T.H.U.D.G.H.2 S.Y.Y.H.G.Y.T.: , T.S.* 2 S.D.Y.H.T.G.S.1 2 H.D.H.Y.S., , T.D.1 2 2 !.G.= : D.H.. & = 1 G.S., 1 H.H.R.G.G.2 > Y.",
"> R.D.1 < 2 , S.= * 2 2 = : 2 G.Y.D.2 2 D.1 H.2 1 D.D.2 S.9XT.2 H.D.G.G., , S.H.1 S.2 G.1 G.G.* 2 T.T.1 : T.D.1 S., D.Y.D.D.D.1 R.S.: H.R.2 1 2 H.Y.S.D., 1 = , H.2 * G.S.",
"G.T.H., & o., 1 A.> 1 > 1 D.D.G.S.> T.Y.: * 1 S.: 2 > , G.1 H.S.D.H.D.2 2 S., 1 T.1 1 S.1 1 1 G.: 1 D.1 D.> Y.H., D.S.H.D., > 1 : R.Q.2 2 G.D.H.7XS.= D.D.* * = > S.G.S.* ",
"D.: S.T.2 2 S., 1 2 S.S.D.R.G.* : = S.G.1 , = H.H.1 1 H.G.1 H.D.* : * o.2 , : = G.S.S.1 D.H., A.= D.2 : 1 D.T.Y.Y.: A.o.= > 1 : 1 Y.R.1 1 1 : , G.= * > G.& * & G.8X1 = 1 ",
"1 2 % D.yXH.1 H.Q.2 G.D., 2 S.* = : D.G.& 1 1 G.T.2 ~.D.* 2 1 H.S.2 U.7XQ.7X#X7X9XtX9X8XtXwX:XQ.R.8XQ.G.S.T.1 : S.D.R.G.1 G.2 1 H.: , Y.S., : Q.2 * 1 * D.> % S.G.1 , , 1 ",
"1 = 1 D.S.D.H.G.5XS., = 1 G.Y.2 % : G.H.D.1 S.G., * 2 G., H.Q.tXnXuXyXmXSXSXAXnX~.yXAXbX3X9XmXSXmX~.yXsXtX9XR.T.: H.H.1 D.2 R.H.* , & S.H., 1 H.G.= S.S.H.R.Y.yX2 2 2 1 > ",
"T.: D.G., 1 D.* , G.G.D.G., * H.S.D.1 : 2 D.Y.: = S.Y.0XbXAX9XuXFXnXQ.bXAXbXmXbX~.tXmXbXoX9XtXbX~.~.uXuX!.tXmXmXuXeXQ.2 & . S.S.= = . S.1 % > > G.H.D.D.1 Y.1 2 H.T.R.D.G.",
"Y.D.: G., D.2 , S., > T.2 > 1 : T., 1 S., & 2 D.Q.tXmXAXFXnXQ.SXSXAX8X9XmXbXFXyXQ.AXbXR.8XsX7XQ.7XmXnXyX~.9XnXuX9X~.bXnXQ.D., : : H.G.Q.1 = D.1 , G.2 : = D.>   % 1 G.: 1 ",
": D.Y., 1 S.D.1 , 1 1 S.1 , 1 : S.R.= % : G.9XSXFX8XyXFXFX8X~.mXSXFXuX~.FXSXAX8X9XAX~.~.uXmXuX~.uXmXuXSXuX7XmXbXtX~.SXnXzXmX8X~.D.A.D., Y.S., , 2 2 2 D.2 S.S.* > 1 S.* 1 ",
"> 2 !.* 1 H.R.1 = > 2 R.G.T.Y.S.D.2 2 S.R.AXFXAXAX8X7XFX9XQ.9X3X7XeXtX7X8X~.7X7XnX9XR.nXAXmX9X~.8X8XyXtXQ.8X9X0X~.~.yXcXAXtXQ.bX7Xu.* = S.R., 2 R.R., : 2 2 u.2 > 1 R.G.D.",
": & Y.R.S.D.D.Y.S.1 G.H.u.S.S.% = > 9XSXtXtXtXQ.Q.tX0X~.~.uXAXsX9X9X7X9X8X9X8X9XuXR.uXbXbXuX!.#XtX9XoX!.uXmX~.3X~.9X:X3XtXQ.8XuXtXyXQ.G.: : H.R.D.2 G.2 : > G.Y.S.G.S.D.H.",
"1 D.Y.Q.2 u.A.2 H.T., * * : G.G.7XnXmXuXyXQ.oXbXAXFXAXQ.nXFXmXmXAXFX0X7XVXAXuX9X:X3XtX9X9X~.~.sXSXuX#XsXAXmX:XyXmXuXmXtXQ.7XnXmXuX9X9XbX8XD.T.G.= & < R.D.D.S.1 H.S.1 & = ",
"S.S.> D.D.: 1 * & , : D.F.W.nXlXtXbXAXmXyXQ.VXFXFXSXtXQ.yXmXbXmXAXnX~.7XmXnXbX0XQ.tXeX8X7X9XtXmXmX9X~.yXbXuX3XeXmXbXbX8XQ.mXuXsXmXbX7XmXnXVXsXQ.G.G.= S.A.  % & o.2 , : 1 ",
": 2 S.S.H., S.G.Y.oX3XbXSXAXCX0X~.AXmXSXtX#XmXFXFX7XR.yX7X9XuXtX~.3X7X5XmXuXmX9XR.AXAXsXyX7XuXnXbXtX7XtXuXbX~.9XmXuXmX~.Q.uXbXmXFXnXoXmXAXSX7X7XSXnXeX0XR.G.2 = D.D.& = : ",
"Q.oX3X3XtXyX!.nXFXFXbXQ.~.7X~.!.#X8XuXbXoX!.9XmX9XQ.uXFXuX~.7X~.:XZX0XQ.nXmXuX7X5XuXbXnXnX7X8XbXyXuX~.8XAXFX~.~.bXbX8X~.tX!.tXuXtX8X3XyX9X~.Q.tXFXCXlX8XuXFXCX!.3XeX!.Q.Q.",
"tXyXAXmXtX:XW.8XFXFX!.7XtXuXyXR.tX8X8XQ.oXyX9XQ.3XnXVXFXyXQ.bXmXVXCX7X3X8XFX8XQ.tX3X8XtXnX8X7XeXuXFXeX7XtX9X7X~.~.8XQ.uXAXnX~.Q.Q.!.:X8X8X8XeX8X9X:XW.8X8XuX9XW.9X8XyXAXSX",
"tX~.yX~.T.eXnX3X8X~.~.FXFXFX3X:XFXFX7X~.AXnXmXyX:XAXFXAX~.~.nXnXDXwX3XnXyXeX3XlXZXnXwX3X5XeXeXcXZXeXeXwXwX~.~.uXuXQ.yXmXmXmX!.sXmXnX3XtXAXnXAXsXQ.9XtXVXuXQ.:XnXAX8X~.CXCX",
"Q.3X8XoXuXmXnXbXtXQ.lXlX7X7X~.mXAXFX9X~.AXAXAXAXQ.tXFX8XoX8X8XnXc.h.c.h.y.h.*X=X{.h.y.y.y.y.y.h.a.t.y.l.p.0XeXnXSX!.uXAXSX9XQ.mXnXbX8X9XAXmXVXmX~.lXVXAXmX5XSXmXSXuX~.nXSX",
"0XmXuX8XuXlXzXSXuXQ.7X:X7X~.mXFXFXFX~.!.AXAXSXFXbX~.bX!.AXAX3XcX0.r.r.L L e.r.r.L K K L L L P 9.9.q.r.-Xl.yXVXlXtXoX9XmXAX~.8XmXmXAX9X~.9XuXtXuXQ.tXmX0XoX!.bXmXFXsXW.tXzX",
"SXAXbX9XoX~.8X7XoXtXmXFXtXQ.uXtX:X~.~.8XtX9X8XyX9X~.Q.9XSXFXyXQ.=X>Xw.0.}.b.N.V.n.b.c.y.c.b.h.{.}.a.M.hXV.0XnXnX8X!.:X8X~.#XtX~.tX9X~.9X9X7X3X:X9X8X7XQ.8XeX7X8XtX#X9X7XQ.",
"yXuXuX9X9XAXyX9X8XmXFXyXQ.8X!.7XwXyXAXnXQ.9X5X:XoXcX9X9XmXuX6XI.;X2Xw.0.x.C.C.;XC.B.B.B.V.C.C.B.d.y.r.*XM.b.cXeX~.8XlX#X9XuXbXbX7X~.9XuXbXbXuXbXVX:X~.AXFXFXbXR.Q.yXAXmXnX",
"~.#X9XQ.8XuXAXuX!.9X8XQ.tXmX:XwXVXSXnXoX7XAXAXVX7XVXFX9X:X5XoXv.>Xs.J u E <.k.] ! s J ! ] ! ] E K u J s.m.<.E.5XyXAXmXoXbXnXuXFXuXQ.9X~.5X0XtXtXlX!.Q.0X9X9X7XyXtX8XmXSXDX",
"mX9XR.9X9X~.8XQ.9X~.Q.mXAXmXuX~.tX8X~.~.~.yXFXVXQ.7XmXtX!.vX+X>.[.F 4 4 r G G C 0 9 9 r r b 0 0 c k { r 8.1. .vXFXFXtXQ.yXuX9XQ.Q.7X8X!.~.~.7X8X7X9X8X~.8XQ.~.FXSX7X7XAX7X",
"AXtX~.bXuX9XQ.tXAXmX7X8XmXbXbX8XY.7XbXbXuX8XtX:X5X0X8X8XyX7Xg.k.:.m 7 w w $.j.f.j 5 e 9 9 | >.~ 0 A ~ M ,.k.) }.NXlXoX7X8X7X7X7XtX0X#XbXsXbXmXQ.~.9XbXmXnXuX~.AXFXFX9X~.~.",
"bX~.8XbXVXAX~.nXFXFX7XQ.8XnXnX~.~.lXnXsXFX9XT.8XVXVXAXuXcX_.M 3.*.w p p g.,X2Xf.y.I 3 U i 7 -X1Xv.B N Q A 2.` O.6XQ.9XmXAX9XtXmXbXtXQ.yXAXcX!.!.bX#X7XmXmXbX!.AXFXFXuXT.uX",
"8X~.9XuXuX0XtXnXSXtX~.mX9X9X9X~.yXuXmXFX9XQ.uX8XyXnXFXbXkX_.v <.-.p v &.hXBX=Xu aXNXg } ,X;.a.1XBXf.Z F a -.Q /.xX~.nXnXmX7X7XFXnXAX9X~.8XoXQ.uXAXbXQ.uXmXtX9XbXuXtXtX7X8X",
"H.G.2 S.G.G.Y.!.Q.7XtXnXnXeXQ.9X8X7X8X8X~.bXSXuX~.8X9X7XkX_.m 3.-.w j ,XhX,XO.+XSXDXqXE.fXBX{.|.gXhX-.v A :.( ].xXQ.nXmXuXQ.R.tXAXbX~.yXuX8X9XuXtXtX9X9X~.R.D.G.~.1 1 2 > ",
"D.D.= = 1 D., S.1 D.R.F.R.8XtXnXuXuXtX3XlXnXSXFX:XeXuXnXcX+.a 3.%.5  .gX1Xv.iXFXqX:XcXBXCXZXBX>.&XhXv.9 A 7.,.O.rXtX8XuX#XQ.9X!.7XQ.9XAXzXeXtXwXR.G.S.2 2 D.S.: = H.= * S.",
"D.S.> 1 S.1 G.G.1 1 o.> * 2 G.!.uXnXtXR.tXmXbX8X7XnXmXAXDXJ.b k.%.U }.,Xh.<XFXBXsXdXMXFXFXDXSXU >.1X2X5.a <.) O.ZXmX9XQ.7XbXmXbXyXQ.9XbX7XQ.D.H.Y.: : 2 > 1 o.< % > R.G.2 ",
"2 u.; S., : G.S.2 D.G.G., o.: D.H.D.:XeX8X8X#X8X8XtXAXnXFX_.p 2.d f.%XN.| }.FXDXFXqX:Xu.p.aXBX).y.-X2Xv.9 1.^ (.DXFXnXQ.7XuXAXAX0XtX~.H.Y., % , S.F.S.1 S.Q.: * : & H.S.& ",
"* T.G.= * 1 , * > , 1 R.S.A.D.D.* % 2 T.0XtXbXFXnX!.yXFXDXJ.j 1.@.y.z.z.c.jXFXgX0.T lXu.H q.d.2X%XV.*Xv.U %.^ (.cXeX3XW.:X8XtXuX7XG.: % Y.G., Y.2 u.1 , H.H.G.1 * : , R., ",
"S.G.D.H.D.Y.H.1 G.D.1 D.H.D.S.Y.S.2 , & D.8X9XbXAXbX8X9X6XJ.b k.-Xz.b.N.$X2XZXd.K # kXE.H q.r.V.=XN.=X$X{.g.A i.5XQ.tXyX8XtX0XH.Y.: & G.2 D.> D.T.> D.R.2 : 2 H.D.S.G.R.Y.",
"G.2 , Y.H.S.Y.G.D.D.1 = 2 H.G.S.H.2 D.R.S.2 D.H.tXnXtXR.ZX}.9 [.*Xh.}.x.$XgXjXr.9.T I.}.T e.r.,X=XV.,X*Xh.>.m `.vXW.uXyX7XH.2 > = Y.H., , S.> G.S., 2 D., D.S.D.3X1 D.* S.",
"> 1 2 D.2 1 2 G., 1 1 S.= S.G.& , = 1 D.S.D.2 : > R.~.yXFXL.6 %.y.}.}.{.-XB.N.B.p.i.} T l.b.z.N.-X=X,X&XR Y s ^.ZX8XR.T.: . % , , D.S.* D.G., 2 1 2 : 1 , D.2 D.S.* = D.G.",
"* * 2 2 > 1 > G.: 1 , : 1 R.Y.2 = u.1 1 H.1 1 2 > 2 > S.U.X.k ).{.f.x.-XgXr.M.,X$XL.u.u.I.%XM.d.aXx.$X&Xf.g./ X.U.D.= Y.S.& * 1 * D.R.* 1 S.D.D.* 1 : S.S.1 , D.o.2 < H.S.",
": * S.G., 1 : 1 1 1 1 > T.1 : R.A.* & > H.: > , o.G.: = $ - :.].n.B.x.%XBXBXs.' Y f I I I / #.gXBXh.x.;Xz.k.-...; 1 H.D.2 D.G.> 1 S.S.H.2 2 S.Q.2 * , G.G.* 2 H.= 2 1 D.= ",
"1 = 2 H.2 , = S.D.* = H.H.= * * H.2 > D.R.D.: 1 U.!.S.D.F...D B ! U v Z .X].n c 0 7 o 3 9 0 c #.v.@.m <.] S S ..F.T.> : 1 2 G.H.G.: & H.D.> = , Q.1 * 2 D.& 2 D.> = , Q.D.",
"2 * H.D.1 , * H.3X2 G.D.> 1 > , = H.G.2 , D.R.D.: S.G.1 D...F +Xj.d 4.'.$.C 7.`.D 6 o.{ k j.#.8.) w Z._ D ].=.[ < D.: 2 S.1 : 2 1 S.S.D.G.= , 1 1 R.2 % R.H.H.D.* 2 D.= 2 ",
"H.G.D.H.D.S.S.G.T.R.S.= > : : , 2 D.: 1 S.= D.: * = G.S.; ..%.FXNXK.AXDXsXb pXFX`.3 FX(. .FX5.FX<X_ FX'.6.FX` } < 2 , 1 2 S.S.S.S.S.2 2 S.= 1 , % 1 8X2 D.H.1 G.G.D.* = = ",
"G.S.& : R.R.1 = , 1 = 2 1 1 1 , H.S.1 S.2 S.> , > & : H.< - :.+XoXOX).6.SXB <XFX.X3 SXO.g FX5.ZXpX'.SXj.'.FX_ [ ; D.S.* S.2 S.Q.1 : : u.F.2 2 & : 3XT.> = : 1 , Y.* % > 1 ",
"2 * 1 > 2 D., , > D.S.1 , D.* 1 G.= 2 S.: 1 1 % : , % 1 F.# *.dXiX(..X+XdXS dXFX<X7 cXqXOXCX/.MXCXMXFX'.).SX` [ < H.R.F.> S.D.S.H.S.: > W.G.& S.G.1 2 = 1 1 * : G.: : , = ",
"> 1 S.S.o.S.1 D.2 H.D.= > > , Y.G.D.2 S.S.D.R.2 : H.G.& F.K.#.CXiX;.nXDX.XG dX0XuXh 0XSXNXsX4.dXmXDXSX|./.dX-.} F.2 2 S.H.G.> * 1 S.Y.G.1 S.H.S.*   H.Y.* : S.2 2 H.D.1 1 ",
"H.S.= : A.D.> S.= S.G., D.Q.H.= , D., S.H.> , G., 1 D.D.U.K.:.OXoX.X X/.dX1.mXzXmXU MX5.{ SX:.zXiXMXMX@X.XCX2.O.< D.D.% 2 2 1 2 > : T.S.* % G.> = G.H.D.D.H.D.: * > T.Y.2 ",
"S.Y.D.S.D.Q.S.: D.G.H.H.S.G.D.: : : 1 S., : : 1 = * = : < [ $.pXOXXX|.4.MXj.FXDXFX{ cX5.{ SX5.dX+XpXiX@XpXFX7.[ A.S., : o., , 2 , D.D.: < = 2 oXH.G.= & S.G.* 1 2 = S.G.: ",
"1 1 T.1 1 S.Y.D.Y.1 S.S.* , Y.D.= , 1 H.D.: : 2 : : , : U.o.~ FXmX^.OX/.CX>XAX%.FXP.ZX^. .FXf.SX+X`.iXSX).XXk.[ A.1 : 2 F.2 : 2 , D., , 2 o.A.zXR.* 1 1 > 1 1 : 2 2 1 D.= ",
"1 D., 1 2 1 Y.G.2 1 G.S., S.1 H.1 * : H.S.> 1 1 : : & A.U.o.F k.;.h @.*.1.*.k.n @.U { k k :.F 1.%.*.1.8.A $.*.+.A., : > D.H.* 1 D.D.* S.2 G.D., R.Q., = 2 S.> 1 , * H.9XS.",
"D.R.2 S.1 > H.H.1 S.2 , > , & D.Q., 1 Q.S.* 1 Y.: & 2 H.; ..G G N x v n G '.` S #.9 3 3 9 0 x c V _ G n v V B o.W.G.S.2 G.!.D.G.H.Y.1 & 1 G.: S.S.Q.R.1 * S., = 1 G.R.Y.S.",
", G.Y.> 1 : S.G.G.3XH.* 1 S.G.G.> , > 2 H.D.1 S.2 D.G.> 2 , :.7.:.z #.#.).+X'.aXXX{ +.f.O.(.aX'.8.f.6.%.z :.1...A.Q.H.G.1 G.G.S.: 1 H.D.D.: , H.D.= , H.H.S.& 2 Y.2 , D.= ",
", > G.Y.1 S.4XR.Y.H.R.T.D.G.H.D.= 1 1 = 2 W.1 = : G.2 % < ..$.k.$.h f @.aX6.@XMXXX4XoX_.oXXX'.;.l ~ #.#.i ;.7.O.F., , D.2 D.D.2 2 * * Q.D.: D.1 , D.= = T.~.D.D.1 : : S., ",
"1 1 2 ~.S.G.H.> 1 , > G., = . D.S., 1 2 2 2 S.S.& = R.T.kX_.;.].~ g e A 7.:.^ ~ a i f 6 h h 0 v A Q F B 9 g.>._.vXT.H.D.= , G.u.1 2 = o.: 1 , , 2 S.2 1 & Y.Y.: 1 > 1 2 = ",
"2 1 2 G.> = 1 : 2 = 2 G.> > * D.2 = 2 D.G., > 1 H.9XnXCXcXP.j 1.$.e d ~ Z ^ F s d 7 6 + 3 5 A B S Q $.~ w %.l +.AXSXuX5XH.G., ; F.2 2 T.D.1 * = S.1 = 1 S.H.= 2 1 = S.2 = ",
"S.> D.2 1 > Y.S.: 1 Y.G.S.A.2 : H.S.G.G.S., R.yXzX8X9X9XcXJ.9 ,.( 7 h Y %.*.*.D p 8 8 + f Y s A Q ^ %.D w Q w K.FXFX8XtXAXlXR.1 = A.H., D.D.S.< D.Y., 2 H.H.D.S.: = !.G.& ",
"S.D.~.D.H.2 S.T.2 H., & = o.D.G.F.u.: Y.7X9XmX9XQ.7X7X~.yXJ.e *.( 7 i ~ ) %.%.W 8 6 X @ f l p A ^ ( ! S u W M +.FXmXQ.cXDXAXFXuXR.H.% = = : H.u., 1 Y.R., = D.G.D.D.H.G.G.",
"S.G.H.H.S.S.= 2 R.: : 2 , & = D.% * D.8XCX9X~.Q.3XcXsXtXrXJ.q <.~ z k A ^ %.%.l @ @ X @ + r M S ~ ^ ^ A p $.M O.cX9X~.oX8X0XuX7XbX0XH.2 : = 2 > : % 2 H.: 2 , % ~.G.& , D.",
"1 > 2 2 = 2 D.& 2 G.1 = : & D.H.R.9XmXbXmXuX~.9XCXbXyX8XxXP.a <.$.z l F %.*.1.z t 8 X O @ p A A W ~ ' S e ;.s `.vX!.VXuXuXtXR.7XSXmXlXeXR.D.S.* & * D.H.> 2 1 S.H.R.D., = ",
"1 > u.G.S.1 = . 2 G.& 1 2 H.bXuXtXmXAXSXsXbX9XtXmXuXSX~.xXXXq 3.*.9 r ^ %.1.1.g O 8 t t O i M F W ( ' S q ~ m f.xX!.mXFXSXAX9X~.AXFXuXtXyXbX9XG.1 2 2 S.* , G.D.* D.~.S.= ",
"= , A.1 , 1 , 1 T.Q.T.9XuXmXtXQ.7X8XtXbXcX7X~.9X0X7X9XQ.cX_.q 2.*.q p F %.,.^ Y i O O O @ C B F ^ _ ( F r ^ N X.kXtX#XmXFXmXnX7XVXSXAXmX~.bXFXFXAX9XQ.Q.S.Q.Y.= : = > H.2 ",
"Y.T.!.T.R.~.tXtXuXzX8X9X7X9X~.9XbXuXQ.!.:X!.tX8X!.9XtXlXcXi.w 3.%.e r ^ *.,.) F M 6 + 6 e M Z Q ^ ) _ F M ,.m X.DXSX9X!.bXAXtXQ.sXFXSX8X~.8X9XuX8X:XmXmXFXyX7X9XQ.T.H.R.tX",
"nXDXFXuXtX0XtXuXVX7XQ.9XnX~.8XmXtXbXbX8X3XtXnXuX~.nXAXZXvX[ w 3.%.q a _ *.*.%.N 0 7 5 4 9 9 a G ^ ( *.Z J s.Q ^.FXAXAXtXQ.7X~.9X7X9X7XQ.7X~.8X7X3X3XuXmXnXT.Q.tXCXFXFX7X0X",
"8XSXFX0X:X3XQ.9X9X~.bXtXmX7X!.mXbXtXmXuX8XnXnXbX~.9XnXnXxXX.r 3.%.0 M _ ( 6.].j.4.;.{ {  .;.j._ S %.^ A W s.! +.DXSXSXuXQ.lXVXAXuXQ.9XnXuX7XnXFXFXuX5X0XT.9XmX7XoXnX8XQ.cX",
"!.SXbX8X9XbXeX3X~.9XbXnXbXtX~.uXnXuXmX7X~.bXuXsX7X7XnXmXxXK.A 2.#.w a ' ' :.j.6. . .{ { { &.;.D S _ ) F A $.N  .xXlXSX7X:XnXCXmXnX~.9XmXAX9XQ.mXCXFXyXQ.7XmXFXAX8X~.7XmXmX",
"Q.9XnX8X9XFXFXbXQ.uXbXsXmXtXQ.9XbXmX9XR.~.:XuXFXbX!.SXuXrXK.v 3.' 9 v ^ _ _ G V 0 5 4 5 4 0 x N _ Q S N x M c  .6XeXeX!.bXAXmXAXFXQ.sXFXmXmX3X9XAXDX8XQ.FXmXbXmXVX8X9XFXsX",
"R.9XFX0X!.tXbX8XQ.8XtXmXtXQ.9X8X7X9XQ.yXlX3X8X9X~.~.tX7XrXK.&.|.j.Y ~ ' 1.<._ Q M e i y y p Z ^ 1.' *.D h  .;.P.VXtXW.:X0XcXmXnX9XQ.nXmXbXAXAX7XeX:X!.9X9XbXmXSXFX8X8XFXmX",
"8X8X8X~.oX!.!.Q.9X7X#X5X!.uXAXnXyXQ.uXbXbXnX:XT.eXVX7X~.nXnX8XrX9XQ.Q.E.E.oXoXE.P.J.D.o.J.H.XXoX8X0XE.T.T.H.#XFXFXtX~.yX~.7XeX8X~.8XoX9X5X~.8X#X!.9XFXAX8X7XtX9X9XR.tXuX!.",
"yX~.R.9XuXmXuXQ.8XbXbXoX8XnXnXsXsX!.bXeXuXnX3X7XmXCXlXW.nXAX#X7XAX5XeXrXtXcXcX3X6X5X~.#XeXW.cXZXDXcXU.lXmX8X5XuXuXoXtXAXmXAX~.3XFXuXQ.nXAXuXtXQ.8XSXSXbXAX8XQ.9X9XtX7X7XtX",
"bX:XU.uXnXmXbX~.uXnXFXtX~.uXBXmXlX:XuXbXmXtXQ.bXtXcXbX:XuXmX~.tXSXyX5XCXFXSXFX#XmXFXFXFXtX~.uXuXtX~.uXAXmXAXbX~.Q.Q.bXDXmXFX3X!.FXsX3XmXAXFXFX9XQ.sXnXbXmX~.tXFXSXFXQ.9XFX",
"nX8XY.lXAXnX~.~.mXAXAX9X9XmXnXmXDX8X9XSXFX9X7XnXbXAX0XQ.7XtX!.uXFXtXQ.~.tX8XQ.Q.bXFXuX!.7XtX~.0X9X~.mXmXbXFXtXQ.nXeX7XVXAXFXuX:XyXuX9XmXeXAXsXR.7XbXmXnXuX~.bXbXmXFX~.~.nX",
"bXmX~.8X8X7X8X8XeXeXQ.7X7XtXyXwXtX~.8X7X7XQ.uXmXSXuXR.uXuX!.8XFXuXQ.bXuX!.Q.oXyX8X:XQ.yXAXmX~.bXFXuXQ.bXFXmXQ.uXFXmX5X:XtXtX7XyXbXtX~.mXFXyXT.tX7XQ.bXAXuX7XmXAXAX5X9XbX7X",
"9X0X9XyX9X8XAXsX~.oXtXSXmX5XQ.:X8X7X7X7X9X0X7X0XuXR.tXnXAX9XbXuXQ.!.eXFX8X9XAXFXtX3XnXAXAXSX7X9XAXFXuX~.bX9X~.SXAXnX~.~.9X9X9X9XuX8XR.9XuXQ.tXmXuX9X8XmXyX!.bXCXuX8XuXxX7X",
"G.R.G.T.G.Q.Q.R.8XmXuXtXbXQ.bXFXAXtX~.mXFXmXbX8XQ.9XmXuXtX8XQ.!.:X3XtXmX9XyXSXAXnX8XAXAXnXFXnX7XCXuX8XQ.3X!.8X8X~.Q.~.mXAXFXAX8XQ.7XbXyXR.wXFXmXmXuX9XeX7X9XR.G.H.Q.Q.o.1 ",
"2 D.1 * % > D.& 1 S.Q.uX~.9XuXmXFXuX3XAXmXbXFXnX~.mXbXbXbX#XoXbXyX~.bXbX7X8X9X9X8X3XmXSXmXmX9XQ.9X~.7XbXmXrX:XtXyXtXoXmXSXmXmX~.Q.SXFXFXtX:XbXuX7XY.Y.U.o.G.: * : > G.: * ",
"2 D.2 = , D.R.D.* > 2 T.G.D.T.8XnXtX!.FXmXmXFX0X~.bXnXmXuX9X0XuXuX7XuXAXbXeXQ.7X:X7X#XbXFX8XQ.uX8XQ.uXSXFXtXQ.FXSXAX7X9XSXnXmXQ.9XFXmXbXyX8XG.Y.S.: * , 1 > * > > > A.u.* ",
", Y.D.S.G.G.D.2 Y.H.: : T., 1 G.2 3XbXzXbXAX9XQ.8X~.9XuXQ.Q.tXtX8X!.:XcXmXAX8X7XlXAXtXoX8X7XmXFXFX7X8XmXAX~.Q.9XbXFXuX!.mXmXsX5XsXyX9XR.A.o.D.T.2 , > & G.R.1 2 2 1 H.Y.2 ",
"S.H.Q.H.1 1 D., G.S.1 , S.R.2 2 1 H.8XT.cX0XQ.bXbXtX:X~.7X9X7X!.Q.0XeX~.7XtX7XR.5XnXSXmX~.~.nXbXuX8X~.bX8XQ.uX8X~.7XtXoX3X9X8XeX8XH.D.1 : S.Q.T.2 Y.G.D.G.2 S.S.2 H.Y.2 T.",
"D., S.H.2 D.S., D.S.1 D., D.R.G.D.% A.u.1 ~.bXbXbXmXrX3XnXmX9X~.9XcXCXnX0XQ.tXnXyXQ.8XtX!.8X5X!.~.uX9XQ.7XmXmXmXmX9XQ.mXzX7X8X3X~.2 . , T.D.2 1 * A.u.H.H.* 2 2 > D.H.S.2 ",
"1 D.D.R.R.D.1 , H., 2 H.G.1 T.D.: : 1 Y.= 1 R.!.sXnX8X7XAXmXnX7X8XyXmXDX9X~.bXFXAXmX7XQ.mXtX~.AXAXmXuXQ.uXAXAXmXFXyXQ.bXuXQ.H.1 A.E.D.S.D.1 D.G.> , 2 = H.D., 1 2 S.2 2 1 ",
"2 S.G.D.Q.S.1 G.T.G.S.S.2 G.Y., 2 2 % H.9X, % S.Q.R.9XlXbXtXCX9X8XmXmX:X~.uX3XwXnXAXQ.tXFX7XoXAXSXmXSX8X7XmXmXbXuXyX7XQ.H.1 : S.2 > Q.D.> D.S.R.H.2 S.G.S.D., 1 Q.G.* 1 1 ",
"D.S.D.S.2 Q.~.G.1 G.R.H.H.Y.T.G.: 1 1 S.H.H.D.G.> * H.R.U.:XtXtXyXnXQ.Q.bXFXbX:XtX9X7XAXAX7XtXCXSXAXAXtX0XbX9X~.R.T.2 S.H.u.F.S.> = 1 , S.1 S.H.G.D.D.G.H.eXG.G.H.H.H., & ",
"> , 2 2 2 T.G., S.2 1 D.R., > Y.H.G.D.1 , 2 H.1 1 1 S.2 = , 1 Y.oXR.8XyXuXuXbXyX9X0XtXbXbXyXzXtXcXtXQ.Q.R.H., H.D.& 1 H.D.D.G.H.S.S.Q.Y.S.S.Y.D.S.G.> 1 T.lXS.= : , 1 T.S.",
"D.D.2 D.Y.D.2 S., S.H.D.H.2 2 1 G.1 : A.S.= , , 1 D.D.2 > = * = 1 = 2 G.S.R.R.S.G.3XT.R.G.G.R.R.2 S., < , * > Y.Q.2 D.S.; o.S.2 Q.D.1 Y., S.1 D.S.2 Y.!.1 2 Y.S.= , , 3X3X",
"H.D.D.R.G.S.1 : = H.1 1 T., S.2 o.; : S.: , 2 : 1 2 : S.1 = % Y.R.& : > : S.G.& & : , D.% & & 2 = * , = , H.H.2 D.H.S.1 1 1 S.> S.S.: D.G.1 1 2 R.H.D.S.o.2 2 H.H.S.S.1 S.",
"D.A., D.D.: = , 1 G.2 G.~.> > S.Y.H.o., > H.Q.2 = : : R.T.: 2 1 D.D.= 1 D.> H.H.* * S.D., > , S.S.= 2 > G.S.2 2 1 S.2 : , , S.H.H.1 2 1 G.2 2 S.S.S., S.2 2 S.> H.S.: 1 D.",
", : : H.H.D.2 * S.0XY.* S.~.G.D.D.H.Y.F.H.G.1 G.G.D.D.S.1 Y.H.% = Y.H.: = : H.H.D.G.Q.2 S., 2 1 H.S., H.2 = : 2 D.R.Y.S.S.H.S.2 G.2 1 = G.R.9XT., D.2 2 S.A.: = Y.R.& 1 Y.",
"S.D.D.o.1 H.H.G.D.2 1 : , Y.T., 2 S.2 T.D.2 > : T.D.1 : * , G.= : > Y.D., H.D.: 1 , G.Y.S.S.S.D.G.G.Q., : , u.H.H.S.A.Q.A.2 , , S.S.= D.H.= D.Y.D.H.S.R.D.: D.D.H.H.S.G.2 "
};
