/* XPM */
static char *c3fdceb5c875409dc2965e1912863c6cIlbzlOcq3Kh38F3i[] = {
/* columns rows colors chars-per-pixel */
"85 85 243 2 ",
"   c #343434",
".  c #3C3C3C",
"X  c #454545",
"o  c #4C4C4C",
"O  c #4B5455",
"+  c #545454",
"@  c #555C5B",
"#  c #5C5C5C",
"$  c #5D6464",
"%  c #646464",
"&  c #64686A",
"*  c #6C6C6C",
"=  c #786B6A",
"-  c #6E7578",
";  c #747374",
":  c #787876",
">  c #7B7B7B",
",  c #DC3134",
"<  c #AE4E2F",
"1  c #AB4E34",
"2  c #AB563B",
"3  c #E3473F",
"4  c #DD3B48",
"5  c #E33E4B",
"6  c #AF5643",
"7  c #B96845",
"8  c #BA7150",
"9  c #BA7459",
"0  c #AE7866",
"q  c #BB7967",
"w  c #DB414B",
"e  c #DE574F",
"r  c #DB4B56",
"t  c #DC5758",
"y  c #E3494B",
"u  c #E3534E",
"i  c #E84C55",
"p  c #E45757",
"a  c #E25D5D",
"s  c #C26B48",
"d  c #D16A53",
"f  c #C57859",
"g  c #E5665B",
"h  c #DE4C67",
"j  c #DD5763",
"k  c #E35B62",
"l  c #DE6664",
"z  c #DF6B66",
"x  c #C57D66",
"c  c #DA7679",
"v  c #E36565",
"b  c #EA6366",
"n  c #E16966",
"m  c #E36369",
"M  c #E26B6B",
"N  c #E47A67",
"B  c #E76775",
"V  c #E67779",
"C  c #8F827A",
"Z  c #BB8875",
"A  c #C6835B",
"S  c #C88767",
"D  c #D8896A",
"F  c #D7946D",
"G  c #CA8B72",
"H  c #CB957B",
"J  c #D69776",
"K  c #E5976B",
"L  c #E68471",
"P  c #E59C77",
"I  c #E7A66B",
"U  c #E7A876",
"Y  c #EAB474",
"T  c #EDCB6D",
"R  c #EAC777",
"E  c #EAD674",
"W  c #EDDA74",
"Q  c #EDDD7D",
"!  c #F0D076",
"~  c #F1DD7E",
"^  c #ECE37C",
"/  c #EDE879",
"(  c #F1EA72",
")  c #F2E67A",
"_  c #EEF77D",
"`  c #767F82",
"'  c #A47B9E",
"]  c #E97D81",
"[  c #7C8787",
"{  c #838383",
"}  c #878788",
"|  c #8B8B8B",
" . c #948A8F",
".. c #939393",
"X. c #9A9798",
"o. c #9B9B9B",
"O. c #B98B86",
"+. c #B89589",
"@. c #B98B98",
"#. c #AB9294",
"$. c #BDA08D",
"%. c #BAA39A",
"&. c #B898A7",
"*. c #A788B9",
"=. c #B28BB3",
"-. c #98A4A9",
";. c #A3A3A3",
":. c #A8A5A5",
">. c #ABABAB",
",. c #BAABA7",
"<. c #B0B2B4",
"1. c #B4B4B4",
"2. c #B8B8B7",
"3. c #B5BBBB",
"4. c #BCBCBC",
"5. c #D0888E",
"6. c #CC9B84",
"7. c #C8968A",
"8. c #D49985",
"9. c #C79899",
"0. c #D19897",
"q. c #EA8687",
"w. c #F19290",
"e. c #F59695",
"r. c #C6A28B",
"t. c #D6A489",
"y. c #C7A699",
"u. c #DAA998",
"i. c #D8B29A",
"p. c #E5A789",
"a. c #E5A997",
"s. c #E9B190",
"d. c #DB9EAC",
"f. c #C897BE",
"g. c #C6A9AB",
"h. c #DAABA8",
"j. c #C8B5AB",
"k. c #D9B5A6",
"l. c #C4AEB1",
"z. c #DBA5BB",
"x. c #C5BBB7",
"c. c #C3BDBB",
"v. c #D9B9B6",
"b. c #EEABAE",
"n. c #FDA9AB",
"m. c #E4A9B8",
"M. c #E6B9B5",
"N. c #FEB8B7",
"B. c #BAC1BC",
"V. c #CBC796",
"C. c #EEDC81",
"Z. c #F3D981",
"A. c #E2D893",
"S. c #F2E885",
"D. c #F2F284",
"F. c #F6F587",
"G. c #EEED90",
"H. c #C8C2BB",
"J. c #D8C4BA",
"K. c #E3C8BB",
"L. c #F3CAB3",
"P. c #F6F0AB",
"I. c #AE92C3",
"U. c #B892C7",
"Y. c #B6A7CC",
"T. c #B9BCC2",
"R. c #B1B2D5",
"E. c #C498C1",
"W. c #DDA3C4",
"Q. c #DDA8C5",
"!. c #D0B3C9",
"~. c #E2A3C4",
"^. c #E3ABC4",
"/. c #E4ADCB",
"(. c #E9A9C9",
"). c #E3B2CB",
"_. c #E9B5C9",
"`. c #F7B6C7",
"'. c #E5ACD3",
"]. c #E5B4D3",
"[. c #EBB5D3",
"{. c #EABAD5",
"}. c #F4B7D5",
"|. c #BDC3C4",
" X c #B8C6C5",
".X c #BCC5CA",
"XX c #BDC9CC",
"oX c #BDD2D3",
"OX c #BECFE9",
"+X c #C3C3C3",
"@X c #C7C7C6",
"#X c #C4CACB",
"$X c #CBCBCB",
"%X c #D8C6C7",
"&X c #C3D2CF",
"*X c #D9D9CC",
"=X c #C5CDD2",
"-X c #CACED3",
";X c #C4D2D2",
":X c #CCD2D3",
">X c #CBD5DA",
",X c #C6D9DC",
"<X c #D3D3D3",
"1X c #D8D6D6",
"2X c #D3DBDB",
"3X c #DBDCDC",
"4X c #E7CAC9",
"5X c #FDC8C6",
"6X c #E7D8CA",
"7X c #F8D6C7",
"8X c #EACAD8",
"9X c #F8CDD7",
"0X c #E6D7D7",
"qX c #FCD6D7",
"wX c #DDE0DF",
"eX c #F0ECCE",
"rX c #F8E8D9",
"tX c #C4D1EF",
"yX c #D5DDE2",
"uX c #ECCCE1",
"iX c #EBD8E5",
"pX c #F2D8E8",
"aX c #DCE1E2",
"sX c #DAE6EA",
"dX c #D6EDF1",
"fX c #E3E3E3",
"gX c #E5E5E5",
"hX c #E7E6E6",
"jX c #E4EAEB",
"kX c #EAEAEA",
"lX c #ECECEC",
"zX c #F6E7EA",
"xX c #EBF9EE",
"cX c #FAF8EC",
"vX c #E6EBF4",
"bX c #F8ECF6",
"nX c #ECF2F2",
"mX c #E6F5F8",
"MX c #F3F3F3",
"NX c #F8F5F7",
"BX c #F4FEFF",
"VX c #F9F9F9",
"CX c #FCFDFD",
/* pixels */
"> ..* % % ; } # : ..o...{ * } | | : * ; * > { % * ; > > > ; { > : > * { | o.} > { % ..1...> > >.% X X ; } . % :.} | o.; | } X } > # % ..} ; # % % o.$Xo...| { > # % ;.o.} ",
"> :.o.% ; ; ..>.> % X ; | ..} * } % # o > > ;.o.;.| ..o.> { ;.;.o...;.>.% * >.{ + > } } ;.o.>...{ ; > o.| o.:.{ * * :.} ; > > 1.| % % } o.. o # : | { ; ; o.o.>.| o.> * ;.",
"% >.} : : > * } % + > > # % > ..:.} > > | > o.> : | | > { $X:.> o.| ....* * { o.; } > ..; ..| + > >.>.; % :.} : { ; } ;.| } ..; >.} % o.>.> : > ..;.> | ; : + * o.> + ..{ ",
"..:.o.* + > * : { * : * ; } | ..{ * :.o.# + ; } % > % * ..; o.} } ..} > > } * * >.; : { ; : ; ..% : } : ..% ;.o.* } } o.| * * ; % 1.1.> > ..| o.+X} # | } + + # * } | } + ",
"| % { >.> : } * : > } } | >...+ % # } ..* * # o.o.; ; o...: o.| # % # { > * % # ..} } ; ..o.* { # } > % : } >.;.;.% } > + * : % > o.>.: : : % * ..+ + * ..o o o ..+X; # ; ",
"; > X | 1Xo.; o.>.> | | * > } + % % } ..o : ; ..:.> 2.| + > * o.{ > :.4.1.+X+X+X$X<X$X$X<X$X+X1.>.+X1...} :.; % } | >...: ..: : ..% ; ;.> * % >.> + ; + } * X } ..; * * : ",
"; # * | { } o...+X} * # : ..;.> X % ..o.| : } ..* + > ..* o.1.<XkX3X1XMXVXVXMXkX2.<XMXfX4.$XkXVXlX4.<XfX<X$X>.:.% ..o.; } > >.o.# * o { ;.* ; o.o.# { { o.>.;.1X> : > ; * ",
">.% } ..* > | o * ....| ..* + o.} } > % : } ;.% # } :.<XfXMX$X1XVXgX>.fXMXfXlXgX4.<XlXgX4.$X<XgX2.+X3X1X1.<XkXkX1X<X1.> o . } } # # . > : X * * ..o.| } ; o.: > o.>.>.| ..",
";.} % ..* } > * { * * :.> % : % ;.* ; { * X > | 1.<XlXMXCXgX1.MXMXMX+X$XMXfXCX1X1.MXgX>.+X3X+X1.+XlXgX1X4.$XgX3X$X4.gXgX1.} * % % o...>.: # } : * ..> % # } % . X : | % : ",
"% | ;.* : } | ; * : : { : * : % } >.# X % ..$XVXCX$X<XCXCX+X2.lXVXCX1X2.VXVXMX+X$XMX2.2.3XkX3X2.3XkX3XVX1X@XlXfX<X4.VXkXfXkX$X+X} | } ; :.{ * * > > > } > } } + * : { # : ",
"* > 2.# : o.>.: # % > 1...;.o.} } > > { >.MXCXMXlX+X+XVX$X1.$X4.+X<X<X+X+X2.+X+XgX$X>.gXMXlX$X4.+X$X1X<X2.+X$X$X2.2.<XgXVX<X2.fX+X{ + # > >.; > >.>.* % > : { > & ; >...} ",
"# o o.1.{ } } :.} ; ..o.{ } { X # % $XVX<X<X<X1.2.<X$X4.2.3XMXaX$X$X+X@X#X$X=X;X2X<.2XaXaX2X3.|.<X$XB.2.1XlX2.4.4.$X+X+X<X1.+X3X<X<X1...* % o.>.} { o.> % * ..o.{ ..{ } o.",
"> } ;.1.> { > > o.:.; + + % ....+XkXkX3X1X1.+X3XMXVXMX1.gXCXnXjXMXNX-X$XlXzX8X).!.%XzX0X0X%X!.0XCXaX3.aXMXnX4.1XkX3XkX<X1.+XgXlX3X$X$XfX+X} >...# + ; >.| } } : o.} : o # ",
"} { * } ..# > + o * # } o.1.gXfX<XgXMXlX<X1.lXCXVXVX:X3.2XlXfX8XzXVXMXcXcXrXrX7XL.N.n.N.`.5X9XqXqX9X4X0XiXgX|.;XnXaXgX+X1.kX1X3XMXfX+XkXgXlX3X1.o.| # } {   X o > > * % ; ",
"% > } { o.* } ..:.4.4.fXVXMXlX$X4.MXlXMX<X+XlXCXBX#X4.0X8X9X`.5XeXP.P.P.G.G.G.G.S.Z.Y L B B V q.e.n.N.5X5XqX4X0XiXaXjX3.3.1XfXlXCXkX+XkXMXVX+X+XVXgX$X$X>...> % | } + % % ",
"1.+X4.2.1X<X2.gXVXCXfX1.4.+X4.1.4.+X3XgX4.3.;XnX0Xv.qX5Xn.V U S./ E E E W W W W Q ^ / Q T K e 4 r v M V ] q.n.N.5XqX9X%X$XB.;X3X<X+X4.<X$X2.1.<XVXMX3X+X3XCXlX1.2.<X2.1.1.",
"<X1XMXlX<X4.1.$XVXVX2.+X<X3X<X>.<X$X+X3.XX2X%X4X5XN.e.V r d ) / W Q Q Q Q Q Q Q Q Q Q ^ S.F.Q U z r j a e r t M q.e.N.9XqX8X+X.X3.2.+X+X$X+X<X+X$X+X1.$X$X1X$X1.$X$X<XMXVX",
"<X2.<X4.>.$XgX+X+X4.4.CXCXCX+X4.NXCX X4.zXqX5Xn.q.n t r j ~ _ C.C.Q Q Q Q Q Q Q Q Q Q Q Q Q / F.Z.K t j M n l a t t n q.n.5X5X4X0XjX+X<XMXgXlXfX1.$X1XlX1X1.+XkXMX$X4.MXMX",
"2.+X+X4.1XkXgXgX<X1.fX3X+X+X4.lXBXCX0X5X5Xw.V l t k m j Y _ ^ C.Q Q Q Q Q Q Q Q Q Q Q Q Q Q Q W / D.! N h m z m t a a t v V L a %XmX+X$XMXlXlXkX2.fXlXMXkX+XMXlXVX1X2.kXMX",
"$XkX1X+X1X3XfXVX1X1.+X|.+X4.nXBXbXqXN.e.M t t v z m j L _ ^ Z.Q Q Q Q Q Q Q Q Q Q Q Q Q ~ C.C.Q Q Q D.D.I r i e D N p p p y , q.BXMX$X2.$X1X<X1X1.<XlX$X4.2.fXkXCX3X1.<X3X",
"MXMXfX$X4.4.+X+X4.<XkXCX<X<.jXzXN.w.M t t v v v v m k R _ Q ~ Q Q Q Q Q Q Q C.Q Q Q Q Q Q Q Q ^ S.F.Q T R J a.6X*XB.0.c M c 0.+X2X$X2.$X$X+X+X+X$X$X+X1.$X<X+X$X<X4.$X+X1.",
"1X1X3X$X$XMX1X$X+XlXCX2X X0Xb.q.v t a v n v v v v j N S.^ Q Q Q Q Q Q Q Q Q Q Q ~ ~ ^ / / _ D.S.R I K L.J.B.dXaX3.;XmX$X<X3XmXjX+X2.$X3XgXfX3XaXlX+X4.lXCXCXfX>.1.<XVXkXkX",
"4.4.+X1.+XaXMX1X2.$X;XXX_.w.b t t v v v v v v v m t Y F.Q Q Q Q Q Q Q Q Q ^ ^ / ) W E ! R Y P L p r %XdXT.3.+X1.<XMXkX|.jXjX1XCX1X1.$X4.+X<X<X1X3X1.1.$X$X$X+X<X<X+XlXVXMX",
"lX<X>.$X$X2.$X1.:X,Xc.e.b e a v l l m v l v m v j z E / ~ Q Q ^ / D.S.W E R R R R T Z.p.r i t p y 0.,X1.$X1X4.fXCXCX<X1.<X1X$X2.1.+X+X2.2.4.+X+X+X$X$X4.+X1.4.CXVX+X+XlX+X",
"MX<X4.gX1X$X1.yXBXM.n p l M n v v l z m k v a a 5 N F.D.D.D.S.S.Q Y I T R R R R E W P.vX5.i y y q.&X+XfXCXfX4.$XfX3X4.+X+X+X+X+X1X$X4.fXaXgXlX1.2.$XfXlXgX3X4.MXCXVX$X2.+X",
"gX2.+XgXlXMX.XfXw.5 3 e M M n l v b u e b a t z N U Y I U P K D u r z.eXS.( ) ( ( A.=X=XoXv.b.4XjX#X$X1X3X1X<X4.1.1.$XlXMX$X<XlXfX<X1.<XMXfX2.2.fX+X4.kXMXfX2.MXCXVX1X>.1X",
"$X4.$X1X3X$X2XJ.a.8.7.p.g b n v p r q.7Xj.g.6XH.*XxXm.w 4 w 4 4 B ,.dXBX+XV.S.S.eXaX|.@X+X;XmXBXnX+X<XfX3X<X<X3X+X2.gXkXkX+X+XVXkXMX$X4.$X4.1.1XVXfX1.3XkX<X$XfX1X<X<X+X$X",
"o...> } | o.;.T.XX,XdXjX] i u p V y.;X,XXXsXBXsX.X=X,Xg.c V e.m.wX X$X@XT.yXaXlXCX$XH.MXfX+X$X1X+X+X+X$X<X<XfXVX+X1.gXkX3X1.>.<XMXfX2.1X<X$X$X1X<X<X<X$X4.>.} ..2.> ; > * ",
"| } # # : } ; { : } >.-.>.d.b.v.2XdX2X4.fXgXVXCX+X<X3XmX>X-XvXoX X+X$X$X@X+X:XT.4.+X+XfXCX3X1.+X1.+X$X4.1.$XgX+X4.<X+X1X4.1.$X2.+X2.$XMX3X<X<X$X1...} > > } } % # o.+ + { ",
"} } * : { ; ....: ; > % @ [ -.XXaXgX<X>.<XlXgX$X+XkXkXMXnX#X3.+XkX3X2.fX3X@X2.4.<X1X4.<XfX1.$XgX$X1.3XgXfX+X2.1.gXkX$X2.+XfXlXgX<X1.$X3X+X1.} ..o.% % > % : > > X % 1...> ",
"> { ; { * % ..{ > | ....* > % } o.} |.<X+X+X4.+X@X<XMXgXVX<X$XkX3XgX4.3XgX3X+X3XkXfX<X1.1.$XMXVX$X1.MXnXMXgX1.gXVXVXkX1.+X1XMXMX$X<X2.o.:.* X ; | | } ; > 1.% + % o o.{ X ",
"+ >...# o : * + % * ; >.{ > | ..+ X > >.$X<XgXCXgX1.1XCXkX2.<XkX1XkX+X:XkXlX<X+X3XgX2.$X$X$XMXCX+X2.MXlXlXVX4.<X<X<X+X1.+X+X<X1X+X..% X ;...; o.{ { ; ; o.o.o.; # % * >.; ",
"} ..} o.| ;.o.: ..| : } o.| > :.{ > ; X ..+X$XfXMXfX+X$X1.+X+X<XgXkX+X1.fX<X1.+X+X1.$XCXMX4.$X+X1.+X+X3XkX$X4.+X>.1.<X<X+X<X<Xo.;.% o ..> | * ..:.* | >.> % > o.} { ..>.:.",
"..: * ;.;.} :...} } : # : o...} o.> } >.} > } o.$XgX<X1.3XCX3X2.+X$X1.+X$X1.$XMXgX4.$XfX<X1.2.4.gXkX+X4.4.4.MXCX<X1.fX<X+Xo.> * # ;.;.* * } % ..} * > } * } > } 2.: } # { ",
"% : > } > : > ..* * ; { # } ..o * # ; ..} } > % * >.4.<XMXMXkX3X4.$X1XkX$X$XMXgXkX3X1.2.+X1X+X<XCXNXMX$X4.MXMXfX1X$X>.:.% . X * * } } + } ..* : : > % : * } > } } # # | ..",
"+ + { > * * % ..% ; ; % ; >.;.: # { : * ..; ; > * > % { o.;.$XfX1XgXlXgX1X4.kXgX3X4.$XMXlXMX<X1.lXMX3X$X1XfX+X....} # ;.} X + ; + } >.# * { | | + ; % } { ; ; | > { ; o.{ ",
"% + } ..* : # : : ; : * >.: % 1.} + X % o.% * * > ..% # X + | | ..o.2.2.$X$X<X1X<X$X3X1X<X$X+X$X$X2.>.o...> 1.o.+ ; o.} > } ..* > { } o.> > } 1.: + * ..o.+ : o.# > > } % ",
": # > o.> * # { } + # ;.o.# + + o.> * | >.| % : ;.4.} ....o.} + ; X ..o.* } ..* ..>.} 1.> } ..;.; ; > { % > } > o.:.* % * > ..o...% X o.| % # * 1.: + > | X > } % # * 1.} ",
"> + o.| ; ; + o.2.> ..} % : % * # o...> * | >.| % } ..* | % } } + ; | o.| > o # | # + ..* # * o...} * * ....# # : } % > > : % > > { { } | # * ; : :.> X :.o.....+ > } # > ",
"o...| o.} { } ..:.1.{ # * % % * > } # > } # } % + + ..} * ; > >.} | + X ..:.} o.> ; > { { % % | } ..} o.} # % * ; > * ; > } } { { { > { { % ; * X : $X> | o.: ....} # + # ",
"o.{ X % >.>.: # * : # > : ; ; * o.{ ; { > { * * * o # o.* : > } o.+ # ; * + :...+ * ; { : : : { # # # { : % * * * } { + } > } 1.: % % > | [ > o % 4.:.* # % ; * ;.# X * : ",
"> + : * > } * * % ..> : ; } + ; ..# > } % ; : X % & X ; ..# % ..;.+ X : > % * > # % # { > ; > } * % X > ..# * % ; o.>...% { } { o.{ % * >.o.o { ..: > # > ; # % ..% # * # ",
"% : > { > > : } > o.| # % * * ;.o.} > 0 } } :.: % X.| o | :.} ......* % } * } & + : > >.>.# ; 1...........} : } ..> > } o...* + : } ;...; { o.{ +   o.:.+ % } > > o.| : : ",
"o.{ # % } | * { $ > ..& [ 1.X.# * } * } o.% $ [ C s.X.` :.>.* > * # o.| } ..>...{ | { * : 2.o.% ; { ..> % } ;.;.% } | X > > * > * % :.} + X ..* # ....| } ..} % + % :.;.> ",
"} o.| { ..1.{ % } ..X.1.X.[ { @ O O * : & $ :  .@.p.Z $ & > * % * X % ; # * # ..} > + # X ..> + * % > } } { > : > } * % { ; * : * } | % ; # > 4.....# o } ..+ * > # } ..% ",
": : :.; : } :.} :.* > a.6.{ >.:. . .#.g.g.z.[.'.*.@.s.+.-.} + > ..# : % % # o | ;.% ; { } | { # # + | ....: { | > : % > o.> % > * } * * > { { fX>.+ ; * * > : % > > ; | # ",
"; | * ; { ; ;.o.> * ..H P b.[.{.}.}.}.}.}.}.[.[.E.*.9.s.y.-.> ; } * { % : * } ....} * o.| } > X ; ..2.o.% * ..1.> % # * | o.# * | } + } > o.| * >.2.* % > { * ; * + o.$X{ ",
"} >.> > : * o.o.> C - : D P _.{./.).).)./././._._.E.' 7.J #.-.[ % : : o # * o.% X } o.* # { ..; > > % | | } } ..>...{ > ..1.....o.;.: X ; ..% { { 1.>.: + { * + ; ..>.;.{ ",
"* ..o.% : # } ....4.o.O C F t.).]./././.).)./.W.~._.E.Y.k.J #.-.| ;.;.{ ..1.+X>.4.2.fX4.>.+XfX$X} | } ..>.+ + % { 4.o.| > | ..{ % : o.} ..% * ..} # * o.o.} o > ;.> * | # ",
"* * o.;.; } 4.>.;.o.>.;.[ 0 D u.[.'.^./.^.z./.{.pXVXCXdXOXk.D j.sX:X3XgXkX$X1XCXCXlX+X+XMXVXkXlXCXkX<XfX$X1.>.{ | * * | > | | > > # + 1.| % } : * } % # >.2.| } : % % { * ",
": ; > 2.> ..o.% : * % ..& & 0 J v.[.~.m.).uXbXCXCXCXCXzXR.I.0.J K.>X=XlXMX1X+X<X2.4.+X4.<XVXVXVXCX<X1.lXkX<X<XfX<X>.o.| # * ..{ ; > # > % ; * ; > } > ; X ;.:.% : % ; : # ",
"> ; { ..* # > % > # > ..& $ & G J h.uXzXVXCXCXCXzX8X)._.^.U.*.9.J r.1XCXVXMX+X>.$X<XVX1X1.MXMXMXCX+X$XlXVX$X1.gXkXVX3X+Xo...; % ..> { >.| ; + # { > # * { o.# > : # { > # ",
"{ * } > ; * ;.{ * : :...{ } - = S D rXCXCXMX0X{.^.Q.(.Q._.`.E.' &.t.J *XBXBXlX+X1XlXkXMXH.<XVXCXgX1.MXCXCXlX1.3XCXCX+X<XMX3X>.: # { o.* } | } ; } :.* > o.-.} { % # 2...o ",
"{ | 2.| o.> } >.> ..* o # > } .. .9 J 6XiX/.~.^.).)./.~.~./.9XiXtXtXk.F i.gXsX3.4.3XMX<X+X+X$XaX2.2.gX<X$X+X1.<XCXMX1.3XVXMXCX1X>.o.X # # % ;.{ * : ;.>.* # } ..| } o.| ..",
"} ..o.o.{ { % > >.% % : * o + } O C S S h.'.].)./.~.z.{.pXNXCXCXCXtXR.&.F H %.$XyX-X+X2.!.<X+X2.4.$X+X1.;.+XfX4.$X$X4.4.+X$X1X+XgX$X..: % # > * % X > o.% > * X 2...o * } ",
"; * > > # > | X > ..: # % o } o.>.;Xc.8 A h.].'.~.{.zXCXCXCXCXpX8X_.f.*.*.O.J p.J.c.=XjX.X1XVXMXlX4.<XgX1XkXMXMX<X1.lX3X1X<X>.+XMXlX0X<X1.} { + + + } ..% > ; { o.>.} * # ",
": * [ ..{ : # . > | o * > o.fX<X<XkXCXfXZ A u.8XCXCXCXCXbX8X].W.W./._.~.f.I.Y.l.t.t.k.J.c.gXCXCXCX.X3.lXMXgXaXMX+X4.lXCXVXMX$X+XMXVX3X<X<XfX$X..; > > { + * ..| + } 2.{ # ",
"# * { : ; ; * : :.1.:.$X1XlX<X1.+X$X<XmXjXZ 7 t.rXCXbX{./.W././.~.z.).8XbXCXmXtXR.&.7.7.8.i.K.K.J.,.c.+X$XgXjX+X4.<X+XkXVXlXgX+XlXMXMXkX2.gXVXCXMX$X2.>.> 1.;.# % # * o.> ",
";.:.2.>.>.4.<X<X3XfX$X$X+X$X4.$XfX1X1.2.#X=Xy.7 A k.Q.'.]./.W.~.{.iXNXCXCXCXcX8X!.U.I.=.#.O.Z 6.H 8.t.t.t.u.i.t.i.t.H 7.fXMX<X1.3XCXCX$X4.$X$X<X$X+XkXMXVX<X+X$X1.:.o.>.<X",
"kXVXVX1X<X$X<X3XlX+X1.$XgX4.+XlX<XfXgX$X4.3XmX%Xq s G k.^.{.pXbXCXCXCXVXpX{.Q.m.`.{.W.f.E.Y.R.OX=XT.&.@.@.@.@.9.@.y.t.y.4.+X4.$X+X$X+X1.+X+X$X+X+X4.<XlXkX>.2.<XMXCXCX+X<X",
"+XCXCX$X+X4.2.$X$X2.fX<XlX+X2.kXgX<XlX1X$XgXgXmX.X+.9 f J M.lXCXCXbXiX].~.~./.(.W./.{.zXCXCXBXvX!.Y.U.U.U.U.=.=.!.MXMX<X1.3XlXMX3X1.$XgX1X+XgXVXCX3X4.$X>.$XkX+X4.kX$X1.3X",
"1.NXfX@X$XfX<X4.2.<XfXkXgX<X4.1XgX3XkX+X4.gX1X3X#X>XfXh.S 8 G i.K.m.z./.[.{.].8XpXbXCXCXCXzX8X[.(.(.[.[.[.).zXgX@XfXCX#X4.kXMXkXkX2.$XlXMX$X1.lXMXCX<X>.+XMXCXMX+X2.+XkXgX",
"1.$XgX+X$XCXCXfX1.3XfX3XlX1X2.$XfXkX$X1.2.4.2XCXfX2.CXmX1.y.S s f J t.u.h.h.M.zXCXCXNXpX{./.(././.~.m.b.8.J.dX>X4.$X$X2.gXMXlXMXVX1.3XVXlXkX4.$XVXCX$X1.VXlX3XlXlX+X$XVXfX",
"1.$XCX$X2.<X3X$X1.+X$XkX<X1.$X$X+X$X1.<X3X+X$X$X4.4.<X+X.X>X+X%.O.q 7 f G H 8.t.t.i.u.0.u.h.u.u.v.8XK.,.2.G q H.nX2X3.+X$XfXkXkX$X1.gXMXfXMXMX+X<X+X2.$X$XfXlXVXCX+X+XVXkX",
"$X+X+X4.4.1.2.1.$X+X4.+X2.3XMXkX<X1.3XfX3XkX+X:.$XlX+X4.kXfX#XsXmXc.+.2 < 6 f f f S G G S A S S *XCX2X<.dXl.7 f s.v.@XyXXX#X<X@X2.$X+X$X+X2.$X4.1.$XVXMX+X+X<X$X$X>.<X1X2.",
"1X2.>.$X1XkX3X1.$XfXgX4.+XkXkX3XfX2.gX<X1XkX4.+XkXlX3X1.gXMX4.<XCX#XaXlXj.9 2 2 6 6 2 6 q O.4XgXCXfX:.3XMX>X2.O.9 f S i.0XMXXX|.CX3X1.gXMX3X$X1.$XVXVXgXMX$X1.$X$X<X+X+X$X",
"fX+X:.1XkXlXfX4.1XkXVX<X2.3XlXlXfX+X1XfXkX<X1.fX<X3XgX+X1XlX2.<XMX2XXXmXlX8.< 1 1 < 1 Z >XoXsXsX<X2.<XMXfXlXvX=X|.%.7.x s t.r.x.CX3X4.gXlXCXCX$X1.3XkXfXlX2.<XCXMXCX1.$XCX",
"gX+X>.fXMXgX4.4.kXMXMX$X$XlXkXkXCX+X$XVXCX$X+XkXgXMX<X1.+X<X2.gXCX2Xj.6.7 2 9 O.v.0.8 A i.J..X>X2X4.kXlXgXCX1X1.jX2X>X0XJ.6.F H.yX1X$XMX<XMX3X1.+XfXlXgX3X2.fXgXlXVX2.2.gX",
"fXkX2.$X+X+X$X+X$X<X1.+X+X<X1X$X<X4.+X+X4.1.1XlXMX1X:.1XfXT.=XgXK.6.J u.y.,.:XsXaX#Xl.7.s f 6.6XCXsXT.gXCXkX1.1XCXlX4.$XsX2Xc.3XfX1X4.lXCX<X>.<X+X1.fXMX3X+XkXMXMX4.$XfX+X",
"$X$X$X1X$X$XMX3X2.+X<XMXkX+X1.+X+X+X+X+X$X<X+X$X1X>.<XlXgXv.i.6.6.r.c.BX>X>XMXCX<X|.mXBX0X7.8 s 8.qX<X XjX$X2.VXMXgX4.4.$X:X:X$X<X+X>.$X3X1.$XMX1X$X+XlX1X2.fXMX1X$X3XfX+X",
"..>...>...1.2.>.+XkX3X<XfX2.fXVXMX<X2.lXCXlXfX$X1.$XMXyXj.6.$.x.@X.XyXMX$X1XMXMXgX+XMXMXBXCXiX+.f s J j.#X.X=X$X4.1.2.lXVXVXlX+X1.+XfX<X1.$XCXlXkX3X$X<X+X$X>...o.1.1.> > ",
"> ..; + X % } o ; { 1.1X1.$XfXlXVXfX4.MXkXgXCXgX4.lXfXfXgX+XXXgX2X|.fXfX+X+X$X$X+X4.kXVXkXMX:XXX#X%.x s S k.$X:X<X<X4.kXVXkXkX4.2.VXCXCX<X+XfX1X+X;.;.:.{ ..% + % * ..* + ",
"> | > # * } >.} + * > :...} :.+XkX<X2.VXkXkXCX$X4.fXkXkXfX$X$X3X3X+X1XMXgX$X1.+X+X+X+XfXCX$X1.1X:X XaXv.G s x 0XCXVX+X$XVXgXkX1.$XCXkXfX<X+X..o.} % # * : % + % % % } { + ",
"* ;.| { o.| } > :.o.% % :.* > ..> +XfXfXfXMX$X1.$X4.$X3X1.1.<X<X$X2.+XgXlXMX$X+XfXMX<X4.$X+XlXCXVX+X:XCXnX,.O.c.fXVX3X1.kXMX3X+X3X1X$X>.} { } >.: * * X ..:.; > > > o.:.> ",
"} o.1.o.: : | * ..{ : * { >.> : ; o.$X>.3X<X1.gXfX<X+X2.4.$X+X1.1.$X<X2.+X<X+X>.+XgXMXkX2.2.gXfX1X$X4.fX$X XaX$X2.+X<X4.4.$X+X$X+Xo.} : % } 1.;.> :...| ..> { { > o.;.> :.",
"} * } o.> } { * } { : | * ..>...| X } > : 2.fXgXfXnX1X4.kXlX$X2.$XfXMXkX$X1.<XgX<X1.$X<X1.+X+X1.2.3X$X1.+XkXMXMXkX$X1.kXfX+X$X+X4.> . * :.} : : + > > o.o.+ > { % | ..} > ",
": } | :.>.| > * o.* > o...; >.| % % ; :.% : >.2.3XgX+X+XMXkXgX+X+X<XlXCX$X1.gXCXMXlX+X1.lX<X1.MXMXMX1X1.1XMXMXkXCX<X1.fX1X1.o.: { >.} } | ; | ..* ; > # ;.| * ; > } > > : ",
"> } ..} >.} * X.:...{ } > o.;.* > > X o.$X* X ` 1.>.$X3XgX<XMX$X+XMXkX4.4.3X+X$XgXMX1.<XCX+X+XMXMXlXMX$X+XlXlXgXfX<X$X1.o.; % > > % 1.} * ..{ >.;.> { ..{ | * ; 1...+ ; * ",
"} { } { > 1.2...: ..>.o...;.>...* * : { o.o.} ..% + o.>.>.4.<X<X<XgX2.1.fXCXgX+X<X$X4.MXMX+X<XMXMXMXMX<X$X3X$X4.>.:.> { o.> ..} * # : * } ; } o...} } ....<X......o.o.* X ",
"% ; > > > :...* } : : } 1.% * ;.o.o.} * * > o.: : > } > # * > ;.4.>.+X<X3X3XfX<X<X<X<X3XgX1X3X1XfX<X2.1.>.o.* o.} o ; o.} | o.o.{ { 1.;.{ } o.| > ..* : >.1X} # % * : ;.} ",
"| } > } :.} > { * } o.} o.> > ; ..> % { > # * * : } } > * % + # : # > ..} :.>.} ..2.>.>.....>.>.> } * * * + % ;.1.> | } * { { > 1.| ; o.* } : } { > ;.1.> > o.} # ; * 1.4.",
"o.} | 1.o.{ ; % % o.; ; >.* } > > % % { % * > % > > % } : # X :.>.X % % % { ..o X % * } X X o > # + * % * o.o.{ | o.{ ; ; ; } % { } % | ..: ; > 1.o.| } > > > o.o.> } : } ",
"} { * } } % % * ; | > ..1.* * } ;.o.{ ; * o.1.> # % % >.:.% > > } } # : | * o.o.+ + } } * * ; { { # > % | } > > * } > % * * > o.o.; { ; ..> > } } } * } > { { * o.{ % * } ",
"* % % ;.o.} > + { <X;.+ > 4...} } o.o.o.o...> ....} | { * ;.o.X # o.o.% # % o.o.} ..>.> { * > ; ;.} * o.> # % > } >.;.} } o.} > ..> * # ..>.$X:.* | > > { { % # ;.1.+ : :.",
"} } } > : o.o...} > : % * ;.:.* > { > >.} > * % >...; % + * | # % * ;.} * o.| % ; * ..;.{ } } } ..o.1.* % * { o.o.{ { 1.} > ; * { } # | o.% } ;.} o.{ >.| # } | ..o.} ..> "
};
