/* XPM */
static char *_4ba5382a2614162aeb18d0ac98bf066[] = {
/* columns rows colors chars-per-pixel */
"85 85 242 2 ",
"   c #010203",
".  c #0A0302",
"X  c #040609",
"o  c #05090B",
"O  c #0B0B0D",
"+  c #080807",
"@  c #140807",
"#  c #0B120B",
"$  c #16120D",
"%  c #0D0E11",
"&  c #0B0913",
"*  c #120D14",
"=  c #0D1213",
"-  c #0E1719",
";  c #121315",
":  c #16161A",
">  c #151A1A",
",  c #1B1B1D",
"<  c #191817",
"1  c #251A18",
"2  c #29110D",
"3  c #1B211D",
"4  c #2A241A",
"5  c #1D1E21",
"6  c #151D20",
"7  c #241E24",
"8  c #1E2123",
"9  c #1C2926",
"0  c #222325",
"q  c #252629",
"w  c #252A2B",
"e  c #2A2B2D",
"r  c #292727",
"t  c #352929",
"y  c #34332D",
"u  c #2D2E31",
"i  c #2B2C34",
"p  c #332E33",
"a  c #2D3232",
"s  c #2C3935",
"d  c #323335",
"f  c #353639",
"g  c #363A3B",
"h  c #3B3B3D",
"j  c #3A3837",
"k  c #2D322E",
"l  c #433A39",
"z  c #4F312B",
"x  c #683C34",
"c  c #522619",
"v  c #3B413D",
"b  c #3D402B",
"n  c #6B473A",
"m  c #554E3B",
"M  c #3C3D41",
"N  c #3A3E46",
"B  c #433E43",
"V  c #3E4243",
"C  c #3E4948",
"Z  c #424344",
"A  c #454649",
"S  c #464A4A",
"D  c #4A4B4C",
"F  c #484847",
"G  c #4D4E51",
"H  c #4A4750",
"J  c #4D5153",
"K  c #4A5457",
"L  c #525355",
"P  c #5A5B5D",
"I  c #565759",
"U  c #504E4D",
"Y  c #6C5652",
"T  c #5D5D61",
"R  c #645C64",
"E  c #5C6264",
"W  c #626365",
"Q  c #68696A",
"!  c #6D6E71",
"~  c #6E7273",
"^  c #777779",
"/  c #756A68",
"(  c #5D625B",
")  c #AC543B",
"_  c #C25639",
"`  c #8E6B55",
"'  c #AE6B56",
"]  c #8D726C",
"[  c #AE766D",
"{  c #A25B51",
"}  c #E95B55",
"|  c #D26A52",
" . c #E96459",
".. c #FB645C",
"X. c #E67054",
"o. c #EE5E66",
"O. c #D4736D",
"+. c #E76566",
"@. c #FD6463",
"#. c #FB6868",
"$. c #ED7473",
"%. c #D65150",
"&. c #80382C",
"*. c #7F857B",
"=. c #8D837C",
"-. c #B48675",
";. c #B18D60",
":. c #C78777",
">. c #D68C74",
",. c #F0906A",
"<. c #F8AE73",
"1. c #D2A66D",
"2. c #EADB75",
"3. c #F2DD75",
"4. c #F5DD7A",
"5. c #F9DB79",
"6. c #EDD16E",
"7. c #F5E279",
"8. c #EDE272",
"9. c #E2C660",
"0. c #7D7E80",
"q. c #A57A8F",
"w. c #F17C83",
"e. c #D37C82",
"r. c #7C8284",
"t. c #838384",
"y. c #8B8B8C",
"u. c #86878A",
"i. c #8C8E91",
"p. c #8D9292",
"a. c #939394",
"s. c #9B9B9C",
"d. c #979799",
"f. c #948E8E",
"g. c #A88B87",
"h. c #B29293",
"j. c #9CA29D",
"k. c #A6A39E",
"l. c #BEAB96",
"z. c #9D9EA1",
"x. c #B196A5",
"c. c #9DA2A2",
"v. c #A3A3A5",
"b. c #ABACAD",
"n. c #A6A8A8",
"m. c #B6AAA8",
"M. c #ADAEB1",
"N. c #A8A7B1",
"B. c #ADB2B2",
"V. c #AEBBB4",
"C. c #B3B4B4",
"Z. c #B5B6B9",
"A. c #B6BABB",
"S. c #BBBBBC",
"D. c #B9B7B6",
"F. c #B0B0AF",
"G. c #D79888",
"H. c #C99B97",
"J. c #CC918E",
"K. c #F0938F",
"L. c #D7A597",
"P. c #CDA792",
"I. c #EBA895",
"U. c #CB96AC",
"Y. c #C7A8A7",
"T. c #D5A8A7",
"R. c #C6BAB7",
"E. c #D6B8B7",
"W. c #D4AFAF",
"Q. c #E7B8B9",
"!. c #FAB7B7",
"~. c #EEAEAE",
"^. c #F79CA4",
"/. c #BCC3BD",
"(. c #AEC1BB",
"). c #FDD989",
"_. c #FCD08E",
"`. c #FEE487",
"'. c #FBEB98",
"]. c #C4C2BE",
"[. c #D9C6B5",
"{. c #F3C9B8",
"}. c #FCF0A8",
"|. c #C7C588",
" X c #BDBEC1",
".X c #B8BCC3",
"XX c #C6BCC3",
"oX c #DCB3C6",
"OX c #E9ACC8",
"+X c #F6ADCA",
"@X c #E9B5C9",
"#X c #F6B5CA",
"$X c #F8B8D3",
"%X c #EAB5D4",
"&X c #DE9CC0",
"*X c #BEC2C3",
"=X c #BEC5C7",
"-X c #C2C3C4",
";X c #C5C5C9",
":X c #C6C9CA",
">X c #CBCBCC",
",X c #C9C8C7",
"<X c #D5C9C9",
"1X c #CDD2CE",
"2X c #D7D3CC",
"3X c #CDCDD1",
"4X c #C6C8D1",
"5X c #D5CCD5",
"6X c #CDD1D2",
"7X c #CBD5D6",
"8X c #D3D3D4",
"9X c #D4D5D9",
"0X c #D5DADA",
"qX c #DBDBDC",
"wX c #D9D7D7",
"eX c #E5CAC7",
"rX c #FBC6C7",
"tX c #FBD8D9",
"yX c #EFD0D3",
"uX c #DBE1DE",
"iX c #E5E4DC",
"pX c #FDECD8",
"aX c #DCDEE1",
"sX c #D9DBE2",
"dX c #E5DCE5",
"fX c #FBD9E6",
"gX c #EBCDE2",
"hX c #DDE3E4",
"jX c #E2E3E4",
"kX c #E5E6EA",
"lX c #EBEBEC",
"zX c #E7E9E8",
"xX c #F9E7E9",
"cX c #F7F5EA",
"vX c #ECEDF2",
"bX c #FCEBF5",
"nX c #F2F3F5",
"mX c #FFF4FB",
"MX c #F6FAFC",
"NX c #FDFCFD",
"BX c #F8F7F7",
"VX c #ECF2F1",
/* pixels */
"G : P w D h q t.-X8XnXv.Q G e F U L G Z.6X7X0XP w J S Z D 5 g I f * L w S S g y.S.dX5Xz.^ F y F Z I T S.3XsX7XV g I M L Z > f Q 0 e T > S V h a.-XjXlXy.! Z k F F J Q S.;X",
"h u q S h M q y.9Xb.P ;   h G , e r X X Z.9X*XM = = J e ; w p 7 q p g V - g v s.3XM.P     h Z $ d r   q 8XaXA.g o = S a 5 w i d p q a S a f f b.3Xi.P X   V D ; w d   ; -X",
"% O : L h = o Z.-Xa = Q 5 0 d : >   S K q a.NXB p h w Z w Z d F : X w G C   r wX,Xr f W ; d 8 X r   v V u n.BXl h j r F w W F > = o q J M   q 9XM.* q ! = k 0 : :   I f Z ",
"h D f : ; = T jXd ; g Z 5 0 M q a S S w   7 bXs.1 F   3 d d 0 u A J e O w X a.iX0 ; U g 8 w g u w S J q   7 nX/ r U   # 8 F e : V K 0 % e % ^ qX; : V A - w V u e L S w : ",
"M J D w 5 , S.:X> V   Z D q q D : w s s S O ^ ,X; > P Z   ; G w e D H r : p kXz.= g X k f > 8 s - w a h Z O ^ v.X e W d X : F j M Z B r 0 f wXa.9 s   Z g 8 M h ; h h h A ",
"f h G 5 % T MX^   E f 0 f D e d D 8 w S V ; o jXS.  q f Z Z , G 3 j j 7 * R nXM X d e j r j Z e d e 7 j @ . @ kXy.  u e W M % T : B F 0 + f.NXD o I 0 e d L q h h , u V d ",
"L , h X d aXjXG : q D 0 Z P : f P Z e q d g : t.3Xy.%   V s I 9 s = r   j wX8X~ u.k.<XY.Y.Q.Y.W.eXE.l.E.x.] / f.XX^ % X d % P g d r y   ( lX,Xl ; r U r L F O h P j ; j D ",
"O   ; W lXnXkXI X 0 a h 5 o 5 X 0 * + p 0 w = c.dXlXXXM   o k 3 $ 4 U g.cXcXiXcXcXcXcXpXpXtX{.{.{.{.rXtXtXtXfXtXyXxXE./ t l D ;     1 f.VXzX<XU X ; l l 1 $ +   h   O h j ",
"u.S.y.BXjXB.:Xt.h Z 5 w P d.v.p.M.y.q.P F S 8 a.qXv.:X8XC.R.] Y.T.{.tXpXpX}.}.}.'.'.'.'.'.'.)._.<.,.>.$.w.K.^.^.^.!.tXtXtXtXY.g.g.m.m.BXwXd.Z.r.M d q h P z.z.v.D.~ ^ I E ",
">XzX>XA.b.*X6XW : 5 J 9XMX9X-XaX>X8XnXS.e   8 F.5X<XR.yXxXtXtXtX!.G.{.}.).2.2.2.2.2.2.2.2.8.4.5.).5.<.,.X.%.%. .+.+.,.K.^.~.!.tXxXxXeX<X,X>X-Xf % g ! kXNX7X-XjX-X9XlXb.0 ",
"jXVXvXy.v.8XnXA % Z.jXu.jX-XA.aX9XNXS.n.c.C   s.xXxXtXrXrX!.^.$.| 1._.).2.2.7.8.8.7.7.2.2.2.4.5.5.3.7.`.).<.X.} ..@. . . .+.+.K.^.!.rXrXrXtXeXU p 8X;Xi.kX*X:X6XhXNXb.A.d.",
"8XC.:XqX0XqXs.% C.lX-XM.6X8XC.>X3XB.s.>XNX/.y h.tXrX#X^.K.$.o.%.,._.).5.3.8.8.8.3.7.7.7.4.4.4.4.3.7.8.8.7.`._.,.| } ..#...@.#.o.o.+.K.^.!.!.tXtXtXxX].j.kX:Xb.0X;Xn.s.qXNX",
"C.a.v.>X>X3Xh   aXC.MX-Xv.3X*XC.zXF.S.R.m.tXrXrX!.^.w.$.+.+. .X._.).5.5.7.7.3.3.2.4.5.5.5.4.4.3.3.2.3.7.7.3.7.`.5.,.X. .@.#...@.#.#. .+.$.K.^.!.#X~.E.R.].1Xn.:XzXv.D./.C.",
"8X-Xn.>X9Xv.o t.BXa.-XC.S.C.-X;XC.<XR.E.rXrX!.K.$.+.o.#.@. .| I.`.3.7.6.3.7.7.7.`.).5.5.5.4.4.3.7.7.7.4.2.3.8.2.4.'._.X.} ....#.@.@.+.#.o.o.#.$.w.O.-.Y.].b.:X-X;XqX>Xn.0X",
"n.>XC.nXqXe   z.0XS.s.9XS.u.9XA.=.eXtXrX^.w.o.o.o.#.@.....X.<.).7.7.8.7.`.3.3.4.3.3.3.3.4.7.7.7.4.3.4.7.4.4.7.7.7.3.`._.,.|  .}  .$.$.+.@.#.#.@.} O.W.2Xk.c.kXM.t.n.jXC.C.",
"lXnXlX-X0   O d.kX3X6XC.A.wXXXE.tXrX^.w.o.@.@.#.#.#.@.....X._.).2.7.3.3.3.7.4.4.4.3.8.8.8.3.3.3.4.4.7.7.4.3.4.5.5.5.).}.'.G.K.^.rXrX!.O.$.$.$.O.$.G.[.m.A.lXvXkX XnX:XA.*X",
"B.E ^ X . l 7 ~ ;Xn.7X7Xk.g.tXrX^.K.+.} @.@.@.@.#.#.#...} ,.).4.4.4.3.8.3.7.3.7.7.2.7.7.7.7.7.7.3.8.8.2.7.`.`.`.).)._.I.` ` g.R.h.] Y 2 Y [ [ h.Q.oX].8X;XQ u.i.F M.S.d.s.",
"s o q 7 B j 0 t.0X6XC.4 x !.^.w.+. .@.#.@...@.@.#.@.#.@.} <.'.2.4.6.7.3.3.7.7.3.4.3.3.4.3.7.5.4.5.7.`.`.'.)._.<.>.>.[ c 4 @ O w o : f % 0 , , s.9X8Xn.0 o , 8 = w q q W 9X",
"a o o P L k   d.hXS . [ ^.w.+.+.#...#.@.@.#.@.@.@.#.@.} ,._.5.8.8.7.3.2.7.6.3.7.4.5.4.`.`.7.3.6.5.).<.<.,.,. . .O.' z j 3 F S k e   = W A ; : S.0Xq > Z X A a w ;   u , a.",
"0 d d > 0 = L qXl 2 g.K.$.o.#...@.#.@.@.#.#.@.@.@.@.@.} ,.).3.7.8.7.4.5.5.).`.`.`.5.6.6.6.6.9.2._._.| | } } #.+.K.x   8 3 P e o e S , , g X ! jXf   f P 5 e M = e e P 8 O ",
"U P Z e , , y.tXz K.K. .#.#...#.@.@.@.@.#.#.#.@.@.....X.<.`.4.7.`.`.`.).)._._._.6.9.9.9.9.9.2.'.[.n [ >.$.$.$.O.z < w 9 X * T M L L e 5 f > -X:Xo d q Z q q V w , P q f F ",
"y 1 t d u h E.H.O.$.+.#.@.@.@...@...#.#.#.+.$.+. . .+.,._._.).5.<.<.<.,.>.' 1.;.P.}.`.5.7.`.}.|.b . 2 ` [ ' [ rXl   W G N 5 0 W X q e M , W 8XZ X U , T f f a w 5 0 : M a ",
"F t H @   b.eX[ >.O.,.$. .#.#.#.#.#.o.w.e.[ [ [ J.[ n n -.>.,.X. . . .} ) :.<Xj Y P.).'.'.}.l.m j U O h l t l k.k.<   ; Q u p D a w Z   > :XkXF > Z F O M L 8 g Q Z : Z Z ",
"u O . * V.NXyXn c &.&.O.$.#.#.+.+.+.K.{ z 2 @ m.xX[.(   @ x O.+.o.o.%.O.^.xXsXs o # Y 1.;.` +   ; , , 9 9 - 8 v.nXjXQ +   ; T : O X   f 9XNX:XF : % f h G %   q q O g d F ",
"s W Q wXMX:XiX] . t @ c O.+.+.+.>.:.Y 2 l l . t.wX<XcXy.( / [ e.K.J.~.rXeX].0XE = w t     U s v *.y + j G q : N.3X8XMXr.! t.r u f Q t.nXnXS.:X! X f e ; o ! F f y.0 % M P ",
"(.0X1XVXj.V.*Xr.5 > q h.rXK.>.G.J.l.d.y., 5 g u.B.Z.3X>X*XqXoX@X@XyX<XwXC.b.*XQ , - M a.Z.:XA././.V.b.] * 5 B z.N.-X6XV.S.jX9Xv.0X8X9XlXb.v.-XW , , h z.-X-X;XA.;XC.s.0.5 ",
"4XkXlXf.k.D.iXP o ^ 9XS.bXR.m.2X2XBXiX0XW q 8 =XlXuXb.v.jX>Xn.F.<XiX2Xf.F.].-Xv   u.-X9XBXB.S.lX:XnXnX XL e r >XlXlXv.j.0XA.M.XX>XlXuXy.n.3X6Xd % b.-X8XBXb.A.8X9XnXBX6XL ",
"vX;X-X,X>XqXS.; ! vX9Xi.6X7XV.0X1XzXa.b.NXd.  p.c.n.lX3X8XC.0XV.=X,X-X3X-XzXd.  ^ zXn.d.>XS.8XaX6XlXc.=XNXt.  v.d.s.zX8X0Xu.XXnX9XA.;X:X-XlXz.X p.nXS.t.qX>X*XqX8XhXu.6XBX",
"A.v.S.9XaX9X~   6X-XA.A.7X3X.X=X;Xs.*X9X4XsX% V nX6XaX=XqXhXb.A.M.z.;XsX5XqXd > kX].n.].3X;XZ.;X4Xz.M.7X9XaX: ^ nX;XjX6XhXuXn.R.s.v.6XjX XqXJ : jXA.S.A.jX>Xb.>X-Xa.;X;X>X",
"8X8Xb.;X7X*XC E lXn.zXp.v.XX9X3X;X3X9Xc.N.MXZ., 1X0Xr.B.qXjXn.n.vX9XM.>XdXC.f u.kXb.3Xy.,X,X-X3X;X3X9Xa.Z.VXb.f kX-X0.Z.0XkXb.f.VX9Xn.;X8Xn.e i.0Xb.lXu.-X;X8X;X>X8X>Xc.-X",
"D.D.d.aXNXQ   t.hXd.v.lXS.u.8XZ.a.Z.>Xb.Z.1X>Xj < jXlXVXa.s.>XC.A.S.n.jXBXQ X z.9Xz.v.zXb.d. XZ.s.M.>Xv.-X1X/.w Z MXlXjX^ D.0Xc.*Xb.n.lXlXg   n.0Xv.M.jXb.a.wXF.z.A.>Xn.-X",
"-XqXjXMXW   X c.8X0XS.S.n.S.qX;X>X8XXX8X,XD.2XR + 0 n.MXvXaXt.jX:X7XlXzX!   % =X4X0XC./.s.A.nX>X8X>X8X1X-XwX-XL   q b.NXBXqX^ 7X0XqXqXkXZ   0 n.qXjXB.-Xs.8XVX:X X8X-X:XS.",
"lXA.B.S   ; O y.MXA. X4XaXS.b.8Xd.8XvXS.D.S.zX/ , : X r.B.b.1XD.zX*Xj.e   , , M.nX-XM.S.BXb.6X9Xy.qXNXC.S.8XaXL 5 o   a.C.a.6X:XlXC.d.0   w 0 z.NX-XC.:XaXc.-XhX^ vXlXZ.C.",
"L , q   A F , Q 1XwX9XN.W M d F r e E d.S.-X>X^ Z g 6 9 9 = F F f 5 = X F A w ^ >X0X-Xv.Q d h M : f Q d. X9X*XT S Z , u 0 ; S Q e q 5   A A d t.6X8X8Xd.W a u V > h ^ s.S.",
"h ; & T G u O a.zXd.Z q X p l < e     8 n.jXqXt   + I V O 0 p t 7 ; d P j u e b.hXv.Z %   h u : u     g *XlX>Xw   X L G : w u e q X q W M 8 0 C.hX^ M ,   h h , 5 X   0 S.",
"O > q Z a , 1 -Xs.> : E 5 w j $ ,   L G o ^ NXL l U , k q f p j : ; e V a X Z jXs.; Z I 5 d , X q   F M o y.NXZ J D , u 5 W g O % 0 e g f o j qXt.o h W , u 0 ; : X P d q ",
"D D u 8 = % ~ lX, ; h g 8 8 h r 0 I Z 5 o = vXs.; r   k q 0 g M A I q ; e X M.qX% > A f 5 0 Z e q P F :   = jX^ > e X q , q V q D L ; ; f X s.9Xo 8 f F O 5 D 0 d P h 0 , ",
"h r G a 8 q n.C.% h   J J 9 3 y w d , D S   Q -X  q Q F + o T f : d Z e 5 d S.y.O j : T f q u e , j 0 J Z X W d.  f W h   ; L L 0 q A e w d ;Xt., d   T M 5 d q ; f w F D ",
"B h W >   ! NX^ @ W Z 3 s I 8 g T 8 e I Z 9 > /.S.O : @ I G 5 M w h L 5   ! BXP q P Z : Z I e h P e q T f w g 3Xs.  ; , ~ M O L q L L ; X s.BXL 0 T f 5 h I , A J q d F Z ",
"D 7 , X E MXlXD 1 , B q Z G , u Z h e : k d # y.jXb.0   q q W 0 j 5 : X P MX0Xw 0 0 Z u J S ; d h f , q d 0 e s.9Xv.0   0 > ! d e , 0   t.NX-XZ : : Z q I g o f F u 5 u S ",
"% X e p.MXhXqXQ   p j Z , ; i & f %   f e d . d.>XkXhXE > : 0 0   X h n.vXqX6XM   w A S   q X X M     f e , ; n.6XMXqXP ; e 5 ,   ; Z Z.NX9X>XG   q S M ; u O   G   X Z Z ",
"f.>Xn.NX=XM.8Xu.p p % , I z.Z.d.S.s.t.A h j $ t.,Xa.wX7X/.8Xu.=.s.;X>XNXS.c.-Xt.d 8 e 0 I n.v.s.;Xs.! F D e 5 s.M.i.kXS.*X9Xu.W C.C. XNXZ.s.S.r.d , : w T n.M.z.*Xa.Q Z I ",
">XnX1Xa.=X6X9XI % u Q S.BX9X4XaX7XnXBXv.M o o -XMXiXv.m.wXVX0X1XjXlXb.s.aX:XA.A 0 u ! >XNX>XaXnX6XjXMXy.0   , 8XnXaXs.z.hXvX0X-XqXBXC.v.8X8XA.M o L ! 9XnX>X3XlX8XlXlXs.e ",
"nXqXzXd.B.0XvXN w ;XqXt.kX=X.XhX7XMXn.b.:XT X C.D.R.yXg.tXD.D.B.8XvX9Xs.M.jX3X: 5 ;XA.s.jXS.8XlX>XMXZ.Z. XG X S.M.A. XM.;Xy.b.qXkXaX8Xs.Z.lXqXO Z jX;Xy.lX;X>X0X0XNXs.-XZ.",
";Xb.;XqX0XsXp.o :XlX2XR.2X1Xn.:X0Xj.j.8XMXaX  a R.W.@XU.T.h.2XS.n.v.qXjX XnXG O qXnXA.b.3X>Xn.8X3Xv.s.aXNX8X  t. XC.NX9X8XM.S.aXn.v.jXjXA.kX! O jXjX;Xv.kX>Xz.qX6Xa.v.wXNX",
"Z.C.n.S.9X:XI > qXF.pXR.l.Y.2XS.-XD.qXD.a.xXq.f.bXoXq.U.T.Q.g.R.3Xb.d.:X6XA.e J jXC.qXn.C.-X:XA.hXB.>Xv.v.BXW ! NXS.y.S.NXzXy.n.Z. Xb.-X-X Xu P 0X*XvXc.C.>X*X-XhXZ.>Xv.n.",
"6Xn.u.>XdXs.o Q wX=.-.H.L.rXyXY.oXfXY.U.E.W.yXyXOXW.U.h.T.T.T.eX2Xv.v.>XjXd.X y.8Xt.b.>X-Xv.:XA.v.qX-Xp.Z.;X*Xo Q VXM.>Xy.b.nXn.8Xs.d.0XaX!   s.:Xt.A.3XS.n.6XB.Z.uXC.v.-X",
"M.7X XnXZ.;   n.dX<XH.J.I.I.rX#X@XOX#X$X$X#X#X$X+X$X@Xh.h.T.H.T.R.>X;XnXS.; X ;X8X>Xb.3Xs.s.9XZ.v.v.0X:X X9X-XI e t.aXNXC.qXu.Z.S.8X-XBXa.  0 M.jX8Xb.6Xd.M.qXS.s.b.qX-XZ.",
"nXMXzXj.    ; d.vX3XE.H.:.I.~.!.#X$X@X@X+X#XOX+X+X#X$XOXx.h.T.H.W.xXqXt.= X 8 S.zX8Xb.v.0XjXNXkX*XnXvX-X:XwX3XU ;   h b.NX1XA.0XNXnX9X^   O u v.lX0XB.n.>XjXzXlXb.NXqXb.*X",
"d.M I   $ v , ~ 7XB.zXtX[ G.I.!.#XOX+X+X$X+X#X#X$X+XOX$XW.h.Y.T.Y.Y.1   0 C 8 *.-X-X;XzX=XG ! ~ a W C.C.s.>XwX( j F   Z f w v.s.! J M   e G u 0.8X-X6XhXB.S Q ~ e ^ M.C.d.",
"e   d f h e , a.6X8XR.l z L.I.I.#X$X+X+X+X+X+XQ.W.@X%XgXbXdX;X<XE.P.] 2 @ j F s.:X0Xv.u X 5 =   q 3 # ^ wXlX/.0 ; 3 D Z ;     d   o Z u q h g n.>X3XA.e   8 :   e , : ~ 9X",
"> X   L G d o a.1XF o B $ ] G.L.~.#X#X$X+X+X~.Q.fXfXmXmXmXNXdXXXT.T.~.g.m . , Z.0Xh r Z * F q   w   q e W B.9Xe a k f h e P G q ;   > I S = 5 -X*X> 0 L = M e : ,   h q ~ ",
"d F e : 7 = I zXj   0 S w $ [ L.I.!.#XoX@X@XtXxXNXNXmXmXmXxXfXW.h.h.T.!.P.4 =.VXa   l l r t h 3 7 B T > X q MX~ C S   8 0 D p % v G > < d o ^ jX:   w L ; e A 5 0 F P ; O ",
"D D A p 0 : d.jX< l , C N 0 t [ G.I.Q.tXxXbXNXNXNXNXxXgX%XoX@X$X&XU.J.T.~.H.iXa.  A r B Z y w d q Z q A V = B.^   a S w     Q B F v h r r 8 -XA., M , Z f u d u q D , A P ",
"q g P r , d uXu.+ W r Z S k @ n :.G.L.xXmXNXmXbXfX#X@XOXOX$X+XOX$XOXq.q.U.T.E.] 4 f i A e f p d u - w I A : q jXI % W g N h : A o B D e , P zXP 7 T 0 G d g e f 5 ; j A h ",
"L u j   < D.VXI = e l % Z U , t Y J.L.L.tXxXyX@XQ.~.+X#X+X$XOX@XOX@XgX%XR.oXE.T.g./ t % L D u M V K 8 w f 8 f z.M.h X * I q A g h 0 h   p wX9XB % d e , G Z q g G D , d A ",
"5 X   d wXNXuXK > q e F j % % : . z [ I.G.~.Q.@X+X$X+X+X+X+XOX@XyXxXNXNXvX9X<XW.~.~.` Y r :   > 0   ; d e 8 q v.lXlXu.k   # D <     ; W lXBX;XJ * ; Z F f O   : d   e Z A ",
"S y.y.lXzXS.uXu.& M e   < ^ r.K d./ n ` G.I.~.#X#X%X@X@X~.#XfXbXmXmXNXNXNXdXm.h.J.L.{.h.Y ] ( I b.Q 5 h G , ; v.>X].NXy.f.j.v f P a.d.MXlXn.3X^ % g e   0 u.~ I b.I > h W ",
"7XnXS.dXb.C.,X~ 0 % = p.wX>XqX3X;XD.R.l.' :.I.~.#X%XoXeXfXbXmXNXmXmXxXyX@X%XOXU.x.q.h.W.W.W.tXpX<X>X>XQ # o a B.D.D.Z.D.-XlXnXB.lXjXA.8XZ. XB.E q o w B.8X1X>X9X;XS.S.Q 0 ",
"7XhXkXs.d.;XlXQ : i.6X=XlXC.v.qX;XnX5XR.[ -.G.L.T.rXbXmXmXNXNXxXfX%X@XOX+X+X$X%X&XU.x.Y.E.E.Y.Y.Y.R.2X2X/ l . D.wX<Xk.m.R.k.n.9X<XzX8Xs.s.wXhXV 9 B.-X:XlXb.S.>X8XlXqX8XQ ",
"uXZ.;X8XqXqXD.  a.VX0Xd.3X9XM.9X0X0Xt.C.NXh.n -.>.I.pXcXmXfX%X%XOXOXOX+X+XOXOX%XfXmXNXkX3X4XXXW.L.L.T.H.rXP.x T.g.g.tXyXiXf.].lX<XR.<XwX].VXd.  B.nX-Xa.qX8XC.aX9X>Xt.0XNX",
"b.s.B.9XaX3XQ   9XC.-XA.;X X-X;X:Xs.1X,XM.5Xt ` G.;.P.{.eXE.OX+X+X$X%XOXOX@XfXbXmXmXNXNXbX5XU.x.J.J.H.H.L.T.Q.h.H.Q.{.Q.eXeXE.Y.g.g.E.eXR.2Xy y wXC.S.Z.8X;XA.;XS.c.9XZ.M.",
"dX>Xj./.9X-Xd W zXa.jXs.N.3X0XS.:XjX7Xc.v.mXXX. g.P.-.:.G.!.$X#X$XoXOXyXfXmXNXNXNXmXfXgX%X%XOXOX&XU.q.h.h.x.XXE.E.E.H.H.H.L.L.L.~.L.H.H.T.W.2 d.wXv.kXa.A.>X;X;XaX8X-Xb.-X",
"m.>X*XzXnXE   a.zX].R.jXC.b.*XF.d.j.A.*X>XdX9Xd l eX~.G.[ J.~.Q.@XtXmXmXNXNXmXbXfXyXOXOX+X$X$X%X%X%X%X%X5XsXgX5XoXY.H.J.J.H.J.J.J.J.L.yXyXY @ m.zX-X8X8Xb.M.S.b.s.v.:X;X8X",
"9XkXVXlXh X   z.0X6XZ.C.C.>XjX>X>XqX-X:X>XS.qXP   1 g.tXeXE.H.T.~.{.pXcXmXbXyX@XOXOX#X#X+XOXoX%XgXmXNXNXNXmXbX@XW.T.U.W.U.U.OXoXyXiXBX,Xr   4 k.qXkXM.F.v.qXVX1XS.jX-X XC.",
"6Xa.u.0 X 8 O ^ MXC.-X0X0Xs.y.>X*.n.uXS.n.S.kX^ : ,   / f.] Y.P.L.:.L.~.Q.T.Q.+X#X$X+X+XQ.yXfXbXmXmXNXbXfXgXOX@X$X+X$X$X$XgXoXgX3Xp.! O   f 8 a.BX-XZ.0X0X^ F.-XT >XzXb.n.",
"h X f X h S e ~ ;X9XlXa.h f 5 0 , y h a.:X3X;XE g M j 1 1 . 1 x ` -.G.>.G.I.I.I.~.~.~.rXxXmXmXmXmXbXtX$XOX+X#X#X$X$X$X$X$Xh.2 p X : i   B F Z u.;XhX0X~ S q ; q 7 u I d.:X",
"d ; , I D f % u.9Xt.d , X j D 5 e : X ; v.>X Xq = w P u 0 y l $ 4 z ` G.>.>.>.K.K.G.I.~.{.{.{.rX{.~.^.~.!.!.Q.$X$X$XyX[ Y ` Y z 1 @ 1 G H q > N.4XE v > o D j 7 e : o 8 C.",
", d q d 8 X q 9Xu.; 0 I q , j 8 0 X W G   Q NX~ M S X a q h , d w e > 4 m ` [ ' O.>.>.>.>.>.>.>.>.G.K.K.I.I.Q.h.g./ 7 @ @ Y P.L.-.n z 1 :   K vX!   a P : 5 h : : O ! e O ",
"D L d ; : : ^ nX; a d h 8 w f u d I e q e ; 9Xn.X 8 = a , = M V C C s o # 1 g.J.{ | ) | | | X.O.>.>.>.>.I.L.E.l . ;   r + @ [ J.L.{.P.] U @ C.,X  j j j * e B e j W 0 d h ",
"e w L j q , C.n.; Z   J P 5 , d 5 0 d A I   L >X8 w ^ S = 5 G u o a D u 0 r R.k.t n { ' _ _ _ _ _ ) [ ` Y z / m.# k ~ v . 1 t Y ] -.L.~.!.[ Q.] 1 4   W B 7 q e % w h Z D ",
"F e h :   ^ NX!   G h , d L d f V h e h w + ; qX*X  o w G A 5 Z u q e 1 X ^ NXl . x :.' | | | _ _ O.x 2 @ . 7 jXy.  # r W d & H $ z ` { ' G.L.T.] / 4 , f A p f f h w j 0 ",
"h o o   i.MXnXf % q A h h Z ; w a 8 , 0 0 r O s.lXS.h   > ; I d q O   X u.BX[.` [ >.:.:.[ { ' :.O.K.:.` t   % C.uXD.d   : = E v #     $ E.tXH.l.[.=.4 # g d O 7 F , : d j ",
": d I  XVXqXqX^   d d e , w F = D q X e j l . t.>XjXNX~ d h q w . y Q <XBXyXP.~.I.:.' x 2 z 2 n G.:.>.~.h.Y 2 k.wXcXMXW u L w - o V Q :XlX<XyXY / <XC.uX;X-X>X3X8Xe   M L ",
"C.lXb.BX Xn.-Xt.d u o g 0.n.>XC.;XF.s.P y d r a.A.a.:X8X>XnXb.s.R.xXtXrXH.-.P.Y.=.l $ t / m.D.m.R.g.H.-.G.~.G.P.g.m.5X3X9XkXn.u.0X:X/.MXZ.d.S.B T NXNXNXiXjXNXNXNXS.^ D D ",
"-XqX6Xs.C. X8XW : M t.0XMX>Xb.8X;X0XnX>Xd ; e S.lXiXa.,XqX>X8XwXtX[.-.h.L.{.[.U   k p.hXMX-X XaX X2XyXH.{ ' L.I.T.{.l.XX5XqX7X=X8XiXD.n.S.3X Xi W vXNXBXwX,XNXNXBX8XnX-Xe ",
"kX>XqXZ. XlXvXe d Z.>Xa.nXjXC.8X>XNXp.v.qXP   a.Z.A.lXb.-Xb.wX,Xm.m.R.2X<XlXR.+ e A.B.c.MX9X7X0X:XNXs.D.<X] n ] [ G.I.P.eXf.-XqX1X/.wX/.;XNX7X  Q BXNXMX0XhXNXNXMXzXt.8X-X",
" Xn.;XqXqX9X^ X 9XzX-XC.8X:XC.:X>Xp.b.uXzXjXX L qX=XBX:X:X0XC.R.k.m.wX0X=XaXH ; lXjXb.B.6X:Xn.:X1Xp.B.0XMX8X. g.tX-.' :.l.g.yXyXk.n.0XhXA.qXT ; wXVXNXBX8XvXNXNXNXc.b.8XlX",
";XS.s.A.3X>XG d qXn.NXn.a.:XqX XqX:X:XC.a.vX0.u lX;X^ v.BXqXu.>XqXC.s.S.8XZ.e T qXZ.jXc.b.-X8X;XqX-X-Xd.c.nX^ R xXm.] -.J.:.>.J.Y.;Xb.S.-XA.0 W 0XwXNXnXlXNXNXNXMX-XZ.n.M.",
"-Xb.b.qXkXz.  0.lXd.S.8X-Xn. XS.b.8X-Xz.XXvXqX  g NX>X-Xn.v.lXv.>XA.A.>XnXa.X s.jXd./.>X-XC.F.A.C.:X-Xb.:X8X:X  Q NX<XY.[ [ G.h.eXN.M.9XzXQ   j.hXhXNXnXlXBXNXNXNX3XS.C.8X",
"b.9X;XNXv.;   n.kX-Xv.:XZ.a.qX8Xn.:XlX>XZ.-X0XT ; Q 8XNXZ.6Xd.C.A.3X0XnXv.: O ;X0X*Xs.A.b.s.qX:XC.:XvXZ.;X9X-XG q ~ 1XNXR.eX=.m.>X3X3XBXr.  0 Z.:XNXMXNXnXNXNXNXNXkXjXC.Z.",
"nXjX:X~   O O y.lX;X-XC.9XjX:XkXA.aXkXA.:XM.aX! q   : s.qX3X:X3XnXkXZ.T O o : M.lX8Xn.B.lX:XnXzXb.kXMXS.S.8X>XW ,   , z.kX X;XqXNXqXC.L   > 3 s.uX:XB.VXlX-XlXzXv.BX9XC.A.",
"~ 0 Z X q F q ~ S.S.jX0Xs.D Z I q D ! C.v.C.9XQ e L , > q X ! ^ P q w X q D j ^ C.-X1X9Xs.D Z D , L u.B.s.-X>XD h I ; e : o 0.i.Z e u   q I v ^ -X:X1XA.^ e h F = P a.M.v.",
"5 > f d j e , a.9X>Xv.q   5 d : d w o f :XlX-XF % ; L w u :   O O : M h q d h s.;X9Xu.X X 0 0 O g w X G jXvXS.h ; ; D h u :   q O , D d e w d v.8XA.a.  X r w ; d u X D 0X",
"h q O Q L e 0 b.wXP O U 5 D F d e X f Z W Z.jXF w q d T 0 Z L G f 0 w W F q M ;XqXP w S : F v 0 e % e h ^ C.lXZ q 5 h P 0 I T h h > ; E F 0 h 8X>Xf 0 L : D V d 5 X f g 0."
};
