/* XPM */
static char *_73b42435b7849c0a9af9494d5a769f3[] = {
/* columns rows colors chars-per-pixel */
"85 85 256 2 ",
"   c #3C0E1C",
".  c #2D0F29",
"X  c #39152C",
"o  c #291A33",
"O  c #3A1C37",
"+  c #56111B",
"@  c #6C161B",
"#  c #74161B",
"$  c #75281B",
"%  c #47162A",
"&  c #4D192C",
"*  c #551625",
"=  c #531B2E",
"-  c #5A1C2E",
";  c #431B34",
":  c #561D32",
">  c #5D1E31",
",  c #631B29",
"<  c #621E32",
"1  c #45263A",
"2  c #562437",
"3  c #5C2233",
"4  c #532835",
"5  c #6A242E",
"6  c #682536",
"7  c #742534",
"8  c #792A37",
"9  c #73313A",
"0  c #3E1C48",
"q  c #372748",
"w  c #372F56",
"e  c #3A3967",
"r  c #3F3E71",
"t  c #431D48",
"y  c #502F53",
"u  c #693447",
"i  c #6D324D",
"p  c #753646",
"a  c #463A65",
"s  c #5C3565",
"d  c #663967",
"f  c #713E70",
"g  c #5B465B",
"h  c #7A4B54",
"j  c #464475",
"k  c #494573",
"l  c #4C4873",
"z  c #49467A",
"x  c #4C4A7D",
"c  c #734C6A",
"v  c #7B4775",
"b  c #7B6874",
"n  c #8D1C1A",
"m  c #92241B",
"M  c #AD2D1D",
"N  c #BB2A1C",
"B  c #9D1D23",
"V  c #94302D",
"C  c #862C36",
"Z  c #832D3C",
"A  c #84313D",
"S  c #8C333D",
"D  c #AA2725",
"F  c #B33329",
"G  c #C52C1B",
"H  c #C9341C",
"J  c #D6361C",
"K  c #DD3A1C",
"L  c #E23E1B",
"P  c #C93B27",
"I  c #D73922",
"U  c #D53D37",
"Y  c #A34F2F",
"T  c #B9532E",
"R  c #D9471D",
"E  c #E5451C",
"W  c #EC4D1E",
"Q  c #ED521C",
"!  c #F2551E",
"~  c #FA681D",
"^  c #FD761D",
"/  c #D94626",
"(  c #DA5625",
")  c #D04A32",
"_  c #E44824",
"`  c #EA4D24",
"'  c #E95726",
"]  c #F15721",
"[  c #E55430",
"{  c #D76726",
"}  c #D77236",
"|  c #E86827",
" . c #F66926",
".. c #E87627",
"X. c #FA7927",
"o. c #F17435",
"O. c #812F42",
"+. c #883A45",
"@. c #943844",
"#. c #9C3B44",
"$. c #A13E46",
"%. c #873A66",
"&. c #8B4448",
"*. c #994948",
"=. c #96554B",
"-. c #844955",
";. c #9A4B52",
":. c #A94548",
">. c #B2454B",
",. c #B7494A",
"<. c #AF524F",
"1. c #A65556",
"2. c #B8585A",
"3. c #B46A54",
"4. c #844B79",
"5. c #8D5772",
"6. c #BE5D61",
"7. c #8D6D79",
"8. c #B56F6F",
"9. c #C6564C",
"0. c #D2534C",
"q. c #C45C5A",
"w. c #CD714F",
"e. c #C86754",
"r. c #D56855",
"t. c #D9755A",
"y. c #E87959",
"u. c #C65F60",
"i. c #CD7163",
"p. c #EB832B",
"a. c #FD8324",
"s. c #FE8A25",
"d. c #F38729",
"f. c #FC852B",
"g. c #FD8B2A",
"h. c #FD922B",
"j. c #FD972B",
"k. c #EA8734",
"l. c #F88A37",
"z. c #FC9B34",
"x. c #F99539",
"c. c #FB9D3B",
"v. c #FAB02F",
"b. c #FCA33C",
"n. c #FCA939",
"m. c #FDC62E",
"M. c #FDC631",
"N. c #B18D72",
"B. c #D68559",
"V. c #F99A44",
"C. c #F2914E",
"Z. c #FAA747",
"A. c #FCB749",
"S. c #EDA85C",
"D. c #F8A657",
"F. c #FAB657",
"G. c #D68968",
"H. c #DB936A",
"J. c #D59373",
"K. c #E78963",
"L. c #EA9968",
"P. c #EA9671",
"I. c #D1A97B",
"U. c #F9B762",
"Y. c #F2A675",
"T. c #F1AB71",
"R. c #FCC255",
"E. c #FAC56F",
"W. c #4C4B82",
"Q. c #4F4F88",
"!. c #514F83",
"~. c #4F508B",
"^. c #565586",
"/. c #54548B",
"(. c #565692",
"). c #575894",
"_. c #595A96",
"`. c #725A87",
"'. c #6F6E92",
"]. c #66679B",
"[. c #7979A6",
"{. c #8B5684",
"}. c #965B87",
"|. c #975F90",
" X c #A25C8C",
".X c #94708A",
"XX c #A7638A",
"oX c #AD6C8C",
"OX c #AA778B",
"+X c #AA6C93",
"@X c #AE7894",
"#X c #9B9194",
"$X c #B18E91",
"%X c #A79697",
"&X c #AFA693",
"*X c #8A89A9",
"=X c #9997B0",
"-X c #B68AA8",
";X c #B296A9",
":X c #9FA0A4",
">X c #A3A3A5",
",X c #AAA6A9",
"<X c #A9A7BA",
"1X c #B5AAB2",
"2X c #B7B4B7",
"3X c #E59B86",
"4X c #CFB38E",
"5X c #EDAF88",
"6X c #E5B698",
"7X c #F6BB99",
"8X c #C29AAB",
"9X c #C59BB7",
"0X c #CAA5BA",
"qX c #CBB2B1",
"wX c #E8BBAB",
"eX c #DBC79A",
"rX c #FBCF88",
"tX c #FDE79C",
"yX c #D9C8BD",
"uX c #F2CDAE",
"iX c #9EA0C5",
"pX c #AEB2CC",
"aX c #BCBCC8",
"sX c #CFACC5",
"dX c #D8B8CA",
"fX c #DBBBD2",
"gX c #E1BFCC",
"hX c #C7C7CA",
"jX c #D4C9CE",
"kX c #DBC6D4",
"lX c #D6D6DB",
"zX c #E6D4C9",
"xX c #F5DACB",
"cX c #E3CAD7",
"vX c #EBD3D1",
"bX c #EAD8D9",
"nX c #ECE3D8",
"mX c #F9ECD4",
"MX c #F3E4DC",
"NX c #F8EADB",
"BX c #D8D9E4",
"VX c #EEDBE0",
"CX c #E7E7EA",
"ZX c #F7EAE1",
"AX c #FBF4E5",
"SX c #FDFAE6",
"DX c #F5F6EA",
"FX c #FDFBEB",
"GX c #EEEEF2",
"HX c #EFF3F6",
"JX c #ECF7FB",
"KX c #F3F5F6",
"LX c #F8F9F7",
"PX c #F3F6F9",
"IX c #F5F9FC",
"UX c #FDFDFD",
/* pixels */
"UXUXUXUXUXUXUXUXUXUXUXUXUXUXUXUXUXUXUXUXUXUXUXUXUXUXUXUXUXUXUXUXUXUXUXUXUXUXUXUXUXUXUXUXUXUXUXUXUXUXUXUXUXUXUXUXUXUXUXUXUXUXUXUXUXUXUXUXUXUXUXUXUXUXUXUXUXUXUXUXUXUXUXUXUX",
"UXUXUXUXUXUXUXUXUXUXUXUXUXUXUXUXUXUXUXUXUXUXUXUXUXUXUXUXUXUXUXUXUXUXUXUXUXUXUXUXUXUXUXUXUXUXUXUXUXUXUXUXUXUXUXUXUXUXUXUXUXUXUXUXUXUXUXUXUXUXUXUXUXUXUXUXUXUXUXUXUXUXUXUXUX",
"UXUXUXUXUXUXUXUXUXKXUXUXUXUXUXUXUXUXUXUXUXUXUXUXUXUXUXUXUXUXUXUXUXUXUXUXUXUXUXUXUXUXUXUXUXUXUXUXUXUXUXUXUXUXUXUXUXKXUXUXUXUXUXUXUXUXUXUXUXUXUXUXUXUXUXUXUXUXUXUXUXUXUXUXUX",
"UXUXUXUXUXUXUXUXLXLXUXUXUXUXUXUXUXUXUXUXUXUXUXUXUXUXUXUXUXUXLXLXUXUXUXUXUXUXUXUXUXUXUXUXUXUXUXUXUXUXUXUXUXUXUXUXLXLXUXUXUXUXUXUXUXUXUXUXUXUXUXUXUXUXUXUXUXUXLXLXLXUXUXUXUX",
"UXUXUXUXUXUXUXLXLXLXUXUXUXUXUXUXUXUXUXUXUXUXUXUXUXUXUXUXUXLXUXUXLXUXUXUXUXUXUXUXUXUXUXUXUXUXUXUXUXUXUXUXUXUXUXLXLXLXUXUXUXUXUXUXUXUXUXUXUXUXUXUXUXUXUXUXUXLXUXUXLXLXUXUXUX",
"UXUXUXUXUXUXLXLXLXLXUXUXUXUXUXUXUXUXUXUXUXUXUXUXUXUXUXUXLXUXLXLXUXLXUXUXUXUXUXUXUXUXUXUXUXUXUXUXUXUXUXUXUXUXLXLXLXLXUXUXUXUXUXUXUXUXUXUXUXUXUXUXUXUXUXUXLXUXLXLXUXLXLXUXUX",
"UXUXUXUXUXLXLXLXLXUXUXUXUXUXUXUXUXUXUXUXUXUXUXUXUXUXUXUXUXUXUXUXUXUXLXUXUXUXUXUXUXUXUXUXUXUXUXUXUXUXUXUXUXLXLXLXLXUXUXUXUXUXUXUXUXUXUXUXUXUXUXUXUXUXUXUXUXUXUXLXUXLXLXUXUX",
"UXUXUXUXLXLXLXLXUXUXUXUXUXUXUXUXUXUXUXUXUXUXUXUXUXUXUXUXLXLXLXLXUXLXUXUXUXUXUXUXUXUXUXUXUXUXUXUXUXUXUXUXLXLXLXLXUXUXUXUXUXUXUXUXUXUXUXUXUXUXUXUXUXUXUXUXLXLXLXLXUXLXUXUXUX",
"UXUXUXLXLXLXLXUXUXUXUXUXUXUXUXUXUXUXUXUXUXUXUXUXUXUXUXUXLXUXUXUXLXUXUXUXUXUXUXUXUXUXUXUXUXUXUXUXUXUXUXLXLXLXLXUXUXUXUXUXUXUXUXUXUXUXUXUXUXUXUXUXUXUXUXUXLXUXUXUXLXUXUXUXUX",
"UXUXLXLXLXLXUXUXUXUXUXUXUXUXUXUXUXUXUXUXUXUXUXUXUXUXUXUXUXLXUXLXUXUXUXUXUXUXUXUXUXUXUXUXUXUXUXUXUXUXLXLXLXLXUXUXUXUXUXUXUXUXUXUXUXUXUXUXUXUXUXUXUXUXUXUXUXLXUXLXUXUXUXUXUX",
"UXUXLXLXLXUXUXUXUXUXUXUXUXUXUXUXUXUXUXUXUXUXUXUXUXUXUXUXUXUXLXUXUXUXUXUXUXUXUXUXUXUXUXUXUXUXUXUXUXUXLXLXLXUXUXUXUXUXUXUXUXUXUXUXUXUXUXUXUXUXUXUXUXUXUXUXUXUXLXUXUXUXUXUXUX",
"UXUXUXLXUXUXUXUXUXUXUXUXUXUXUXUXUXUXUXUXUXUXUXUXUXUXUXUXUXUXUXUXUXUXUXUXUXUXUXUXUXUXUXUXUXUXUXUXUXUXUXUXUXUXUXUXUXUXUXUXUXUXUXUXUXUXUXUXUXUXUXUXUXUXUXUXUXUXUXUXUXUXUXUXUX",
"UXUXUXUXUXUXUXUXUXUXUXUXUXUXUXUXUXUXUXUXUXUXUXUXUXUXUXUXUXUXUXUXUXUXUXUXUXUXUXCXjXLXUXUXUXUXUXUXUXUXUXUXUXUXUXUXUXUXUXUXUXUXUXUXUXUXUXUXUXUXUXUXUXUXUXUXUXUXUXUXUXUXUXUXUX",
"UXUXUXUXUXUXUXUXUXUXUXUXUXUXUXUXUXUXUXUXUXUXUXUXUXUXUXUXUXUXUXUXUXUXUXGXjX,X&X4XeX%XCXUXUXUXUXUXUXUXUXUXUXUXUXUXUXUXUXUXUXUXUXUXUXUXUXUXUXUXUXUXUXUXUXUXUXUXUXUXUXUXUXUXUX",
"UXUXUXUXUXUXUXUXUXUXUXUXUXUXUXUXUXUXUXUXUXUXUXUXUXUXUXUXUXUXUXKXlX2X&X&XeXuXxXuXwX6X1XUXUXUXUXUXUXUXUXUXUXUXUXUXUXUXUXUXUXUXUXUXUXUXUXUXUXUXUXUXUXUXUXUXUXUXUXUXUXUXUXUXUX",
"UXUXUXUXUXUXUXUXUXUXUXUXUXUXUXUXUXUXUXUXUXUXUXUXUXUXUXLXlX2X&X&XeXuXuXuX6X6XY.T.Y.T.1XUXUXUXUXUXUXUXUXUXUXUXUXUXUXUXUXUXUXUXUXUXUXUXUXUXUXUXUXUXUXUXUXUXUXUXUXUXUXUXUXUXUX",
"IXUXUXUXUXUXUXUXUXUXUXUXUXUXUXUXUXUXUXUXUXUXUXUXCXaX>XN.4XrXuXuX6X6XY.L.L.H.i.3.w.Y.1XUXUXUXUXUXUXUXUXUXUXUXUXUXUXUXUXUXUXUXUXUXUXUXUXUXUXUXUXUXUXUXUXUXUXUXUXUXUXUXUXUXUX",
"IXIXUXUXUXUXUXUXUXUXUXUXUXUXUXUXUXUXUXUXGXhX,XN.I.5XuXuX6X6XP.L.L.H.B.3.*.&.1.1.t.Y.1XUXUXUXUXUXUXUXUXUXUXUXUXUXUXUXUXUXUXUXUXUXUXUXUXUXUXUXUXUXUXUXUXUXUXUXUXUXUXUXUXUXUX",
"IXUXUXUXUXUXUXUXUXUXUXUXUXUXUXUXKXjX2XN.N.H.5XuX6X6X5XK.L.K.B.e.*.&.&.3.G.L.P.3.e.K.,XUXUXUXUXUXUXUXUXUXUXUXUXUXUXUXUXUXUXUXUXUXUXUXUXUXUXUXUXUXUXUXUXUXUXUXUXUXUXUXUXUXUX",
"UXIXUXUXUXUXUXUXUXUXUXUXLXlX2X$X3.J.Y.6X5X6X5XT.T.L.K.w.<.S 9 =.3.H.L.L.K.K.t.<.:.2.,XUXUXUXUXUXUXUXUXUXUXUXUXUXUXUXUXUXUXUXUXUXUXUXUXUXUXUXUXUXUXUXUXUXUXUXUXUXUXUXUXUXUX",
"UXUXUXUXUXUXUXUXLXlX2X%X3.i.H.Y.3XI.I.L.5XY.H.w.e.t.t.e.9 i.K.K.K.y.t.r.e.<.&.h h +.>XUXUXUXUXUXUXUXUXUXUXUXUXUXUXUXUXUXUXUXUXUXUXUXUXUXUXUXUXUXUXUXUXUXUXUXUXUXUXUXUXUXUX",
"UXUXUXUXUXUXhX%X1.3.i.H.J.J.G.i.t.t.r.e.:.&.8 :.y.t.t.t.3 t.r.e.9.:.&.7.&XyXnXAXSXzX#XGXUXUXUXUXUXUXUXUXUXUXUXUXUXUXUXUXUXUXUXUXUXUXUXUXUXUXUXUXUXUXUXUXUXUXUXUXUXUXUXUXUX",
"UXUXUXUXUXhX3.i.G.G.G.e.r.r.t.2.:.A 8 6 *.3.G.e.t.9.9.9.: ,.:.-.#XqXMXZXNXNXAXSXSXSXAX,XlXUXUXUXUXUXUXUXUXUXUXUXUXUXUXUXUXUXUXUXUXUXUXUXUXUXUXUXUXUXUXUXUXUXUXUXUXUXUXUXUX",
"UXUXUXUXUX>Xt.3.e.r.e.<.:.&.7 5 &.3.w.y.t.t.r.2.,.:.#.@.% O.%XcXcXMXZXZXZXZXAXFXSXSXSXSXqXaXUXUXUXUXUXUXUXUXUXUXUXUXUXUXUXUXUXUXUXUXUXUXUXUXUXUXUXUXUXUXUXUXUXUXUXUXUXUXUX",
"UXUXUXUXUX>Xe.:.r.*.7 6 =.<.w.t.t.r.0.9.,.:.#.8 ;.Z 8 6 y -XkXcXcXMXZXZXZXZXAXSXSXSXSXSXAXyX,XUXUXUXUXUXUXUXUXUXUXUXUXUXUXUXUXUXUXUXUXUXUXUXUXUXUXUXUXUXUXUXUXUXUXUXUXUXUX",
"UXUXUXUXUX>X2.:.0.8 9 t.t.r.9.9.>.$.S A Z Z 8 2 2 2 2 c 9XsXfXkXcXbXVXVXZXZXZXMXbXMXAXAXAXmXzX>XLXUXUXUXUXUXUXUXUXUXUXUXUXUXUXUXUXUXUXUXUXUXUXUXUXUXUXUXUXUXUXUXUXUXUXUXUX",
"IXUXUXUXUX>X,.:.9.8 6 ,.:.#.S Z 8 8 6 3 b %XqXzXMXnX>Xq {.|.9XdXfXkXcXbXbXbXbXbXbXMXNXNXMXvXvXqX,XUXUXUXUXUXUXUXUXUXUXUXUXUXUXUXUXUXUXUXUXUXUXUXUXUXUXUXUXUXUXUXUXKXLXUXUX",
"UXIXUXLXUX>X2.;.>.5 2 Z 8 8 6 2 c %XqXvXMXZXZXAXSXFXFXnX%Xv {.;XdXsXdXkXcXcXcXcXbXcXcXkXgXdX8X7.y lXUXUXUXUXLXLXUXUXUXUXUXUXUXUXUXUXUXUXUXUXUXUXUXUXUXUXUXUXUXUXLXKXUXUXUX",
"UXUXUXUXLX>X>.+.+.4 ; 6 6 2 .XjXbXbXMXMXNXZXZXZXAXSXSXSXSXzXb `.+X-X9X-XsXcXcXcXkXfXfX0X@Xv c qXNXqX%XlXUXLXUXUXLXUXUXUXUXUXUXUXUXUXUXUXUXUXUXUXUXUXUXUXUXUXUXLXKXLXUXUXUX",
"UXUXUXLXLX>X6.&.8 y 1 2 ; c 0XkXcXbXMXMXMXMXNXAXSXSXSXSXSXAXnX.X`.|. X X@XfXfXfXsX-X}.f y s {.9XAXSXZXqX%XhXLXLXUXLXUXUXUXUXUXUXUXUXUXUXUXUXUXUXUXUXUXUXUXUXLXLXLXLXUXUXUX",
"UXUXUXLXLX,X8.5.6 y y .X-X0XsXdXfXcXbXbXbXMXZXAXSXSXAXSXSXNXMXnX.Xs {. XXXdX9X+Xv d s v +X0XbXFXFXFXFXFXAXzX,X2X2X2XGXUXUXUXUXUXUXUXUXUXUXUXUXUXUXUXUXUXUXLXLXLXLXUXUXUXUX",
"UXUXUXLXLX,X8.-.5.y q +X9X0XsXdXdXcXkXcXbXbXbXZXAXAXZXZXNXMXMXMXxXb s f 4.v d d v $XqXbXAXFXFXFXFXFXFXFXFXZXuXL.T.C.3.lXUXUXUXUXUXUXUXUXUXUXUXUXUXUXUXUXLXLXLXLXUXUXUXUXUX",
"UXUXUXLXLX>X#.5.u o o y }.;XsXsXdXdXdXkXcXcXbXbXMXMXMXnXMXbXbXvXzXqX.X.X5.OXqXzXZXFXFXFXFXFXFXFXFXFXAXuX3XV.F.U.C.X.X.) %XBXLXUXUXUXUXUXUXUXUXUXUXUXUXLXLXLXLXUXUXUXUXUXUX",
"UXUXUXUXLX>X;.-.O b ;X.Xs v -X0XsXsXsXdXdXsXcXvXcXcXkXvXjXdXqX0X-X.X7.zXNXSXSXSXFXFXFXFXFXFXFXFXxX5Xo.Z.U.D.l.C.X.X.X.X.l.k.3.CXUXUXUXUXUXUXUXUXUXUXUXLXLXLXUXUXUXUXUXUXUX",
"UXIXUXUXUX>X;.2 7.xX8Xv s y d }.-X0X-X0X0XsXdXdXdX0X8X-X@X}.4.c d #XMXFXFXFXFXFXFXFXFXFXFXxX7Xl.X.D.R.Z.f.l.l.f.X.f.x.c.f.X.' 7.CXUXUXUXUXUXUXUXUXUXLXLXLXUXUXUXUXUXUXUXUX",
"UXIXUXUXUX>X@.O 5.OXqXkX@Xv y d 4.}.4.9X9X0X0X-X5.4.v 4.c d d v $XkXAXSXFXFXFXFXFXFXxX7XV.h.l.F.E.Z.a.f.f.f.X.X.a.a.^ X.~ ~ ~ o.N.>XlXUXUXUXUXUXUXUXUXUXUXUXUXUXUXUXUXUXUX",
"UXIXUXUXUX>XO.X 5.oXoXOXqXqX|.f y v f +X-X+Xv c d d d d 4.$XjXMXFXSXFXFXFXFXSXxX7XD.n.z.V.U.F.c.g.a.s.g.U.T.X.^ ^ ^ ^  .o.x.Z.E.rXrXI.%XhXLXUXUXUXUXUXUXUXUXUXUXUXUXUXUXUX",
"IXIXIXUXUX>X6 o 5.oXoXoXoXOX8X8X{.s y d d s s s c {.;XzXZXSXSXSXSXFXSXSXmXuXD.Z.A.b.Z.E.F.h.s.g.s.V.E.tXtXtXtXT. .~ l.Z.F.F.F.A.F.rXrXT.C.3.2XKXUXUXUXUXUXUXUXUXUXUXUXUXUX",
"UXIXIXUXUX>X6 . d }.oXoXoXoXoXoX;X-X4.d s f .XqXvXAXSXSXSXSXSXSXSXmXuXD.Z.A.A.V.D.R.Z.s.s.s.g.a.^ V.E.tXtXrXE.D.C.U.E.E.U.V.l.a.a.a.a.a.f.a.o.3.,XCXUXUXUXUXUXUXUXUXUXUXUX",
"IXIXIXUXUX>X: o t s 4.XXoXoXXXoXoXoX-X0XjXMXAXAXAXSXSXSXSXSXNXuXT.b.A.A.Z.V.F.F.c.s.s.g.s.f.^ ^ ^ ^ ~  .C.U.F.F.Z.x.a.^ ^ ^ X.X.^ X.a.f.s.l.l.l.d.T >XGXUXUXUXUXUXIXUXUXUX",
"IXIXIXUXUX>X2 -.u 0 y d 4.oX+X}.oXoXoX+XqXnXAXAXAXAXSXNXuXY.c.Z.n.n.b.V.F.D.X.X.g.h.g.^ X.^ ^ ~ ~ ^ X.a.s.s.s.s.a.a.a.s.h.x.x.V.Z.c.x.l.l.o. .' _ / I 7.LXUXUXUXUXUXUXUXUX",
"IXIXIXUXUX>X2 #.<.;.y 0 y f }.+X{.}.+X+X+X+X0XbXAXxX7XV.b.z.h.z.f.c.A.V. .~ g.h.s.a.X.g.h.z.z.z.h.s.s.s.g.h.z.c.b.Z.Z.V.x.l.o.| [ [ R / ) H G G H H / *.hXUXUXUXUXUXUXUXUX",
"IXIXIXUXUX>X3 $.>.:.1.-.t 0 y v |.|.4.|.+X+X+XXXJ.c.z.s.s.f.X.V.Z.l.]  .d.g.a.a.s.z.b.z.z.h.h.h.z.z.b.b.c.x.l.X. .] ` R J H N N N P ) ( | | ..X.C.uXxXxX4X#XUXUXUXUXUXUXUX",
"UXIXIXUXUX>X2 @.>.>.>.>.1.-.t 0 s v |.4.v v %.w.x.X.a.X.X.x.V. .Q ' X.g.h.g.g.g.h.c.z.c.j.z.x.g.f.X. .] W R J G P ) ) ) ( } k.x.Z.F.F.D.C.z.c.b.n.D.6X3XB.=.LXUXUXUXUXUXUX",
"IXIXIXUXUX>X6 6 @.:.>.>.>.:.1.h t t s {.{.%.} l.X. .| x.x. .W E  .X.X.a.a.a.a.a.f.X.X. . .' R J H G G N G ) 3XwXwX5XS.b.A.A.A.A.F.7XxXDXDXxXY.k...( } K.K.=.LXUXIXIXUXUXUX",
"IXLXLXUXUXhXp 8 > 6 #.>.>.>.>.:.;.p 0 t d w.o.X.] W l. .! K W ! ~ ! ! ! Q Q R / ) ,.2.2.F G H K R W Q ! ~  .K.5XM.m.M.M.v.Z.rXxXDXNXnXCXzXqX8.' ' ' { } ( V UXUXIXIXUXIXUX",
"IXIXIXUXUXUXaX. 5 7 = 8 #.>.>.>.:.:.;.u Y o.] ] W | ] ! J E K J J G H P @X1XsXjXlXkXwXP.~ ~  .~ ~ ~ y.y.a.h.h.h.h.v.M.v.n.z.5XxXDXzXqXN.$X$X$X( | ..| / / V UXUXIXUXIXIXUX",
"IXIXIXIXUXUXhX. . X < > = Z :.:.>.:.>.#.' ` ' _ ` ] ] J H G H K E Q l.z.b.5XxXuXE.m.m.v.X.~ ~  .C.vXPXPXxXY.g.g.V.U.U.Z.b.Z.V.} 8.%X%X$X8.e.0.k.d.d.{ / / m :XCXUXIXIXIXUX",
"IXIXIXIXUXUXhX. . a l 1 > 3 = A $.:.:.F ` ` / ` ' ] R B G K E W ! ! ! X.c.b.b.z.v.M.M.M.F.wX5Xb.n.b.7XnXPXxXT.F.E.rXrXE.B.T D D OX$Xi.) U U U k.l.d.( N m * p p 2XUXIXIXUX",
"IXIXIXIXIXBX'.X . q k k e ; - & 3 S $./ ` ` ` ` ' ` m N W J E W W ! ! ] ! o.x.b.b.z.D.bXJXJXJXZX7Xc.z.z.c.Z.R.R.A.C.3.D D D 1.OX9.( ( / U U U { { T $ 5 9 +.@.$.:XUXIXIXUX",
"IXIXIXIXIXUXCX*X!.^.l l k k w % = & , / ` ` ` ` ` / n L W G L W W W ! Q ! ! Q | x.c.b.D.uXHXJXCXCXCXwXV.b.b.k.k.p.k.D F ( ;X<X2Xr.( ( ) U F B $ 5 6 p O.+.:.@.:.:XUXIXUXUX",
"IXIXIXIXIXUXUXUXlX*X/.!.l k k k w % * I ` ` ` ` ` _ # K E N [ [ ` W W W W W W Q W | l.c.c.D.wXGXJXJXJXcXt.( _ { } e.{ ....<X<X2Xr.( R V @ 6 6 p A S ;.1.6.u.;.1.,XUXIXIXUX",
"IXIXIXIXIXUXUXLXLXKXaX_./.x k k k a 1 I I _ _ _ / I # H _ ) K _ [ _ E W W W W W W ` W | k.x.x.C.wXjX8X$Xi.) U ,.:.:.{ ....,X<X=X*.@ 6 6 p Z A ;.1.2.q.q.<.1.8 #.:XLXIXIXUX",
"IXLXIXIXIXIXLXLXLXLXUXGX<X/.^.x k k i I G N D D B B @ D ) I 0./ K ) / L E E E L L E E M n M ) | e.$X$X;X@XU 0.,.:.F { ..{ 7.g y 6 p Z Z ;.1.2.q.q.<.$.#.;.@.h +.>XLXLXUXUX",
"IXIXIXIXIXKXKXLXLXUXUXUXUXCX*X^.^.x a B B # @ + + + + 9 N 0.q.0.I / / K K K K K K K H # n N F / ) 8.pXpX-X0.0.,.V m M $ 5 6 p O.Z *.1.2.q.q.<.$.@.S Z +.8 -.c 5.:XUXPXIXIX",
"IXIXIXIXKXHXLXLXUXUXUXUXUXUXUXlX'./.!.y a a a q % * % ; - V 2.Y r.) J J K K K K K K n @ m H H / / u.pXpX-X0.9.S + = 6 9 Z A *.;.2.q.q.<.$.@.Z 8 7 7 5 6 4 2 -.h <XLXIXUXUX",
"IXIXIXHXKXHXPXUXUXUXUXUXUXUXUXUXLXaX_./.!.j k k e O - 3 1   * ;.S H J J J J J J J m + @ M H H / / u.pX=X.X+.9 6 9 O.A @.;.2.2.q.2.$.S Z 8 7 8 5 - % & 6 p > & '.lXIXIXIXUX",
"IXIXPXPXHXPXIXUXUXUXUXUXUXUXUXUXUXUXGX<X/./.x k j j e O 3 u 1 4 + n H J J J J J D - 4   m N H / P F c g u p 8 Z @.;.1.2.q.2.:.@.Z 8 8 7 5 - & & - 6 > & O q O ,XUXIXIXIXUX",
"IXIXPXKXPXIXIXIXUXUXUXUXUXUXUXUXUXUXUXUXCX*X/./.x j j j w 1 u &     @ N H J J G * A 8 9 3 + m n , 6 u -.&.@.;.1.2.2.2.:.#.S 8 7 7 7 < & & : < > % q a ^.q X u ,XUXIXIXIXIX",
"IXIXIXPXIXIXIXIXUXUXUXUXUXUXUXUXUXUXUXUXUXUXlX'./.Q.z j j j w % - &   % @ D G N 5 S S A 7 9 6 6 O.A +.;.1.6.2.2.:.#.@.Z 7 7 7 < & & - < > & q e j W.!.^.q X 7 :XLXIXIXIXIX",
"IXIXIXIXIXIXIXIXIXUXUXUXUXUXUXUXUXUXUXUXUXUXUXLXaX]./.Q.z j j j q & - % 1   + @ 7 C C C 8 5 8 @.+.1.6.6.2.:.#.@.+.8 7 7 u & & : < > & q e j x x W.W.W.Q.W.x _.[.aXLXLXIXIX",
"IXIXIXIXIXIXIXIXIXIXUXUXUXUXUXUXUXUXUXUXUXUXUXUXUXGX<X/./.!.z z z r q = 2 4   % 8 C C C 7 5 S @.+.2.:.#.#.@.Z 7 7 < = & = p > & O e j W.W.x x x Q./.(._._.iXlXKXIXIXLXIXIX",
"IXIXIXIXIXIXIXIXIXIXIXUXUXUXUXUXUXUXUXUXUXUXUXUXUXUXUXCX*X/./.W.z z z e O 2 u X & 7 C 8 5 5 A S 8 #.@.Z 7 7 < & & : > < = O k j W.W.x W.W.W./.(.)._.[.aXCXIXIXIXIXIXIXIXIX",
"IXIXIXIXIXIXIXIXIXLXIXUXUXUXUXUXUXUXUXUXUXUXUXUXUXUXUXUXUXlX'.(./.W.z z z e ; 6 = X - 5 5 3 7 8 8 8 7 < = % = > < = O w j W.W.^.W.W.W././._._.].pXBXIXLXIXIXIXIXIXIXIXIXIX",
"IXIXIXIXIXIXIXIXIXIXLXIXUXUXUXUXUXUXUXUXUXUXUXUXUXUXUXUXUXUXLXaX].(./.x z z j e y - = % - - 5 7 7 = % & > < = ; w r W.W.W.W.W.W._./.).)._.=XlXLXUXUXIXIXIXIXIXIXIXIXIXIXIX",
"IXIXIXIXIXIXIXIXIXIXLXLXIXUXUXUXUXUXUXUXUXUXUXUXUXUXUXUXUXUXUXUXGX<X(.(./.x z z j a % > - - - < - - > = ; w r x W.W.W.W.W.~./.).).].*XhXKXUXUXUXUXIXIXIXIXIXIXIXIXIXIXIXIX",
"IXIXIXIXIXIXIXIXIXIXIXLXLXIXIXUXUXUXUXUXUXUXUXUXUXUXUXUXUXUXUXUXUXUXCX*X(.(.Q.z z x x q & - - - = ; w r z W.x W.W.W.Q./.).).).[.aXCXUXUXUXUXUXUXIXIXIXIXIXIXIXIXIXIXIXIXIX",
"IXIXIXIXIXIXIXIXIXIXIXIXLXLXIXIXUXUXUXUXUXUXUXUXUXUXUXUXUXUXUXUXUXUXUXUXlX[.(./.W.z x ^.r . X . o z W.W.W.W.W.Q./.(.).).].<XBXLXUXUXUXUXUXUXUXIXIXIXIXIXIXIXIXIXIXIXIXIXIX",
"IXIXIXIXIXIXIXIXIXIXIXIXIXLXLXIXUXUXUXUXUXUXUXUXUXUXUXUXUXUXUXUXUXUXUXUXUXLXhX].(./.W.W.^.. . . q W.W.W.W./.(.).)._.=XlXLXUXUXUXUXUXUXUXUXUXIXIXIXIXIXIXIXIXIXIXIXIXIXIXIX",
"IXIXIXIXIXIXIXIXIXIXIXIXIXIXLXLXIXUXUXUXUXUXUXUXUXUXUXUXUXUXUXUXUXUXUXUXUXUXUXKXpX).)./.W.O . X y W.~.(.).)._.[.aXGXUXUXUXUXUXUXUXUXUXUXIXIXIXIXIXIXIXIXIXIXIXIXIXIXIXIXIX",
"IXIXIXIXIXIXIXIXIXIXIXIXIXIXLXLXLXIXIXUXUXUXUXUXUXUXUXUXUXUXUXUXUXUXUXUXUXUXUXUXUXCX=X).(.X y = y ).).).].pXCXUXUXUXUXUXUXUXUXUXUXUXUXIXIXIXLXIXIXIXIXIXIXIXIXIXIXIXIXIXIX",
"IXIXIXIXIXIXIXIXIXIXIXIXIXIXIXIXIXLXIXIXIXUXUXUXUXUXUXUXUXUXUXUXUXUXUXUXUXUXUXUXUXUXUXlX[.W.j ^./._.=XlXLXUXUXUXUXUXUXUXUXUXUXUXUXIXIXIXIXIXIXIXIXIXIXIXIXLXIXIXIXIXIXIXIX",
"IXIXIXIXIXIXIXIXIXIXIXIXIXIXLXIXIXIXIXPXIXIXUXUXUXUXUXUXUXUXUXUXUXUXUXUXUXUXUXUXUXUXUXUXLXhX].*XhXKXUXUXUXUXUXUXUXUXUXUXUXUXUXIXIXIXIXIXIXIXIXIXIXIXIXIXIXPXLXIXIXIXIXIXIX",
"IXIXIXIXIXIXIXIXIXIXIXIXIXIXIXIXIXIXIXPXLXLXIXIXUXUXUXUXUXUXUXUXUXUXUXUXUXUXUXUXUXUXUXUXUXUXLXUXUXUXUXUXUXUXUXUXUXUXUXUXUXUXIXIXIXIXIXIXIXIXIXIXIXIXIXLXIXPXIXIXIXPXIXIXIX",
"IXIXIXIXIXIXIXIXIXIXIXIXIXIXIXIXIXIXIXIXLXIXLXLXIXIXUXUXUXUXUXUXUXKXUXUXUXUXUXUXUXUXUXUXUXUXUXUXUXUXUXUXUXUXUXUXUXUXUXUXIXLXLXIXIXIXIXIXIXIXIXIXIXIXLXIXIXIXIXIXPXHXIXIXIX",
"IXIXIXIXIXPXPXPXPXIXIXIXIXIXIXIXIXIXIXIXIXIXIXLXLXLXIXIXIXUXUXUXLXLXUXUXUXUXUXUXUXUXUXUXUXUXUXUXUXUXUXUXUXUXLXLXLXUXIXLXLXLXLXIXIXIXIXIXIXIXIXIXIXIXIXIXIXIXIXPXKXPXIXIXIX",
"IXIXIXIXLXPXPXPXKXPXIXIXIXIXIXIXIXIXIXIXIXIXIXIXPXPXLXLXLXIXIXPXKXLXUXUXUXUXUXUXUXUXUXUXUXUXUXUXUXUXUXUXUXLXLXPXPXPXLXLXLXPXIXIXIXIXIXIXIXLXIXLXIXIXIXIXIXIXPXKXKXKXIXIXIX",
"IXIXIXLXKXPXPXPXIXHXLXIXIXIXIXIXIXIXIXIXIXIXIXIXPXPXLXLXLXLXHXHXKXPXIXIXIXUXUXUXUXUXUXUXUXUXUXUXUXUXUXLXPXPXPXPXIXPXPXPXPXIXIXIXIXIXIXIXIXIXIXIXIXIXIXIXIXPXPXHXKXLXIXIXIX",
"IXIXLXPXPXPXIXLXPXPXPXIXIXIXIXIXIXIXIXIXIXIXIXIXIXIXLXLXIXPXHXPXHXPXPXPXPXIXIXIXIXIXIXIXIXIXIXIXLXLXIXPXPXPXIXPXLXPXPXLXIXIXIXIXIXIXIXIXIXIXIXIXIXIXIXIXPXKXHXKXIXIXIXIXIX",
"IXIXIXPXPXPXLXPXLXPXIXIXIXIXIXIXIXIXIXIXIXIXIXIXIXIXIXIXPXHXPXHXPXPXPXIXIXIXLXLXLXIXLXLXLXLXLXLXIXIXIXPXPXPXPXPXPXPXIXIXIXIXIXIXIXIXIXIXIXIXIXIXIXIXIXIXKXKXKXLXIXIXIXIXIX",
"IXIXIXPXKXIXLXLXPXIXIXIXIXIXIXIXIXIXIXIXLXIXIXIXIXIXIXKXHXKXPXIXIXIXLXLXLXLXIXIXIXLXLXIXIXIXIXIXIXIXIXLXPXIXPXIXPXIXIXIXIXIXIXIXIXIXIXIXIXLXIXIXIXIXPXHXKXHXIXIXIXIXIXIXIX",
"IXIXIXIXPXKXPXPXIXIXIXIXIXIXIXIXIXIXIXIXIXIXIXIXIXIXPXPXHXPXIXIXIXIXIXIXIXIXIXIXIXIXIXIXIXIXIXIXIXIXIXIXLXKXPXPXIXIXIXIXIXIXIXIXIXIXIXIXIXIXIXIXIXIXHXPXKXIXIXIXIXIXIXIXIX",
"IXIXIXIXIXPXPXIXIXIXIXIXIXIXIXIXIXIXIXIXIXIXIXIXIXIXPXKXPXIXIXIXIXIXIXIXIXIXIXIXIXIXIXIXIXIXIXIXIXIXIXIXIXLXPXIXIXIXIXIXIXIXIXIXIXIXIXIXIXIXIXIXIXIXPXKXLXIXIXIXIXIXIXIXIX",
"IXIXIXIXIXIXIXIXIXIXIXIXIXIXIXIXIXIXIXIXIXIXIXIXIXIXIXPXIXIXIXIXIXIXIXIXIXIXIXIXIXIXIXIXIXIXIXIXIXIXIXIXIXIXIXIXIXIXIXIXIXIXIXIXIXIXIXIXIXIXIXIXIXIXIXIXIXIXIXIXIXIXIXIXIX",
"IXIXIXIXIXIXIXIXIXIXIXIXIXIXIXIXIXIXIXIXIXIXIXIXIXIXIXIXIXIXIXIXIXIXIXIXIXIXIXIXIXIXIXIXIXIXIXIXIXIXIXIXIXIXIXIXIXIXIXIXIXIXIXIXIXIXIXIXIXIXIXIXIXIXIXIXIXIXIXIXIXIXIXIXIX"
};
