/* XPM */
static char *_68b8b7806bc4af4aae91deba8e188ba80slMfOmh6oWEGQv[] = {
/* columns rows colors chars-per-pixel */
"85 85 128 2 ",
"   c #040405",
".  c #060609",
"X  c #0B0C0D",
"o  c #0D0E10",
"O  c #131314",
"+  c #171719",
"@  c #17181A",
"#  c #1B1B1C",
"$  c #1E1F20",
"%  c #1F2020",
"&  c #232324",
"*  c #262728",
"=  c #272829",
"-  c #2B2C2D",
";  c #2E2F30",
":  c #2F3031",
">  c #333435",
",  c #363837",
"<  c #363738",
"1  c #373839",
"2  c #3B3C3D",
"3  c #3E3F40",
"4  c #3F4041",
"5  c #434445",
"6  c #464847",
"7  c #464748",
"8  c #474849",
"9  c #4B4B4D",
"0  c #4E4F50",
"q  c #4F5051",
"w  c #525354",
"e  c #565857",
"r  c #565758",
"t  c #575859",
"y  c #5A5B5D",
"u  c #5E5F60",
"i  c #5F6061",
"p  c #626365",
"a  c #666768",
"s  c #67686A",
"d  c #6A6B6D",
"f  c #6D6E70",
"g  c #6E7072",
"h  c #727374",
"j  c #767778",
"k  c #767879",
"l  c #7A7B7C",
"z  c #7E7F80",
"x  c #7F8081",
"c  c #838485",
"v  c #868887",
"b  c #868788",
"n  c #878889",
"m  c #8B8C8D",
"M  c #8E8F90",
"N  c #8F9091",
"B  c #939495",
"V  c #969798",
"C  c #979899",
"Z  c #9A9B9C",
"A  c #9E9FA0",
"S  c #9FA0A1",
"D  c #A3A4A4",
"F  c #A6A7A8",
"G  c #A7A8A9",
"H  c #ABACAC",
"J  c #AEAFB0",
"K  c #AFB0B1",
"L  c #B3B4B5",
"P  c #B4B5B6",
"I  c #B6B7B8",
"U  c #B7B8B8",
"Y  c gray72",
"T  c #BABBBC",
"R  c #BBBCBD",
"E  c gray75",
"W  c #BEC0BF",
"Q  c #BFBFC0",
"!  c #BFC0C0",
"~  c #C1C2C3",
"^  c #C2C4C3",
"/  c #C4C4C3",
"(  c #C3C4C4",
")  c #C5C6C6",
"_  c #C7C8C7",
"`  c #C6C7C8",
"'  c #C7C8C9",
"]  c #C9CACB",
"[  c #CACBCA",
"{  c #CBCCCC",
"}  c #CBCDCD",
"|  c #CCCDCD",
" . c #CFD0CF",
".. c #CECFD0",
"X. c #CFD1D1",
"o. c #D2D2D3",
"O. c #D3D4D4",
"+. c #D5D6D6",
"@. c #D7D8D7",
"#. c #D7D7D8",
"$. c #D7D9D8",
"%. c #D8D8D8",
"&. c #DADCDB",
"*. c #DADBDC",
"=. c #DBDBDC",
"-. c #DEDFE0",
";. c #DFE0E0",
":. c #E1E1E2",
">. c #E3E3E4",
",. c #E3E4E4",
"<. c gray90",
"1. c #E7E8E7",
"2. c #E8E8E7",
"3. c #E6E7E8",
"4. c #E8E7E8",
"5. c #E7E8E8",
"6. c #EAECEB",
"7. c #EBEBEC",
"8. c #EBECEC",
"9. c #ECECEC",
"0. c #EEEFF0",
"q. c #EFF0F0",
"w. c gray94",
"e. c #F3F4F4",
"r. c #F6F8F7",
"t. c #F7F7F8",
"y. c #F7F8F8",
"u. c #FCFCFC",
/* pixels */
"p 1 p w 9 5 a E Y %.<.D m y 5 y > y k %.U &.6.y q p p u u 4 q 9 t 8 r r 9 2 a Q / X.8.Z c t 8 y 8 w v +.! $.6.2 t y s y y 5 w w 7 r w w 0 1 a ( | o.9.B k q 8 t t 7 B | | ",
"w w > p 5 w 3 E ,.D x 5 2 0 p q 9 2 i w ] ) +.w 9   w w w p y = r r > u 8 8 0 E 6.V l & 1 w u w 9 2 u p o.^ ] t 7   y 7 w i y - t w 2 p w 5 s Y w.N j O 1 t y w 9 7 y d =.",
"+ # t t p 9 w P H w 1 l y 9 9 > - # a w 8 N :.y d y y w 7 j 9 p @ # r t y 9 p I Z 9 8 j y t 1 1 & $ d w 8 Z %.w j w y w 4 l 7 p @ & t t t 7 k Y B 5 p d y y ; 1 $ & s t w ",
"y d 0 @ w p D #.7 y , t 0 ; p w , d 9 3 7 8 6.Z 8 1 . y @ 5 y d u a 7 = 8 p T ) 4 y > w w < p w 2 s 7 4 9 a w.n 7 , X y @ 9 t d a p 7 1 4 a ] L 4 y 1 9 w 4 i 8 7 a 5 2 8 ",
"7 y d 2 > p P C r h , f w w 2 w w - u a y 0 l P 8 f h 2 5 w w 5 5 p s , 5 u ~ n w g 2 d y 8 3 w r & u d y 6 B G 9 d g 2 7 w u - 4 p s > 9 y { h w d 8 s i 2 2 w w - i f y ",
"y 3 3 w 5 D O.d 5 h 7 t 2 a 9 u 9 q 2 w & 4 3 =.B X p 5 p w y 9 w 9 ; w 5 Y { 0 3 h 7 t 2 d 8 u w 5 1 t + 4 w =.n   s 7 s 8 a 9 9 w * t 5 ` ` 1 5 h 8 y 2 d 7 t t 2 1 t @ ",
"p 5 t 8 v +.~ a s 5 w 3 s a 9 t 9 s y 7 s t 7 U E B a X p 5 k = i 9 r 5 m =.Q w d 9 0 4 d t 9 y 0 a t 8 a y 9 R E n p @ p q g > y w w 5 Z :.U 9 d 9 9 8 h 9 0 y 9 p r 9 p ",
", 5 d ~ 5.=.o.k i 0 0 g 7 a w X i 8 0 i h w 7 ~ =.5.] v t d 7 u 2 8 g ~ <.<.o.p i y 3 d 7 p w - r 8 y r h t 5 o.=.<.) l r d 9 t 5 0 l ( ,.6.{ 9 y p 5 s 8 u w 5 9 5 a w d ",
"H =.' | X.o.` j u 1 2 s B G ] P #.! N 1 d , @ ~ ~ { %.~ Q ~ E ~ E | X.| { #.) p r 8 % s Z H ) U ..( c 5 a , # ] R O.o.( ~ E P E ] ~ +.{ ) %.( t 9 q O d D L ( R ) ) l w w ",
"' | $.) +.] o.h w h Z 3.o.o.R { ] | ( ~ h y y ! { 1.] #.R ~ #.e.) { =.` | o.] d 9 j D q.| { Q ' ) O.) I s u p ( X.6.) $.E ( +.9.' ] =.) ] +.( s 8 l F w.| ] ! ` ( o.{ J t ",
"9.1.=.! ~ ] { p j ) :.H R O.o.7.<.u.] ] | k , +.| o.' o.9.E | R 6.9.#.! ~ ] ! i c | O.Y E ' ;.,.6.u.( ~ | s 7 :.~ +.) %.9.I | ! 6.e.X.~ ) ..P p m +.) ) ~ ) :.:.9.u.~ Q { ",
"+.L ] u.o.~ G w ( ~ =.| %.7.L X.O.Y R =.-.O.% B { #.u.#.>.| <.Y | Y o.e.=.E V p | Q =.O.O.3.P | O.Y Q =.%.` $ D { =.u.O.,.] 9.P ) ! $.<.>.Q c d o.E O.;.o.;.T o.o.Y ~ <.O.",
"+.o.! %.%.~ n m O.L =.H X.] <.] +.+.o.L E +.b b w.Y Q O.%.<.E %.+.| E =.+.' h Z o.P $.L { { 7.) o.%.O.H Q O.l Z w.L ~ O.=.:.L <.+.] R =.o.{ p G o.E o.U _ o.9.) | =.$.D ~ ",
") { :...$.D 8 { +.( w.Y +.{ ..~ | O.o.] r.=.O.> Z r.~ +.=.) +.$.` ] <.| %.N 8 +.=.~ w.L %.] { ) { %.o.] u.:.) 1 G u.Y #.#.o.] =.{ ` 3.] %.x 8 %.:.~ w.H =.) ' ..( %.X.| r.",
"T | R { ( 9 w U H | Y 9.T Y %.( ( I | ] T ~ ] h d U ` u.H +.P q.Y ) ~ ..I 7 w ( L ~ R w.J ( =.E ( Y | ] E ~ ~ h d ) ' u.H O.E 9.T Y ) O.F 5 w ] P E ~ q.D { -.I ~ ~ ..) E ",
"O.6.%.G 7 = w ) | =.=.H o.~ O.u.+.%.=.:.] :.:.t 5 & z { <.| ..' +.:.;.Z 3 + w +.{ o.:.L %.~ o.w.=.%.O.6.| %.=.7 5 = N ] 6.] | { +.%.<.m <   t >.] ] %.P =.' X.5.3.=.| 6.o.",
"G j w 2 8 7 p Q ..O.:.~ { n l Z 0 c J +.E  .=.l s 7 2 d d y F n A k 8 5 9 5 i ( %.' 9.~ ~ m k M r m L | ) ] :.s d 3 7 d d s H n B l 5 9 9 8 r ] :.) r.E P B l b y B P ) o.",
"t 9 y y 2 y t D Y J L w w y t 8 w t w k Q ~ ) p r y s = u t 0 = w t w y 7 w y D ( H H 7 w y t 9 t w w c ` E ~ y w w s = p w 9 1 8 y 0 r 9 q p D { J D 7 0 y r 0 i 9 w m | ",
"> 2 , g w 9 8 ..( v w s t 0 w ; & . w y x ! w.- 9 2 p y O t p t , 2 5 d t 7 t X.` h p y t r 8 , #   r a m ` ,.* w , d 8 X p p t 2 > w s t 3 j ] ' i f 0 y t 7 > + . t d Z ",
"> a y O 7 w c ' b t 2 a 7 & p 9 2 8 h 7 < y 2.B d t # 7 q h - a 5 y w & 2 w B ~ k t 5 i 7 - u 9 2 q h 4 3 j <.b g 9 O 0 0 h @ a 8 t q , , q G R s t w w 7 1 y 9 2 w g < 7 ",
"w 8 r 2 7 a G H 5 p , d 0 9 2 w 7 t 1 u y < G n X u y y 1 & d r w 8 y 2 7 a U Z 7 i 2 s w 9 ; w 8 r > a y 5 P h . a y u , , h 9 w 8 y 3 8 a ( m 8 y 8 a w 9 > w 0 w * d w ",
"w y w 7 5 l +.b 0 s . a 2 7 0 t 8 2 a 9 - 8 d 3.h 3 d 9 , p r : w y 0 5 5 n %.j 5 s X s 4 5 t w 8 > a 8 , 3 c :.f 2 g 8 5 y y - w p 8 8 9 B =.y 5 a O d 5 3 t 8 9 < s 7 7 ",
"a 9 a w 9 ~ { g s s p , a h 1 p t y w p p p 9 F ! t y   z 9 d 7 p y u 9 w ] | y d d p - d f - s u w q a u p 9 G ~ 7 y O x 9 d 8 y p t 7 t | ` w f f u - j s & d p q 9 d y ",
"0 & , j O.6.{ i 7 = 1 d w a t & 5 w 5 = w > & $.` ;.B 2 - 7 d w 7 > - x +.r.( 5 8 3 ; d 9 p t - 2 w 8 X w , ; <.) =.v 1 & 9 d w 5 2 % v %.u.I = 8 5 , f 5 y y 5 > q 9   r ",
"g D ) 3.| ..) z y w w p 8 c C a G m i y d w 5 G Y +.q.D D A j b c Z X.:.] +.] a w p 5 y t c B g A n p u s y 5 P I %.q.Z D C d c m V =.%.{ O.| w 0 s 1 t a c B k Z c s p y ",
"{ :.P ~ ,.R Q l h i d R Q ) ] o.+.) ) G s t 9 | | ` U 9.] X.=.9.O.O.! ) %.) R j d p h ( ~ ) { o.{ X.( Z a t w #.] | U q.] o.%.<.;.` ) | X.{ P j p i k ) ( ] | | ~ O.( B y ",
"+.+.3.H { O.o.9 9 B ) +.O...` =.=.y.{ ' Z w - o.+.u.| T =.~ ] o.o.=.:.H ) =.' 8 7 D Y :.o.) ..%.:.u.` ~ Z 7 5 %.%.u.~ ( :.~ ) +.| <.#.P ( =.E 0 5 L L 6.X.( o.+.<.t.) T M ",
"u.o.( w.` O.O.s V ] %.H { 6.! :...%.G ..9.J > Z L E ,.+.%.G 6.| q.+.( 6.o.o.` s D ] o.P | :.] =.O.=.D $.6.S 3 D F ] 3...=.G q.{ 3.+.{ :.=.+.P a P ) ) ~ o.=.O.+.O.%.S -.,.",
"E ) O.=.] U N l 8.{ 6.U Y X.+.] 9.R ,.| o.w.a G u.+.<.! q.e.P ~ E ] X.=.| Y j B 9.{ <.R Y ..%.X.3.Y 6.] +.6.y U u.o.:.~ w.<.Y ~ E o.| O.O.Y p D 9.| =.~ Y { %.$.=.E w.~ =.",
"] T ' =.=.Y 9 H E P w.( $.O.o.) | 5.H Q =.] L 2 Y o.H $.<.E =.8.) Y { =.$.L 1 L ) I w.! O.=.) { | 6.G E $.| A 0 Q +.G =.-.` +.w.) Y { =.O.H - Y ' ~ w.E | :.( o...<.K ~ o.",
"Q X.) { %.c 9 ~ E L ~ +.] L :.~ | | 6.L +.) ] d n 6.X.u.D | { o.( ) | o.#.f 0 { Q H ( =.) J 8.E ] +.5.G =.) ~ s B 9.| r.Z +.) o.] E O.O.O.u w o.~ H ) %.( K q.E ~ =.:.H =.",
"{ e.=.| B - w ] | q.:.( ) ` ..=.o.E X.q.O.:.,.9 u y H w.:.<.D $.| <.<.{ n # y #...,.5.( | | { %.+.E ] y.O.=.=.7 u d U 9.<.=.H +.O.=.9.` j O p <.o.=.:.Q O.+.) X.%.` ] u.+.",
"%.R Z 7 8 7 y P ) | | ) <.K P %.Z Y o.) J ~ o.c i 3 - c F B :.R o.R Z 5 7 5 t E ) ~ +.] =.P P o.D ~ ] ` I Y +.h y 2 , m D Z ;.~ ] U Z 5 7 8 w ' | Y +.O.o.E Y ~ G ] Q ~ E ",
"y 2 i r ; 0 a U I | =.B h r 7 8 , p a ) Y X.%.t 9 a a 8 y 2 7 2 9 0 t w < 8 a Y E ) <.n s w 8 8 9 w h ) ~ { =.2 y u d 5 y 2 8 9 2 y w 9 5 7 p E ) ] ;.l p 9 7 7 y 8 c ~ | ",
"w w - a 5 7 2 ' -.F h 8 1 q i 9 8 & u t Y | :.w 8 . q w w p y 1 w 9 , p 9 2 0 ) 8.Z h - 1 w y w 5 & p i ) | O.r 5   u 7 w p p 2 r 7 2 a w , d E w.n h # 1 t y w 5 > y d o.",
"o = r 8 p 9 w P S 9 1 l t 7 8 > < - d 9 5 c -.f j p w 0 9 k 7 p + = y 9 r 8 s Y m 8 8 j r q 1 2 > - f 0 4 B %.p z r w w 7 l 2 p & > y w w 5 l Y l 8 u s r w > 2 - : f w 8 ",
"y d 9 = w a D o.> r & y y > p w - s 2 7 7 4 :.Z > 2 O i X , a d p a 8 , 9 s Y ~ - t & y y 2 i 0 , a 1 7 9 y 6.z > 2 # u . 7 a s a y 8 3 7 s ] H : t - t y 8 p 7 2 p > 7 7 ",
"7 u s 2 < a ~ B y h 1 a 5 w 5 y w & p p t r l ) i s j 1 2 t q 1 7 p a , 3 s { v e h 5 p 0 7 8 w w @ p a t 8 B Y u d j , 5 t t * 7 p p > 9 a +.g r f 8 y w 1 9 w w = p d y ",
"y 4 8 w 8 H ..a 7 j y t 7 d 7 p 9 0 - y , 7 2 +.Z @ y , h w y 9 w 9 2 w 8 Q ] 9 8 j t w 8 f 2 u w 8 - p = 7 9 $.B o i 2 h 7 p 9 9 w > w 8 { ~ 1 q l t r 8 g 1 u y 3 - p = ",
"p 3 w 8 Z =.~ p p & 3 9 a p 0 0 w a y 1 s w 3 E T H d O w 2 l , u 8 w 5 D ,.E 0 a , 1 w s r w w w a t > a w 7 ( Y D p & w 9 h 2 y q 9 5 G <.L 7 p 2 2 t s 0 w y 9 p w 1 a ",
": 9 v | 3.O.o.z p w 0 d 3 a r - d w q a h w 8 L O.:.O.C s h > y 2 q m | >.=.o.p u p 2 p 4 p w 5 p q p u f y 7 ~ o.=.+.m p f 2 y 7 r B | :.:...w y s 5 y 8 y r w y 8 s u d ",
"E <.~ { =.#.( k s 2 1 l D P X.( -.) S 9 d , O | ] ` X.{ ~ | ] o.{ %.{ ] O.:.( p p 7 & l G Y | ) +.| B 9 s > @ +.( | { | ` | ( { %...o.| | :.E y t 9 & l H ~ { ' { X.M t y ",
") { %.~ +.{ %.s 2 j D 3.+.+.Y | { $.~ ! k t t E | r.o.%.) Y +.w.( | =.~ | o.o.p , l G w.O.{ R { { %.^ U h y p ~ o.u.] =.~ ~ +.0.( o.=.~ ] $.' p > c H r.O.( ( ' { $.) L y ",
"w.3.=.' Q ) ..a l | <.G ( O.| 7.:.r.~ o.+.c 1 ..( ' { o.:.L | T q.8.+.' ~ ) ( a m +.=.L ) { ;.,.6.r.! { O.j 8 %.Y | ] +.:.K o.E 6.w.| ) ) | U p Z =.X.~ ) ) :.;.7.r.Q ] o.",
"o.J X.r.{ ~ Z y | ~ :.| o.,.I | =.H ] %.%.+.& B %.-.u...q.=.%.P ] Y +.9.$.R n d +.~ :.O.{ ,.P { %.H | =.%.| # D @.:.u.| 9.o.=.L ! ~ %.:.-.U h k %.~ %.-.] =.Y o.o.H ..-.O.",
"O.) L %.=.Q x B { K =.J ] ] ,.) { <.` J ( O.B k ,.P U -.%.%.) -.X.~ L =.$.( d D ] P =.J ) o.<.~ ] 3.' H ` +.n m <.L Y -.%.+.E 6...E L :.| ` y H | E O.P Q %.,.~ ] 3.] G ) ",
"] $.5.) ..Z 5 | O.! <.~ =.Q o.~ ) { %.) r.=.$.2 Z u.~ o.| { +.| ] o.9.! O.c 5 #.=.E <.Q :.E o.) ~ O.%.) u.-.{ 2 H u.Y X.] +.] ..o.| 0.R O.f 8 =.;.Y <.E <.Y X.{ E #.#.] r.",
"R | T { E 7 r U L =.) 6.Y ( %.' ] P ) O.U ~ ] g s D ~ u.R +.H w.Y ) ! o.L 2 t ~ L o.] 9.L | $.( ] I ( O.Y ! ~ g s L ` r.R o.T 6.T R ) %.D 5 t ] U | ] 6.G +.+.Q ] ! ' o.Y ",
"=.3.| V > ; 9 Q ) o.+.L +.~ +.u.| %.%.+.E $.%.i , & d Y %.E %.` +.=.+.n > # 0 | ) ` =.U O.) O.w.+.%...=.~ | %.w < = z R =.E %.] +.+.%.k > O w =.( ( +.E +.{ O.<.=.=.' =.] ",
"B u y 8 9 7 p ~ { =.<.E ! z a l 1 j D :.Q +.6.l a w 7 a a t N j m s w 9 9 4 i ) %.o.e.R P z s j 8 l J %.) o.9.p d 8 q p p p B k c d 9 w 9 7 y ] >. .t.I H x d h w c L o.+.",
"y w 9 r 5 t w G ' G D 5 9 w u 9 w w w d ` E | u t 9 a 5 t y q & w t 5 w 7 w y H o.F Z - 8 w p q r 0 w h { R ) u r 8 s 4 y t w > w y 2 w 9 q p G +.G B = 8 t y q u 9 w x o.",
"- ; 2 d y 9 8 ) ! j 9 h u 0 w > & . t t h L 9., w 8 u q & i i u ; - 8 s t 8 t ) E a y d y t 5 , @   y u k E =.: i 5 s 5 & s y u > & t p y 5 j ) E w d p y y 1 > @ . y a c ",
"5 d w X 7 w B | k t 4 y 7 & p w 2 r d 7 2 t 9.Z p q . 8 5 s , d 0 p w & 2 t F ' d y 7 w 8 = p w 2 y s 2 5 h 9.m s 5 . q 2 d & d t p 9 > > t U Q p y w 5 9 > p 9 3 y s , 8 ",
"9 9 p 2 5 a H D 9 s > d 8 0 , 9 9 q 9 a u 4 Z B O s p w 2 - s w 8 w p 1 7 p Y B 9 s 2 s q 0 * q 0 9 8 d y 3 G z O d p r 2 < g 5 7 w p 2 8 p ( c 0 a 8 p w 9 = w w 8 7 d t ",
"y w 5 7 2 c O.x 5 a X a 7 9 q y 9 7 w 5 & 5 y <.l - d 9 4 p y 8 r t 2 7 5 B O.s 2 p o s 5 8 t r w 2 w 7 & 1 j :.j & g 9 8 y p 5 w t 1 8 5 D O.w 2 p O d 5 8 y 9 t 1 w 5 > ",
"i 8 p w y { ..h d p a - a h 2 p q u r y p p 9 H ~ s y   k 8 d - y w y 9 u O.| t d s p & j f > a w y r p p i 0 H ( w y O l 9 s - y u t 8 d $.{ w f d p & k a , d w y w a u ",
"8 - 2 m =.7.| a 9 , 2 d w a w X 8 7 4 1 y , = +.o.3.D 9 > w a r 8 1 , B =.r.' 9 0 7 , f 7 p r & 4 8 9 & y 1 > :.| <.Z 7 > y p w 7 4 , Z -.u.Y > w 9 4 d 5 p t 2 ; 7 w @ t ",
"c P { :.] ' ) l w 9 9 a p m G l U Z d w d w 2 J Y +.9.G H G m Z B H +.%.` | ] p 9 y , p h M G c K Z a y p t 2 Y Y %.8.G H D n C S F -.X.) { ] t 5 p > p l B D m H Z a p w ",
") =.~ ' =.~ ) l g s c { ` ` ` ] | ) ] Y s t w ) | ] P 9.( | =.q.X.o.] ] o.] ~ j s s b +._ ` ( ] ~ | ] J p y y ] ] ] I 9.! ..=.6.%.] | | ' ..I h a d B +.] ' ) ` E | | D y ",
":.%.6.H { X.| q y S ] ] ] ] ] 3.,.r.] ~ H y = =.+.w.{ ~ 8.] ) { =.;.=.H ` #.( 9 y H E +.' ~ +.:.5.u.) Y K 9 5 <.+.e.E { 9.) ~ | %.6.O.I ) =.Y 0 y E L -.) ~ #.-.7.u.( P G ",
"w.) ( u.| X.{ a A ) %.Y o.w.Y =.{ +.G X.6.I > N P R 0.#.+.H q.) 6.| ` w.%.| E a H ( o.~ O.7.~ +...O.D =.<.H 1 Z K ' w.o.%.H r.) :.| X.<.:.o.H s T ~ ] ..$.,.` o...+.D :.-.",
"E { O.=.| Q B c <.) :.K ~ ] =.o.3.~ <.] ` 8.g D u.X.O.~ 5.e.P ' ! o.| =.X.Q k V 2.) =.P E ) :.o.:.( 9.~ | :.a U u.' o.( 6.6.P ..! +.] +.+.Q a G 3.] %.T R ` :.$.#.~ e.Y o.",
"| ~ { %.=.L 3 P ` Y r.~ =.+.X.) %.:.I ) <.{ E > H =.Y =.<.E %.9.] ~ X.=.%.G , E | Q r.R %.=.) { +.>.L ) ,.X.H 5 Y :.L =.=.` X.e.` E O.%.+.D = ~ O.) r.Y +.;.( +.+.;.I ] =.",
"U { ! ..+.f w Y L Y I :.Q L <.E Y { =.P ' ~ ' j l =.| u.D ] ) =.T ~ ] O.X.p w ) I L T <.U I 6.L I o.=.K | ( ! h v <.| y.Z o.~ %.~ Y | #.] r w ] T H E >.L P 9.G L %.%.H ..",
"| w.=.) z * t o.O.9.<.E | ) | 6.%.~ =.w.+.,.6.8 y 9 D 6.<.:.H O.O.5.6.~ g + y -.O.:.6.U +.] ] 2.=.~ +.u.+.-.>.1 y t L :.9.&.P o.+.=.9.U i X p 7.+.=.<.P =.o.) =.:.] O.u.$.",
"..H v > 8 7 y P ( ' o.) >.D D ] m H ' ) P ) ..c a 5 & j B c #.L ( H b , 9 5 y E { R =.] %.H G ~ B L ~ E E Q O.h a 2 & l M m +.L E G l 3 8 8 w ) o.I =.o.| L G P Z E E Y ) ",
"w 2 i w - t a H L ( O.x u y 0 8 5 p u L E ] { w 9 p d 1 r , 5 > 8 w t w , w a H R E +.j t y q 7 w w a L ) ( { 2 t y d - w 1 7 7 2 u w 9 5 9 a K ) ~ o.f w t 8 8 p 9 h L { ",
"9 0 = g 5 8 5 X.+.D p w 2 9 y 5 2 O r y H o.6.9 8 X w y 9 a y 8 9 8 > g 9 2 t ..:.N f 2 2 w w 7 > O t a I o.=.0 7 . a 9 w a i 8 w 5 2 d w < j ] 5.l j * 2 t w 7 - & t s ) ",
"O 2 y < y 7 t T Z q 2 j w 1 q 1 5 1 h 9 ; h :.l j p 9 5 w k 5 y & 1 u 4 w 7 h Y m w 7 g w 7 5 3 2 1 h 8 , v =.h x y 8 9 9 l < u = 7 y 7 9 5 c E j w t p q 9 2 5 < 2 h 7 2 ",
"t a 9 > 0 s D ] & w = p y 5 y w @ p , w 9 > +.B @ 7 > p # = d a p y q 1 8 s P P & w - p y 8 t 9 - p - w 8 w $.j O 7 , p @ 2 d p a r 0 5 7 d ) D & q 1 i u 9 t 5 2 p & r 5 ",
"8 u p 5 2 s o.B y h - i 2 9 8 y r & s u w w k O.a p j 2 1 p 9 : 7 p i 2 7 g %.z t g > p 8 2 9 t w # d u w 9 M ) p p j 2 5 u w & 8 a u 3 9 j -.d t d 2 t 9 , w r w - s u t ",
"p 0 p 0 5 K | p w h i w w f 3 y 9 w & p w w 7 ` F - t & l w y 9 u y t 9 7 ! ] 8 w j y w t g , p q 7 & d 9 w 9 ' D $ y - l 8 a 9 t p w 9 8 ` ~ 2 t j y w y h - p t 2 = d 8 ",
"t = 2 9 K :.( p y & 1 y u p w 8 w p y & t 7 > ] Y ~ h @ 8 1 l 5 w 1 < 9 L 6.! 9 y , 1 y i y w q w a y # y 8 2 o.E U a * 5 9 j 5 0 3 : w Y 9.P 7 p w 1 y y 0 r t q i y @ t ",
"5 a Z =.:.o.| z p w w p > s a 1 k p w p g w 8 G ) %.:.Z l x , p 9 a D %.=.%.| a i p 4 u < a a 9 h y p y d y 7 U ) %.:.B k j 2 i w s K $.=.=.| w D O.<.<.:.<.6.7.5.h a u s ",
") 6.Y ` >.+.Q k d 8 2 m H E o.o.<.^ H d g 3 1 +.o.` _ +.` +.+.=.o.%.( ] =.=.E s s q , B L ! o.o.%.X.D a s 5 2 :.) ..( +.| +...+.:...] { +.;.I p H <.u.u.] %.u.u.u.X.A s y ",
") | :.E | o.=.a , l L <.$.+.E ] { <.` ] k w 7 Q o.u.+.| ] I +.7.~ o.=.Q ` %.+.u = v H w.%.| ~ ) X.6.` Q h w r ( %.u.{ o.] E o.5.E +.=.Q ( =.{ u Z <.u.u.+.%.u.u.u.+.{ Y y ",
"r.<.+.O.E ) +.d n o.6.D ~ o.{ 7.=.9.I X.:.M 1 ( R ' | o.+.G O.Q w.7...X.~ ( ) s Z @.=.H ( ' =.>.<.w.L X.:.z 7 | G | | | $.D %.~ 8.7.] { ' ] Y a L 6.u.u.+.=.u.u.u.-.L o.=.",
"] K o.w.' ! B a =.( <.] { :.E ] <.G %.+.$.,.> C <.%.u.` u.6.| Y ) Y +.6.O.R l j ;.~ ,.| ) ;.! | ;.G =.$.+.+.= F <.:.u.] u.;.o.Y Y ~ %.=.=.U a v =.:.u.u.] u.u.u.u.L =.%.+.",
"..R U $.:.R h Z ~ H :.L ` { =.( ` 8.E K { O.S d O.Y H ;.%.o.o.>.{ Y P =.$.E i F ) P ;.L E +.=.~ ) 9.Y H { +.N l +.Y H ;.$.{ ] 9.] P P :.| ! w L { =.u.u.=.u.u.u.u.%.Q H ] ",
"] =.>.( | B 5 | o.P %.] =.P %.' X.] >.( w.%.%.7 Z u.) =.~ | +.| ..+.6.! o.l 7 %.%.L %.{ =.L %.] ] o.>.E r.%.{ 5 H u.W %.T =.| | +.X.8.Y O.s 8 =.o.:.u.u.=.u.u.u.u.+.:.~ w.",
"U %.) O.E 5 t Y L 3.o.=.E { +.{ ] I ~ =.E ] ..d s m E u.] ;.F 8.Y o.{ +.H 2 y ) P =.+.:.T O.+.] | Y Q ;.E _ ' d p Z ~ e.] +.P 4.Q ` O.&.A 2 y ..R 6.u.u.<.u.u.u.u.) ~ =.! ",
"<.=.~ v & , 0 Y E | | Y &.Q X.r.~ +.$...L ] o.s 3 > i G | K :.) =.%.] j - = w ) E ~ +.T #.( X.9.] +.| +.U ~ O.y 4 > d H | L =.{ %.X.{ a > = 9 o.P ) o.=.+.+.o.$.{ =.~ O.E ",
"z 9 y 0 9 7 a ~ ) :.6.P H h w a ; a C <.Y %.q.h p y w a a w h a j t w w q 3 p ) o.+.w.K D d r u 5 a D =.~ #.e.t a w y a a r k s s p w w 9 7 y ] =.+.r.G Z d y t 9 d H o.| ",
"t t 2 t 5 t 8 P +.D B < 5 w p 0 w w y y { E ] t w 1 y 9 t u r # w y 1 t 7 w w L =.D m @ 7 w u w w 9 t s o.R ~ t w < p 7 r y w - w y < y 9 9 a L ,.Z c O 5 r y w t 9 w j %.",
"* & 7 p y 9 9 E P a 2 j y 0 9 > * . y w p D :.7 y t y w = d t p & & w p y 9 y E L t q g y y 2 , # . y y p H +.3 a q p 8 = h w p & # y u t 5 h E H 7 p p p u > > @   y p d "
};
