/* XPM */
static char *_870b34364e340e3831ccddcc35b4e7eJkojoREWfZ4mkG6w[] = {
/* columns rows colors chars-per-pixel */
"85 85 199 2 ",
"   c gray20",
".  c #343434",
"X  c gray22",
"o  c #3A3A3A",
"O  c gray23",
"+  c gray24",
"@  c #3E3E3E",
"#  c gray25",
"$  c #414141",
"%  c gray26",
"&  c #434343",
"*  c #444444",
"=  c gray27",
"-  c #464646",
";  c gray28",
":  c #484848",
">  c #494949",
",  c gray29",
"<  c #4B4B4B",
"1  c #4C4C4C",
"2  c gray30",
"3  c #4E4E4E",
"4  c gray31",
"5  c #505050",
"6  c #515151",
"7  c gray32",
"8  c #535353",
"9  c gray33",
"0  c #555555",
"q  c #565656",
"w  c gray34",
"e  c #585858",
"r  c gray35",
"t  c #5A5A5A",
"y  c #5B5B5B",
"u  c gray36",
"i  c #5D5D5D",
"p  c gray37",
"a  c #5F5F5F",
"s  c #606060",
"d  c gray38",
"f  c #626262",
"g  c gray39",
"h  c #646464",
"j  c #656565",
"k  c gray40",
"l  c #676767",
"z  c #686868",
"x  c DimGray",
"c  c #6A6A6A",
"v  c gray42",
"b  c #6C6C6C",
"n  c #6D6D6D",
"m  c gray43",
"M  c #6F6F6F",
"N  c gray44",
"B  c #717171",
"V  c #727272",
"C  c gray45",
"Z  c #747474",
"A  c gray46",
"S  c #767676",
"D  c #777777",
"F  c gray47",
"G  c #797979",
"H  c gray48",
"J  c #7B7B7B",
"K  c #7C7C7C",
"L  c gray49",
"P  c #7E7E7E",
"I  c gray50",
"U  c #808080",
"Y  c #818181",
"T  c gray51",
"R  c #838383",
"E  c #848484",
"W  c gray52",
"Q  c #868686",
"!  c gray53",
"~  c #888888",
"^  c #898989",
"/  c gray54",
"(  c #8B8B8B",
")  c gray55",
"_  c #8D8D8D",
"`  c #8E8E8E",
"'  c gray56",
"]  c #909090",
"[  c gray57",
"{  c #929292",
"}  c #939393",
"|  c gray58",
" . c #959595",
".. c gray59",
"X. c #979797",
"o. c #989898",
"O. c gray60",
"+. c #9A9A9A",
"@. c #9B9B9B",
"#. c gray61",
"$. c #9D9D9D",
"%. c gray62",
"&. c #9F9F9F",
"*. c #A0A0A0",
"=. c gray63",
"-. c #A2A2A2",
";. c gray64",
":. c #A4A4A4",
">. c #A5A5A5",
",. c gray65",
"<. c #A7A7A7",
"1. c gray66",
"2. c #A9A9A9",
"3. c #AAAAAA",
"4. c gray67",
"5. c #ACACAC",
"6. c gray68",
"7. c #AEAEAE",
"8. c #AFAFAF",
"9. c gray69",
"0. c #B1B1B1",
"q. c #B2B2B2",
"w. c gray70",
"e. c #B4B4B4",
"r. c gray71",
"t. c #B6B6B6",
"y. c #B7B7B7",
"u. c gray72",
"i. c #B9B9B9",
"p. c gray73",
"a. c #BBBBBB",
"s. c #BCBCBC",
"d. c gray74",
"f. c gray",
"g. c gray75",
"h. c #C0C0C0",
"j. c #C1C1C1",
"k. c gray76",
"l. c #C3C3C3",
"z. c gray77",
"x. c #C5C5C5",
"c. c #C6C6C6",
"v. c gray78",
"b. c #C8C8C8",
"n. c gray79",
"m. c #CACACA",
"M. c #CBCBCB",
"N. c gray80",
"B. c #CDCDCD",
"V. c #CECECE",
"C. c gray81",
"Z. c #D0D0D0",
"A. c gray82",
"S. c #D2D2D2",
"D. c LightGray",
"F. c gray83",
"G. c #D5D5D5",
"H. c gray84",
"J. c #D7D7D7",
"K. c #D8D8D8",
"L. c gray85",
"P. c #DADADA",
"I. c gray86",
"U. c gainsboro",
"Y. c #DDDDDD",
"T. c gray87",
"R. c #DFDFDF",
"E. c gray88",
"W. c #E1E1E1",
"Q. c #E2E2E2",
"!. c gray89",
"~. c #E4E4E4",
"^. c gray90",
"/. c #E6E6E6",
"(. c #E7E7E7",
"). c gray91",
"_. c #E9E9E9",
"`. c #EAEAEA",
"'. c gray92",
"]. c #ECECEC",
"[. c gray93",
"{. c #EEEEEE",
"}. c #EFEFEF",
"|. c gray94",
" X c #F1F1F1",
".X c gray95",
"XX c #F3F3F3",
"oX c #F4F4F4",
"OX c gray96",
"+X c #F6F6F6",
"@X c gray97",
"#X c #F8F8F8",
"$X c #F9F9F9",
"%X c gray98",
"&X c #FBFBFB",
"*X c gray99",
"=X c #FDFDFD",
"-X c #FEFEFE",
";X c white",
/* pixels */
"P } n g g V ! i S | @.} T n ~ ) ) S n V n H T g n V H H P V T P S P n T ) #.! P ! g } 9.} P P 2.g = = V ~ @ j ,.! ) #.V ) ~ : ! H i g | ~ V i g g @.V.@.} ) T P i g -.#.! ",
"H ,.@.j V V | 6.P g $ V ) } ~ n ~ j r 4 H P -.#.-.) | #.H T -.-.@.| -.2.j v 2.T 5 P ~ ) -.#.2.| T V P @.) #.,.T n v ,.~ V H H t.) g j ! @.@ 4 r S ) T V V #.#.6.) @.H v -.",
"j 6.~ S S H v ! j 5 H H i g H } ,.~ H P ) S #.H S ) ) H T V.,.P #.) } } n v T #.V ! H } V | ) 5 H 2.2.V j ,.~ S T V ~ -.) ~ } V 2.! g @.2.P S H | -.P ) V S 9 n @.H 9 } T ",
"| ,.#.n 5 H n S T v S v V ! ) } T v ,.#.i 5 V ~ g H j v } V @.! ~ | ~ H H ! n n 2.V S T V S V | j S ~ S } j -.#.n ! ! @.) n v V g 9.9.H H } ) #.z.! r ) ~ 5 9 i v ! ) ~ 9 ",
") g T 2.P S ! n S P ! ! ) 2.| 5 j i ! | n n r #.#.V V #.} S @.) r g r T H v j r } ! ! V } @.n T i ~ P g S ~ 2.-.-.j ! P 9 v S g H #.6.S S S j V | 9 9 v } 4 4 4 } z.V i V ",
"V H = ) K.@.V #.6.P ) ) v P ! 9 g g ~ | 4 S V } ,.H u.) 9 P n #.T H ,.d.t.j.j.j.V.F.n.n.F.V.j.t.2.z.t.} ! ,.V g ! ) 2.| S } S S | g V -.P n g 6.P 5 V 9 ~ v = ~ } V n n S ",
"V i n ) T ~ #.| j.! v r S } -.H = g | @.) S ~ | v 9 H } n #.t.A.`.T.K. X#X#X X`.u.F.oXE.d.n.`.#X}.d.F.E.F.V.6.,.j | @.V ~ P 6.@.r n 4 T -.v V #.@.i T T #.2.-.K.P S H V v ",
"2.j ! | n H ) 4 n } | ) } n 5 @.! ! H g S ~ -.g r ! ,.A.E. Xn.K.#X(.6.E.oXE.}.(.d.A.}.(.d.n.A.(.u.j.T.K.t.A.`.`.K.A.9.P 4 O ! ! r i @ P S : v v } #.) ! V #.S H @.2.6.) } ",
"-.~ g } n ~ H n T n v ,.H j S g -.v V T n : H ) t.A.}.oX-X(.t.oXoXoXz.V. XE.-XF.9. X(.6.z.T.z.9.j.}.(.K.d.V.(.T.n.d.(.(.t.~ n g g @.| 6.S i ! S n } P j r ~ j O $ S ) g S ",
"j ) -.n S ! ) V n S S T S n S g ~ 2.i = j } n.#X-Xn.F.-X-Xz.u.}.#X-XK.u.#X#XoXz.V.oXu.u.T.`.K.u.T.`.T.#XK.j.}.E.A.d.#X`.E.`.n.j.~ ) ~ V ,.T n n P P H ~ H ! ! 5 v S T r S ",
"v P u.r S @.6.S r j P 9.} -.#.! ~ H P T 2.oX-XoX}.z.z.#XV.9.V.d.j.A.F.j.z.u.j.j.(.V.6.(. X}.V.d.z.z.F.F.u.z.V.V.u.u.F.(.#XA.u.E.z.T 5 i P 2.V H 6.2.v g P S T H v V 6.| ~ ",
"i 4 #.9.T ~ ~ ,.! V } @.T ! ! = i j n.#XF.A.F.t.u.A.V.u.u.T. XT.V.n.z.V.n.n.n.V.K.9.K.E.E.T.t.d.A.V.d.u.K.`.u.d.d.V.j.j.A.t.z.T.F.F.t.| v g #.2.~ T @.H j v | #.T } T ~ @.",
"H ~ -.9.H T P H @.,.V 9 9 g | } z.`.`.T.K.9.j.T.oX#X Xt.`.-X}.`. X#XA.j.}.oXT.n.d.j.A.n.V.u.d.E.#XT.d.T. X}.j.K.`.T.`.A.9.z.(.}.T.n.V.E.z.~ 2.| r 5 V 2.) ! ! S #.! S 4 r ",
"! T n ~ } i H 9 4 n i ~ @.9.(.E.A.(. X}.F.9.}.-X#X#XA.9.F.`.E.}.oX`.d.z.}.(.E.A.9.K.V.n.z.z.A.`.`.V.u.F.E.E.d.V.}.E.(.z.t.`.K.T. XE.j.`.(.}.T.9.@.) i ! T . = 4 P H v j V ",
"j H ! T @.n ! } ,.d.d.E.#XoX}.V.d. X}.oXF.j. X-X-Xj.9.F.z.V.K.F.d.d.j.j.`.K.`.V.6. XoXE.K.z.F.`.E.A.z.F.K.(.u.V.`.T.`.u.t.K.E.}.-X`.j.`. X#Xz.z.#X(.V.n.2.} H g ) ~ 5 g j ",
"t.j.d.u.K.F.u.(.#X-XE.t.d.j.d.t.d.z.T.(.d.u.n.`.n.t.T.-XT.t.z.u.j.oXA.9.(.}.K.j.j.K.(.`.`.z.n.E.K.T.d.z. X-Xd.u.E.(.z.d.A.u.A.E.A.z.d.F.V.u.9.A.#XoXT.z.T.-X}.t.u.A.u.9.t.",
"F.K. X}.A.d.t.n.#X#Xu.z.A.T.F.6.A.n.z.u.d.F.V.t.j.`. X-XF.t.(.`.`.`.j.d.z.-Xz.t.A.u.z.F.(.z.d.A.E.#XV.j.K.n.z.d.u.n.t.K.oX(.u.t.t.t.j.z.n.z.A.z.n.j.t.z.n.K.V.t.V.n.F.oX#X",
"A.u.F.d.2.V.(.j.z.d.d.-X-X-Xj.d.#X-Xj.d. X`.}.K.j.oX-X Xu.d.(.`.}.j.u.E.n.n.t.A.`.K.z.d.u.j.j.K.(.j.j.z.j.d.d.K.K.9.A.}. X}.t.T.}.(.j.A. X(.}.E.t.n.K.}.K.9.j.`.oXn.d. X X",
"u.j.z.d.K.`.(.E.A.9.E.T.j.z.d.}.oX-Xn.u. X X X Xu.A.-Xn.d.n.d. X`.t.F.-XA.6.F.`.E.(.(.j.u.T.F.u.d.j.F.V.d.A.n.`.#Xu.K.oXoXV.9.}.(.(.z.V. X}.}.`.u.E.}. X`.j.oX}.#XK.u.`.oX",
"V.`.K.z.K.T.E.#XK.t.z.j.z.d. X-X-X#Xu.u.oX XoX-XT.d.E.u. X Xt.`.n.u.#X-Xj.d.(.`.E.`.V.t.K. X Xu.z.-X(.A.6.K.`.T.F.d.V.}. Xd.n.`. X Xn.d.V.K.F.K.9.A.}.V.d.u.E.`.-XT.9.F.T.",
"oXoXE.V.d.d.z.z.d.A.`.-XA.9.T.A.j.u.u.z.A.n.z.F.n.u.9.n.#X-XK.6.t.`.oXz.d.n.z.E.E.V.t.K.oX(.#XA.j.#X(.F.d.A.E.(.z.t.j.z.d.d.A.u.F.V.u.n.n.j.j.j.n.n.j.9.n.A.z.n.A.d.n.j.t.",
"K.K.T.n.V. XK.V.z.}.-XF.t.z.u.z.V.K.oX(.t.V.n.j.j.T.V.n.`.T.d.t.V.F.u.u.E.E.j.j.j.j.n.n.`. X-XF.d.}.T. XA.9.K.A.u.n.E.d.n.T.(.E.z.u.V.T.(.E.T.T.}.j.d.}.-X-XE.6.t.F.#X`.`.",
"u.d.z.t.z.T. XK.u.V.n.9.A.}.j.V.oX#X`.d.j.oXoX}.j.}.-XV.j.d.V.(.K.9.V. X}.`.`.n.j.`. Xz.d.F.n.u.d.K.(.F.t.u.j.9.F.oX`.j.E.(.K.-XK.9.n.d.j.A.A.K.T.t.t.V.n.V.j.F.A.z.}.#XoX",
"`.V.6.V.V.u.n.t.V.j.9.`. X}.T.u.A.n.u.d.u.F.-X}.t.z.`.F.t.K.#XoXoX9.A.-X X}.oXA.n.oX`.`.n.9.u.K.K.d.z.t.V.K.d.E.-X-XF.t.F.K.V.u.t.j.z.u.u.d.z.z.z.V.n.d.z.t.d.-X#Xz.z.}.z.",
" XF.d.(.K.V.9.A. X}.d.n.}.E.E.n.-.j.E.E.K.z.A.d.z.V.j.z.V.T.oXoX`.d.A.oX X}.E.d.d.T.}. Xu.z.oX-X`.d.d.E.-XE.d.n.E.T.d.j.z.z.j.j.K.V.d.E.T.(.}.t.u.n.E.}.(.T.d. X-X#Xn.u.j.",
"(.u.z.(.}. Xd.`.-X-Xz.9.z.(.(.u.d.T.(.E.-XV.,.n. X XoXK.n.`.}. X#Xj.n. XoXF.6.z.K.j.n.j.d.T.oX-X(.j.n.K.T.K.F.d.t.9.V.}.oXn.F.}.E.F.9.F.oXE.u.u.E.j.d.`. XE.u. X-X#XK.2.K.",
"n.d.n.K.T.V.A.`.#XA.d.}.V.n.V.u.F.E.}.-Xn.t.K.z.F.`.-XE.d.E.}.`.#Xj.V.oXn.2.V.}.-XE.d.n.j.j.T.}.`.z.F.E.T.F.F.T.z.u.`.`.`.j.z.#X`. XV.d.V.d.t.K.#XE.t.T.`.A.n.E.K.A.A.z.n.",
"#.} H ! ) @.-.u.t.z.A.(.(.A.9.V.n.j.z.z.d.E.oXT.d.z.n.j.d.}.-X}.K.u.V.z.t.K.(.}.oXn.j. XE.j.n.K.z.j.j.V.F.F.E.#Xz.9.`.`.T.t.6.F. XE.u.K.F.n.n.K.A.F.A.n.d.6.~ | u.H V H v ",
") ~ i r S ~ V T S ! 2.@.2.z.A.(.T.K.F.d.E.(.#X-Xj.A.K.(.n.V.E.u.t.z.V.V.n.z.V.j.d.j.z.E.-XT.t.z.t.z.n.d.t.n.(.j.d.A.z.K.d.t.V.u.j.u.n. XT.A.F.V.9.| ! H H ~ ! j i @.9 9 T ",
"~ ! v S T V } } S S P v 9 H | u.K.(.F.2.F.}.(.n.z.`.`.oX Xj.t.z.`.T.u.E.T.n.u.d.F.K.d.F.E.9.n.(.V.t.T.(.E.j.u.t.(.}.n.u.j.E.}.(.F.t.V.T.j.9.~ | #.g j H j S P H = j 9.| P ",
"H T V T n j } T H ) } } n P g ~ @.~ j.A.z.z.d.z.n.F.oX(.#XA.V.`.T.(.u.K.(.T.z.K.`.E.A.t.t.n. X#XV.t.oX XoX(.t.(.#X#X`.9.z.K. XoXV.F.u.@.,.n $ V ) ) ! V P t.g 5 j 4 #.T : ",
"5 2.} i 4 S n 5 j n V 6.T P ) } 5 = P 2.V.A.(.-X`.t.K.-X`.t.A.`.K.`.z.V.`.}.A.j.T.(.u.V.n.V. X-Xz.u.oX}.}.#Xd.A.F.A.j.9.j.z.A.K.z.} j : -.} V #.T T V V #.#.@.V r g n 2.V ",
"! | ! #.) -.@.S | ) S ~ #.) P ,.T P V : } n.n.E.oXE.z.n.t.j.j.A.(.`.z.t.E.F.t.j.j.t.V.-X Xd.V.j.t.z.z.T.`.n.d.z.6.9.A.F.z.A.A.@.-.g 4 } H ) v } ,.v ) 2.P j P #.~ T | 2.,.",
"} H n -.-.! ,.| ~ ! S r S #.| ! @.H ~ 2.! H ~ #.V.(.F.9.T.-XT.u.j.n.t.j.n.t.V. X(.d.V.E.A.t.u.d.(.`.z.d.d.d. X-XA.9.E.F.j.#.H v i -.-.n n ! j } ! v H ~ n ~ P ~ u.S ! 9 T ",
"j S P ~ P S H } n V V T r ! } 4 v i V } ! ~ P g v 2.d.F. X X}.T.d.n.K.`.n.n. X(.`.T.9.u.z.K.z.A.-XoX XV.d.oX XE.K.n.6.,.g O = n n ~ ! 5 ~ } n S S P g S n ! P ~ ! r i ) | ",
"5 9 T H v n j } g V V g V 2.-.S i T S n | V V H v H j T @.-.V.E.K.(.}.(.K.d.`.(.K.d.n. X}. XA.t.}.oXT.V.K.E.j.} | ! i -.! : 9 V 9 ! 6.r n T ) ) 9 V j ! T V V ) H T n @.T ",
"j 5 ~ } n S i S S V S v 2.S g 9.~ 5 : j @.g v n P | g i = 9 ) ) | #.u.u.n.n.A.K.F.V.T.K.F.n.z.n.V.u.6.#.| P t.@.9 V #.~ P ~ | n H T ! @.P H ! 9.H 9 v } @.9 S #.i H H ! g ",
"S i P @.H n i T ~ 9 r -.#.r 5 9 @.P v ) 2.) g S -.d.! } } @.~ 9 V $ } #.n ! | v | 6.~ 9.P ! | -.V V P T j H ! P @.,.v j n P } @.} j : @.) j r v t.S 5 P ) : P ~ j i n 9.! ",
"H 9 @.) V V 5 @.u.P } ~ j S j n i #.} P n ) 2.) g ! | n ) g ! ! 5 V ) @.) H 4 r ) i 9 } v i n @.| ! n v | | r r S ~ g H P S g P H T T ~ ) r n V S ,.H $ ,.@.| } 9 P ~ i P ",
"@.| ) @.~ ! ! } ,.9.T r v j g n H ~ i H ! r ~ j 9 9 | ! v V H 6.~ ) 5 = | ,.! #.P V P T T j g ) ! | ! @.~ r g v V P n V P ! ! T T T P T T g V n = S n.P ) #.S } | ~ r 9 i ",
"@.T : g 2.6.S r v S i P S V V v #.T V T P T v n v 4 i #.v S H ~ #.5 i V n 9 ,.| 9 v V T S S S T i r i T S j n n v ~ T 5 ! P ! t.S g j P } T P 4 g d.,.n r g V n -.r = v S ",
"H 9 S v P ~ n n j } H S V ! 9 V } r H ! g V S : g v = V | r j } -.9 : S P j n P r g i P H V H ~ n j : H | i v j V #.2.| j T ~ T @.T j v 6.@.4 T | S H r H V r g } g i n r ",
"g S P T P P S ~ P @.) r j v n -.@.! P P ! ~ 2.H j #.| 4 ) ,.~ | | @.n g ~ n ~ v 9 S S 6.6.i V 9.} } | } } ~ S ~ } P H ! @.| v 9 S ! -.} V T @.T 9 . @.,.5 j ! P H @.) S S ",
"#.T i j ~ ) v T i P } n ) 9.| r n ) V ! #.j n } v S ~ ~ ,.2.n H v r #.) ~ } 2.} T ) T n S u.@.g V T | P g ~ ,.-.j ~ ) : P P n H v g ,.! 9 = | j i | | ) ~ | ! j 9 j ,.-.P ",
"! #.) T } 9.T g ~ | #.@.T } ) g g i H P n j j V i 5 r j V H v j v $ j V i v i } ~ H 5 r : | P 5 v j P ~ ! T H S P ! n j T V n S n ~ ) j V i H d.| | r 4 ! } 9 n H i ! } j ",
"S S ,.V S ! ,.~ ,.V T T r n ,.~ i n S @.! j j H v j V j ,.) 9 P } i S j g i 4 ) -.j V T ~ ) T i i 9 ) } } S T ) H S g P @.H j P n ~ n v P T T E.6.9 V n v H S j H P V ) i ",
"V ) n V T V -.@.H S } T n P S #.H 9 g #.! v S S g j 4 T | @.P V ! v T j S v ! | | ~ v @.) ~ H $ V } u.#.g n } 9.P j i v ) @.r n ) ~ 9 ! P @.) v 6.u.v g H T v V n 9 @.n.T ",
"! 6.H P S v @.@.H T H V v n 4 ! 9.n S 9.! 5 V -.j : H | v V 9.! j S S 4 r v @.g : ~ @.n r T | V H H g ) ) ! ! | 2.} T H | t.} } #.-.S : V } j T T 9.2.S 9 T n 9 V } 6.-.T ",
"v | #.j S i ~ } | d.@.9 S ! | } v n j P #.! V ~ S ) } j S n v | } -.-.T } 9.z.6.d.u.E.d.6.j.E.n.! ) ! | 2.5 9 g T d.@.) H ) | T g S #.~ } g n | ~ i n @.#.! : P -.P v ) i ",
"n v @.-.V ! d.6.-.#.2.,.) } #.~ r S V g H 9.V r j | P = v | | j.K.V.T.(.`.n.K.-X-X}.j.j. X#X`.}.-X`.F.E.n.t.2.T ) n n ) P ) ) P P r 5 9.) g ~ S n ~ g r 2.u.) ~ S g j T v ",
"S V H u.P } @.j S n j | n r @ ) ! n V P P S ! T 4 i 6.,.n.E.E.A.#XV.z.}. XK.z.A.u.d.z.d.F.#X#X#X-XF.t.}.`.A.F.E.F.2.@.) i n } T V H i P j V n V H ! H V : -.,.g S j V S i ",
"H V T } v i H g P i P } j j 9 ! P r H ) } n j S @.n.(. Xn.T.E.E.-Xn.n.-X#XoXz.6.n.F.#XK.9. XoXoX-Xz.n.}.#XV.t.(.`.#XT.j.@.} V j } H T 2.) V 5 r T H r n T #.i P S i T P i ",
"T v ~ H V n -.T v S ,.| T ~ P j @.! | ) T n 6.K.E.z.n.V.z.K.E.-XT.9.j.K.oX#X}.j.K.}.`. Xj.F.#X-X(.t. X-X-X}.9.T.-X-Xz.F. XT.2.S r T @.v ~ ) ! V ~ ,.n H #.-.~ T g r u.| 4 ",
"T ) u.} #.P ! 2.P | v : r P ) | @.T i ,.z.n.`.V.t.z.j.j.z.j.d.n.d.K.T.t.n.(.K.t.j.T. XF.j.j.V.E.u.u.(.A.n.j.t.A.#X X9.T.#XoX-XK.2.@.= i i g -.T n S -.6.n i ~ | ) ~ @.) } ",
"! } #.@.T T g P 6.g j S n : 9 ) = 5 ) z. XV.u.t.j.T.T.F.j.A.A.2.z.-X-X(.d.9.u.V.V.n.z.u.j.A.z.u.d.z.z.t.-.z.E.d.V.n.u.d.z.V.K.j.(.V.| S g r H v g = H @.g H n = u.| 4 v ~ ",
"V v H H i H ) : H } S i j 4 ~ @.6.V.`.E.`.K.u.V.}.E.F.n.d. X#Xn.d.-X-X(.d.d.F.`.}.d.d.T.j.F.#X X`.d.A.(.K.`.oX XF.t.}.T.K.A.6.z.oX}.E.A.9.~ T 9 5 5 ~ | j H V T @.2.~ n i ",
"S v T } T S r @ P ) 4 n P #.E.F.F.`. X#XT.(.n.F.}.T.oXj.u.oX#X(.z.T.T.d.t.E.E.E.T.d.`.T.d.`.#X#X-Xd.9.`. X(.E.oXj.t.`.-X#X Xn.j.oX#XT.A.F.E.V.| V H H T 9 n | ) 9 ~ u.T r ",
"i n T S V V v S ,.9.,.V.K.}.A.9.j.n.F.(.E.j.u.n.V.j.n.9.n.}.K.n.j.d.2.V.(.}.F.d.d.j.F.j.t.F. X}.z.9.j.d.n.(.}.d.u.F.d.}.#X}.(.j.}.oX X`.u.(.#X-XoXn.u.6.P 9.-.i j i v @.H ",
"-.,.u.2.6.d.A.A.T.E.n.n.j.n.d.V.E.K.t.u.j.u.F.j.u.V.A.K.A.z.t.6.d.F.j.z.(.n.9.V.n.n.j.K.T.d.z.j.t.K.(.A.d.V.j.u.}.#XV.u.E. XA.t.T.-X-Xn.d.z.V.F.n.j.`. X#XF.j.n.t.,.@.6.F.",
"`.#X#XK.A.V.F.T.}.j.9.V.(.d.z.`.F.E.(.n.d.K.`.T.u.(.#X XA.6.`.A.d. X(.A.u.d.`.oXj.V. XoX`.(.d.j.`.E.`.-XA.u.9.E.-X X XA.t.j.d.V.z.V.j.9.j.j.n.j.j.d.F.}.`.6.u.F. X-X-Xz.A.",
"z.-X-XV.j.d.u.V.V.u.E.F.}.z.u.`.(.A.}.K.n.(.(.(.u.V.(.`.z.t.-XK.j.-XoX XA.d. XoXz.V.-X#X}.oXj.z.-XoX(.}.z.T.T.d.}.#XoXK.t.T.}. XT.t.n.(.K.j.(.#X-XT.d.V.2.V.(.j.d.`.n.9.T.",
"t.#XE.n.n.E.A.d.u.A.E.`.(.A.d.K.(.T.`.j.d.(.K.T.z.j.(. Xj.A. XT.n.`.oX-X}.u.T.#Xj.d.}.oX#X Xu.j.A.(. XT.6.(.-XK.u.T.#Xz.d.`. X`.`.u.V.}.oXn.t.}. X-XF.6.j. X-X Xz.u.j.`.(.",
"9.n.(.z.V.-X-XE.9.T.E.T.}.K.t.V.E.`.V.9.u.d.F.-XE.u.oXK.9.(.#X`.d.T.E.V.z.d.z.n.n.V.t.j.K.n.9.n.d.t.V.z.d.F.V.z.u.V.V.u.(. X}. X#Xt.T.#X}.`.d.n.#X-Xn.t.#X}.T.}.}.z.V.#XE.",
"9.n.-XV.u.F.T.n.9.z.V.`.A.9.n.n.j.n.t.F.T.j.n.V.d.d.A.j.d.d.V.n.u.n.d.t.V.E.T.d.F.oX`.K.j.t.V.E. XE.K.u.j.u.z.A.(.A.t.d.V.E.`.`.n.9.(. XE.oXoXj.A.j.u.n.V.E.}.#X-Xn.z.#X`.",
"n.z.z.d.d.t.u.9.V.j.d.j.u.T. X`.F.t.T.E.T.`.j.,.V.}.j.d.`.(.j.F.(.d.E. X}.oXoXd.V.oX X-X Xj. X}.`.-XK.9.F.z.T.-X-XA.u.F.u.j.A.n.u.n.j.V.j.u.n.d.t.V.#X Xz.j.A.V.n.6.A.K.u.",
"K.u.6.n.K.`.T.t.n.E.(.d.z.`.`.T.E.u.(.A.K.`.d.z.`.}.T.t.(. Xd.F.-Xd.A.oX`.oX Xu.F.(.T.oXoXu. X#X#XE.,.T. XA.d.F.T.d.F.oX`.oXd.j.-XT.9.(. XT.V.t.n.#X#X(. Xn.t.n.V.A.j.j.V.",
"E.j.,.K.`.`.E.d.K.`.#XA.u.T.}.}.E.j.K.E.`.F.t.E.F.T.(.j.K.}.u.A.oXF.d.(.oX X Xd.E.#X#X Xz.t.A.K.A.u.F. XE.}.E.u.9.t.`.#X`.-Xd.u.#XT.d.(.}.-X-Xn.9.T.`.E.}.u.A.-XoX-Xt.V.-X",
"(.z.2.E.oX(.u.d.`.oXoXV.n.}.`.`.-Xz.n.#X-XV.j.`.(.oXV.9.j.F.u.T.-XA.t.d.A.z.9.9.E.-XK.t.d.V.d.V.V.d.`.}.(.-XK.t.`.V.j.}.oX-XF.j.K.K.n. XA. XT.9.z.E.}.(.T.u.E.(.}.#Xu.u.(.",
"E.`.u.n.z.j.n.z.V.A.t.j.j.F.K.V.F.d.z.z.d.9.K.}.oXK.,.K.T.t.z.-XT.t.E.K.t.t.d.F.z.d.t.F.#X}.d.(.-XK.t.(.-X`.t.K.-X}.d.j.A.F.z.K.E.K.d.}.-XF.2.A.j.t.E. XT.j.`.oXoXd.V.E.j.",
"V.V.V.K.n.n. XT.u.j.A.oX`.j.9.j.z.j.j.z.V.A.j.V.K.6.F.`. XV.E.F.t.u.V.-Xn.n.oX-XK.d.`.#X X#Xz.n.oX-XT.u.E.V.u.#XoX(.d.d.V.V.n.n.F.j.6.n.T.9.V.oXK.n.z.}.K.u.E. XK.n.T.T.j.",
"| 2.} 2.| 9.u.2.n.`.T.F.E.u.E.#X XA.u.}.-X}.E.n.9.V.oXK.F.z.u.t.j.j.A.}.n.K.oXoX(.z.oXoX`.#X(.j.}.K.n.t.d.u.n.n.d.9.u.}.#X#X}.z.t.j.E.F.9.V.-X}.`.T.V.F.j.V.6.| #.9.9.P H ",
"P } V 9 = j ! 4 V T t.K.t.V.E.}.#XE.d.oX`.(.-X(.j.}.E.E.E.j.d.E.F.d.E.E.z.z.V.n.z.d.`.#X`.}.n.t.n.u.d.(.`.F.j.V.F.A.d.`.#X`.`.d.u.#X-X-XF.j.E.K.z.-.-.,.T } g 5 j v | v 9 ",
"P ) H r v ~ 6.~ 5 v P ,.} ~ ,.z.`.A.u.#X`.`.-XV.d.E.`.`.E.n.V.T.T.j.K.oX(.V.t.j.j.z.j.E.-Xn.t.K.z.9.T.oX-XV.u.-XoXoXj.V.#X(.`.t.V.-X`.E.F.z.| #.! g r v S j 5 j j j ! T 9 ",
"v -.) T @.) ~ P ,.#.g g ,.n H } H j.E.E.E. Xn.t.n.d.V.T.9.9.A.A.n.u.j.(.}. Xn.j.E. XF.d.n.j.}.-X#Xz.n.`. Xd.9.V.E.#XT.t.`. XT.j.T.K.V.6.~ T ~ 2.S n v : | ,.V P H H @.,.H ",
"! @.t.@.S S ) v | T S v T 2.H S V #.n.2.T.A.t.(.E.A.d.u.d.n.z.t.t.n.A.d.j.F.j.6.z.(.oX`.u.u.(.E.K.n.d.E.z.t.F.z.u.n.F.d.d.n.j.V.z.#.! S g ! t.,.P ,.| ) | P T T P #.-.P ,.",
"! n ! #.H ~ T v ~ T S ) n } 2.} ) : ! P S u.E.(.E.}.K.d.`.}.V.u.V.T.}.`.V.9.F.(.F.t.n.F.t.z.j.t.d.T.V.9.j.`. X}.`.n.9.`.E.j.n.j.d.H O n ,.~ S S 9 P P @.#.5 H T j ) | ! P ",
"S ~ ) ,.6.) H n #.n H #.} V 2.) g j V ,.g S 2.u.T.(.z.z.oX`.(.z.z.F.}.-XV.t.(.-XoX}.j.t.}.A.t. X X XK.9.K.oX X`.-XK.t.E.K.t.@.S T 6.~ ! ) V ) } v V H r -.) v V H ! P H S ",
"H ! | ~ 6.! n | 2.} T ! H @.-.n P H : #.V.v = T t.6.n.T.(.F. Xn.z.}.`.d.d.T.d.V.(.oXt.A.-Xz.j.oX X}.oXn.j.}.}.(.E.F.z.9.#.V j P H j 9.~ v } T 2.-.H T | T ) n V 9.} 9 V n ",
"~ T ~ T P 9.u.} S | 2.@.| -.2.| v n S T @.#.~ } j 5 @.2.2.d.F.A.A.(.u.9.E.-X(.j.A.n.d.oXoXj.A.oXoX XoXF.A.T.V.d.6.,.H T #.P } ! v r S n ! V ! #.} ~ ~ | | A.} } | #.#.n : ",
"j V P H P ,.| n ! S S ~ 9.j v -.@.@.~ n v P #.S S H ! P r n H -.d.6.z.F.T.T.E.F.A.V.F.T.(.K.T.K.E.A.u.9.6.#.v @.~ 4 V #.~ ) @.#.T T t.-.T ! #.) P } v S 2.K.~ i j n S -.~ ",
") ! P ! ,.~ P T v ! #.~ #.H H V | H g T P i n n S ~ ~ H v g 5 r S r P } ~ ,.2.~ | u.2.6.} | 2.2.H ! n n n 5 j -.9.P ) ! n T T H 9.) S #.v ! S ! T H -.t.H H #.! i V n t.d.",
"@.~ ) 9.@.T V j g @.V V 2.n ! H P j j T j n H g H H j ! S r = ,.6.: g j j T } 4 = j n ! $ : 4 P r 9 v g n @.#.T ) #.T V V V ! g T ~ g ) } S V P 9.@.) ! P H H #.@.P ! S ~ ",
"~ T n ! ~ g g n V ) P } t.v v ! -.#.T V v @.9.H i g g 6.,.j H H ~ ~ i S ~ v @.#.9 9 ! ~ n v V P T r H j ) ~ H P n ! P g n v P #.#.V T V } H H ! ! ! n ! P T T v #.T g n ~ ",
"n g j -.@.~ H 9 T A.,.9 P d.} ~ ~ @.#.@.#.} H } } ~ ) T V -.#.= i -.#.j i g #.@.~ } 6.P T n P V -.! v #.P i j P ~ 2.-.! ~ @.! H } P n r | 6.n.,.n ) P H T T g i -.9.5 S ,.",
"~ ~ ~ P S @.@.| ~ H S g v -.,.n P T P 2.! H n g 2.} V j 9 n } r g v ,.~ n @.) g V n | -.T ! ! ~ } @.9.n g n T #.#.T T t.~ H V n T ! r ) @.g ~ -.~ @.T 2.) i ~ ) | @.! } H "
};
