/* XPM */
static char *_adbb6d965a944c6adb833d73ea76451[] = {
/* columns rows colors chars-per-pixel */
"85 85 90 1 ",
"  c black",
". c #050506",
"X c #090A0B",
"o c #0A0B0C",
"O c #0E1011",
"+ c #121314",
"@ c #131416",
"# c #18191A",
"$ c #1B1E1D",
"% c #1D1E1F",
"& c #212224",
"* c #252627",
"= c #262728",
"- c #2B2C2D",
"; c #2E312F",
": c #2E2F31",
"> c #2F3132",
", c #343436",
"< c #38393A",
"1 c #3C3E3F",
"2 c #414243",
"3 c #424345",
"4 c #464749",
"5 c #4B4C4D",
"6 c #4C4D4E",
"7 c #4F5053",
"8 c #545556",
"9 c #555659",
"0 c #595A5C",
"q c #5C5D60",
"w c #5D6062",
"e c #626364",
"r c #67696A",
"t c #6B6D6E",
"y c #707173",
"u c #717374",
"i c #767778",
"p c #7A7C7B",
"a c #7A7B7C",
"s c #7B7C7D",
"d c #808182",
"f c #838485",
"g c #848587",
"h c #898A8B",
"j c #8C8E8F",
"k c #8E8F90",
"l c #919294",
"z c #969798",
"x c #979899",
"c c #9C9D9D",
"v c #9FA0A2",
"b c #A0A2A3",
"n c #A5A6A6",
"m c #A9AAAB",
"M c #AAABAC",
"N c #AFB0B1",
"B c #B0B1B2",
"V c #B2B3B5",
"C c #B3B5B5",
"Z c gray71",
"A c #B7B8B9",
"S c #B8B9BA",
"D c gray74",
"F c #BFC0C1",
"G c #C1C3C3",
"H c #C4C5C5",
"J c #C6C7C9",
"K c #C9CACB",
"L c #CBCCCC",
"P c #CCCDCD",
"I c #CED0D1",
"U c #D0D2D2",
"Y c #D3D3D4",
"T c #D4D5D5",
"R c #D7D8D8",
"E c #D9D9DA",
"W c #DEDEDF",
"Q c #E1E2E4",
"! c #E2E4E4",
"~ c #E5E5E6",
"^ c #E7E7E8",
"/ c #E7E8E8",
"( c #EAEAEA",
") c #EBECED",
"_ c #ECEDED",
"` c #EFF2F1",
"' c #F1F1F2",
"] c #F6F6F6",
"[ c #FAFBFB",
"{ c white",
/* pixels */
"7%71,-8DZE(cd4-4#4rECW`4<7755=<,3>22,&8DGU'li3>4>1pRDE`&34944-11:211<%8GPY'hr<>33:hPP",
"11#7-1*D/cu-&<7<,&61KHR1, 11174o22#5>><D`jt.%151,&57YGK3: 4:164O31&71-9Z]gr %341,:40W",
"  337,1Bn1%t4,,#O 81>g~40441:r,7  234,7Vl,>r43%%. 01>lE1r141=t:7 .333:rZh-7044+% .931",
"40< 17cE:4$3<+71$0,*:>`l>% 4 -4058:o>7AH=4#11$71&9:=,8]s:$ 4 ,3087:%=8KN=4%,1=6>:8-&>",
":40&#7Bk2e$q11&11O584<tB>qe&-11--79$-5Fs1w&04>*12.504;hb,0w&:15O=79#,4Le10>96&&11O6q4",
"4**1-cT0-e:3&8,5,<&1.=*Wh 7-714,1,+1-ZL<*e:3&0>51-%3 =1Ws 9:9>8,,1X3-HH%-e>4&0:33&%3 ",
"7-3>pRF89-1*98,3,94:93:CDh8 7-ro6,2-dWD10,<=03,4<83>84,SDs7 7<w#411-l~C,0,,>e,<4,72,7",
"$-0F_WYr6<<w:81 6><6e1:FW_Kp30:5&>wF((Y764*0:71O2>42e3-YW(Ht20,3-<tG/`L,47-9>51-,-810",
"nWJPUYHr5%&9hbKBEDg%0$ FFLEFDFDFDPUPLEH72> 9lnHCIGi-8$ KSTYGFDBDKFRLHEG3,< 0cNGSHHt11",
"JPEHRKYe1el)YYSLKPGFe44DL_KESFE[HLWHPYK0,rc]PLDJHTHV957GU`HEDGR'JKWHKRG9>tv]PKDHGYLm3",
"'_WDFKL7rH~nSTY'({KKPr$RPYJY'DPS`'EDFKD6iPTZDJ!/`{GFP9:~FRHE'VPD`[UFHIB7dRHHFH~~'{FDL",
"RNK{YFb1GFWPE'NUTZSWQT hLE{E^P(ZPZY[WDj7PDWTT)BPTZDWEH cLW{T/K'BHDE(^Di0YDT!Y!AYYZF(T",
"RYDEEFsdTNWnUK(KRRYNDRaa]ZDTE(DERPDWRJelYBENLL'HYETnDTtl]NFTW~N(RKSWYL7bYDYCHY'HPWEcF",
"HL~IEc>LRG]ZRLIFPTYK{WT#l{FRWHREHK(PEg>RWF]NEKLHLEYK{~H%b{ZEEYKWLH)KEu>E~F]nWHJIGEUP{",
"APSLG,1CnPZ'AZEGGVPKAFKe0CH{nRB]ZHFIV:1GNFS]mGWDGZPKDFFe0HJ{nTD'AZHTv-1KBDF]cLQVFFIHD",
"T`Eb:o1HPWWnYFT{REW~K~~3-.yL(PIJR~!l* 1RLY~NEFY]WET`PEW:-ogK`KPLRE(d$ 3^KKEBWJU_)WP`Y",
"br1&>:7DIT~FLstl<imRDUWt9:&004vszr>-,-6GEJ'FFdrf2dNPHK~90*:009nsht-,,>2K~H{DBhta4hBHY",
"3,44&43cZmN1143>131rDFH7249o53<o1314:14cGnn:143,311iHDF4119o71,%>4<2,<7cLmc:<42<6,1dP",
"#&$w1,>IGp193<1+. 14uD]O,&74 373$&-03:3UHe7432>$  28dH/X1$0> 773&#193*rKJ6q<43:#  30l",
"#84 :1iJa3&8:.7,&>e:$4_h03 :<eO8-41.&1hFr3-6:O5,&<e=*r(aw, <<e 8>3<$$<bS9311:%4,&1w$:",
"1>2&:8bn-7$0<,&1:3%54$bs 544%.021>4&:8Cl:6&91,+1>2#84-Be 845$$e,1>4*>8Gd>4>81,#1<1X01",
"141:-tRa<9 8&:<3>&8,O>0)e*0,$72@14<--sEr-9 9=-31>#8>$*i~q&w>-44O17>>,hW4-8 0-*3>,$9::",
"8,81,FLw997$8e%7341777,vD34 y,0:745,1KP4007O0qO951<857,bF:4 u,0>473:3PH1qq5Or9.07<,04",
"<.$rT`L6:o%0183.-1-o1#.EH!h&O:01:#OuR{G->*+0,73O&1> 1$+(HWp%.,01-& pE{Vo>-$q-44-#<, 2",
"wcH)PIHy4117>ik8bd6401-bZR]cczrailU~KRK817-43ihwzs7594-BVE]lck0idjWELTP1<9%38ihrli974",
"L~BF/SDte60SDHKYRHHb93,PPHC'KUW'TTDHEHSr07eGFHLYLUGl831EKPC]KYE(!HHPULBr76rHGKPPFTGh4",
"RR)nLTY,,hHRTIHWW{LJl1OYR{PAWFKYYW~nHWJ>:cZ~YHIE~{HFl:-EE{FG~FHRP(EBGWD<-NN`UGYR({HAf",
"{YG]HTT9jKEnL`D~IEbI'm#lND/REb`P]RG`YYH9cKYBP~KWTWcE`x*cvK)IWb]L)RL~WRB8BHHFYWTRTExQ/",
"DHTWKCgt'L`CZURK'S/PY]8b{R(D][BFDKUWPZrh'L(SZIEU)Z`KR`4C{Y~F](ZFDYPTTZ7c'PWFZLEEWD]FW",
"KAJWWZ,nDB]GETYHP_nDWKN&ZYnE(DW'HZLWEN%NHV]DTWHLP`bDEPz<DRbWQHR]HZLWTnOZJF]DP~GYI(MFY",
"DUHLEi,FDNFRKN~FPP`NRHK0s`U{cPLYGHPYEq<LDnGWHm'DKR_bWHF9h'P{lRHYKDTTT51YFnHEGM]DFW~nW",
"L[WPhO1KP]~GHHIWYDU]T~/,54n]~(cEP((Ls 4EI/_GPPLERDK{TWW:50C'(WnRTW'Hr 7(YW~DTRHUEHK{R",
"ESl:>:4BHPPH(MBElZYHmFYi6*Oivh~SYSl-:-3DHFRKWBBYcFKHVZRe4&$dcl!FKCl-:>1JPZRTYDZFbKDFD",
"4&62+<8CVPWhe2:>$78HZUE3,88>4&:&,<31$>8ZDH(s91>>,1eHFLW&450-4&>,&41,-:7DHK!t7,::4>iFP",
"11O8-:&JQve>%<6,>.53ZP~1> <1174%1,$7,&<H'leO%141-.76HPT2- 5:177&2:&81$0D]se %341-#40Y",
" o2>7,1Bx,%t3:>#$O0,-iQqr71<,r:7 o4,2>9Zd>>r2<%&#Oq<=hE7y211:t&7.#411-tZt>5921#&O@q1>",
"40,o18cY#2.44#71O9&::=~l#& 6 $8078>$,9ZFO3.44&6<$8%:,4`y#& 5 :8984>*:9Kn@3O34>7:&7#::",
":59&$8Fh4e%8-1-41.7732tH69r%&3<%:78$*9Lp2e-7<:>11 783>hZ50r$-33X:77#,8Rw2q>41%,11o704",
"4=>1>nI8:r43:0:7,<O4$:&Rl 4$e14,1,&1>DK,>r31>q&51>O7o:,Eh 6&e:7,,1#1>LF%<t32>w%54*O7o",
"7*1>lWF77.*,87<<184%91*DAn0 1&t$5>1-c/D<8$%19211183#81:GZc7.1,e&4<,-b(N:7&&39<14,71%8",
"@,pP)TYy71<0*82O01<8e1>NT~Tk9e#4&<dP^WY757&7=71-7<75q4:FYWRd7q&4:2hP~~I149-4>4214>950",
"D(FLWEGr9&%tcBUGQHx,0$ PKHULFPKYLELKT~G77:.tbZPHRPh,9# RGPLPHPGLEIYPP~D43,.tnFLJLUf34",
"HLEFRLE9&rc)RRZPLEFDr33DP{YEHZR]GPWFPYY7$tb]TLSLLEGCe47FY{KWFFR]GYWFKEJ7#in{TGGJLEHN4",
"])WJDHI8tP(bGTP'~{FYRi%IGJLY~NPA]'RJFHG8dRWNHL!/`{DLTr>EZPKR~MYD`]PHHPC7lWUFHH~!'{DKY",
"YmU{LFl4PF~PY/VPWnKEER.hEQ{I]WEBKZR'ESs0RF~TL/BLEnPWEP cE~{P'YWNDFE~QCerEFEQKWZYYnIQT",
"THNEWDuhLMWmKK/HL(HmGThr/BCQEEHQUFNWEG0cKBWmHY(FK)JnHRsd(NZQERD`IDN~PH4nPDTBDE/FK)KbH",
"KE_HIl-PTD(FWDYFHLEH{WE&l{FYPLRPKY'DTi-EWD(D~DYHFTEH{QL&n{ZUKRKIYP]STq>W!Z(D(ZULDEEK{",
"SPALD:2CNWH`ZGEJKBHTCFKw9cF{SRn]ZHDYN&3FNYK'NPEGKVGTZDFw9NH{SYA`ASHEc-3KCPK`bRRDKDJYZ",
"W)Pj#+,DHYRNRFR{PEERDEE6$.0ZEDEHRWRs# <PHHWCTHT]REIWFPE1$oySWDEKRREr# 1WGGRDRLT(WWJWK",
"h54>,:7FLW(DDy8t%rc~DR`t81:883grd91,,=6HEY[SBy9r>tmEHY'70><777hri0,1,:4K^U{Vnu0e1iNYR",
"41,2-31bJbc-,15,1110HDP53,8-34<.13-1:14nYvlO>17<2<1eLSH52>9=431#14&1,<7bRbho>34<5,1uY",
"O+&04,>HDr,e5<1#. 33eN'$1>5<.665+O>93>3HD84043-$  45rDW@6-9-.945#.374-rHD10744%#  48i",
"-01 :1hPr3=4:.71&20:&3'l7< >-9$0<71.&3vJ04:1>o71&49&-e'd9- <&0.037,##3CD741-,#7,*49$>",
",,7&-8nc,9#0><$,,<,85=lh 971&O91>17%:7Zh,9&9<<X<<,>04*by 072&$w-:17&>7Gi<8>71,o11>:03",
"41-:&iTu-8 8:,<4,:1-.-4(tO0,=74>23&:-hT9&7 9->321&1:.%r~r.w,>47-13%>-cT1&7 0->4,3%1-#",
"6>714LIe078O8e&7<52477,nF94 r>0O414,5TP3097.rq#8142776<nG14 t,9O453>0EL1q07.r8$014185",
">O&dW'P8,$&0181 >:=%4$oRY)c,#182>%$hW{J,<:$q:72.=>,.4%#~P(l:#471:=$lQ{Z#1,=0-73&+:1 3",
"iBL~KJHt1,,87dbtCl0101&mZR'bnbdlhnREHPK7,4$7efbiMl8473&ZZE'bncskxvQUHLK3-7#7thcdnl871",
"HWFJWFHtw9iLHHHKPHKZ931HPKB'GPW]UYKKYKFr99aRHHGKFPKm744KKKV'DIW`EKPPJIVe80hRKJHHDPPc4",
"~E`nLUP<4xKKKKK)/{KFn4oWR]LF'KHLW!WnHEG,4nDRJFR~_{HZM,-(R[DL'HFPE`TVHWZ<4DNQHFEQ'{GBb",
"]HG{PUL8zHEZY]ZWLRbU`V#gBS]ERn]H`PH]EPD8nGYFT'FRITcW(n%lMJ]YEn{H~PU(~Yn9AFKIE/HYIRc~Q",
"DLTWPDhi(H~MFKWY)F(KH'wc{UTF_[BJDYPWUDrj_HWBDH~Y~G'FP~8C{JYG``BIDRKRRD8b)KEASH~EEF[ZY",
"PFLEWN*BHZ{FWRUHE~VH(LD#nWZW(DE'KFUWEb$DPD{SEWHLR^NH/Un-Z~NWWHU[HDTERcoFTH{ZR!GRR!VKW",
"CLDIRq1ZNZV~DN(DZLWBJFJrtWP{cKHWAFKTU71HVNA(CV`NVYWMPGDep(P{lYFEFZPEK21KAnD^NB'bNEEnI",
"P]WHyX3YT'(DPHP`EFW]R/`>4,c`(~nTT_`Fw 4QT~`CRKK_WFR{RQ^%43N~'WBYRW'C6 7'RW(BWYHW~KT{E",
"Inp#>:4BGJYH^ccKdnJHBHIi8-.rhiENGna$,-4DLSWKEnbFhNFDDDTe8&.tfdRNDbt*>>1HYVWYPNbBlDDZH",
"1&61O38nNGTu54<>-75NDKL1,70%2$-#>131$18nSDRr34<:118NHGL&340O1%::&51,-,8MHFYq13>>7,eNL",
",<ow->-URc71&,4-& 24nY`,> 14,84>,>#w,&3I~gq&&11:# 38VYW<: 8,186>1-&01$rK_trX&31:O.39H",
" &4$4:3Al<&r1%<%-%e,+e~tr7,-1r-4.%5=1:eZd1:w1:-*&%e>$pWeu4>,,t$5o:4:,-iDr137<,&-$&e:&",
"38,#<9cK.1o74-41 7$1,#Rh :#7 o0874<%>9BB.1O74>3,O7O1>1Er :$7 &0782<-:0Hc.<%65,3-&7.2-",
">57-&9Yh4eO6&,>42.9511rT87r&%7,@:76&:wEy3w#7>&,31 051,fH77r&-51.>85*,rQ030&3,$121O953",
"7<7<-MP71e611q*4,1.711:HvO3.t14,543,:DK>1r413w$7<:.0,1,Jc 4Ot>8,371,>HF&3r414eO73&o0>",
"3o&,M~G74.%4571>174.3:#KZFe >%t-1%$,N`D,4$%4641<184 4>&YDC8X-,r-<*@1Z'B:71%44<23<64 3",
"-8lW~YPy7117#98%r717w1>bHE~ltu$7,8cEWEP867=5$88,e47404:CHE~hrr&619MEWWP1cT((~(`'_e859",
"H`ZH^RDr0>&dnDYY(Gn0w*%RYHHRHRRWYEGKWWD99<$hNDYYEUc89-&~HIGRPRIR~IKLR!V7n({{KE{{{Uz94",
"HP~DPYW8$tN(ERDKL(HKr1:DY{RPKVR'FYWDHER5opn]EPFHU`HDe12GE{LYKDY_DRWDGWL5l({{RE{{{RLZ4",
"{(RTDHR0sY`cFYL'W'VU~f%GSJPYRbTD]'IUFGH9lEWnGJW^(]NU~y:PbPPPEcEF''KLJKZ8N`{{RW{{{QNYW",
"KMY]JDh8WG(KL~DK(bERE/#k(E{H{`PZHZR`TStr!F/PH!DP!bWERRov(~{K{!YZZFEWWC8pW~{{K{{{{NWER",
"ISCE~SelFn~NHLWGH'DMLTx0TZn!EYY^LZBWED6vHB!NDRWFH'ZnLRgtRZn!ELK'KBB~PD1NLW{{W{{{{EDnK",
"KW^GPh-PYBEKWBEJUK^G]EE:l{HWFPRPIR`DYt:EENELWNEKKY^D{EL-n{DEAWPPRU'ZT9>WY~{{W{{{{R~F]",
"CEHTD-3ZN)YWDLRLKVFWDKI09dD{K!v'ZYLRn&4HBWR~ATRKPZD!DHJ07lF[KRB_DHTWz&4IS`{{({{{{HFWD",
"(WFp.$<ZDPPZWDU{FREINKY9*#6bPM~HWEKrOo1HDFRAEGU'KRPRCFT4=#0nPNWLEUL8#o,YBHYWRRYELWFTD",
"y,4<,:8FH~`Bne18+8k(ZE]e741881e8r311<*7HYR]Mc025-8cWFE[3814882r99711,:4KWR{bl043,0nYP",
"33&3-3>BRch$-17<1144LDK31%4,352 14%3:11NWcd :1511,39YSF31$7:241O14$4,,8N/li -2413,1rE",
"X.:74,,DB8&r4<,#X 417c~:4341o037..174,4DN3<w44&$  447nR*8<7>oe17. 453-eDn:7775##  470"
};
