/* XPM */
static char *_c926bb44de240f0e3d60abcad5d629eUZn5fz2DL1v7DYuV[] = {
/* columns rows colors chars-per-pixel */
"85 85 255 2 ",
"   c #010600",
".  c #0A1700",
"X  c #161A00",
"o  c #271D00",
"O  c #1B2400",
"+  c #172800",
"@  c #242400",
"#  c #242A00",
"$  c #2B2801",
"%  c #352B02",
"&  c #293400",
"*  c #353401",
"=  c #3B3400",
"-  c #3B3A05",
";  c #3A3814",
":  c #382A26",
">  c #473904",
",  c #563908",
"<  c #4C3510",
"1  c #5B3D1E",
"2  c #3B4600",
"3  c #3C4A09",
"4  c #474409",
"5  c #574409",
"6  c #495801",
"7  c #555900",
"8  c #484416",
"9  c #594818",
"0  c #57531C",
"q  c #695C05",
"w  c #674819",
"e  c #6E4D18",
"r  c #596600",
"t  c #5C7200",
"y  c #4C6000",
"u  c #676902",
"i  c #6B7400",
"p  c #677800",
"a  c #737D00",
"s  c #797803",
"d  c #726B10",
"f  c #564C25",
"g  c #5C5529",
"h  c #514D2A",
"j  c #694B26",
"k  c #754B27",
"l  c #645224",
"z  c #68562A",
"x  c #76552A",
"c  c #695C35",
"v  c #765B35",
"b  c #624736",
"n  c #6B6339",
"m  c #78653A",
"M  c #746A2B",
"N  c #6D5846",
"B  c #796A44",
"V  c #7C7248",
"C  c #7C7553",
"Z  c #73664C",
"A  c #7E6464",
"S  c #867F06",
"D  c #86771A",
"F  c #885C35",
"G  c #84542C",
"H  c #87653B",
"J  c #8C7232",
"K  c #855746",
"L  c #866945",
"P  c #946A47",
"I  c #84734C",
"U  c #89744A",
"Y  c #99754B",
"T  c #8B7B53",
"R  c #8A7855",
"E  c #947D5A",
"W  c #987955",
"Q  c #8D6756",
"!  c #A7794B",
"~  c #A47C53",
"^  c #A87A57",
"/  c #A36C4A",
"(  c #927869",
")  c #A97A68",
"_  c #6C8300",
"`  c #748300",
"'  c #7B8300",
"]  c #7C8C00",
"[  c #748B00",
"{  c #7C9500",
"}  c #838C00",
"|  c #888701",
" . c #849500",
".. c #849B00",
"X. c #8C9D00",
"o. c #8B9303",
"O. c #969901",
"+. c #888518",
"@. c #949112",
"#. c #A49A1B",
"$. c #8CA200",
"%. c #8AA700",
"&. c #94A300",
"*. c #94AC00",
"=. c #9BAC00",
"-. c #9BA400",
";. c #9AB500",
":. c #A1AB00",
">. c #A6A504",
",. c #A3B300",
"<. c #A9B800",
"1. c #B2BA01",
"2. c #ACAE19",
"3. c #989426",
"4. c #9B9538",
"5. c #908433",
"6. c #A49734",
"7. c #AFAC33",
"8. c #C4B438",
"9. c #B7C400",
"0. c #ACC100",
"q. c #C6D206",
"w. c #8D8358",
"e. c #94835C",
"r. c #9A865B",
"t. c #988B49",
"y. c #A6884B",
"u. c #AC845C",
"i. c #A68357",
"p. c #B4875A",
"a. c #A79958",
"s. c #AD974D",
"d. c #BCB349",
"f. c #B4A950",
"g. c #9A8765",
"h. c #9A8876",
"j. c #938765",
"k. c #A68A67",
"l. c #B48B63",
"z. c #BA8D64",
"x. c #B58B6A",
"c. c #A4926C",
"v. c #A99469",
"b. c #BC9265",
"n. c #BD946A",
"m. c #B7976A",
"M. c #A48975",
"N. c #AB9876",
"B. c #BB9A74",
"V. c #B39C7A",
"C. c #BC9D7B",
"Z. c #B69674",
"A. c #B68A75",
"S. c #B8A867",
"D. c #B9A47A",
"F. c #BBAF6D",
"G. c #9EA143",
"H. c #C2905D",
"J. c #C4B951",
"K. c #C2966B",
"L. c #C39A6D",
"P. c #C59768",
"I. c #C49C73",
"U. c #C99D73",
"Y. c #C6987A",
"T. c #C89378",
"R. c #C6A174",
"E. c #CBA276",
"W. c #C4A37C",
"Q. c #CBA47A",
"!. c #CCAA7D",
"~. c #C5AC77",
"^. c #D4A77B",
"/. c #C8B37A",
"(. c #C6B069",
"). c #D1C36D",
"_. c #B89A84",
"`. c #B0968A",
"'. c #BAA884",
"]. c #BBA993",
"[. c #C69B85",
"{. c #D49D87",
"}. c #C3AA83",
"|. c #CDAC83",
" X c #C7A988",
".X c #D2AD83",
"XX c #D5AA88",
"oX c #CCB28C",
"OX c #CAB287",
"+X c #D3B186",
"@X c #D5B48C",
"#X c #DAB58D",
"$X c #DAB98E",
"%X c #D6B88A",
"&X c #C8AA95",
"*X c #CBB493",
"=X c #CBB598",
"-X c #D6B692",
";X c #D9B792",
":X c #D6B993",
">X c #DABB95",
",X c #D5BC9B",
"<X c #DCBD99",
"1X c #D8B59A",
"2X c #D5AC95",
"3X c #E2BD94",
"4X c #E1BE9A",
"5X c #E2B597",
"6X c #E5B587",
"7X c #D9BBA4",
"8X c #D3B4AA",
"9X c #E2BDA6",
"0X c #E4BCB6",
"qX c #DDC19C",
"wX c #DBC197",
"eX c #DAC28B",
"rX c #E2C39D",
"tX c #E6C499",
"yX c #E5CA8E",
"uX c #DEC5A1",
"iX c #DFC8A3",
"pX c #DBC3A9",
"aX c #E3C5A2",
"sX c #E9C5A3",
"dX c #E3CAA5",
"fX c #EACBA5",
"gX c #E5CCAA",
"hX c #EBCCAB",
"jX c #E6C4AC",
"kX c #F1CEAA",
"lX c #F1CCA6",
"zX c #E6D0AC",
"xX c #EBD2AD",
"cX c #EDD3A8",
"vX c #F3D2AD",
"bX c #F8D6AE",
"nX c #EAC7B6",
"mX c #F2CBB7",
"MX c #EDD5B2",
"NX c #ECD7B3",
"BX c #F3D5B2",
"VX c #F3D9B5",
"CX c #F3DCBA",
"ZX c #FDDDBB",
"AX c #F9D6B7",
"SX c #FDE1BE",
"DX c #F7E0BB",
"FX c #F4CCC4",
"GX c #FEDCC1",
"HX c #F8D4C8",
"JX c #F4D3C9",
"KX c #FEE4C2",
"LX c #FFE9C9",
"PX c #FFE9D4",
"IX c #FFF5D2",
/* pixels */
"> k Y Q.b.@XaX>X>XaX|.H :XzXdX<X;X>X;XqXxXR W x.W P P Y W u.W.}.B.m.l.~ H 9 Z.@X@X$X>X>X>X>X-XaXE z dXdXfXaXsXN.e @XMXdXuX>X<X>X@X>XaXVXV.h.CXbXtXaXvXvXvXvXvXvXBXAXZXZX*X",
"= e ! Q.b.K.>XwX>XaX|.F oXxXdXqX>X>X>XdXgXL }.CXqX:X:XrXfXVXVXNXCXVXrX3X|.z k.+X@X>X@X<X>X@X-XsXk.m zXgXaX>XrXD.k l.MXdXdXdX-X>X>X-XwXKXe.X Z e.v.W. X'.oX XD. X}.V.V.g.n ",
"* w ~ Q.K.z.|.dX>XrX|.F OXMXdXqX@X<X<XrXqXB }.xXgXxXxXgXdXdXdXdXqX:X>XfX,Xg k.+X@X-X>X>X-X>X@XrXZ.T MXdX-X:XfXV.x ~ aXdXdXgX,X;X>X@XaXPXg.X = 9 v F x z * ; g $ @ # X X # ",
"* e i.Q.n.b.|.aX>XdX}.F |.xXdXuX<X<X-XaX*XB >XzXuXaXaXdXdXdXuX<X;X;X>XrX Xg Z.>X.X-X;X;X>X<X@X3X}.g.aX<X;X>XvXg.< u.dXzXdXdXgXuX>X4X+X(.J H U.U.P.n.B.^ > B #Xx w F H Z.g ",
"= k l.I.K.n.@XaX>XfXV.x OXxXiXdXqX-X:XdX'.L rXgXaXaXdXuXwX<X>X-X>X<X;X>X*XN Z.tX|.@X-X;X;X@X.X>X Xk.4X>X:X:XvXU % 2XZXBXAXAXVXxXfXHX7.$.{ 4.XXL.K.+XfXQ.e w.tXL.b.L.3XBXg ",
"> ! I.I.I.Q.wXwX>XhXc.k -XxXaXdXwX:X>XaXV.I 4XhXdXdXqX-X@X:X>X>X>X>X@XrX*Xg C.tX|.@X>X;X+X|.+X$X}.T <X<X>XhX4XJ r z g 0 l n H L L Z  .<.=.` p.I.K.:X<X>Xk.e.3XK.E.rXrXaXg ",
"L I.E.L.Q.@X>X>X>XvX( x rXgXaXdXaX>X:XvX`.A sXaXqX<X>X>X>X>X:X-X<X;XaXMXm. .7.5X|.+X@X.X|.|.|.!.rXZ &XFXFXFX0Xs. .. . & 8 g Z j.Z y $.<.<.t J Y.R.>X>X>XW.R %X+X@XqX4XsXz ",
"k.Z.K.I.+X>X>X@X>XaX+.Y BXdXaXdXaX>X>XrX4.s ~.aX<X>X>X:X:X-X-X:X<XwXjX2X@.{ #.1X.X|..X|..X.X@XhXtXs 3.7.7.1.<.=.t l `.&X7XpXgXVXrXO.| a _ s n.K.R.>X;X>XW.c.rXfX<X:XfXIXe.",
"E B.I..X$XrXfXxXfXgXM k.GXcXxXxXdX>XnX/.*.*.' <XaX>X:X%X>X>XwXrXdXgXs.6.i.* D.IXfXfXrXrXrXhXKXLXc & 7 s ` ' ] +.Y b.!.,X<X>X$X+X>X;XhXC g U.E.b.K.aX;X$X!.c.'.oX>XwXN.g.c ",
"U XXtXtXfXaX-X>XJXqX} o.r. XrXrX-XrX0Xf.=.,.` s.AXfXfXcXxXVXVXVXSXPX2.{ J X O V.=X].=X7X,XpX].8   @ P {.Z.x.C.Y.^.P.$XaX<X<X<X<X4XsXZXv.R XXK.b.+XuX;X@X#XV % v.*XV.g < & ",
"W 1XqX=X'.E L v U -.;.%.3 @ > z I A ' ,.=.,.[ 6 ( c.V.'.D.V.V.N.h.h.<.;.r j I e.c.M.'.D.V.W x x - % z.Q.U.Q.I.b.K.$XMXaXrXrXrXaXrXaXfXm.W I.b.L.rX>X>X>X#XT w 5XuX-X!.^.I ",
"z E L v 1 < > f D 2.6.O.4.E m x H L d r 6 ` s Y ~ ~ ~ ~ l.m.v.i.B 7 X.,.i A.ZXcXrXfXrX>XtX+X^.KXc.$ z.E.b.K.K.U.>XaXaXaXrXrXrXrXrXaXsXm.k.L.b.@XfXrX:X>X#Xe.v #XrX<XwX^.k.",
"c ~ F l.|.m.z H XXnX9X7XsXvXbXlXU.6XjX. $ g.l.E.L.U.U.!.fXfXrXfXlX6.a p 5  XCXuXqX>X:X>X;XaXxXSX'.> ^ Q.|.@X>XaXwX>X>X>XaXfXqXrXaXaXtXl.g.p.+XxXfX<X-X>X$Xg.L 3X>X;XwXbXN.",
"e.ZX<XxXCXVXL x fXgX>X>X>X>X>XrXdXxXMXz R &X@X!.@X<XwXaXfX>X@X@X$X.X[.N < K.xXgXdXwX@X@X>X;XwXVX'.= P $XrX<X<X<X>X<X>X<X<XdXxXrXqXBX+XB '.|.dXfXrX<X@X<X$Xg.I aX<X>X>XSX'.",
"w.KXzXfXqXnX5.| hXgXdX<X-X>X-X-XdXgXjXh.].BXlX>XaXfXfXfXaXaXaXaXrXAX(.' i x <XzXdXdX<X;X>X>X>XVX X@ m Q.4X4X>X@X+X.X+X$XP.^.vXkXvXAXz 8 7XaX<XrXqXaX<X@X.Xg.T hXqX$X;XVX'.",
"r.ZXfXaX,X7X#.} 2XMXfXdX>X@X:X<X<XnXeX:.@.M.}.oXwXaXfXBXhXfXfXaXrX0X<.,...D mXSXVXMXVXxXaXrXrXKXN.  = v ~ B.n.b.z.i.u.p.J P W U W g   c pX>X>XrXrXaXaX>X$XZ.T fXdX:X;XbX'.",
"v.SXuX,X<XjX4.u A.VXdXdXuX:X<X<X-XnXd.0.;.& f L L U m g n c c n 0 @ # $.[ B '.D.'. XoXoX}.W.}.}.f X = @ @ > 8 4 4 z c 8 C V.V.N.c.v.h N pX>X>XrXrXqXrXhXCXD.Y aXgX>X-XvX'.",
"c.VX<X>X>XjXt.i p.NXdXuXdXdX<X;X>X0XJ.&.| 5.x.p.~ Y x X n v.W W W w < q q < , 1 w w w k v W E Q u a k.U 9 w 5 > , W Z.I R.SXCXVXkXZX(.m 7X>X>XrXrXrXaXrXxX&XQ 7XxX:X@XvX'.",
"v.vX<X;X<X7XO.&.&XJXnXnXMXBXnX0X0X0X1.] W XXQ.E.>X>Xl.> C SX#XU.I.I.K.^ ^ ^ ^ p.p.b.n.W..X;X;X8X@.%./.jX@XL.p.p.K.L.>Xk.p.qXqX;X;XjXd.X.7X>X>XrXrXrXrXwXMX*XD ~.CX<X@XkXD.",
"r.BX;X;XaX&XS ,.f.S.(.(.~.D.d.8.d.7.*.J Y.I.K.E.>X4X;Xm g hXtX.XQ.I.K.I.L.R.+X>X>X4XrXrX4X4XfX=X} ../.hXrXrX@XL.K.Q.>XU |.rX@X;X>XnXf.o.0X@X>XrXqXrXrXwXnXd.;.X.*XnX-XlXV.",
"I SXaXjXJX[.| ;.,.&.*.X.' | @.&.;.q.X.( XXI.n.!.3X>X4Xk.8 C.fX>X<X@XI.I.Q.%XqXqXwX>X>X>X>X>XaX_.a X.D.sX>XqXaX!.R.rX}.U rX>X:X:XqXMX/.O.-X;X>XaXrXaXrX>XHXJ.*.] D.mX>XlXN.",
"0  X,XtX).<.X.d | #.t.a.'.~.S. XO.0.<.5.XXL.b..X<X>X>Xm.f Z.BX<X<XrXwX<XrXwX>X>X>X>X>X<XrXdXhX<X@. .1XFXnXrX<XwXrXfX}.e.qX:X:XqXdXmX(.O.OX9X4XsXqXaXjXGX8X-. .`.MXdX>XkXN.",
"O % d -.o.} t.`.M.].0X7XnX7.] 1X0X2.*.5.[.I.p.!.aX;X$XW.f V.VX<X>XrXrXrXfXfXfXdXhXbXhXwXoX X*X).:.&.6.f.S.=X9XmXhXvXD.T rX>XqXdXgXJXd.] g.jX9XjXFXhXeXW.d { d nXCXdXwXSXv.",
"> Y s.p.Z.A.Y.E.L.$XqX>X<XOXOX>XmXrXd W U.K.z.%XuX;X@X@Xg # n R j.j.c.N.c.k.c.N.T c m B L k 5 s } &.$.X.X.o.7.a.5.5.y I AXaXMXBXxXJXS.=.:.1.q.q.J.O.*.;.q.p : 4XfXhXkXBXz ",
"w U.^.U.I.I.K.n.>XxXaXaXrXhXhXaXrXhXM.i.L.b.Q.aX@X-X@X>Xn $ H W.:X'.'.'.V.~ W u.W O 5 H x Y n.P q ` <.-.X.$.[ t p a N.M.@XkXfX[.) d.1.] O.} i 6 & d 5.&.q.O.f c c I E 4 + ",
"l U.L.b.b.p.I.>XfXaXrXrXrXrXrXrXfX3XZ.+.6.I.;XaX<X;X<X5Xn 5 p.$XrXrX>XwXrXcXQ.! tXT w.<XB.aXZXnXJ ] <.' 3.G.t.Z.<XsXxXr.k v w u s ] t . X . ] r b >.|.&X:.<.J ^ H m 9 @ # ",
"l L.I.Q.+X@XrXrXwX4XrXaXrXqXrXaXhX$Xi.r.s.$XhXaX<X>X4X;XB > n.rX>X:X>X:X-XfX>XK.ZXe.e.LXMXgXdXmX4.] &.4.nXnXjXaXsXnX1.$.4 1 I G.t.( c ; ; 0 ] | #Xd.%XPXS.a m.$X^.#X.X^ 5 ",
"5 n.3X<X>XrX<X-X>X>X<XaXgXaXaXnX(.+.( }.|.hXaXrX<X>X>X>XB > I.VX>X@X>X>X>X;XaXMXZXc.k.VXuXdXdX9X4. .X.S.mX>X>X>X7X(.=.;.a L sXFX7XsX;Xn.n.Z.7 s HXHXaXrXaXW.<X>X>X<XfX;XH ",
"> l.>XrX>X>X$X$X$X;X@XL.<XCXvXGXyX7 C jXdXuX<XrXrX-X@X@XI > Q.VXaX>X>X>X>X$X>XdXVXD.V.VXdXgXwX9XG.X.=.O.1X4X>XrX7X| `  .i P @XrX>X>XtX$XH.Y.#.*.d.%XjXwXaXhXqX>XaXqX<X;XH ",
"$ m ^ Q..X^.E.U.P.P.b.i.l.x.v.g.U X.| &X<X<XrXrXaXrX.X@XE , Q.MXgXdX>X>X;X-X>XuXMX'.D.MXgXuX>X9Xs.&.&...f.nX>X>X<X|.<Xg o l.tX>X>X;X<XdXK.p.| *.{ f.FXrXaXaXaXrX.XQ.Q.E.L ",
"- & % > 0 l l l v j g C g.k.g.I y *.] '.aX4XaXrXrXaXhXVXg., n.MXgXgX<X-X>X<X-XwXMX}.'.BXaX;X>XkXM.` s i &.(.9X>X>X9XLXw.X I.fX-X<X>X-XdX|.W.@.` } +XhXaXaXhXaXL.p.b.b.^.H ",
"z L , > > % o , E I v oXNXCXVXvX).M m 7X>X<XrXrXrXrXxXVXj.9 ~ xXgXdXqX;X>X>X;X<XMX X'.MX>X-X>XkX( 2 D P p @.jX>X>X>XlXV.% I.xX<X<X>X>X<XdXKX`.e.sX-X-X4XrX3XL.b.L.L.L.^.z ",
"c hX#XK.p.! ! z.^.oXW ^.xXwX>X>XAXM.h.gX:X>XrXrXrXrXqXBXg.j ~ aXgXdXdX>X-X>X>X<XxX XD.tX>X>X;XBXe.X e z.W.OX<X>X>X>XfX'.> Q.CX<X@X>X>X>XdXCXr.E GXsXrX,X7X[.A.|..XXX#Xz.> ",
"n BXfXrX>XQ.U.L.#XD.U 3XwX@X>X>XsXZ.N.dX@X<XaXrXrXqX4XmX7.i Q >XxXdXdXqX;X>X@X;XfX'.C.rX>X;X>XbXT . k p.@XrX>X>X>X>XfX'.9 .XCXqX-X-X>X>XqXFXd.6 N `.`._.F.f.4.m h g n - O ",
"l aXqX<XaX;Xn.Q.lXg.T vX;X;X;XwXvXc.M.aX@X<XrXqXaXaXaXnX:.s K @XMXuXaXdXqX;X>X>XfXN.V.fX:X-XaXtXM @ x y.I.:XqX<X>X>XrXoXv |.NXdX>X:X@X@XqXFXS._ 6 [ $. .} s q > o * 8 9 = ",
"I bX>X>X>XqXqXwXvXr.g.fX;X:X<XaXZXE Z hX1XsXhXnXmXnXHXoX..| Q :XxXuXaXdXaX>XwX<XkXT w.kX>X<XxX+XH & $.#.T.!.aX>X>X>X>XuXW I.MXdX<X>X:X@XwXGXw.r o.' a u k K ^ l.z.x.^ ^ j ",
"'.LXkXvXkXhXvXvXKXN.r.sX-XqXdXdXPXR O 7XfX>X+X/.s.7.J.O.;.p M BXxXdXdXdXdXqX>X>XZXV I ZXqXdXMXmXQ r <.| T.K.>XqX>X>X>XqXP B.NXdXqX-X<X;X<XKXj.E 7XZ.k.Z.|.>XhXMXVXfX+XXXm ",
"0 g z e.D.'.v.e.T h v.vXwXhXNXCXF.o.] :.9.:.-.*.*.;.$.] p & t.ZXcXbXvXxXhXaXfXvXhX2 3 qXxXCXuXwX3.=.=.d T.n.U.rX<X>XwX<XH B.MXfXqX:X;X;XqXZXE k.KXCXVXBXMXxXgXgXgXaXrXSXe.",
"O . . . # - 8 c h.C k.bXZXvX-X[.D u 7 4 6 6 a { ` i r 4 ; % m m B I r.V.C.C.D.n + # = l N 5.=.*.1.9.&.M Z.I.z.|.gX<X<X<XL m.NXdXuX:X>XwXqXVXe.k.xXdXaXaXaXaXdXdX,X@X>XBXT ",
"B k.V.&Xk.W W.vXSX:XH ~ r.H e , j $   X . O . M D.V.Z.x.u.^ H x z 9 > * $ = X . > H Y H j 5 7 2 p 9.:.J T.K.n.I.uX<X<X<XL x.NXdXaX-X>X>X>XxXE Z.xXdXaXdXdXdXdXwX%X:X>XhXT ",
"U Z.<XAXrX>XqX<XrX:X* * w n n g 8 * * - * . 4 sXGXBXKX$XH.!.^.E.E.E.I.P , X 4 E W L H L P K N : 6 9.} H E.K.K.I.<X<XrX>XH l.NXdXdX<X>X-X>XfXe.}.xXuXuXfXdXqX>X:X>X>X>XsXw.",
"v Z.oXwX>XwX<X>XfXoX+ 8 l.fXdX,XpXC.i.x.r.O t.bXrXrXaXaX>X>X<X<X;X<XrX;Xz.% T kXW.~ i.l.l.~ ) J  .9.u W Q.L.n.|.dX>XrXoXv m.NXaXdXqX>X>X>XqXr.|.xXuXdXdX>X@X:X:X:X>X>XkXj.",
", i.;XrX>X>X>X>XfX*X& 9 x.tXtX>XrXfX^.H..XV l.vXrXrXrXaXaX>X<X;XrXqX<XfXI.> g.bX.Xn.n.b.z.n.T.+.$.0.S A.I.K.I.>XqX>XdX'.k I.xXaXdXuX>X>X>X:XE |.gXdXaX>X-X>X>X>X>X>X<XsXB ",
"= Y >X>X>X>X>X>XrX,X# 5 Q.rX>X>X;XaXwX! @XV.W.fXrXrXqXrXrXrXaXaX:X+X.X.Xl.5 D.3X!.b.l.l.l.l.T.D ..,.3.[.b.E.@X>X>X>XfX'.k |.VXiXuXdX<X>XwXOXR 2XrXqX>X>X<X>X>X-X>X>XhXrXl ",
"= H @X>X>X>X>X>X>XhX0 > $XdX;X>X>X<XaX|.dX'.@XdXrXaXrXrXrXMXaXR.b.b.b.L.p.0 '.3X@Xn.p.l.l.z.T.D { =.3.[.L.+X>X>X>X>XfXN.x >XMXaXaXdXwX>XrXOXd |.mX>X>X-X;X>X-X;X>XdXqX^.l ",
"= F L.>XwX>X>X>X:XAXV > aXzX@X>X>X>XqXMXMXD.>X4X-X;X>X<XaXrXL.z.K.L.K.^.~ f *X$X>X|.p.l.l.z.T.L ] 9.] [.9X$XrXfXhXvXZXg.m VXHXjXiXdX<X:XhX&Xp X.D.aX>X>X<X<X<XqXdXaXp.P.v ",
"= F z.@X<X>X>X>X>XBXT 9 fXgX:X;X>X<X>XuXCXw.B.AX<X>X<X<XaXI.P.^.^..X.XXXG 8 dX#X#XaXI.u.n.l.^ ) 3.<.i D oXmX9X_.`.&XHXZ Q yXF.7XFXjX1XnXjX4.=.<.] =XFXjX7XjXmXFXHXmXY.{.L ",
"> F p.+XrX>X>X>X>XvXe.z fXxXaX>X<X-X:XqXKXB # _.7X7X=X].].M.E U B V T v X ; uX$X.XrXqX^ ~ ! n.nX4.$.,. .] s.r.+.} o.3.7 g u $.-.f.7.1.8.#.$.1.1.*.O.S.6.O.O.2.d.d.#.X.s.f ",
"> F u.|.aX>X>X>X>XfXZ.H rXgXdX<X>X-X;XrXKXV   O f c n B m l = $ o @ % r _ u N.5X@X@XgXm.Y W.xX7Xa $.1.q.X.t ]  .] ] t t = O p <.<.;.] a i d i i a ` t t i t r r 7 r r 6 3 ",
"4 G p.!.>XqX>X>X>XrXOXP :XzXdX<X-X>X;XqXBXV m P k e k x F P i.l.u.~ ^ y.O.[ U 5X@X@X<X>X@XdXnXa.a p 6 r i a.J J J H H Y n.L 4 ,.=.7 W =X=X=X&X X&X&XW.C._. X_.^ W W _.c.2 ",
"4 G u.U.Q.aX>X>X>XaX XH @XxXdX<X;X>X;XrXgXI |.BX@XW.W.|.@XrXcXvXVXxXwX2XC. .S 2X#X>X@XrXqX-XjX4.] r m r.OXGX4X;X4X4X4XrXtX#XH _ 7 ) GXfXrX>X<X4X4XrXaXsXsXvXcX>X+X3XVXLXc ",
"> k ! E.b.@XaX>X>XtX XF OXxXdXqX-X<X>XrXuXB  XCXMXMXMXMXxXgXgXfXaXuX<XhXwX$.|  X$X;X;X>X-X;X9X5.X.` c.PXfXrXfX<X;X:X<X4X4XsX^ 4 e 5XCXiXdXqX<X>X>X;X>X<X;X$X>XfXMXzXuXKXe.",
"> w ! Q.b.K.<XwX>XsX/.D  XxXdXqX-X>X;XrX,XI :XgXdXaXdXdXiXdXdXqX;X-X>XaX&X .| 2X@X-X>X>X;X>XjXy.` *.6.mXrXaXaXrX4XrXwX@X@X|.~ k F m.fXfXdXdXfXaX>X;X>X>X;X>X<X-XwXdXuXKXr.",
"* w ~ Q.K.b.|.aX>XjXF.d  XxXaXdXwX-X-XnX,XX.%XnXaXaXdXdXuXqX<X-X>X>X>X<XoX` y.sX|.>X>X-X>X@X>X XO.*.7.nXaXaXqXrXfXrXK.z.b.U.i.H P x !.xXaXaXdXdXdXqX@X;X<X>X;X;X>XqXdXZXg.",
"* w i.Q.K.b.Q.rX<XfX'.N @XxXdXdXqX%X9XaX7.X./.mXdXdXuX>X:X-X>X>X:X>X>XaX+X] m.sX+X>X>X-X@X+X1Xs.=.] v.AXaXrXrXfXaXK.b.K.K.^.W > W v i.VXdXaXdXaXdXdXrXwX>X>X:X>X>X>XwXZXV ",
"> k l.R.n.z.@XdX>XhXS.d <XxXdXdXaXsX/.a  .,./.nXaXwX>X;X<X>X;X;X<X;X>XfXR.' D.aX@X@X@X@X.X+X1X| *.]  XsX@X$X4XaXR.P.E.R.I..XH O m l.rXSXZXVXVXSXZXCXVXVXhXfXfXfXkXfXZX7X> ",
", ! I.K.n.E.rXrX>XhXa.s iXgXaXdXaXqX+Xm.o.X./.sX>X>X%X>X<X>X-X@X>XwXfX$Xi.i OXrX!.|.|.|.|.1Xm. .<.7 &XAXfXaXaXpX}.k.W r.k.I $ . = m U B L T v.N.v.r.e.E W r.k.g.B c z * # ",
"L I.R.n.Q.$XwX>X>XBXT i xXVXdXgXaX>XrXFX:...}.aX>X>X>X>X>X:X>XwXaXdXL.p.i.8 qXZX>X>X>X>X>XAXa.X.9.2 8 E N.h.C Z h 8 h T W.W x w w w 5 w x k.c   . 8 n I g.c.N.c.e.e.T 4 # ",
"k.Z.K.I.@X>X>X>X$XnXt._ R.rXxXhX7XaXbX8Xo...}.HXfXhXnXmXhXcXxXxXMXCX3X^.I.@ g CXCXzXzXzXCXHXw.X.1.p & % h 8 4 9 I &X=XN.rXQ.U.K.b.E.#X4XfXZXV   M hXKXZXCXCXVXVXvXfXLX_.. ",
"W I.I..X:XwXfXcXfX7X2. .7 q A g.y.a.I $ 2 =.@.V._./.).S.'.=X:X,X=X'.'.D.z O   - n B E g.( M o.9.&.6 R  XgX XC.XXkXBXxXe.}.rXQ.Q.<XsXjXjXhXHXA 3 8.T.>XMXdXqXqX,X>X>XaX*X- ",
"U .XtXrXfXaX&X&XHXuXX.X.2 h 9 ' } 9 $ . X o.9._ 6 p p 6 h f - - * - 4 X . - z w w k k k k r *.,.r v A.C.hXrXqXrX4X>XuXR 3XZXkXfXyXeXyXeX/./.f...| x.<XdX>X:X>X;X>X>X<XsXz ",
"L 1XjXjX&Xi.5.5.r.5.&.<.,.>.:...5.Y.z.F = p a | F.V.h.`.].V.Y L Y k.Y.l   z 9XI.~ W u.W.sXv.u i u P W }.rX>X>X>X>X<XdXn C c._.r.i } ' ] X.{  .i d qXfX-X:X>X>X>X>X<XaX4Xz ",
"I V.N 3 O 4 ..$._ ' -.] X.$.$.] 5.n..X[.M _ 5 M.ZXBXaX4X<XwX3X^.P.U.P..X& 4 BXCXrXdXcXNXNXMX*Xm.rXe.w OXrX>X>X>X>X<XBX0   j N.D.h.`.R z S J & X  XfX%X<X<X-X-X-X<XdXxX4Xl ",
"g.Y.m o > 5 5 5 d 3.r z y.s.f.f.b.b.L..XN p O.Z.wX>X>X-X>X>XrXNXQ.p.p.vX0 4 kXzXgXdXdXiXdXgXjXsXGXw., |.rX;X>X>X>X>XBXc @ ~ $XVXaXrXtXXXx.{.z & <XrX>X>X;X;X@X<XfXiXxXaX9 ",
"c.3Xn.P F P / ^ _.m.4 P 5XnXnX<Xb.K.L..Xb r O.[.rX>X>X<X<X;X>XzX>X! E.LXg 9 BXdXdXdXdXdXdX<X@X>XhXT > K.rX<X>X>X>X>XAXw.$ u.>XaX;X;XrXrXb.^.r.3 ,X3X<X>X;X<XaXfXdXaXxX4X8 ",
"c.3XK.E.n.K.R.>XvX*Xh Y E.<X<XwXK.b.I. Xc _ | 1XfX-X;X>X;X;X>X>XdX$XaXLXV l BXdXuXdXdXaX<X:X>X>XsXR , z.@XwX>X>X>X>XkXD.= n.fX;X>X>X;XfXK.6Xc.- <X3X;X-XqXdXdXdXuXuXVX-X= ",
"g.lXK.n.K.Q.>XrXsX'.g ^ ^.>X@XrX$Xb.I.[.R X.] &XNX>X>X>X<X<X>X:XwXxXgXZXw.c BXgXdXdX<X>X:X-X>X>XfXg.w p..X>X>X>X>X>XfX'.> B.xX>X>X>X>XqXqXZXc.- aXrX-XwXdXdXdXzXxXMXSXD.$ ",
"T bXQ.p.I.rXaX>XsXN.z p..X<X>XrXdX>XP.x.5.,.' ].CXwX@X<X>X>X>X>X>XrXaXZXg.m VXzXdX<X-X;X>X>X>X>XfXg., ! !.>X>X>X>X>XfX'.< W.NX>X;X<X>X>XdXGXv.8 aXrXxXVXMXNXfX:X|.-XAX}.# ",
"I kX>XQ.>XaX<X>XsXZ.v p..X<X;XrXrXxX>X X+.p D jXgXaX<X>X-X-X>X>X:XrXdXVXV.R aXqX<X>X>X>X;X>X>XwXsXB , ! R.:XrX<X>X>XrXoXx !.NXqX>X;X>X>XrXKXN.= x.I.+X$X.Xm.~ Y Y Y ^ m $ ",
"R kXwXdXqX>X>X>X4X@XR ! P.>XrXrXwXrXrXdXN.< H dXgXgXgX>X;X>X@X@X$XwXdXMX'.E rX>X>X>X>X>X;X@X>XxX4Xz , / L.!.aX>X>X<X>XqXY I.MXdX>X>X-X@XdXKXN.. l x w w x k x j , = # X # ",
"k.ZX;X<X<X>X>X<XtXrXk.l.>XdXaXqXrXrX>X>X=XL G %XMXdXdXqX>X<X>X>X;X>XdXMXD.R hX<X>X:X>X;X$X>XfX@XU.c , H U.n.>XrX<XwX>XdXY B.MXdXqX>X>X>XqXKXc.$ 9 9 9 j x x x j 9 9 w v 9 ",
"I VXkXfXrXaXfX;XoX,XW |.CXfXrXrXrXrX@X<X,XU k |.NXdXdXdX>X-X;X>X>X-XaXxX}.h 1XhXaX>X>X<XuXdXxXP.H.m , F L.n.I.fXqX>XwXqXL B.NXdXqX@X>X;X<XZXw.W 5Xn.l.u.l.B.@X3X4X<X|.U.W ",
"* g V c.oXOXC.V.].j.z kXhXrXrXrXrXrX@X<XpXE e B.xXdXdXdX>X-X>X>X>X>XqXxX8Xr -.@.D.BXfXhXMXgXMXfX{.@.q F U.K.b.@XaX>XwX<XH m.NXdXqX>X>X>X<XCXR i.KXMXdXdXMXVXxXxXMXxXaXbX'.",
"L U g.'.N.E k.,XVX'.f sXZXaXaXaXrXrX-X>X7XR e i.zXdXaXdXqX%X$X>X<X>X<XxX0Xo.;.[ s 7XjXgXpXpX7XqXS.$.q F U.L.K.L.<X<XwX<XH x.VXdXiX-X>X>X>XVXT k.VXdXdXgXdXdXdXdX<X-X:XvXV.",
"R Z.<XBX<X;XrX>XrX,X# h &XvXbXhXfXfXaXAX'.8 F Y dXgXdXdXfX@X@XrX>X;X<XnX/.=.,.:.i 6 @.O.o.O.:.=.X.[ 4 P E.K.K.K.>X<XrX>XH x.VXdXiX<X>X;X>XgXT C.xXiXdXdXfXiXuX>X:X:X>XrXN.",
"c Z.oXrX<X<X>X>XfX&X2 2 u M Y B..X:X>XN.* O J Y >XzXiXdXdXqX<X<X-X-XsXOX` X.o.X.r z M d q u ' r 2 # , p.Q.K.z..XdX>XrXoXv Z.VXdXdXuX>X>X<X<XE OXxXdXdXaX<X>X:X>X>X>X$XtXD.",
", k.:XrX>X>X>X>XfX].r =.3.T C e.k.U n 8 $ # ' P OXxXaXuXiXgXqX;X>X>X<X>Xs.4 7 +.H Q P P Q K K b X = W K.I.K.E.>XwX>XfX'.z W.VXuXdXaX>X>X<X-XE  XhXdXqX>X-X-X>X;X>X>X;XfXk.",
"= Y >X>X-X>X>X>XaX&X .| ( bXBX<X,X}.l.K.Z.4 ' P |.MXaXuXdXfXuX>X>X>X:XrXnX* C mX@Xl.p.z.z.p.u.A.4 z  XI.n.R.@X>X>X>XfX'.v @XMXaXaXdXwX:XrX*XQ 7XhX>X$X:X<X>X>X@X;X<XhXfXL ",
"* H @X<X;X<X>X>XsX}.X.| ) tX>X>XrXxX+Xy.5Xw.i P .XMXuXaXdXuXdX<X:X>X>XrX-X- k.lX!.l.l.l.l.z.K.Y.z c Y.n.I.+X>X>X>X>XfXV.v rXxXaXaXdX<X:XsXS.s s.OX4X>X:X;X:X@X>XqXdX@XE.L ",
"= F I.>XwXwX>X>XaX'. .S [.aX;X>X>XqXqXp.5XG.a P @XxXuXaXaXuXdXwX:X>X>XrX-X8 C.3XQ.l.l.l.p.l.z.Y.N l Y.E.!.$XrXdXhXxXSXe.H AXvXxXxXfXwX>XFX7.;.[ +.mX<X<X<XwXqXdXgXgXP.H.i.",
"= F z.@XaX>X>X>X>XjX3.s &XhX;X>X>X:XaX4X7XX.o.P aXzXaXaXaXaXdXwX:X>X:XlXoX3 &X3X$Xn.u.l.z.l.n.Y.c 0 |.tXfXvXaXoX X;XGXc 4 k.Z.;X4X-X@XsX&X:.,.&.a F.jXdXxXMXVXCXBXCXBX#Xv ",
"> F l.-XrX>X>X>X>XmXf.s <XgX;X<X>X>X<XMXmX3.] i.mXzXzXxXzXxXdXrXrX>XfXIXT & qX$X<X@Xl.l.z.z.l.l.c l _.&X Xg.n l z z c = # $ - 8 x U g.N _ <.-.=.t M N.N.B.B.Z.Z.c.I c 3 O ",
"> F l.|.qX>X>X>X>XhXa.S sXgX<X>X;X<X>XaXHXt._ m.&X|.;X4XaXrX@X.X@XvX'.N O 8 gX$X@XdXW.^ z.u.! Q.W > m v x w w 4 5 L Z.&X}.'.D.v.r.Y i.T u 2 u ' D n.p.p.y.n.W.B.B.k.P l O ",
"4 G p.I.>XrX>X>X>XaXD.J aXzXaX-X>X-X>XrXKXC t =.| 9 8 l m L U U U m X     f 7X$X@X<XaXu.Y ^ |.vXU 8 Z.^ m.rXtXW j ^.bXrXtXsXsXfXVX>X^.LXc   h.k.K.R.R.Q..XaXaX<X4XsX3X5Xn ",
"4 k ^ U.Q.qX>X<X>XwX;XW >XzXaX>X>X:X:XrXZXC - u u 4 > 9 l l l l 9 > 9 x > 4 }.@X$X@XfXW.u.@XfXaXU g MXMXMXCXSXV.9 $XVXqX>X>X>X>X>XdXzXKXj.V =X;X.X>XaXaXdXaX<X>X;X;X+X!.V."
};
