/* XPM */
static char *_1e3b28471dc4ac9b0d809f1a545bf6a[] = {
/* columns rows colors chars-per-pixel */
"85 85 241 2 ",
"   c #343604",
".  c #373808",
"X  c #3B3A0D",
"o  c #373913",
"O  c #3C3C13",
"+  c #413C0F",
"@  c #433E17",
"#  c #3F4016",
"$  c #474B09",
"%  c #545909",
"&  c #43411B",
"*  c #4C421B",
"=  c #484718",
"-  c #51451E",
";  c #595719",
":  c #605E15",
">  c #5C6306",
",  c #5F6116",
"<  c #636A08",
"1  c #6C7207",
"2  c #747B05",
"3  c #767C09",
"4  c #686C18",
"5  c #6C7218",
"6  c #777B18",
"7  c #4B4522",
"8  c #4A4726",
"9  c #544721",
"0  c #544A24",
"q  c #5A4B25",
"w  c #544D2C",
"e  c #5C4E29",
"r  c #5B5528",
"t  c #514E30",
"y  c #5C5334",
"u  c #585435",
"i  c #654D28",
"p  c #65562D",
"a  c #6B542D",
"s  c #71532F",
"d  c #73582E",
"f  c #645432",
"g  c #6D5633",
"h  c #695A35",
"j  c #645B3C",
"k  c #6C5C3B",
"l  c #735532",
"z  c #765B37",
"x  c #7B5C36",
"c  c #735D3A",
"v  c #686526",
"b  c #73692C",
"n  c #6A7125",
"m  c #767626",
"M  c #6D663A",
"N  c #736936",
"B  c #75623E",
"V  c #7A623E",
"C  c #7A7738",
"Z  c #655D43",
"A  c #6C5F41",
"S  c #755F41",
"D  c #6C6244",
"F  c #6B644A",
"G  c #6C6748",
"H  c #736444",
"J  c #7C6443",
"K  c #73694C",
"L  c #786848",
"P  c #7B6B4C",
"I  c #7D7547",
"U  c #776D53",
"Y  c #777150",
"T  c #7C7255",
"R  c #7D745A",
"E  c #807432",
"W  c #837839",
"Q  c #826644",
"!  c #836A45",
"~  c #866948",
"^  c #856C4A",
"/  c #8A6D4C",
"(  c #857947",
")  c #8C714E",
"_  c #92794D",
"`  c #836F51",
"'  c #847454",
"]  c #8C7553",
"[  c #8D7B55",
"{  c #84785B",
"}  c #8D7B5C",
"|  c #937752",
" . c #937A54",
".. c #997C56",
"X. c #937C5B",
"o. c #9A7E5A",
"O. c #847A61",
"+. c #8B7D61",
"@. c #937E61",
"#. c #7C8308",
"$. c #7E8319",
"%. c #7F8123",
"&. c #838B05",
"*. c #838B0B",
"=. c #868C09",
"-. c #8C9404",
";. c #8D940C",
":. c #8E980D",
">. c #949C03",
",. c #959C08",
"<. c #858915",
"1. c #8E9417",
"2. c #979B17",
"3. c #9CA303",
"4. c #9CA503",
"5. c #9DA40A",
"6. c #9CA417",
"7. c #A0A703",
"8. c #A4AC03",
"9. c #A4AC09",
"0. c #ABB303",
"q. c #ACB40B",
"w. c #B3BC03",
"e. c #A4AA14",
"r. c #ACB317",
"t. c #888829",
"y. c #959828",
"u. c #898737",
"i. c #919031",
"p. c #979736",
"a. c #9EA12C",
"s. c #A8AB2B",
"d. c #A6AA39",
"f. c #B9C102",
"g. c #8B8646",
"h. c #938849",
"j. c #989547",
"k. c #8C8255",
"l. c #978659",
"z. c #9D825C",
"x. c #9B9557",
"c. c #A09F46",
"v. c #A2845E",
"b. c #A6895E",
"n. c #A3995B",
"m. c #A4A547",
"M. c #ABA857",
"N. c #B6B459",
"B. c #8D8265",
"V. c #8D8469",
"C. c #948364",
"Z. c #9C8564",
"A. c #9E8A65",
"S. c #94866B",
"D. c #9B866A",
"F. c #94896C",
"G. c #9C8B6C",
"H. c #9C9366",
"J. c #968A70",
"K. c #9B8D72",
"L. c #9E9174",
"P. c #9F9179",
"I. c #A38662",
"U. c #A48964",
"Y. c #AA8B65",
"T. c #A48C6B",
"R. c #AA8E6A",
"E. c #AD9165",
"W. c #A4926D",
"Q. c #AD926C",
"!. c #A79B69",
"~. c #B19166",
"^. c #B4966D",
"/. c #B5986E",
"(. c #B8986F",
"). c #A38F71",
"_. c #A39374",
"`. c #AC9573",
"'. c #AC9975",
"]. c #A4957A",
"[. c #AA9779",
"{. c #A5997B",
"}. c #AC9C7C",
"|. c #B49771",
" X c #B59A72",
".X c #B99D74",
"XX c #B39D7B",
"oX c #BA9F79",
"OX c #ABA366",
"+X c #B4AB68",
"@X c #B8B367",
"#X c #AEA375",
"$X c #B5A675",
"%X c #B5A27D",
"&X c #BDA37C",
"*X c #BBAC7C",
"=X c #BBB278",
"-X c #C1A67D",
";X c #C1A87F",
":X c #AD9D82",
">X c #B09E82",
",X c #AEA284",
"<X c #B3A383",
"1X c #BCA582",
"2X c #BDAA84",
"3X c #B4A589",
"4X c #B8A989",
"5X c #BCAB8B",
"6X c #BEB08D",
"7X c #BDAD92",
"8X c #BEB292",
"9X c #C1A680",
"0X c #C4AC85",
"qX c #C8AF87",
"wX c #C4AD8A",
"eX c #C8AF89",
"rX c #C6B486",
"tX c #C5B28D",
"yX c #CBB38D",
"uX c #C5B393",
"iX c #CDB692",
"pX c #CEB994",
"aX c #CAB799",
"sX c #CDBB9A",
"dX c #D0B792",
"fX c #D1BA95",
"gX c #D3BD9A",
"hX c #CEBFA1",
"jX c #CFC09E",
"kX c #D2C197",
"lX c #D6C19D",
"zX c #D8C19E",
"xX c #CEC0A1",
"cX c #D6C4A1",
"vX c #D8C5A1",
"bX c #D8C6A2",
"nX c #D9C6A2",
"mX c #D7C8A2",
"MX c #DAC8A5",
"NX c #DCCAA9",
"BX c #E0CEAD",
/* pixels */
"* s ..^./.yXgXfXfXgXtX^ gXbXbXgXiXiXiXbXbXC.'.T. .) )  .z.Q.1XwX2XXXR.z. .j '.qXyXiXiXgXfXiXiXfXT.T bXbXbXlXpX<XV tXbXbXbXfXgXpXpXpXbXbX4X:XsXiXtXfXzXzXlXzXzXzXcXcXcXcX}.",
"@ s o./.^. XgXfXfXfXwXQ gXbXbXgXfXfXgXlXbX+.wXbXbXlXlXlXbXNXbXbXbXlXfXyXiXj `.qXyXiXiXfXiXiXiXfXXX} bXbXbXgXpX<XQ |.bXbXbXbXpXpXpXpXlXbX}.u B.].<XwXuXiXpXpXpXiXuXwX4X}.T ",
"X s z./././.qXgXfXfXwX! gXbXbXlXiXgXgXgXbX{ iXbXbXbXbXbXbXbXbXbXgXpXpXfXpXD '.qXyXiXiXfXiXiXyXdXXXG.MXcXpXpXpX<X^ o.bXbXMXbXgXfXpXpXgXbXG.q g V Q Q Q B @ u j X   @ + w & ",
"+ s I.^.^. X0XgXfXfX2X! pXbXMXbXfXgXiXgXlX' gXbXbXbXbXbXbXbXcXgXfXfXfXiXwXK %XyXqXiXiXiXiXiXyXyXwXG.lXfXpXpXfX[.H o.bXbXbXbXbXlXfXfXyX=Xk._ Q././. X|.| c C.Q.J d ! | U.y ",
"* s Q.^./..XyXgXfXfX3X! pXbXbXbXgXpXfXfXpX[ lXbXbXbXbXbXlXfXfXfXfXfXdXiXwXU 1XiXqXiXiXiXiXyXqXyXuXA.fXpXfXpXgXA.k 1XlXbXbXbXbXgXfXfXM.4.>.h./././.qXeX&X/ G.&X X X.XeXfXF ",
"i ) /. X.X-XgXfXfXfX:X^ gXbXbXbXlXfXfXfXwX} gXbXbXbXgXiXpXiXfXpXdXfXiXfX5XG 1XiXqXyXiXyXeXqXeXyXpXC.fXfXfXlXtX .6 D D L ' } @.@.@.} p.8.5.%.E.^. XyXyXyXXXF.yX.X&XdXdXfXy ",
"[ R. X.X-XyXfXfXfXgX].] zXbXbXbXbXpXfXfX<XX.pXgXlXgXpXpXfXpXpXiXfXfXgXlXQ.5.!.yXqXeXtXqXqXqXqXqXiX{ fXgXbXbXgXl.;.  O Z R V.K.].L.*.5.e.5.2 v. X&XyXiXyXXXC.gXyXfXfXfXfXD ",
"C.`. X&XqXdXfXfXfXgXj.A.bXbXbXbXbXpXfXpXn.h.0XgXpXfXpXiXfXpXpXpXfXlXgX&Xp.;.x.iXqXqXeXqXqXyXiXgXpXu.+X+X+Xm.m.p.*.T }.<X5XuXsXgXyXu.u.6 &.E /.^.&XfXiXyX&X_.kXfXfXfXfXfXB.",
"C.|..XqXdXfXlXcXlXfXB.XXlXbXbXbXgXfXfX*X3.5.t.iXfXfXfXdXgXgXlXbXbXbXn.n.I.7 uXbXkXfXgXgXgXcXNXcXY $ p ( t.<.t.( z.Q..XgXpXyXyXtXiXiXlXG.} /././. XcXiXyX&X].pXgXfXgXtX<XT ",
"@.1XyXdXfXgX5XwXcXpXy.p.A.XXwXyXwXtXpX+X7.9.*.!.fXfXgXlXbXbXbXbXbXMXM.>.( & F 8XxXhXcXcXcXhX4XG   @ ) ^.^.oX.X^.(. XfXlXgXgXgXgXzXzXzX'.A. X/.^.iXgXiXtX&XC.q K.<X_.H L 7 ",
"X.<XuXuX4XZ.X.} l.m.9.3.5 w D ' } } g.3.>.4.&.I K.[.XX3X5X5X5X5X5X<Xd.3.5 L '.<X}.:X3X%X'.A. .X.j 9 I././. X^.^. XiXcXzXzXzXzXzXlXzXzX'.T././.&XfXfXfXiX-XF.J tXfXiX&XE.B.",
"P } [ P f f 7 B l.OXn.j.!.[.A. . .o.k.< < #.m E.^.^.^.^.&X0X9X|.A.t.3.3.m R.gXpXfXfXpXpXgXyX0XgX:Xq I. X^.^.^.oXfXgXzXzXzXzXlXzXlXzXgXQ.T./. XyXzXlXiXiX0XL.J yXpXfXgX~.}.",
"} o. .|.9XR.H ) 0XfXpXpXpXpXgXgX/.&XlXO j A.Q././.^..X0XlXfXiXiXyXx.u.3 d 1XbXbXgXpXiXpXiXfXbXbXuXq z. X0XiXfXlXiXfXfXfXzXbXzXzXzXzXdXR.).^.yXbXbXgXiXiXqX[.^ gXiXfXgXgX<X",
"_.zXlXbXbXpXD.] lXlXpXpXpXfXfXgXbXMXbXR ].>X0X0XdXgXlXzXcXfXiXiXyX0XXX{ c Q.bXbXbXlXpXpXiXfXlXbXuX- | qXyXiXiXiXiXiXiXiXfXcXcXzXzXlXeX} <XrXbXzXlXgXiXiXqX'.` bXpXfXfXbX4X",
"[.bXbXbXlXpXH.j.lXbXbXgXiXpXiXpXcXbXbX}.,XgXiXyXgXzXzXcXzXzXlXgXgXgXOXt.3 ! kXbXbXbXgXfXfXiXfXlX5X. ^ `.yXiXyXeX0XqX0X0X X-XlXcXcXdX[ O.5XiXgXlXlXzXfXiX0X[.[ bXgXiXfXlX6X",
"}.bXbXcXsXiXx.i.pXbXbXbXpXpXpXgXfXbXpXd.j.<XyXpXgXzXzXlXlXlXlXzXzXlXm.4.>.! lXbXbXbXbXlXfXfXfXgX{.  e V  .I.v.v.v.v.I.v.z.Y.U.z. .L   B.7XpXgXzXlXlXzXiXyX1X[ MXcXpXiXlX6X",
"<XbXlXgXfXpXH.t.%XbXbXbXbXpXgXfXfXgX=X0.8.; g S ^ ' P G K K K j 8   $ :.6 Z.2X5XuXuXiXtXwXtX4X}.Z X w   O 8 w w w D H y F.4XuXuXiXwXB.F.uXyXfXlXlXcXzXNXBX1X .bXbXpXpXgX5X",
"%XbXgXfXfXfXk.2.'.bXbXbXbXbXgXpXfXfX@X7.i.h.Y.Y.Y.z./ 9 G.'.`.T.A.c a b v i i a l g g c J } A.D.C <.Z.] V x s i l U.|.C.-XbXbXlXgXfX%XH.aXyXfXzXzXlXcXzXMX5X] lXbXfXpXgX4X",
"XXgXgXfXpXgXp.e.tXbXbXbXbXbXgXfXfXfXM.:.Y./. X XyXqXZ.g F.gX9X X/. XQ.I.I.v.I.E.E./.&XeXyXiXiXuXC >.tXiX0X XQ.Y.^. XyXC.^.lXgXfXiXfX$Xj.sXyXfXlXlXlXlXlXbXuXu.tXbXfXpXfX4X",
"}.gXpXfXgX2Xu.s.OXOX$X*X%X%X$X+X+XN.0.g.^. X X&XyXyX9XC.R pXiXqX&X.X^.^.^./.&XyXpXdXfXdXpXfXfXwXu.>.tXpXdXdX0X/.^.-XpX[ pXfXiXfXfXlX$Xx.sXtXfXlXlXlXlXlXcX=X0.y.kXlXfXfX<X",
"F.pXgXbXbX2Xp.8.0.8.0.0.5.2.a.8.w.f.5.A. X.X^.0XiXiXyX'.j XXgXfXdXyX.X.X0XfXfXgXfXfXfXfXfXfXfX2X$.>.tXfXgXgXgXqX&XpXtXX.fXpXpXpXlXbXwXm.uXiXfXlXzXcXzXlXNX@X8.;.tXbXfXfX}.",
"G tXsXkXrXd.,.I t.x.H.].4XtX*XtXc.w.0.l.&X/./.qXiXiXtXXXD '.MXfXfXfXgXgXgXfXfXfXfXfXfXfXfXfXfXyXh.2.gXgXgXfXfXgXgXfXtXF.pXpXpXlXbXbX*Xe.uXiXgXlXzXzXzXcXsXd.<.pXbXbXgXfX}.",
"  7 m 2.p.i.z.Q.`.5XsXfXiXOX1.yXiXM.0.h. X/./.qXfXiXtXXXG tXgXfXfXfXfXfXfXfXfXfXgXgXgXgXgXiXpXtXj.4.n.OX*XdXgXfXfXfXpXD.iXpXlXbXbXbX$X3.{.gXcXcXcXlXiX0Xu.9.N bXbXbXgXgX[.",
"q | E.^..X/./..X XpXpXgXfXgXfXgXgXgXC A././.^.gXgXiXyXoXG & G +.F.{.:X<XXX}.}.}.L.+.T H J V N m $.>.5.5.>.=.n.'.H.{ j.G.fXlXbXbXbXbX$X0.8.e.r.d.@Xd.0.w.f.;.L wXgXgXfXuXT ",
"a Q.^.^.^.^..X.XfXcXlXzXzXzXzXzXzXgXU.T././.0XgXiXiXtX%XR k ) iXlXiXuXuX2X|.Q.Q.R.j [ / ! o.Q.l.b #.7.>.3.4.>.=.u.x.2XG.9XlXfX%XZ.n.e.*.,.-.$.4 ; I g.6.w.3.k L L ] } y   ",
"g ^./.^./.^.&XdXlXzXlXlXzXzXzXzXzXiXR.j.E./.iXgXfXiXpX&X{ c o.yXfXpXiXpXdXcXoXE.0XK.<XwXwXgXbXfXl.>.7.<.n.!.W.<XgXfXkXl.P J c t.6.>.#.    X 1.3 l.2.tXqXs.0._ v.z. .L 7   ",
"g Q. X-XqXyXzXfXgXgXgXzXzXlXlXcXcXqXA.T./.iXzXzXfXfXfX&X+.c Q.gXfXiXpXiXfXgXfX&XbX,X1XbXbXbXbXgXx.>.7.!.gXfXfXfXfXfXa.>.; B _.H.K.K.' j y N *.t.qX*XgXNX$X1.&X0X&X-XoX| f ",
"a Y.yXiXyXyXyXiXiXiXiXfXbXcXcXzX=Xn.F.<X0XbXlXzXfXpXiX1XB.g XXbXgXpXfXfXfXfXlXNXbX5X5XbXbXbXbXpXx.3.4.$XfXfXfXfXfXrX5.4.3 ^ iXcXiXtX1XY.Y.U.N x.gXzXzXzXgXwXiXyXiXiXiX1XJ ",
"q o.qXyXyXyXiXyXyXtXeX.XgXNXcXcXpX( K.uXsXlXlXlXgXiXyX&XS.g 2XbXbXpXfXpXdXfXgXbXbXuXwXbXbXbXgXdX!.3.3.p.yXfXfXfXfX1.&.-.5  .yXfXtXpXfXyX~.~.h.6.+XpXzXzXcXlXgXiXgXpXiX0XJ ",
". ^  .Q./.^.Y.Y.b.Y.b.I..X|.%X'.k.4.g.uXiXgXlXlXzXgXqX-XD.g 1XbXbXbXpXpXpXiXiXbXbXaXuXbXbXlXfXpX!.3.-.>.*XiXfXfXfXiXgX{ y I.dXfXfXfXfXlX^.^.t.4.7.rXlXlXbXlXlXfX-X9X&X/.! ",
"O X * j k H H H H H A C.}.<X}._.<.>.*.uXiXgXzXzXzXcXBXbX_.z |.MXbXbXgXpXfXfXiXlXbXaXuXMXlXfXpXfX[.=.5 <.y.rXfXfXfXfXfX}.y `.gXiXfXpXfXlX0XiXg.&.u.fXzXcXzXcXgX.X/.^.^./.V ",
"D } a i i i q g T.).C.gXbXbXbXgX2Xk.G.sXiXgXlXzXzXzXbXNXF.V I.bXbXbXlXfXpXpXfXgXbXuXuXbXfXpXfXpX_.< b h.<.n.fXfXfXfXdX5Xf %XlXgXfXpXfXgXbXNX4X2XiXyXfXfXpXfX X/./././.^.p ",
"{ wX9XQ.b...o.Y. XtXo.&XcXgXfXfXfX[.:XcXpXgXlXlXlXzXlXNXG.L o.cXbXbXbXpXfXfXdXfXbXuXwXgXfXdXiXfXG.. d I.&XiXfXfXfXfXfXuXf 0XMXfXfXfXfXfXbXbX4X_.uXfXgXsXuX1XQ.^.^.|.^.o.9 ",
"T fXfXdXeX X^.^.0XtXz.fXfXiXfXfXfX[.3XlXtXgXlXlXlXlXlXNXx.W ] gXbXbXbXlXpXfXiXfXlX4XwXfXpXfXfXlXX.. z Y..XdXfXfXfXfXgXsXf iXMXlXpXiXfXfXlXbX+X6 S.:X<X:X:X'.x.' K P P e   ",
"P fXfXfXfXiX.X0XiX%XW.fXfXiXfXgXbX[.:XfXiXgXlXlXcXzXzXMXp.E ^ gXbXbXbXbXgXpXfXfXfX}.wXfXpXiXgXrX] & E z.^.pXfXgXfXfXfXgXJ iXbXbXfXpXiXpXlXbX2X>.#.;.;.;.=.m b p i g k g @ ",
").fXfXfXfXfXlXgXfX[.<XiXiXpXgXbXbX'.J.iXiXgXlXzXzXgXbXpX>.t.) kXbXbXbXbXbXfXgXfXfX_.<XfXfXlXbX;X .; ,.j./.0XgXfXfXfXfXgX} tXbXbXgXfXpXdXlXbX_.C 6 #.6 b J ) Z.R.I.Z. ./ g ",
"4XgXfXfXgXgXfXpXfX1X<XiXfXlXbXbXbXG.Z aXgXgXyXrXOXM.@Xy.>.2 ] bXbXbXbXbXbXgXfXfXfXG.'.fXlXbXbXpX .#.7.h.^./.dXfXfXfXfXgX[ tXbXbXlXpXfXfXgXMX<X1XlXwXXX1XtXgXcXMXNXbXeXoX' ",
"u F R {.4XuX4X}.K.U 1XpXlXbXbXbX=Xp.>.5.9.3.3.4.5.e.3.=.2 % G.sXlXbXbXbXlXfXfXfXpXD O.tXlXbXlXtXj.8.3.W ^. X.XgXfXfXfXgX^ 9XbXbXlXpXpXfXlXbX}.2XbXbXbXbXbXbXbXbXbXgXfXgXK.",
"O .   O 7 u D D.3X}.%XgXbXlXrXXXC b % $ > % 2 -.<.3 4 h y w P ^ ] C.R.[.[.[.[.T 8 X 0 j K k.1.4.8.0.7.W ^.^. XwXlXgXfXgX^ 1XbXbXbXpXpXgXgXbX'.9XbXbXbXbXbXbXbXbXpXpXpXgXV.",
"[ Z.5XuX[.U.XXgXgXlXJ  .z.] ! J k *           k.2XtX1X`.v.z.z.o.] L j & @ O   & f ! ! ^ ^ M : > 2 0.8.) ^.^. X.XlXfXfXlX^ %XbXbXbXiXfXpXsXbX_.iXbXbXbXMXbXbXbXgXpXpXpXfXB.",
"] Z.uXsXgXpXpXpXpXlXO 0 H { R R R y & # 7   H dXzXzXbXuX.X-X&X.X X/.Q.| z   A  .^ J Q Q Q J J f 3 7.-.| ^.^. X.XgXfXgXsX/ XXbXbXbXgXfXiXfXbXG.pXbXbXbXbXbXkXgXfXfXpXpXiXS.",
"P Z.iXfXfXfXfXfXfXsXX M Z.gXsXtXwX|.Y.U.Z.& Q.lXzXlXzXzXiXyXiXiXiXiXiXwXo.0 ).uX&Xv.v.I.I.o.| ( -.0.3 v.^. X XqXlXfXfXpX^ %XbXbXbXgXpXfXfXlXC.iXbXbXbXbXuXpXpXiXpXpXiXpXS.",
"e o.iXfXfXfXfXfXfXsXO A R.iXdXiXfXfX0X~. X+.qXlXzXlXzXzXlXfXfXdXdXiXiXtXR.e %XqX9XR.Q.Y.Y.Y.Y.g.5.0.W ^././.&XdXfXfXfXuX^ 1XbXbXbXbXfXfXfXpXC.tXcXbXlXpXfXfXdXdXfXfXfXiXT ",
"- ) tXpXiXfXfXfXfXcXo B XXfXfXfXiXfXpXE.wX[.iXlXlXlXlXlXlXzXcXgXiXyX0X&XI.e tX0X9XQ.Y.Y.Y.I.Y.g.>.0.g. X/.-XqXdXfXfXfX7X^ wXbXbXbXbXfXfXfXiX} wXfXgXpXpXfXiXfXyXfXfXgXwXH ",
"* Q 0XpXfXfXfXfXfXlXF B tXgXiXiXiXfXlX0XbX}.lXlXlXlXlXlXlXbXfX&X^./.^./.I.j uXqXeXQ.Y.Y.Y.Y.Y.( >.8.h./..XqXdXfXfXgXfX<X^ gXbXbXbXbXgXfXfXiXC tXgXfXpXiXpXfXfXiXfXlXpX^.H ",
"* x  XiXfXfXfXfXfXgXF.c gXlXpXfXfXgXlXMXbX<XgXfXpXpXfXgXcXgX.X/././././.v.Z fXeXiX9XY.Y.Y.Y.I...:.0.t.oXqXiXfXzXMXMXlX].X.bXbXbXbXbXfXfXfXuX*.p.2XfXfXfXfXfXfXlXbXgX~.~.H ",
"* x ^.eXiXfXfXfXfXpX{.L cXbXpXfXfXfXgXbXbXL.iXiXiXpXfXgXgX X/././. X X^.! F gXqXyXgX.XY.Y.Y.I.R.i.q.2 h.rXgXpXXX'.2XgXB.Z.2XtXlXbXgXpXfXpXn.8.0.1.iXfXfXgXbXbXbXbXbX X~.P ",
"- x ~.0XfXgXfXfXfXfX>X] zXbXlXgXfXiXpXbXbXF.F <XuX7X4X3X>X].D.@.@.@.C.P 9 D pXqXyXdXfXv.v.v..XlXu.3.7.,.#.H.l.g.u.g.( 4 L C 5.y.+XM.d.+XM.8.0.0.7.n.#Xn.j.j.OX$X#Xx.h.x.w ",
"q z Y.%XgXgXfXfXfXfX5X] lXbXbXfXfXiXfXbXbXB.  . u G K P L f q 9 * 9 0 *.<.1 }.0XyXyXlX|.I.1XgXiX#.5.8.8.3.>.>.3.>.-.&.1 r = 2 8.w.0.,.u.C M n 5 m t.#.3 6 6 n n n m m 1 % ",
"q s R..XfXfXfXfXfXfXtX/ lXbXbXfXiXfXiXlXbXB.z.] / / ^ ! ^ X.z.Y.Y.o.o.] W -.A.qXtXiXiXpXiXpXpX$X&.1 < 2 C !._ _  . ._ z.Q.^ v 8.,.b !.gXkXgXiXuXiXiXtXrXwXtX%XY.Y.Y..X<X$ ",
"9 z Y. X&XgXfXfXfXfXwXQ gXbXbXgXfXiXfXlXbX+.wXbXpXwXwXiXgXlXzXbXbXMXgXqX*X3.g.qXtXiXiXgXiXiXiX!.-.1 x.#XpXbXiXyXyXyXyXyXyX9X! #.v R.bXlXgXpXpXfXpXfXiXfXfXgXlXpXtXgXbXbXT ",
"* l .././.tXgXfXfXgXwXQ gXbXbXlXpXfXfXgXbX[ iXbXbXbXbXbXbXbXbXbXlXgXpXfXpX3.g.qXyXiXiXiXiXiXiXx.>.&.%XzXzXzXbXfXiXiXiXiXiXyX.., B 9XNXbXbXlXgXfXfXiXiXfXiXfXfXgXbXbXbXbX{.",
"@ s o./.^. XgXfXfXfXtX! pXbXMXcXpXfXpXgXlXk.gXbXbXbXbXMXbXbXbXlXpXpXpXpXwX5.h.eXeXiXiXiXiXiXiX!.&.7.OXzXzXbXzXzXlXfXgXyX0X.Xz.c Q Q.lXbXbXbXbXbXfXfXiXfXfXfXfXiXlXbXbXbX{.",
"X s z./. X XwXgXfXgX2XW iXbXbXbXgXpXpXfXsX2.gXbXbXbXbXbXlXgXfXpXpXpXfXiXwX;.'.yXwXfXiXiXiXyXyX0Xy.8.$XzXcXzXlXlXzXiX.X^.^./.v.B ^ ! qXbXbXbXbXbXbXgXiXfXfXfXiXfXfXlXbXbXG.",
"+ s I.^.^. X-XgXgXgX5X/ fXbXbXbXlXpXfXiX+X5.pXbXbXbXlXpXpXiXfXpXpXfXpXpX5X:.&XiXyXyXiXiXyXqXqXn.8.-.2XbXzXlXgXzXlX X/.^.^. Xo.7 / ^ |.bXbXbXbXbXMXMXzXgXfXfXfXfXfXfXgXsX{ ",
"* s Q.^.^. XyXlXgXfX*X( lXbXbXbXbXfX0X1.3.8.rXlXlXgXpXfXfXpXpXiXfXfXfXfX`.<.9XpXyXyXyXyXqXqXqXp.8.3 iXiXuXyXfXfX X^./. X/.^.!   / [ fXbXbXbXbXMXbXbXbXbXgXfXfXfXfXfXgXuXt ",
"i ) ^. X X-XgXgXfXfX:Xu.mXbXbXbXbXpXpX2Xj.3.tXfXfXfXpXpXgXfXfXfXfXgXlXrXU.m tXiXqX0XwXqXqXwX&X-.0.v uXpXgXfXuX7X[.T.A.Z.G.' *   e ] C.C.A.W.[.}.}.XX}.}.[.'.|.[.G.+.{ w   ",
"[ R. X X-XyXdXfXfXgX].i.bXbXbXbXlXfXfXfXp.4.iXfXfXfXfXgXfXpXgXlXbXbX XE.U.w pXlXiXiXiXiXfXgX!.4.8.> F P.:X].K.B.K y U F.XXR.! g a V ! / o.`.'   O G F.,X4X6XuXtX4X3X<XK   ",
"Z.`. X&XqXpXfXfXfXgXH.:.XXrXkXbXgXfXfXaXu.5.5XfXfXfXgXlXcXbXbXbXbXMXrX^.U.& V.bXbXbXcXbXbXNX!.5.7.> y D F K H ' ].aXsX_.yX&X^.^. X&X9XtXpXfXD.$ l.gXbXbXbXbXbXlXgXfXfX}.  ",
"C.|..XqXpXfXgXlXlXfXx.>.m C } Z.k.R.C.@ $ 8.g.<X4X5X2X*XjXbXMXMXbXsXuX<Xj     t F U +.C.S.I 1.q.>.v C.XXsX5XXX1XgXgXbXC.pXyX0X&XtXfXfXfXfXfX} #.h.~.gXbXbXlXlXsXfXfXfXiX& ",
"X.&XiXpXfXgX5XwXcXpX3.>., H b <.=.f 9 X   -.7.>.*.=.#.N Z y @ . O 8 y .   8 J ! ^ ) ^ J ! 6 ,.4.2 P A.1XpXpXpXfXfXfXbX} fXfXfXgXfXpXpXtX0X*X#X-.g./.gXlXpXpXfXpXfXfXfXtXj ",
"X.1XaXuX4XZ.l.l.X.k.3.4.6.y.>.*.Y.~.I.! $ #.2 W 4X3X<X3X4X}.U.U.U.T.T.L   H wX`.o.z.Q.0XgX!.t.$.m [ C.2XfXfXfXfXfXfXbXG ].}.3X!.$.<.-.-.4.3.-.3 ( lXgXsXpXpXpXfXfXfXfXwXH ",
"@.K.U u O > -.>.>.>.>.&.>.3.3.>.u.E./.Q.M -.N |.gXlXgXpXfXdXyX-X^.^.~.9X8 H gXbXbXbXbXMXbXbXpX2XrX_.^ 1XfXfXfXfXfXfXlXG & / wXuX4X4XG.' I ( = 8 &XdXpXgXpXpXpXfXgXbXbXwXA ",
")._.] i i a p p V h.1 ( !.!.OX$X/././.Q.P *.y.oXdXpXpXuXpXfXfXbX%X~.~.lXG ^ lXbXbXbXbXbXbXbXfXfXfXL.z 1XfXiXfXfXfXfXgX+.w ) yXgXfXfXyX&XY.Y.} j tXdXpXpXpXiXpXgXbXbXbXiXf ",
":X&XQ.) x ^ ..I.'.W.r v.-XdXiXyX/.^. X|.P &.t.0XfXfXfXfXfXiXgXlXpX~.9XbXB.' bXbXbXbXbXbXbXgXpXiXfXD.g .XpXfXfXfXfXfXfX:Xy z.dXgXiXdXfXlX~.^.<XZ tXiXfXfXpXgXbXbXbXbXbXuXw ",
"<X&X X^.^. X XwXfXgXy v.&XiXiXlX/./. X|.T >.u.pXgXfXiXpXfXpXfXfXbXfXNXbXL.X.bXbXbXbXbXbXgXfXfXpXiXF.l Q.9XpXfXfXfXfXfX5Xf Q.gXpXpXiXfXlX&XqX4XZ uXdXpXpXlXbXbXbXbXbXbXwX& ",
"}.yX.X^.^.0XpXfXfXuXj v.-XiXiXfXyX/..XQ.} 5.%.gXbXfXfXfXfXfXfXfXgXbXbXbX,XZ.bXMXbXbXgXpXpXiXfXfXpXJ.z I.&XiXfXfXfXfXfXuXf %XlXfXpXfXfXgXlXMX4XZ fXfXfXlXMXbXbXbXbXbXNX<X  ",
"_.pX&X^.&XgXgXfXfX2XH v.0XiXfXzXlXfX/.Q.[ 7.m lXbXlXiXfXfXfXfXfXfXbXbXbX8XA.bXbXbXgXiXiXfXpXfXiXfXD.z b. XpXfXfXfXfXgXsXi wXbXpXfXfXfXfXbXbX6XZ fXpXlXbXbXbXlXfXrXiXlX'.  ",
"C.gXfX&XgXgXgXfXfX9XP v.0XiXdXzXlXbXiX1Xg.-.W lXbXbXgXfXpXiXfXfXpXlXbXbXsX).gXlXgXfXfXpXiXiXfXfXiX` l z.^.pXfXgXfXfXfXgXH tXbXlXpXiXfXfXcXMX5Xu U.Q.1XwX0XQ. .! ] / / ^   ",
"D.gXfXlXgXfXfXfXfXpX] b..XiXzXzXlXlXiXsX}.j ) gXbXNXbXfXpXfXiXtXiXgXbXbXsXU.fXfXfXfXfXfXfXfXfXlXwXP l | /.0XgXfXfXgXfXgX[ yXbXbXpXfXiXiXbXbX4X@ ! Q V g c c J k e 7 .     ",
"}.gXfXfXfXfXfXfXfXfXC..XgXbXzXlXlXlXfXgX3X' ^ pXMXbXbXlXfXfXfXfXpXfXbXbXsXG.fXfXfXiXfXiXfXgXzXwX~.L l ^  X XpXgXgXgXfXgXX.tXbXbXgXfXfXgXlXbX,Xy c S J ! ^ Q J Q c V J L f ",
"_.gXfXfXfXfXfXlXsXcXC.tXcXbXzXlXlXlXiXfX4X} E tXNXbXbXbXfXiXdXpXfXiXbXbXcXD fXfXfXfXfXgXbXbXbX.X~.^ s Q ^. X.XzXgXfXgXgX/ wXbXbXlXiXiXfXgXbX}.XXwX`.Z.U.`.1XyXgXgXiX%XQ.[ ",
"& F V.'.uXwX1X:X4X:XL gXcXlXlXlXlXlXtXpXuXX.J %XbXbXbXbXgXfXdXdXfXfXlXbXcX4 d.j.*XgXbXbXNXbXbXgX/.p.a Q ^.^..XtXgXfXfXgX^ 2XbXbXlXfXfXfXgXbX{.1XbXbXbXbXbXbXbXbXbXlXpXpX4X",
"} Z.5XuX[.A.XXgXgXlXD pXlXlXcXlXlXlXiXiXuX' J R.bXbXbXbXlXpXdXfXfXfXgXbXlX1.7.>.x.uXcXNXNXNXbXpX#X:.a / ^. X X.XlXfXfXgX^ %XbXbXbXiXfXfXfXbXL.0XbXbXbXMXbXbXbXbXfXpXpXfX<X",
"{ D.uXsXgXfXfXfXfXlXO T wXfXzXzXlXlXfXpX3Xe ^ o.cXbXbXMXbXiXfXgXiXfXfXbX*X5.4.3.2 v i.y.y.y.,.3.>.&.; | ^.^.^. XlXfXgXfX/ XXbXbXbXgXfXiXfXbXG.iXbXbXNXMXbXbXlXgXpXpXpXiX:X",
"P A.iXfXfXfXfXfXfXsX$ < m [ Q.0XyXfXgX3Xj O ( ) gXbXbXMXbXlXgXfXpXiXfXtX-.-.-.>.2 L B J k b 6 < $ . z v.~.^. XqXlXfXfXuX^ 1XMXbXbXlXfXfXfXgXC.pXbXMXbXbXgXpXpXpXpXfXdXdX}.",
"e o.iXpXfXfXfXfXpXsX1 1.h.<X_.L._.' K A j . i.Q pXbXbXbXbXMXgXpXfXfXfXfXOXr I ( ^ ) / / Q Q J J O 0 ] ^. X X-XdXfXfXfXuX^ 9XbXbXbXbXpXfXfXpX@.tXbXbXlXpXpXpXiXpXfXfXpXdXA.",
"- ] yXpXiXfXfXfXfXpX&.u.Z.fXgXiXiXwXQ.Y.T.u y.! yXbXbXbXMXbXcXpXfXfXfXfXtXt _.pX0XI.v.Y.Y.I.v.o.k ' T. X X-XqXdXfXfXfX5X] iXbXbXbXbXgXfXfXiX' wXfXgXdXpXfXpXfXiXfXfXgXiX] ",
"* Q 0XdXfXfXfXfXfXyX-.u.Q.dXfXiXfXgXyXE.oXB.y.^ iXbXbXbXbXbXbXgXfXfXfXfXuX8 1X0X-XY.Y.Y.U.Y.Y.I.P ' W. XoXqXiXfXfXfXgX3X) lXbXbXbXbXgXfXfX0Xt.OXtXfXfXiXpXpXiXfXlXbXqX^.] ",
"* x  XyXfXgXfXfXfXrX;.u.1XfXiXfXfXfXgXE.iXl.y.^ gXbXbXbXbXbXbXlXfXfXfXfXpX@ uX0X9XY.Y.Y.Y.U.Y.T.' P `.&XqXiXfXzXbXbXlX].@.gXbXbXbXlXfXfXfX+X4.>.x.fXfXfXgXlXbXbXMXbX/.~. .",
"* x ^.yXfXfXfXfXfXfX!.u.iXgXfXfXfXfXlXfXbXu.2.] bXbXbXbXbXbXbXgXfXfXfXgXuXu aXqXyX.XY.Y.Y.Y.R.R.` L XXyXgXgXpX[.`.1XgXO.' T.'.2XtXwXtXpX5Xm.4.3.$.0XfXlXbXbXbXMXbXbXbX9XH ",
"- x ^.wXfXfXfXfXgXfX%Xi.kXbXiXfXfXfXgXbXbXx.5.A.bXbXbXbXbXbXlXfXfXfXfXgX].Z gXeXyXwXR.Y.Y.Y.I.I.' H [.4X<XL.{ P L K D 7 7 8 u j P [ } { =.3.>.3.2 ' A.W.'.XXXX'.[.S.U w   ",
"q x Q.&XfXfXfXfXfXfX2Xp.zXbXfXpXiXfXfXbXbXH.,._.XXXX1XwXiXiX0X9X9XiX4XU 8 F gXwXyXgX1XY.Y.I.v..X} w ` P J V V M L Z.iXpXuXtXtX2X%XY.Q.`.N > m 2 ( /./././.qXyXiXwX&XU.] . ",
"q l Y./.fXfXfXfXfXfXtX_ lXMXlXpXpXuXpXbXbXF.1.2.p.D H P ' } @.@.X.P o     F uXqXyXiXlXv.v.I.wXlX .D <XR.1XgXuXC.J &XgXpXiXfXiXfXlXiXqXbXB.u G.Q././..X;XyXgXfXiXiXyX0XXXR ",
"9 l v.(.&XgXgXgXfXfXfX[ lXbXbXfXfXfXfXzXbXB.r p h f k B J c g f f h k k f j <XqXyXiXgX1X|.uXfXpXZ.L bXbXbXNXgX1XB fXbXlXfXfXpXfXfXlXbXbX,X{.<XiXeXgXzXlXzXlXgXfXiXyXqX&X_."
};
