/* XPM */
static char *a25a037bbd7d4fca882ed40300fde749[] = {
/* columns rows colors chars-per-pixel */
"85 85 234 2 ",
"   c #020203",
".  c #060609",
"X  c #0B0B0C",
"o  c #090607",
"O  c #180706",
"+  c #0E0F11",
"@  c #0F1012",
"#  c #121314",
"$  c #161719",
"%  c #1A1B1D",
"&  c #181718",
"*  c #16120D",
"=  c #260706",
"-  c #261A17",
";  c #351C16",
":  c #2F100A",
">  c #37231A",
",  c #28221C",
"<  c #1E1E21",
"1  c #1E2122",
"2  c #232324",
"3  c #262629",
"4  c #26292A",
"5  c #2A2B2D",
"6  c #292626",
"7  c #372A28",
"8  c #2D2F31",
"9  c #2E3132",
"0  c #323335",
"q  c #353638",
"w  c #36393A",
"e  c #3A3B3D",
"r  c #393636",
"t  c #36312D",
"y  c #1F1F21",
"u  c #45170D",
"i  c #492418",
"p  c #55281A",
"a  c #54311D",
"s  c #452C25",
"d  c #583628",
"f  c #453A38",
"g  c #53332B",
"h  c #68382B",
"j  c #73392C",
"k  c #6A2B18",
"l  c #58433C",
"z  c #4C423B",
"x  c #68463A",
"c  c #774738",
"v  c #724431",
"b  c #3D3E41",
"n  c #423E43",
"m  c #3F4142",
"M  c #424344",
"N  c #464649",
"B  c #4A4B4D",
"V  c #474848",
"C  c #564946",
"Z  c #4D4E51",
"A  c #4F5152",
"S  c #475153",
"D  c #535355",
"F  c #555759",
"G  c #5A5B5D",
"H  c #585859",
"J  c #57504D",
"K  c #7A5548",
"L  c #665B57",
"P  c #6C5149",
"I  c #6D635C",
"U  c #5D5E60",
"Y  c #5E6162",
"T  c #636364",
"R  c #6B6B6D",
"E  c #686768",
"W  c #796A66",
"Q  c #6D6E71",
"!  c #6E7173",
"~  c #737374",
"^  c #7C7C7D",
"/  c #787777",
"(  c #78736C",
")  c #615D63",
"_  c #3F403B",
"`  c #833B2E",
"'  c #874938",
"]  c #905039",
"[  c #A0483A",
"{  c #885846",
"}  c #985A48",
"|  c #905249",
" . c #A25A49",
".. c #966755",
"X. c #A96A57",
"o. c #A9725C",
"O. c #B4775B",
"+. c #AA684F",
"@. c #887C76",
"#. c #8D716A",
"$. c #A87965",
"%. c #B67A66",
"&. c #AC756E",
"*. c #C57D6A",
"=. c #8B827C",
"-. c #93867D",
";. c #BA826A",
":. c #B98776",
">. c #AF8976",
",. c #C5856A",
"<. c #C78B76",
"1. c #C9937B",
"2. c #D6967A",
"3. c #D28B72",
"4. c #C5805F",
"5. c #7E7E81",
"6. c #7F8082",
"7. c #8B8B8C",
"8. c #848586",
"9. c #988A86",
"0. c #9B928D",
"q. c #8E8E90",
"w. c #8E9192",
"e. c #929395",
"r. c #9B9C9D",
"t. c #979798",
"y. c #8F9091",
"u. c #A3948C",
"i. c #A79A96",
"p. c #B59D9B",
"a. c #AF9187",
"s. c #ABA29C",
"d. c #B3A49C",
"f. c #9D9FA1",
"g. c #9EA1A2",
"h. c #A3A3A4",
"j. c #ABACAD",
"k. c #A7A8A8",
"l. c #B4AAA4",
"z. c #B8AAA7",
"x. c #BAB2AD",
"c. c #AEAFB1",
"v. c #AEB1B2",
"b. c #B3B4B4",
"n. c #B6B6B9",
"m. c #BABBBC",
"M. c #B8B8B8",
"N. c #AFB0B0",
"B. c #9DA09E",
"V. c #C99886",
"C. c #D69A86",
"Z. c #C89C94",
"A. c #E29D87",
"S. c #DAA38A",
"D. c #DBA994",
"F. c #CFAA97",
"G. c #E4A58A",
"H. c #E6AC97",
"J. c #E9B39B",
"K. c #F4B399",
"L. c #C2B5AE",
"P. c #C4BBB5",
"I. c #CABDBA",
"U. c #C5B9B6",
"Y. c #CEB3AF",
"T. c #ECB8A3",
"R. c #F3BAA4",
"E. c #E4B7AF",
"W. c #BEC1BF",
"Q. c #CCC2BC",
"!. c #C3C1BD",
"~. c #D2C4BD",
"^. c #F8C5B0",
"/. c #BDBEC1",
"(. c #BFC0C2",
"). c #BBC4C6",
"_. c #C3C3C4",
"`. c #CCC5C2",
"'. c #C6C6C9",
"]. c #C6C9CA",
"[. c #CBCBCC",
"{. c #CAC8C7",
"}. c #D3C4C2",
"|. c #D3CAC5",
" X c #D5CDCA",
".X c #DACDCA",
"XX c #DAC9C5",
"oX c #CED0CF",
"OX c #D6D1CC",
"+X c #DBD2CD",
"@X c #CECED1",
"#X c #CFD1D2",
"$X c #CFD7D9",
"%X c #D3D4D4",
"&X c #DCD5D1",
"*X c #DED9D5",
"=X c #D5D6D9",
"-X c #D7D9DA",
";X c #DBDBDC",
":X c #D7D8D8",
">X c #E3D4CF",
",X c #E2D5D2",
"<X c #E2DAD5",
"1X c #E4DDDA",
"2X c #EBDDDB",
"3X c #EADAD6",
"4X c #F2DCD8",
"5X c #EBD0CA",
"6X c #DEE0DF",
"7X c #E5E1DC",
"8X c #EAE2DE",
"9X c #EBE8DF",
"0X c #F4E1DD",
"qX c #FFE3CC",
"wX c #DEDEE0",
"eX c #DFE1E1",
"rX c #E3E3E4",
"tX c #EBE5E1",
"yX c #EDE9E4",
"uX c #E6E6E9",
"iX c #EBEBEC",
"pX c #E7E8EA",
"aX c #F3E4E3",
"sX c #F2EAE5",
"dX c #F3ECE9",
"fX c #FBE9E6",
"gX c #F9F2EC",
"hX c #EDEEF1",
"jX c #EEF1F2",
"kX c #F3F3F4",
"lX c #FDFDFD",
"zX c #FAF6F6",
"xX c #F1EEF1",
"cX c #E4DFE0",
/* pixels */
"H X D 5 A e 0 7.n.[.iXb.~ D 5 F Z B N n.'.%XrX8.5 F D N B q M w S 1 B 9 N w 3 ^ m.m.lX'.Q Q 8 Z n M B j.m.[.eXr.4 G G n ) M 5 w G 3 V m w w e E e.m.lX[.8.! 0 B N M A e._.",
"w 0 5 V 5 q 5 e.'.b.E +   w F % % 2 . X h.;X[.D X $ M e X N 5 & $ w 3 D 4 5 5 ^ m._.Q q   2 Z 4 & 2 % X E ].-X8.# @ q Z X n 5 4 % M 2 A 9 2 3 E n.m.~ 8   % D w . 8 5   B ",
"X + 3 A b + X b.%XM @ H 5 2 e % %   w T @ R lX~ 3 F $ M 1 Z G < 5 # 2 M e 8   8.pX!   A m 1 9 & 8   4 E . m kXv.1 A 1 m 2 e U w 0 . % e b 9   U kX7.  A F & 5 % 2 . . Q 0 ",
"w B 0 $ 3 X E ;X8 X 5 M w 2 w q < V Z 3 @   ].#X% e   & e 2 w b M e n @ , 0 M %XB . 8 5 N % 5 Z # _ B 9 4   q.hX% 9 <   N % w e B 0 D   . N 5 m.8.  1 b B $ 2 M $ b F e 5 ",
"q M D w 5 < k.n.  q . Z G w % 8 % 3 4 q F + D #X% + G U #   A m $ e B e - 3 8.;XX 0 X 9 T V - t 0 6 9 e H # - {.M   H R 2   w S # D w q 5 5 T ;X8 8 5 $ U 9 2 m 2 @ e 0 D ",
"e m e 2 + D lXR + F e 4 5 V q e A 3 % H 0 < . m.;X  @ M 2 T X 9 2 Z V 2 2 5 lXe.  H f * f 7 , 6 t X , M X t o t.xX#   F # ~ 1 3 m b b q 3 & @X_.2 B G 1 4 w M e M e < e e ",
"A $ 5   4 ;XhXM < 0 D 2 e T 3 8 F B e 3 q 5 X ! ;X7.8   8 4 D m 0 1 4   # b.zX~ 8 D t - O O * - * , O   O r t L '.y.D   # q M V e 5 8 %   r.lX^ 5 9 4 0 0 E 0 # D F e 1 M ",
"+   2 ~ [.hX%XV   w 5 M 3 X < $ # 3 $ 0 3 5 X Q =XpXiXU . # q $ #   X E %XlXkXZ & & O - - 7 s 7 s > > > = o   E iXiXlX^ # + 6 & #   X Y m.kX;Xe.5 # X M 0 $ 4   X b   # w ",
"/ _.h.lX].c.m./ w N & $ M 8.c.^ n.g./ w M e $ G n.7.%X%Xj.]./ 8./ n.r.pXiX].B * - - f f , - 7 l l x g s 7 - O   5.v.).rXt.'.t.^ ~ r.r.=XiX#Xh.t.R b X 2 5 N v.w.h.m.~ e M ",
"[.kXm.b.(.[._.H 5 & N c.lX;X_.=X%X=XpXh.e   @ t.hX%Xc.m.rXn.rXlXrX1X'.v.%XD   - 7 C I P l s ; > x K P s g 7 *   $ c./.v.=Xn.xXzX;X#X%Xt.[.wX[.8.N 2 q 8.kXrX_.'.uX_.=X[.^ ",
"6XiXrXy.k.[.lXH   e.rXh.%Xm.j.uX%XlX[.r.c.H . f.%X/.:Xr.:Xk.e._.=XrXkXc.) o - 7 l P P g g d s s ; d h P l > ; -   B jXg.$Xm.w.c.'.;XzXj.r.n.lXh.  q iXb.b.=Xn.;X;XhXrXk.].",
"rXm._.=Xm.pXB.@ h.kX%Xj.n.%Xb.].eXn.h._.lXkX. q b.t.iX;X[._.b._.j.].@X].8 - f I ..c h h c ..{ x p i i x x s > - *   T jX].-Xj.b.j.#Xh.kX;Xh.[.H V uX6Xn.7.;X].n.;X_.g.B.uX",
"_.7.t._.%X'.T $ 6XN.oXb.r.b.;Xn.].m.].(.7.rX/ % jXwXk./.;XhXb.j.oXt.v.6.% V I K c v { $.:.V.F.V.:...{ i u d > > -   * B.#XkX].j.@Xe.h.m.uXm.r.  b._.N.(.j.m.#Xb.[.[.b.oXr.",
"%Xm.j.[.:Xm.& ^ iXB.'.k.b.m._.m.j.=XuXr.m.;XjX% q lXc.h.:Xh.wX[.;Xn.m.R , J C x v } ;.C.S.D.T.^.T.J.D.o.v c a i > *   U kXq.[.'.m._.b.(.oXrXN w :Xr.k.%Xh.#XN.m.n._.;Xn.m.",
"j.eX_.iXiXe   n.:Xn.r.%X_.y._.n.t.t.(._.m.;XwXR % m.uXkXb.n.b.v.j.%XM.L f C x h ] %.2.2.G.J.R.^.J.D.D.H.C.<.%.{ a : o z x.h./.c.k.n._.oXpXw.  R [.W.j.[.oXe.n.[.h.e.j.6X_.",
"eXhXhX[.M   # b.eXm.'.m.b.;X%X:XkX%X/.'.(.m.eX/ .   w #XkXzXt.:XtXlXi.7 f f d d } ,.2.2.S.J.^.R.T.T.S.S.H.C.C.<.X.a O   k.lXc.@XrXkXiXoX~     E _.oXkXN.b.b.;XkXpX'.uX[._.",
"m.~ R @ # 8 2 q.eXv._.uX].q.Q b.G ^ n.].h.m.iXg.4 m   b ^ M j.i.h.7.L f C l i a X.2.2.G.S.D.R.R.J.J.H.H.G.2.3.,.%.c :   T Y r.i.h.h./ e   @ 0 F k.[.rX].;X[.H r.8.B m.;Xm.",
"q . 4 $ q e q ^ (.=X#XT % 3 $ % 2 2 % R %X6X].! 9 m b 5 % q #   O o g C l s i ..1.2.A.S.J.D.J.H.H.C.C.D.C.3.2.,.O.h i - q 9 . o < % 4 4 2 5 q T h./.=Xt.2 8 3 3 X 3 8 D h.",
"9 # X E M e X w.iX8.< 3 # b D $ 2 . % 3 ~ _.;Xe @ & 9 F X q Z - d 1.K g s d >.D.1.C.2.S.^.^.^.T.J.C.D.J.C.3.4.*.+.v s , 2 q B n % q   M F q # D ;X].% 3 % 3 V 5 2 $ % $ N ",
"2 5 8 4 0 # M ;X8.. @ Z e 0 e 5 # X M V   4 lXj.0 U X 3 # q V > :.,.1.c d #.Z.V.V.$.' { o.V.T.^.R.S.D.J.G.2.*.O. .c > 7 6 y B b Z # q % 4 M + r.[.0   V T 3 5 0 # # q T % ",
"N F B 2 # % 7.rX+ 8 w M e 0 3 q 5 M w 3 B   j._.  # q % 8 o 6 #.J.2.S.o.d ..:.<.X.v ' c p i { ;.T.J.H.K.G.2.2.O.} c > & n   5 Z e F D 2   e M wXY @ b w e 4 < N 4 5 N 4 Z ",
"2 5 V 5 3 5 j.8.. M X G D 3 5 5 0 % $ H w X   ;X~ X T D & 5 * a.J.K.R.c d $.%.o.{ p h h a i h $.D.D.T.H.C.C.,.o.o.K > - 4 e 4 q 3 5 0 e % % ^ m.% N e 2 E 3 5 q 5 5 3 q B ",
"B 0 e < . 7.lXT X B H + q Q 5 e B M 5 M w % $ w.rX%   2 f L X 9.S.K.%.h K :.%.X.{ : : = = : = { D.R.T.X.j h h { o.{ ; O Z ~ 0 4 e N b 8 # M pXk.3 M U % $ Y M q e b M < N ",
"0 +     5.lXuXq % q e 0 B b < 4 # 4 m 3 0 0 + / iX%X/   o   J @.C.G.V.$.>.V.o.1.{ O = = O = = = $.S.X.a d i : i x P > - f   M w % # @ + M uXlX^ 3 0 # q M H %   3 2 3 5 0 ",
"5 A G n.;X;X;XG   0 w 2 $ 0 T % B H # & q 3   E @XwXlX8.0 U , P S.2.H.V.D.V.,.J.$.= : = = = = = } <.p i s ; ; : : g ; - 7 L e M 0 1 B f.wXjX:Xr.3 X # 9 2 + Q 4 5 6.#   e ",
"n.iX_.kXb.n.j./ m 0 # D e.n.@Xb.]./.v.Q 0 5 3 ^ m.7.n.%X[.OX!.~.S.<.1.D.D.V.2.S.J.a O s ; ; O j R.G.h = = = O = O O > - z 8X;X[.c.=X_.%X=X_.k.t.E M X m 5.e.'.m.[._.j.8.G ",
"_.;X#Xf./.b.%XG & M r.rXzXm.k.=X#X:XlX%XA < % h.iXpXm.h.iXn._.>XD.G.1.S.D.D.2.G.qXF.i u u u { K.G.<.p O : = O O O O s 7 9.+X`.{.;Xb.;Xr.n.].=X7.5 < q.m.lX=Xh.(.uX'.@XlXh.",
"kXrX_.j.m.pXuX0 4 _.:Xw.[.;Xm.=X=XlXj.8.iXr.  5./.e.;Xm.6Xh.s.<XZ.D.D.D.D.D.S.J.^.qXJ.c h ..G.K.G.;.h = O : = = O > ; s Q.`.t.M.b.kX]./.(.(.kXq.  ~ iXr.r.rX#X=X;XpXrX~ %X",
"].r.n.uX%XwX8.+ @XuX_.n.m.'.m.m.=Xg.j.;X#XkX5 % wX_.uX6Xm.:Xn.x.p.F.D.D.D.D.D.H.^.J.%.C.H.H.G.G.K.1.c u = = ; : ; i : f m.eXm.N.j.c.r.iXjXn./.9 ~ kX@Xn.h.;X[.k.;X_.r.m.].",
"[./.j.n.[.].N M uXm.lXf.e._.:X/.;X[.[.b.f.pXn.& #XrXq.7.6XpXk.b.8X#.V.J.1.1.S.K.,.} ,.^.2.,.K.^.^.1.' } { p : u d ; O W uXjXb.k.:Xj._./.[.'.8.$ @Xn.[.wX7.'.;Xb.@X=Xn._.j.",
"/.b.n.[.eXt.  7.rXe.j.=X].f.m.(.r._.[.h.W.:XiXe   jXpXb._.8.rXOXP.W >.D.2.<.2.X.} 2.R.H.V.o.;.J.R.,.%.X.<.S.X.} x ; l `.;XE #X$Xb.b.j._.].%X& w [.f.e.=X;Xv.j.m.b./.].m.m.",
"m.wX#XlXn.  . b.%Xm.r.[.v.7.#Xm.n.N.m.[.(.oX;X6.$ U c.lX#X$Xw.n.Q.#.a.V.1.2.,.] 2.K.A.C.H.T.V.%.%.k ` k ] K.K.C.{ ; E lXiX'.v.k./.@X[.=XuXN   ~ [._._.m._.^ _.rXb.b.n.;X].",
"hXrX#X8.3 . # b.lX]._.b.=XuXn.wX;X_.;X].OX_.iX8.< X   w.pX=Xn.`.Q.a.:.1.2.2.3.,.,.O.1.C.H.R.K.O.k u u k +.2.A.%.K -   ~ uXwX_.W.=XlX=Xr.q   # U =XuXjXj.m.rXn.rXrXh.kXuX[.",
"/ % M   0 w q ^ b.b.=X%Xf.F w Y 0 M E b.j.n.=Xe.5 E 2 % e % F V a.a.$.:.S.2.2.3.2.+.%.D.<.D.G.A.C. .] }  .+.3.o.x I w X N % B T ~ b B $ X 5 M G 8.b.rX%Xb.t.0 D M 3 Q h.n.",
"0 X 5 V 3 w 5 t._.@Xt.4   2 0 % 3 2   0 n.pX;XD X # M q X 2 . / 5X:.$.;.C.2.3.2.R.S.1.J.T.D.1.:.o.} j k ] +.;.{ l * w B + q X   + 5 % Z 5 % 3 R j._.j.T   + q 4 . 0 % # Q ",
"% X # H B % . f.pXU . D 2 9 b @ %   0 D w 7.kXH 2 e % V . % P.lXgXF.$.o.3.2.3.3.J.T.V.;.J.T.R.%.j j u j %.H.:.d f r $ M y w Y m 0 # X M A e   D kXb.  M B % w # 2 X X F b ",
"2 M 0 & 0 X F ;XM   2 b e % N 5 & e A 5     ;X_.3 D o   R OXlX7X8XXX>.$.O.G.2.<.C.J.C.C.J.C.C.1.X.' ' ,.H.T.K #.f F % . e 3 w w N 3 B   # B 3 c.g.  X b Y # 3 M # 2 F V % ",
"M H D 5 % 2 g.[.+ b % M D M + e 1 w 3 0 T $ Q [.X X e @.tX8X1XtXyX7Xp.>.o.1.2.S.D.H.C.G.H.G.3.*.X.| | %.J...P z.5   T V 4   w m 4 G B q # 8 G rXe q w 5 e e 2 M 8 3 e 5 T ",
"5 w e 5 $ e iXR . F 9 e 0 e 8 q F % $ G q +   ]._.  f lX1X1X8X1X7XzXY.$.;.O.2.G.J.C.H.T.G.C.3.*.%.j j S...d O l.rX. < E # E < 5 e 0 e 9 5 . n._.< D A 1 m 3 M w b w % q M ",
"F # 5   $ m.hXq # e A 3 0 T 0 q B F 3 4 e % # ~ `.E l.gX|.1X8X1XsXtX4X:.$.O.;.2.J.H.D.R.R.K.3.3.+.j o...x P O T wXU 3 . 2 B e M M 0 q <   5.lX/ % 0 e 5 4 Y m < N D M # M ",
"$     M /.lX%Xm # 9 5 N 8 @ < & . # 3 0 8 5   / dXyXgX+XP.,X8X8XtXaXfX^.$.%.O.O.2.J.H.R.^.T.G.2. .} $.h P L t T j.xXlXD X   8 % #     0 r.lXpX7.5 2   M N 5 #   X 2 X 2 0 ",
"F r.e.kX%Xm.'.~ < m 5 X 5 E 7.G e.7.D % 3 5 @.I.tX8X8X+XP.,X8X2X8XaX4XfXF.o.;.O.O.2.T.^.^.J.2.*. .} K d ; f J z r 8.lXpXT b.~ G F ! 8.[.kX:Xb.h.H 5 + 4 # q g.R ^ j.B < M ",
"#XhX].@X/.b._.R 5 # 8 k.=X=X[.oX%X_.[.7.^ M.gXyX1X1X,X&XP.+XsX7XtX7X8XfXfX:.$.O.O.O.,.C.J.R.A.X.] c h - - 7 t C J r H '.%Xb.iXzX%X%X[.m.[.@Xm.7.B 3 3 R wX_.'._.wX]./.j.R ",
"#XpXrXe.h.'.hXT   ! %X_.;Xn.h.rX%XiX[.rXkXdX1X7X&X<X+X<XQ.|.sX8X9X9XtX,XgX4X>.o.O.O.+.X.o.o.O.} v x s : - , t z J T J 7.xX_.r.N.[.].zXj.r.b.kXg.  3 %X(.].;Xj.=X;XwXuX].m.",
"rX(.[.].m.rXh.@ 5.kXuXr.b.[.m._.%XgX1X1X1X*X1X*X1X,X+X,X XQ.8X8X7XyXdX1X3XzX^.o.o.%.+.] ] ' ' c K g ; t , 7 C C J L ( / x.:Xh.b.h.wXj.uX@Xb.#XG 8 [.lXb.8.wX[.b.pX;Xb.e.rX",
"m.e.r.=XeX[.T + ;X_._.n.b.k.].m.&XOX*X&X*X&X7X&X<X<X&X,X+XP.,X8X9X7XsXtX1XfXgXF.o.o.+.] +.X.' c P = 7 C f f C I L ( W -.9.zXoXk.n.t.r.%XlXn.r.X f.:Xb.m.n./.[.b._.[.h.'.j.",
";X[.k._.%X/.q ~ uXk.[.h.h._.rXuX;X+X<X1X1X&X&X1X,X<X<X&X+XL.Q.yXtXtX7XdX<X4XgXfXV.o. . .+...c P ; - L I J C W W ( ( -.9.p.0.;X).#X_.m.n.'.:XE 0 ;Xh.b.%Xf.%X_./.m._.%Xm.n.",
"b./.n.%XuXG   g.wXh.t.[.;XtX%X=X&X1X+X+XtX&X<X1X<X<X+X+X&XP.P.9X*XtXdXtX1X3XaXfX0X$.j ] +.] c h = z =.@.W P I -.=.0.i.9.p.u.n.'.v.j.b.m.rXf.  F [.b.e.@XwXr.c._.m.c.j.%Xn.",
"@XrXpXiXE   X n.%Xm.b.tXtX%X7X7X1X1X1X&XOX8X1X1X1X&X1X&X.X}.P.2X3X7XtX9X8X,X0XaXzXE.h ' } ' j i O u.XXu.9.P I u.u.u.s.u.i.x.7.OX;X;XrXwXh.    Q /.@XuXb.c.r.;XkX;X[.=X%X'.",
"[.t.t.q X % # r.zX_.`.tX*X7X*XtX1X8X8X1X&XOX1X7X8X1X,X&X,X.XL.|.1X7XyXsX8X+X<XfXfXzXa.j | ' c = C L.@.p.z.@.I u.l.l.l.l.i.p.P.i.b.'.t.U .   2 F '.eXwX_.%X%X~ _.b.R @XkX_.",
"M   % . m N 0 ~ N.tXyX&X&XyX1X;XtX1X2XyX8X|.&X8X1X8X3X<X,X+Xx.I.8X,XtXtXtX8X|.aXdXfX4XK j ..d = p.I W z.I.i.#.u.l.L.x.P.p.Q.@.o 4 % 5 X 4 8 M G 8.m.wXb.G V 3 2 $ < 0 R j.",
"w % < D 0 e & 7.P.tX&X1X1X<XtX1X1X1X8XtXsX&X|.1X1X<X1X<X<X<XI.I.<X,X>XtX8X1X X<XzXaXzXF.h K : P 9.O p.L.~.L.9.u.L.Q.Q.P.I.x.s.t # M X B b 8 % U @X_.B 5   # B q # 5 4 . V ",
"% $ 3 e 0 # y n.&X1X<X1X1X7X1X7X&X1XtX2X1X8X+X X8X&X&X+X1X8X,Xx.2X>X,X2X,XtXOX XiXdX0XgX$.p : &.9.s u.L.fX}.u.u.d.Q..X+X.Xz.=.0.0   q 5 5 9   8.uXE   B D % 3 3 $ X % ^ 4 ",
"M F e % 2 # E tX&X`.+X8X8XtXtXtX1X&X.XtX1X8X1X`.<X1X+X+X1X8XdXx.0.4X>X,X8X8XOX XcXdXzXY.j p h Z.Y.u.i.z.0X2Xd.u.u.L. X&X,Xx.9.0.e Z A X . e w _./ . 5 e N < 3 B 3 0 D q M ",
"4 5 M e 2 2 y.kXtX1XP.P.1XsXyXtXsX&X|.1X8X1X1X X X8X+XOX&X3XgX|.W d.>X8X+X2X2X`.<XlXI.#.K h j &.5Xp.z.}.3XgXU.9.9.P.+X+X8XI.=.9.0 0 3 e 3 2 ~ [.< e 4 2 Y 5 2 e 3 $ w 0 B ",
"M q M 3 X T iX1X;X8X<X|.P.{.tXtXsXtX<X|.1X8X&X<X|.<X&X X+X7XdXsXP.l.l.+X,X3X2X|.<Xl.#.#.h | | ` Y.L.U.4X>XfX<Xi.u.d.+X8X2XI.@.l.E 5 M 9 2 2 rX/.2 B U % & e B q w M 5 0 M ",
"B % < . D kXiX{.*X<X1XtX&XP.!.*XtX8XdX<X+XtX1X+X X X+X+X+X7XdXtXx.Q.+X+X<X<X<XtXI.7 g g h }  .| E.U.I.aXI.2XfXx.u.l.,X3X2XQ.u.U.Q + 5 X % _.lX/ 2 0 3 q q E 5 # q w 5 % w ",
"% % e r.oXyX1X+X+X&X<X1XtXtX*X{.`.8XtXsX<X XtX1XOX|. XOX+X8XdXdXP.l.,X,X&X1X1X1XXXL.#.i j | [  .5XXXI.fXl.}.gX.Xu.i.Q.8X8X|.z.`.f   4 7.%XhX;Xr.3 X % B 5 @ N X X D   X e ",
"e.;X_.lXm.b.1X*X+X<X<X&X1XtXtXtXOX{.1XtXtX1X X<X+X`.`.+X+X8XyXdXP.z.,XXX&X&X*X<X,X~.4XY.h j [ +.0X}.z.zXp.z.gX8Xl.0.x.8X8X|.i.0.R [.v.rX;X_.j.7.! e X 8 Z R _.h.m._.e.T V ",
"[.pX_.h._.j.yX*X*X&X+X&X<X1X7XyXyX&X X&XtX8X+X X&X|.|.+X+XtX8XgXP.x.3X}.<X&X1X1X3XL.Q.gXE.' ' %.fXp.i.lXL.i.gXdXQ.0.z.<X1X+X0.9.7.;XwXr._.;X_.5.b 3 U h.lXrXv.'.uX/.].kXr.",
"hXhX;Xr.b.{.yX1X&X<X,X&X<X1X1X;X7XdX*X&X*X*X8X<X&X X|. XOXtXtXdX!.0.,XXX.X1X7X<X,XP.x.,X0X:.' <.5X@.x.zX}.i.sXdX9Xl.i. X8X&X9.( N.iXuXv.j.m.lXr.  M zXf.t.pX_.;XwXiXiXe._.",
"@Xf.].;X!.xX%X7X+X<X1X<X&X*X1X7X7XtXdX1X*X<X&X8X1X&XQ.`.OX9XyXyX X9.Q..X X&X7X&X3X+Xz..X4Xa.` 2.Z.#.3XfX>Xl.+XsXgX|.i.P.<XOXz.0.N.b.h.kXuXj._.B U kX=Xn.r.wX@Xk.=X[.r.h.wX",
"_.h.f._.=X!.tX1X+X+X&X1X8X1X*X1X7X7X7XtXtX1X&X<X2X<XQ.`.+X7XdXtX<Xd.I.+X&X&X1X&X+X2XL.l.p.K ` 3.&.u.fXaX3Xx.}.8XdX7Xz.x.OX+XL.@.8.h.b.m.rX].7.  n.n._.%Xj.m.;Xj.'.=Xb.{.k.",
"=Xm.b.[.m.[.%X8X+X&X,X<X1X1X7XtX7X7X1X*X1X7X1X&X X|.x.I.+X&XyX8X<Xx. X+X.X1X&X&X<X1XI.p.K : ` *.a..XaXaXaXL.|.1X9XgX Xl.P.OXx.I / b.P.].m.;X8 5 %Xt.7.:X'.@Xh./.b./.-Xm.m.",
"v.;X'.zXj.=.tX8X<X&X+X,X8XtX7X7X7X<X*X*X&X*X1X<X+Xx.z.L.}..XsXtXyXx.|.7X&X+X1XOX;X+X3X@.i p ' <.L.3XdXaXaXI.I.<X8XsXtX`.i.l.z.L I x.Q.`.kXR   ! %X_.j.`.%X^ b.=Xj.h.j.wX/.",
"kXjXuXh.% E gXtX3X<X&X+X<X1X7X9X7X7X7X7X7X7XtX7X X}.l.z. X+XsXtXdXx.P.8X3X X*X:XOX:X3Xu.u h | C.XXdXtX2XfX}.L.,X1X8XdX<Xx.s.=.L I i.3XP.G   @ Y _.%XkXj.b.[.;XkXpXn.rX@X].",
"t.N D   + L *XtX8X<X&X<X1X*X*X7X8X8XtXtXtXtXtX1X.XI.l.L.+X+XyXtXsXP.P.2X3X,X<X X[.OX2XXX{ d | Z.3XaXtXtXfX.Xz.,X2X1XsXyX+Xx.@.J W P.x.*   @ b G q.m.7X[.[.b.w / T w f./.b.",
"8 . 5 5 2 ( OX1X9X<X&X1X8X1X*X1X7X7X7X7X7X7X1X&X+XL.u.Q.,X+XsX1XtXOXQ.+X,X,X+X+X XOX&X>Xa.p j F.0X8XaXaXaX3XL.}.1X3X8XgXsX+Xs.f @.+Xl.r 4 5 9 Y v.%Xm.8.  % 5 5 $ 5 2 0 e.",
"5   X H 6 y.iX X<X8X8X,X1XtXtX1X7X1X7X7X1X1X*X+X+XQ.@.U.&X+XdX1X8X&X|. X+XQ.P.1X&X X X3XY.x u Z.fXtXaXaX4XaXU.I.8X<X8XyXsXtX.X@.@.d.3X( 8 M   B hX_.. 0 e % N < 3 + X 0 q ",
"9 q 8 2 X 8.zXOX+X7X8X1X1X8X8X7X1X<X7X7X7X1X1X&X|.Q.u.P.}.2XyX7XrX&X X X.XP.d.Q.1X+X XXXI.Z.....>XaXaX2XaXaXI.x.aX,X1X1XsXyX8X+X9.P.lXB   M 2 f.n.$   e T % 8 w X % V G % ",
"N G B 3   r.dXOX X+X<X9XtX1X1X7X7X<X7X7X1X1X<X&X|.L.d.I.+XsX1XtX1X&X X|.|.I.l.z.&X+X+X.XY.F.E.p.U.0XaX4X4XaX}.l.,X<X<X1XtXtX<X1X X|.gX(   5 D iXB < e w e w % M 5 5 B 2 U ",
"2 4 M 4 & h.gXOXOXOX+X<XtX7X1X7X8X<X*X*X&X&X&X+X+XQ.9.L.gXsX1XyX1X&X X|.Q.I.Q.L.Q.+X.X,X}.u.L.XXI.2XaX0X3XaX,Xi..XaX&X&X<XsXsX1X<XQ.<X0.& + e._.2 F B < B 3 0 w q 0 < e M ",
"D 5 M # X N.dX1X&X&X+X+X*X7XtX8X1X9XtX7X1X7X1X&X+XI.p..XgXtX1XtX1X&X&X|.Q.I.I..Xx.}.&X.X,Xz.i.XXI.}.fX3X0X0X2Xl.P.aX+X<X<XtXsX8X8X+X`.^ * V kXe.2 q w @ X N 5 X 3 5 M < B ",
"4 X X $ h.;X1X*X<X7X3X+X&X1X8X7X*X<X7X7X1X*X<X+XL.l.s.,XdX<X7XtX1X&X+X|.`.I.I.+X XP..X&X+XL.l.>XXXXXaX2X0XaXaXl.l.tX2X&X+X<XtXdX9XsXz.J =.dXxX8.< B 4 0 A / e M M D < 2 q ",
"b ! ~ =XyX{.OXOX<X7X9X1X1X1X7X7X7X1X1X*X X`.I.I.I.I.d.~.tX1XyXtX1X+X X|.}.Q.P..X2X|.Q.&X<XU.l.I..X.X4XaX2X8XfXL.9.3X2X,X&X+X<XyXsXzX0.E +XgXOXh.4 e.kXlXkX%XzXdXlXlXB   e ",
"].jX].rXM.[.&X&X<X3X9XyX8X1X1X7X7X<X1X1X1X*X<X,X.XI.s.|.aX1XtX7X7X&X+X X|.Q.P.|.3X2XQ.|.&X`.p.z.I..X2XaX2XtXfX}.W }.3X3X,X X+X7XsXgX|.x.|.x.P.7.M r.lXlXzXm.rXlXlXlX].r.T ",
"'.;XrX7.N.!.7X1X3X1X8XtX7X<X1X8X7X<X<X1X1X<X<X+X~.-.@.>XtX<XtXrX7X&X+X X XQ.P.|.3X7X+XQ.|.,Xi.l.z.}.2XaX8XaXaX2XL p.aX3X3X.X X&X8XdXtXI.Q.l.+Xs.& 8.zXlXjX_.%XlXlXlX[.uXn.",
"iX$X[._._.7X&X X&X3X8X8X7X7X7X7X1X1X1X1X1X7X<X.X>Xs.u.8X8X7XtX7X1X&X+X X.X`.P. X<X3X7X+X X+Xl.u.9.I.aXaX2X2X2XgXL W fX3X3X,X+XOX1XsXgX9.L W i.H X j.lXlXpX_.kXlXzXlXn.^ rX",
"b.e.c.%X;X;X`.+X+X<X8X9XtXtXtX7X8X7X7X1X*X&X XQ.L.x.L.8X3X7X7X7X<X+X+X X+X`.P. X<X8X3XsX,X+XP.9.@.U.0XaX3X<X2XgX9.L ,X3X3X3X>X|.&X<XzX0.z I f 6 7.rXhXlXrX].lXlXlXkXk.n._.",
"-X[.b.m.%X!.1X&X<X1X8X9X8X7X8XtX8X7X1X*XOX|.`.Q.Q.l.x.8X8X7X1X7X<X&X+X X+X`.P. X3X7X7X8X1X8X+Xi.9.U.>X0X2X<X2XaX>XW U.3X,X<X<X|. X<XsX+X9.0.W W _._.rXlXpXuXlXlXlXlXm._.c.",
"/.b.b.%X{.%X1X*X&X7X7X7X7X7XtX1X1X1X<X&X|.`.|.Q.P.Q. X7X9X8X<XtX1X&X+X+X XI.P.+X7X7X8XtXtXsXtXI.=.z.,X3X,X2X3X2XaX9.u.8X,X,X2X,X}.+X8X3X0.0.x.P.x.Q.yXlXuX;XlXlXlXkX_.n.n.",
"n.%X=XlX~ H iX+X&X7X7X7X7X1X7X*X&X&X+X&XOX+X<X&X<X.X|.tX1X8X1X8X1X&X+X X XI.P.+X<X<X7X9XtXdXdX&Xu.p.XX3X3XaXaX2XsXx.@.>X3X,X2X<XXX~.+XsXx.u.I.9.( =.8XlXiXpXlXlXlXlX;X]._.",
"rX=Xj.D   H yX*X&X7X7X7X7X7X7X1X7X1X<X7X9X7X3X+X+Xl.l.sX1X1X1XtX1X&X X X XQ.P.+X<X1X7X9XtXyXgXsXz.u.I.,X2XaXaX3X2X,X@.L.2X,X,X,X>X.X~.7XQ.9.L.i.@.I =.P.zX;Xh.%X_.8.rXpXm.",
"D X 3   6 E &X*X+X1X7X8X8X7XtX7X7X1X<X7X<X|.P.x.Q.=.i.dX8X8X1XtX1X&X X X XQ.I.+X1X8X7X7XtXtXsXdXI.i.L..X,X.X2X2X3XaXp.u.3X,X+X,X3X,X~. X3Xl.i.l.x.l.=.0.~ T 3 w 4 - D ^ j.",
"q 4 b B 2 M _.tX&X7X7X7X7X7X7X7X1X1XtX7X+XP.x.P.I.@.z.sX1XtX8X8X1X&X+X.X XQ.Q.&X1X9XtX7XtXyXyXdX>Xl.L.}.,X}.,XfX0XaXP.9..X<X,X<X<X,X+X}.2XQ.0.0.0.u.l.i.C # N b % e q 3 T "
};
