/* XPM */
static char *d11805d0a12544c0fdad0316f5efc6fdWWewxctjJyzoDwuU[] = {
/* columns rows colors chars-per-pixel */
"85 85 246 2 ",
"   c #010000",
".  c #0B0401",
"X  c #0E0906",
"o  c #170807",
"O  c #130C0A",
"+  c #1B100E",
"@  c #1D1411",
"#  c #1E1A18",
"$  c #220B09",
"%  c #28110F",
"&  c #350F11",
"*  c #281715",
"=  c #231C1A",
"-  c #351D18",
";  c #26211D",
":  c #2B211E",
">  c #37221B",
",  c #2C2422",
"<  c #2C2925",
"1  c #362A26",
"2  c #3A2B25",
"3  c #3D312C",
"4  c #3B3836",
"5  c #481A0F",
"6  c #47241C",
"7  c #57261A",
"8  c #642D1A",
"9  c #462C25",
"0  c #562B22",
"q  c #48342C",
"w  c #56352D",
"e  c #473B37",
"r  c #563C34",
"t  c #68382B",
"y  c #723B2B",
"u  c #673C32",
"i  c #4A413C",
"p  c #53423B",
"a  c #5A4338",
"s  c #694639",
"d  c #65493D",
"f  c #774A37",
"g  c #764B3C",
"h  c #454545",
"j  c #4D4543",
"k  c #4C4C4C",
"l  c #524542",
"z  c #564B46",
"x  c #59514D",
"c  c #545454",
"v  c #5D5753",
"b  c #5C5C5C",
"n  c #664C45",
"m  c #7B4D42",
"M  c #675349",
"N  c #775446",
"B  c #655B56",
"V  c #775C54",
"C  c #6B625C",
"Z  c #71645C",
"A  c #73685E",
"S  c #5D5F61",
"D  c #5E6061",
"F  c #646464",
"G  c #686766",
"H  c #6C6C6C",
"J  c #766965",
"K  c #7C7066",
"L  c #7B726B",
"P  c #6E7172",
"I  c #747474",
"U  c #797776",
"Y  c #7B7B7B",
"T  c #8A391C",
"R  c #8B3F27",
"E  c #8C4732",
"W  c #864837",
"Q  c #A05B38",
"!  c #885846",
"~  c #8C5D4B",
"^  c #94574C",
"/  c #955B48",
"(  c #94634E",
")  c #98644E",
"_  c #8D6455",
"`  c #986957",
"'  c #9C735E",
"]  c #A56949",
"[  c #A76D56",
"{  c #B26B52",
"}  c #A3745C",
"|  c #AB755A",
" . c #B6775C",
".. c #83766D",
"X. c #8D706C",
"o. c #9B7866",
"O. c #877B77",
"+. c #A67967",
"@. c #AC7C63",
"#. c #B67D63",
"$. c #AD7A70",
"%. c #C27A66",
"&. c #8C827C",
"*. c #95847A",
"=. c #A7816B",
"-. c #BA866A",
";. c #AB8977",
":. c #B88B77",
">. c #AD907E",
",. c #BC9278",
"<. c #C4876A",
"1. c #C38C6D",
"2. c #CE8F6D",
"3. c #C68B75",
"4. c #C59574",
"5. c #CB9373",
"6. c #C7977B",
"7. c #CA9B7C",
"8. c #D29975",
"9. c #CDA07E",
"0. c #D3A07E",
"q. c #7C7F80",
"w. c #7F8080",
"e. c #838383",
"r. c #8A8785",
"t. c #8B8B8B",
"y. c #948B83",
"u. c #988A87",
"i. c #97918B",
"p. c #9D938C",
"a. c #908F90",
"s. c #939393",
"d. c #9B9693",
"f. c #9B9898",
"g. c #9B9B9B",
"h. c #A48D8C",
"j. c #A6968C",
"k. c #B7988C",
"l. c #A18F90",
"z. c #A29593",
"x. c #A59B94",
"c. c #AA9995",
"v. c #A49E9B",
"b. c #AD9C9B",
"n. c #B49C99",
"m. c #A9A198",
"M. c #ACA39C",
"N. c #B2A79E",
"B. c #9EA1A1",
"V. c #A3A3A3",
"C. c #ABA7A4",
"Z. c #ABABAB",
"A. c #B3A5A3",
"S. c #B4AAA3",
"D. c #B9ABA6",
"F. c #B6ACA9",
"G. c #BBACAB",
"H. c #B7B1AC",
"J. c #BCB3AB",
"K. c #AFAFB0",
"L. c #B4B4B4",
"P. c #BDB6B2",
"I. c #B8B8B7",
"U. c #BBBBBB",
"Y. c #C79A84",
"T. c #C69489",
"R. c #D39E86",
"E. c #C9A187",
"W. c #CDA38B",
"Q. c #D3A484",
"!. c #D3A58B",
"~. c #DBA689",
"^. c #C8A997",
"/. c #D4AB94",
"(. c #D6AB96",
"). c #CCB19F",
"_. c #D9B39B",
"`. c #DAB39B",
"'. c #E2A989",
"]. c #E8B696",
"[. c #C3AEA8",
"{. c #D0ACA3",
"}. c #C4B6AD",
"|. c #DAB5A2",
" X c #DBBBA8",
".X c #C3B4B2",
"XX c #C4BBB4",
"oX c #CABCB5",
"OX c #C5BDBA",
"+X c #CABDBB",
"@X c #D4BBB5",
"#X c #E3BDAA",
"$X c #F8C19B",
"%X c #CAC2B4",
"&X c #C5C0BC",
"*X c #CBC2BC",
"=X c #D8C6BA",
"-X c #E6C2AA",
";X c #E6C7B7",
":X c #F0D1BE",
">X c #BABFC2",
",X c #CDBFC0",
"<X c #BFC0C1",
"1X c #C3C3C3",
"2X c #CDC5C1",
"3X c #CEC9C5",
"4X c #C4C7C9",
"5X c #CBCBCB",
"6X c #D2C5C3",
"7X c #D5C7C7",
"8X c #D2CAC5",
"9X c #D4CECA",
"0X c #D9CECC",
"qX c #D6D1CD",
"wX c #DAD3CE",
"eX c #CBD0D2",
"rX c #D3D3D3",
"tX c #DBD5D2",
"yX c #DEDAD5",
"uX c #D7D9DB",
"iX c #DBDBDB",
"pX c #EFD6C7",
"aX c #E1D6D4",
"sX c #E1DAD6",
"dX c #E3DDDA",
"fX c #E9DEDD",
"gX c #E5E1DD",
"hX c #E9E2DE",
"jX c #FDE1D0",
"kX c #DADEE0",
"lX c #DEE2E3",
"zX c #E4E3E3",
"xX c #EAE5E2",
"cX c #ECE9E4",
"vX c #E7E7E8",
"bX c #ECECEC",
"nX c #F1E7E6",
"mX c #F1EAE7",
"MX c #F3EDEA",
"NX c #F4F1EC",
"BX c #F9F5EF",
"VX c #EEF2F5",
"CX c #F3F3F3",
"ZX c #F8F6F6",
"AX c #FCFCFC",
"SX c white",
/* pixels */
"Y s.H F F I e.b I s.g.s.e.H r.t.t.U H I H Y e.F H I Y Y Y I e.Y U Y H e.t.g.r.Y r.F s.L.s.Y Y Z.F h h I r.4 F V.r.t.g.I t.r.h r.Y b F s.r.I b F F g.5Xg.s.t.e.Y b F V.g.r.",
"Y V.g.F I I s.Z.Y F h I t.s.r.H r.F b k Y Y V.g.V.t.s.g.Y e.V.V.g.s.V.Z.F H Z.e.c Y r.t.V.g.Z.s.e.I Y g.t.g.V.e.H H V.r.I Y Y I.t.F F r.g.4 k b U t.e.I I g.g.Z.t.g.Y H V.",
"F Z.r.U U Y H r.F c Y Y b F Y s.V.r.Y Y t.U g.Y U t.t.Y e.5XV.Y g.t.s.s.H H e.g.I r.Y s.I s.t.c Y Z.Z.I F V.r.U e.I r.V.t.r.s.I Z.r.F g.Z.Y U Y s.V.Y t.I U c H g.Y c s.e.",
"s.V.g.H c Y H U e.H U H I r.t.s.e.H V.g.b c I r.F Y F H s.I g.r.r.s.r.Y Y r.H H Z.I U r.Y e.e.V.P r.s.Y s.F V.g.H r.r.g.t.P H I F L.L.Y Y s.t.g.1Xr.b t.r.c c b H r.t.r.c ",
"t.F e.Z.Y U r.H U Y r.r.t.Z.g.c F b r.s.H H b g.g.I I g.s.U g.t.b F b e.Y H F b s.t.V.r.s.a.b U b H U e.s.g.V.V.B.F r.Y c H U F Y g.Z.U U U F P s.c c H s.k k k s.1XI b I ",
"I Y h t.uXg.I g.Z.Y t.t.H Y r.c F F r.s.k U I s.V.Y I.t.c Y H g.e.Y V.U.I.U.U.5XbXuXd.v j 1 @ O + @ + < j V.t.F r.t.Z.s.U s.U U s.F I V.Y H F Z.Y c I c r.H h r.s.I H H I ",
"I b H t.e.r.g.s.1Xr.H b U s.V.Y h F s.g.t.U r.s.H c Y s.H g.I.rXbXiXuXCXZXCXSXSXY 1 O . O @ = : : = @ O   # e.eXH s.g.I r.Y Z.g.b H k e.V.H I g.g.b e.e.g.Z.V.uXY U Y P H ",
"Z.F r.s.H Y t.k H s.s.t.s.H c g.r.r.Y F U r.V.F b r.V.rXzXCX5XuXZXvXZ.iXCXSXvXx X . @ = = 2 q q q q 3 , *   O v.SXuXK.Y k 4 r.r.b b 4 Y U h H H s.g.t.r.I g.U Y g.Z.Z.t.s.",
"V.r.F a.H r.Y H e.H H V.Y F U F V.H I e.H h Y t.I.rXbXCXSXvXI.CXCXCX1X5XSXU.=   = 3 l e 1 , 3 a d d a 2 3 , .   a.iXvXvXI.r.H F F g.s.Z.U b r.U H s.Y F b r.F 4 h U t.F I ",
"F t.V.H U r.t.I H I U e.U H U F r.Z.b h F s.5XZXSX5XrXSXSX1XI.bXZXSXuXiX4X+ . , e v B z j e , , a N d q q 2 = X   g.SXvXzXbX5X1Xr.t.r.I V.e.H H Y Y Y r.Y r.r.c H U e.b U ",
"H Y I.c U g.Z.U b F Y L.s.V.g.r.r.Y Y e.Z.CXSXCXbX1X1XZX5XL.5XU.1XrXlX1Xe o < e x B a q e p e 3 = q p N a , , =   = rXZXCXrXI.zX1Xw.c b Y Z.I Y Z.Z.H F Y U e.Y G I Z.s.r.",
"b k B.L.e.r.r.V.r.I s.g.e.r.e.h b F 5XZXrXrXrXI.I.rX5XI.I.iXCXiX5X5XlXa.+ 4 x Z Z n a n ~ ' _ V r 9 q p p w 3 , =   k zXrXL.1XiXrXrXI.s.H F g.Z.r.w.g.Y F H s.g.e.s.e.r.g.",
"Y r.V.L.Y e.Y Y g.V.I c c F s.s.1XbXbXiXuXL.1XiXCXZXCXI.bXSXbXbXCXSXbXG * x C M a d ` -.5.Q.!.R.6.$._ 9 > q 2 2 , O . m.eX1XvXbXiX5X5XzX4Xr.Z.s.b c I Z.t.r.r.U g.e.U k b ",
"r.e.H r.s.b Y c k H b r.f.L.vXlXrXvXCXbXrXL.bXSXZXZXrXL.rXbXzXbXCXVX1Xl e z z a g ' 1.8.0.!. X X(.(.~.=.~ N a 3 , #   v rXbXuXiXCXzX1XbXvXbXiXL.g.t.b r.e.4 h k Y Y H F I ",
"F Y r.e.g.H r.s.V.U.U.zXZXCXbX5XU.CXbXCXrX1XbXSXSX1XL.rX1X5XuXrXU.rXZ.3 l l l a ! #.5.7.Q._.=X X|.(.!.!.Q.1.-.( r = . : 1XzXzXbXSXbX1XbXCXZX1X1XZXvX5X5XZ.s.Y F t.r.c F F ",
"I.1XU.I.uXrXI.vXZXSXzXI.U.1XU.I.U.1XiXvXU.I.5XbX5XI.iXSXiXI.1XI.1XZXr.3 i l e w ( 1.7.Q.W._.-X X X XW.!.!.1.<.%.[ w O O C.rXrXzXrX1XU.rX5XI.L.rXZXCXiX1XiXSXbXI.I.rXI.L.I.",
"rXuXCXbXrXU.I.5XZXZXI.1XrXiXrXZ.rX5X1XI.U.rX5XI.1XbXCXSXrXI.vXbXSXlXj p l e : r | 6.7.Q.!.(.|. X_.(.(.(.W.6.4.-.[ d ;   v.SXI.I.I.I.1X1X5X1XrX1X5X1XI.1X5XuX5XI.5X5XrXCXZX",
"rXI.rXU.Z.5XvX1X1XU.U.SXSXSX1XU.ZXSX1XU.CXbXbXuX1XCXSXCXI.U.zXVXSXy.= l e 1 a +.,.4.Q.~._._.(._.(.Y.Y.!.6.1.1.-.) r 3 . e.SXI.iXbXvX1XrXNXvXbXzXI.5XuXbXuXL.1XbXCX5XU.CXCX",
"I.1X1XU.uXbXvXzXrXL.zXiX1X1XU.bXCXSX5XI.CXCXCXCXI.rXSX5XU.5X4XbX+.[ N q 3 N 7.^.Y.-.=.T. XpX:X|.(.R.!.(.6.1.#.| ~ s 2 O U vXI.bXvXvX1X5XCXbXbXbXI.zXbXCXbX1XCXbXZXuXI.bXCX",
"5XbXuX1XuXiXzXZXuXI.1X1X1XI.CXSXSXZXI.I.CXCXCXSXiXU.zXI.CXCXeXN.Q  .1.n z o.7.,.-.~ g N V *.).#X|.Y.!.|.R.5.-.| ~ s , X O.rX5XbXCXCX5XI.5XuXrXuXL.rXbX5XU.I.zXbXSXiXL.rXiX",
"CXCXzX5XU.U.1X1XU.rXbXSXrXL.iXrX1XI.I.1XrX5X1XrX5XI.L.5XZXSXlX:.2.Q.Y.V p ` =.=.~ a M r 2 9 ! $.|.(._.|.!.R.<.[ ~ s , O J rXrXI.rX5XI.5X5X1X1X1X5X5X1XL.5XrX1X5XrXU.5X1XI.",
"uXuXiX5X5XCXuX5X1XbXSXrXI.1XI.1X5XuXCXvXI.5X5X1X1XiX5X5XbXkX1XY.5.-XE.p d @.' ' n : w 0 6 6 t @.R.R.|.Y.-.@.| [ [ g ; X O.CXvXzX1XI.5XiXvXzXiXiXbX1XU.bXSXSXzXZ.I.rXZXbXbX",
"U.U.1XI.1XiXCXuXI.5X5XL.rXbX1X5XCXZXbXU.1XCXCXbX1XbXSX5X1XU.eXY.5.Q.[ p _ ,.`  .d o % % % % o f ~.#X~.g w q q g ( N , . f.SXuXSXuXL.5XU.1XrXrXuXiXI.I.5X5X5X1XrXrX1XbXZXCX",
"bX9XZ.5X5XI.5XI.5X1XL.bXCXbXiXI.rX5XI.U.I.rXSXbXI.1XbXrXI.iXSX^.<.!.W.o.k.,.| 7.n . @ % + + $ $ o.W.m 9 r 9 : 1 r d < X s.CX5XI.I.1X1XI.I.U.1X1X1X5X5XU.1XI.U.SXZX1X1XbX1X",
"CXrXU.vXuX5XL.rXCXbXU.5XbXzXzX5XV.1XzXzXuX1XrXU.1X5X1X1X5XiXSX=X{ 7.(.^.).,.1.].` o % % % % o o @.3.> < 2 * - * * 2 ; . J uX1X1XuX5XU.zXiXvXbXI.I.5XzXbXvXiXU.CXSXZX5XI.1X",
"vXI.1XvXbXCXU.bXSXSX1XL.1XvXvXI.U.iXvXzXSX5XV.5XCXCXCXuX5XbXSXaX-.7.,.^.^.Y.5.!.(.9 o 2 9 - * ` $X2.r @ % O O % + = 1 - ..lXuXbXzXrXL.rXCXzXI.I.zX1XU.bXCXzXI.CXSXSXuXZ.uX",
"5XU.5XuXiX5XrXbXZXrXU.bXeX5X5XI.rXzXbXSX5XI.uX1XrXbXSXzXU.zXCXbXY.9.Y.^.{.W.6.(.jX(.r - * 2 -.].8. .w O % * % + + # 3 6 c.lX1XZXbXCX5XU.5XU.I.uXZXzXI.iXbXrX5XzXuXrXrX1X5X",
"g.s.Y r.t.g.V.I.I.1XrXvXvXrXL.5X5X1X1X1XU.zXCXiXU.1X5X1XU.bXSXVX).8.^.[.^.(.Q._.pXjXR.W m  .'.(.Q.#.w o $ % % % + , * 0 tX1XZ.rXCXzXI.uXrX5X5XuXrXrXrX5XU.Z.r.s.I.Y I Y H ",
"t.r.b b U r.I e.U r.Z.g.Z.1XrXvXiXuXrXU.zXvXZXSX1XrXuXvX5X5XzX>XH.7.^.[.E.W.Q._.#X3.[ W.'.].R._.-X-.u 9 $ % - , 1 3 o ..uXI.5XI.1XI.5XCXiXrXrX5XZ.s.r.Y Y r.r.F b g.c c e.",
"r.r.H U e.I s.s.U U Y G c Y s.I.uXvXrXZ.rXbXvX5X1XbXbXCXCX1XI.5XuXO.k.).,.,.Q.~.[ / ^.-X#.@.(.;X:X#.W [ _ q - > r * - I.eXzXbXvXrXI.5XiX1XL.r.s.g.F F Y F U Y Y h F L.s.Y ",
"Y e.I w.H F s.e.Y t.s.s.H Y F r.g.r.1XrX1X1XU.1X1XrXCXvXZXrX5XCXqXo.k.E.-.,.,.( ` ).|.!.6.` =._.].| | ! :.'. .] n o &.kX1XuXCXCX5XrXI.g.V.H h P t.t.r.I Y I.F c F k g.e.h ",
"c Z.s.b k U H c F H I Z.e.Y t.s.c h Y Z.5XrXvXSXbXI.uXSXbXI.rXCX8X;.>.,.4.4.@.` W.(.E.Y.W.;XT.[ ! 9 r 0 ^ ~.'.2.s q U.1X1X1XrXiX1Xs.F h V.s.I g.e.e.I I g.g.g.I b F H Z.I ",
"r.s.r.g.t.V.g.U s.t.U r.g.t.Y V.e.Y I h a.1X5XzXCXzX1X5XI.1X1XkX3X=.;.,.4.4.4.-.+.' ,.5.(. X~.{ t 6 6 t [ 1.7.| - O.CXrX1XrXrXg.V.F k s.Y t.H s.V.H t.Z.Y F Y g.r.e.s.Z.V.",
"s.U H V.V.r.V.s.r.r.U b U g.s.r.g.Y t.Z.r.Y r.g.5XvXrXL.iXSXiX5X}.=.o.:.7.4.4.1.R.` j.^.,.R.7.~.2./ ! ! ~ ( #.~ z K.bXrX1Xg.Y H b V.V.H H e.F s.r.H Y r.H r.q.r.I.U r.c e.",
"F U Y r.Y U Y s.H P I e.b r.s.k H b I s.r.r.Y F H Z.U.rXbXzXzXgX8X;.' =.9.4.-.6.-X(.k.oX%X^.Y.=.( ! w 0 m ' [ s U.vXZ.C.F 4 h H H r.r.c r.s.H U U Y F U H r.Y r.r.b b t.s.",
"c c w.Y H H F s.F I I F I Z.V.U b e.U H s.I I Y H Y H U t.I.tXgXxXk.' o.4.4.-.1.(.|.5.$.{.@X=X*.p e & W ,.].` w B.t.b V.r.h c I c r.Z.c H e.t.t.c I F r.e.I I t.Y e.P g.e.",
"F c r.s.H U b U I I U H Z.U F L.r.c h F g.F H H Y s.c c a.wXxXdXbX@X+.o.@.9.4.5.W.(.5.R.@XT.3.:._ y ^ -._.7.s O.F H g.r.Y r.s.H Y e.r.g.Y Y r.L.U c H s.g.c U g.b Y Y r.F ",
"U S Y g.Y H b e.r.c b B.g.b c c g.Y H t.Z.t.F U V.I.Y &XgXsXdXdXgXdX>.=.' ,.7.W.(.!.R.(.!.Y.<.%.{ W g :.Q.f M e.g.V.H F H Y s.g.s.F h g.t.F b H I.I c Y t.h Y r.F b H L.r.",
"Y c g.t.I I c g.I.Y s.r.F U F H b g.s.Y H t.Z.t.b S U.gXqXdXgXdXgXCX[.} +.@.4.(._.R.(.|.(.7.<.#.[ t N 4.m n P S I r.F Y Y U F Y Y e.e.r.t.b H I U V.Y h V.g.s.s.c Y r.b Y ",
"g.s.t.g.r.e.r.s.V.L.e.b H F F H Y r.b Y r.b r.c h a.cXsX=XdXgXdXxXbXdX;.+.+.=.,.|.(.R. X;X(.5.<./ s +.N n I P H Y Y H I Y r.r.e.e.e.Y e.e.F I H h U 5XY t.g.U s.s.t.b c b ",
"f.e.h F Z.Z.U b H U b Y U I I H g.e.I r.Y I b U &XMXxX8XXXdXhXgXxXgXCX@X} +.} +.Y._.(.;XpX|.R.<.^ ) _ p x v B B v s.e.c r.Y r.I.U F F Y a.e.Y k F U.V.H b F P H V.b h H U ",
"Y c U H Y r.H H F s.Y U I r.c I s.b U Y D Y F.gXNXdXdX2XXXgXhXgXgXxXgXCXk.[ @.} +.Y._.#X;X(.5. ./ ~ M 4 < i i j e G L.s.F e.r.e.g.e.F G Z.g.k e.s.U Y b Y I c F s.F b H b ",
"F U Y e.Y Y U r.Y g.t.b F H H V.g.Y H e.L.tXMXgXyXyXdX9XXXdXxXgXxXxXsXmXMX;.| @.} ' -.6.!.(.5.] g d e = : < 4 j v i J t.g.s.H c U r.V.a.I e.g.e.c 4 g.V.c F r.Y Y g.t.U U ",
"g.e.b F r.t.H e.b Y s.H t.L.g.b b w.K.dXcXgXyXdXsXwXtXsXXX8XcXxXgXxXxXaXZXfX| ] } ' _ ( ( ` ` N d a 1 , : < 4 j v B Z C w.Y H Y H F V.r.c h s.H b s.s.t.r.s.r.F c F V.V.Y ",
"r.g.t.e.s.L.e.F r.s.g.g.e.s.r.k U OXhXdXyXdXyXyXyXtX0XtX*X*XxXhXgXcXcXsXfXSX=X] | } ` ! ! s s n N 1 , 4 , 3 j x B C L *.r.I H U H r.t.F I b Y U.s.s.b k r.s.c H Y b r.s.F ",
"U U V.I U r.V.r.V.I e.r.c F s.1XdXcXyXtXtXtXyXtXyXyXtXwX8X}.sXxXxXcXcXgXsXMXSX^.] } _ ~ ` ( g n w @ e z e e B B C L L y.S.Y F Y H r.H H Y e.e.zXZ.c I H H Y U F Y Y I t.b ",
"I t.H I e.I B.g.Y U s.Y c d.2XxXyXtXyXsXyXtXyXsXyXyXyXwXwXJ.6XxXgXxXcXcXwXhXZXZX,.Q ~ ( ` ~ s n > < Z Z v z B L L &.y.u.S.O.D H t.r.c r.Y g.t.H Z.I.H F Y e.H I H c g.5Xe.",
"r.Z.Y Y U H g.g.Y e.H F C.dXhXwXtXtX9XyXdXtXyXsXtXyXyXwXwXJ.XXhXdXxXxXxXtXaXMXZXcX( y ! ( ! s w + M u.O.J x C *.*.i.v.u.m.d.t.s.g.V.U h I s.F e.e.L.Z.U c e.H c I s.Z.V.e.",
"H s.g.F U b r.s.s.Z.V.XXMXgXyXgXdXgXyX9XtXdXyXdXsXyXtXtX0XXXXXgXsXgXhXxXgX0XcXnXSX}.t W ! g s - + A.+Xy.i.B Z p.x.x.M.z.m.M.r.e.F U g.r.s.F H s.r.b H g.g.r.k Y V.Y H t.b ",
"H H g.V.I r.U.Z.s.Z.MXxXtXsXyXxXgXdXxXdX8XwXgXdXdXdXyXtXtX2XJ.wXdXgXxXxXxXwXaXMXnXSX$.y ! g s . J G.J S.J.L Z p.M.M.S.S.x.D.t.Y Y b c L.t.F r.U H r.F b Z.I.t.r.U F F e.H ",
"U I Y I.Y s.g.b I tXhXtXyXgXyXdXdXsXhXcXdX*XsXgXdXsXdXyXtX9XJ.*XsXsXgXxXgXtX8XnXnXBXsXs f ! 6 2 b.e O.}.%Xp...z.J.J.J.J.M.J.v.I I Y b Y F I H I Y r.Y I h V.V.F U F I U b ",
"Y I e.s.H F I c 2XcXtXtXyXgXgXyXdXdXgXgXcXqX6XgXdXyXyXyXdXsX.XoXdXtXsXfXgXgX6XsXMXxXZXA.y f $ J O.o n.J.wXF.y.p.J.*X*X*XP.J.i.H t.Y e.Z.t.I c b e.Y b H e.g.b Y U b e.Y b ",
"e.H r.Y I H s.Z.tXtXyXyXgXyXgXdXwXyXgXgXdXxX8XqXgXyXqXtXdXxX8XXXhXwXwXsXfXgX8X0XmXxXMXCXV 6 6 u...n h.A.MX*Xd.p.M.6X0X8XwXM...O.b e.g.H r.t.r.I r.V.H Y g.V.r.e.F b I.s.k ",
"e.t.I.t.g.Y r.hXtX2X9XgXxXgXgXxXyX8XyXxXdXgXyX2XyXsXwXwXyXgXNXp.i.hXtXyXfXdXwX8XfXBXSXz.w 0 s .Xb.u.c.b.MXsXM.i.p.XXwXqXdXS.K C.<Xg.h b b F V.e.H U V.Z.H b r.s.t.r.g.t.s.",
"r.s.g.g.w.U H tXMXqXXX*XdXcXxXxXcXwX6XdXxXtXyX8XqXgX9X9XtXdXZXP.Z N.tXdXwXfXsXXXhXSXA.Z s y t ;.tXn.[.0XsXMXP.i.p.D.tXyXdX.XJ d.CXrXs.U F b Y H F h Y g.F Y H h I.s.k H r.",
"I H Y Y b H U.hXdXgXtXOX.XqXxXxXxXxXwX8XgXdXtXqX8XtX0X9XwXgXbXgXXXS.J.wXtXdXdX8X9X&.J J w W E W +XD.+XdX0XMXwXx.p.N.sXgXdXP.L v.iXCXlXrXL.r.e.c c c r.s.F Y I e.g.Z.r.H b ",
"U H e.s.Y H &XgXtXyXgXgXqXOX2XtXgXxXcXtXwXxXyXqX6X9XtX9XwXgXcXgXS.6XwXwXyXtXyXcXM.2 q 0 u ! E ( tXG.6XfXXXcXcXF.z.S.wXxXdXOXx.S.uXSXiXrXrXzX5Xs.I Y Y e.c H s.t.c t.I.e.b ",
"b H e.U H U 9XsXwXtXtXdXxXxXwX2X9XdXxXcXwXqXgXtX8X8X9X8XtXxXcXcXA.D.dXwXtXtXyXyX8XG.K 7 t ! R ' bXoX+XMXD.qXMX2Xp.M.2XxXdX*XS.z.rXSXCXbXI.vXZXSXCX5XI.Z.Y L.V.b F b H g.Y ",
"V.V.I.Z.Z.1XdXtXwXtXwXtXdXfXcXgX8X9XdXgXcX9X8XyXqX*X3X9XwXcXcXMXS.J.tX2XyXtXtXyXqX2XnXG.y W E +.ZX[.D.SXb.G.BXgXM.i..XgXfX2Xp.&.U.SXSX5XU.1X5XrX5X1XbXCXZXrX1X5XI.V.g.Z.rX",
"bXZXZXuX5XyXdXtXtXtXtXtXyXdXdXxXxXqX9XyXgXxX8X6XtX2X8XwXwXxXxXMXJ.XXtX8XyXyXyXdXtXG.2XZXG.W E $.CXh.n.SXb.b.BXNXOXu.S.yXxX3Xp.O.g.iX1XL.1X&X5X1X1XU.rXbXbXZ.I.rXCXSXSX1XrX",
"1XSXSX5XU.qXgXyXtXtXtXtXyXyXdXgXxXcXtXqXtXyXgXwXqX8X9XqX9XxXxXMXF.x.dX2X0XsXdXyXyX.X.XsXbX$.T T.7X_ +XSX.Xb.mXMXgXM.M.9XzXqXp.O.v.<X5XvXuX1XvXZXSXiXU.5XZ.5XbX1XU.bX5XL.iX",
"I.ZXzX5X5XyXgXdXqXtXsXyXyXyXdXdXdXxXcXdXtXyXtXgXdX0X.X3XwXcXxXcX2Xy.8X9XqXyXdXtXsX2XD.6XuX+.T W.c.X.fXBX6Xb.sXxXNX3Xx.*XiX3XF.p.v.1X5XbXCX5XI.bXCXSXrXZ.1XCXSXCX1XI.1XbXvX",
"L.5XvX5XrXxXyXyXqXqXyXsXdXiXyXdXgXgXxXcXgXdXwXqXdXyX.X2XwXhXcXcX9XN.6X0X9XsXyXwXtXyXA.D.p.u R :.u.D.mXnXaXD.0XgXcXgXS.S.9XtXP...&.L.vXZXbXbXU.5XZXSX5XI.ZXbXiXbXbX1X5XZXzX",
"L.5XSX5XI.rXdXsXtXwXtXdXdXdXgXgXgXdXtXwXyXsXsXtX8XXXJ.*X9XsXxXcXqXD.wXqX0XyXtXwXtXgXP.h.a 5 E +.l.aXnXxXfX.X6XdXxXMX3XA..X3XC.J K C.CXCXzXCXCX1XrX1XI.5X5XzXbXZXSX1X1XZXbX",
"5X1X1XU.I.2XdXdXtXtXqXyXgXgXgXgXdXdXyXwXtXyXdXyX9XD.S.&X8XwXcXcXdXS.qXgXwXqXyXwXtXyX9XV 6 0 W k.G.cXxXxXxX.X+XdXgXcXcXOXM.S.v.C K x.5X5X1XI.5XU.I.5XZXCX1X1XrX5X5XZ.rXuXI.",
"uXI.Z.5XiXtXtXgXsXtXtXtXyXdXgXgXgXgXgXgXgXxXgXyX9X*XM.XXqXwXcXxXxXD.2XxXtXqXyXqX9XqXgXO.5 y / [.7XmXxXxXnX+XG.sXdXgXMXtXH.x.&.B K y.1XvXCXiX5XI.5XZXZXvXCX5XI.5X5XrX1X1X5X",
"lX1XV.uXbXrX9XxXdXtXyXdXyXtXdXgXgXgXxXxXgXgXgXyX3XXXm.XXqXwXxXxXxXP.&XgXtXtXtX9X8XqXyX2XN 8 / }.dXxXfXxXcX6XD.wXdXdXcXcXqXF.O.B A D.tXzXCXSXSX5XL.iXbXzXbXI.rXSXCXSXI.5XSX",
"vX1XZ.zXCXiX3XyXhXsXtXdXgXdXtXdXgXdXgXgXdXdXtXwXqXD.p.*XqXtXcXgXgX3XOXtXtXqXwXqX8X9XtXtXu.7 W }.vXxXfXxXxXaX.X8XsXsXgXcXgXyXx.i y.XX8XbXrXCXiXL.1XzXbXvXiXI.zXvXbXZXI.I.vX",
"zXbXI.5X1XrXqX3XsXxXiXtXgXxXgXyXdXdXdXdXdXsXtXwXtXJ...*X9XdXxXdXgXqX2X9XtXXXXXdX9X9X9XtXF.s 5 k.bXxXfXxXfXfXG.+XdXsXdXcXcXgXqX&...M.qXbXSXrXZ.rX1XI.zXCXiX1XbXCXCXU.5XzX1X",
"5X5X5XuX5X5XtX9XwXgXxXdXyXgXxXgXyXdXgXgXdXdXyXqX3X.Xx.*X*XhXgXhXdXtX8X9X3XXXx.2XyXqX8XqXP.b.! ` sXxXxXfXfXxX.X}.gXsXsXgXcXgXxX2X*.*XdX5XuXL.5XCXuX5X1XbXuXI.zXCXuX5XiXlX1X",
"s.Z.s.V.g.3XtX9X9XtXdXgXgXdXyXgXdXtXsXdXyXyXyXtX2XD.N.}.dXxXdXgXsXwX8X3X*XXXS.S.yX0X9X9XP.F.6Xk.6XcXxXfXfXnX+XN.aXdXaXtXgXcXdXdX9X*X8X9XI.5XSXbXbXiX5XrX1X5XZ.s.g.Z.L.Y Y ",
"Y s.I k c 8XdXwX9X9XwXdXgXgXdXgXgXyXyXtXtXqXqXqXtXJ.*.6XNXgXdXgXyXqX9X3X&X.X*XJ.*XtX9XtX2Xl.G.0X+XdXxXfXfXcX7Xb.0XdXtXtXsXcXxXdXtX*X.XtXzX1XzXuX1XV.V.V.e.s.F c F H s.H c ",
"Y t.Y c H 9XxXyXtXwXqXqXyXgXgXgXgXgXxXgXdXdXdXtXtXP.x.gXNXdXdXhXyXqX9X3X&XXX*X8XJ.8XqXqX0XA.b.7XoX7XmXfXfXhXdXb.*XgXtXtXtXgXcXgXgXwX.XU I.rXg.g.r.F b H U F c F F F r.e.c ",
"H V.t.Y s.&XdXtXyXdXyXqXtXgXgXdXsXdXgXdXtXwXwX9XJ.M.N.sXcXdXgXhXyXwX9X3X2XXXOXwX6XXXqXqXqXF.A.0X7X@XxXxXfXfXxXb.A.hXaXwXwXtXcXcXxXxXv.l d.t.r.Z.U H H h s.V.I Y Y Y g.V.Y ",
"r.g.I.s.Y &XtXwXyXdXgXgXyXdXgXdXdXyXyXtX8X2X*XXX&X.Xm.wXhXdXhXgXsXwX9X3X2XOXXX9XdX*X*XyXqXP.A.+X7XtXfXxXfXxXmXD.u.dXsXtX0XwXdXcXcXSXy.K F.Y L.V.Y V.s.t.s.Y e.e.Y g.V.Y V.",
"r.H r.s.r.qXtXtXsXgXgXxXgXyXdXgXgXyXdXyXtXwXtXyX3XD.c.tXgXfXxXgXdXtXqX3X2XOX.XqXgXsXXX6XtXXXM.G.+X7XxXxXfXxXnX+X..8XdXdXwX8XwXgXcXZX.XM.wXv.P U c Y Y g.g.c Y e.F t.s.r.Y ",
"U r.t.V.Z.qXyXtXyXgXgXgXgXyXdXdXdXyXyXyXyXyXyX9XOXO.*.dXgXgXgXgXdXtX9X9X3XXX}.qXdXdXwX%XwX3Xz.A.b.2XxXcXfXfXnX0XM N.hXaXdX9X8XtXxXNXgX.X6Xv.s.s.F I Y b V.t.H I Y r.Y Y U ",
"Y r.s.r.V.3XyX0XtXdXgXgXgXgXgXdXdXsXdXgXdXdXyX2XtXx.x.xXdXgXdXgXgXqX9X9X9X*X}.9XyXgXgXwX6X9Xz.z.p.2XxXnXfXdXfXnXl L MXtXdXdX8X0XdXcXNXy.B Z O.Z.B.Y e.s.e.t.H I L.s.c I H ",
"r.e.r.e.w.9XyXqXtXdXgXgXgXgXgXgXgXhXgXdXyXqX3XOXXXN.XXcXdXgXdXgXyXqX9X9X9X*X}.9XdXgXgXfXwXtXF.y.l.,XfXcXdXtXdXBXO.B gXaXaXdXwX6XwXdXSXi.p C e J V.r.r.s.s.rXs.s.s.g.g.H h ",
"F I Y Y Y 4XgXrXyXdXgXgXgXgXgXxXgXdXyXtX9X2X2X*X+Xx.XXcXdXgXdXgXyXwXqX9X9X&X.XqXdXdXgXgXxXdX9Xp.u..XaXxXaXaXdXnX,XJ OXdXaXsXsX6X8XsXMX3Xy.p.J Z a.t.H U Z.uXr.b F H U V.r.",
"t.r.Y r.g.9XgXqXyXdXgXgXgXgXdXdXsXyXtXqX2X*X3XOX*XXX8XxXdXdXdXdXyXtXwX9X3XOX.XwXdXdXgXgXcXxXcXP.O.G.tXdXtXdXdXfXxX*.c.fXwXaXfXwX*X0XhXyXi.p.J.F.C.e.g.I.Y Y g.r.b I H I.U.",
"g.r.t.Z.t.L.dXqXtXdXgXdXdXgXyXtXtXtXtXqX9XtXtXtXyX*X3XxXdXdXdXgXyXqX9X9X8XXX.XtXyXdXfXgXxXMXcXqXu.A.6XtXdXxXxXdXmXA.O.sXsXtXdXsX8X*XwXcXC.p.XXp...z.g.e.Y Y Y g.g.Y r.U r.",
"r.e.H r.I v.gXqXtXdXgXgXdXgXdXdXdXyXsXgXgXfXdXwX9Xx.D.bXdXdXgXgXyXqX8X8X8XOXOXtXyXgXgXhXxXcXcXxXA.c.+XtXfXxXxXfXfX7XO.XXhXtXtXtXtX6X*XhXOXy.J.x.O.K C e.Y e.e.H g.e.F H r.",
"H F F V.t.Z.dXqXtXdXgXgXdXgXgXgXgXyXdXgXtX2X.XF.XXO.S.MXfXdXgXdXyXqX9X9X8XXX*XwXdXgXgXgXgXcXcXcX.Xl..X0XwX0XdXfXdXxXl.j.sXtX0XtXsXwX*X8XsXM.m.S.F.x.&.d.q.Y F b V.L.c U V.",
"r.r.r.Y H V.yXqXyXsXdXgXdXdXgXdXsXyXdXiX3XJ.D.OXM.Z 2XxXgXdXgXdXtXqXqX9X2XOX*XtXdXgXgXgXgXxXcXcX6Xc.G.+X0X=XaXcXfXxXS.*.8XsXtXtXsXtX8X*XsXXXy.y.y.z.x.A.r.G r.t.s.g.r.s.Y "
};
