/* XPM */
static char *_6b17f5080d643d9a334ed7181501564pAw0cQFW7ejVPYzh[] = {
/* columns rows colors chars-per-pixel */
"85 85 214 2 ",
"   c #1F1311",
".  c #1E1815",
"X  c #241412",
"o  c #2B1412",
"O  c #241D1A",
"+  c #2A1C18",
"@  c #351D18",
"#  c #2A211E",
"$  c #39221D",
"%  c #2D2422",
"&  c #2F2A27",
"*  c #312622",
"=  c #3A2521",
"-  c #332926",
";  c #3A2B26",
":  c #352D2A",
">  c #3D2E29",
",  c #3D312D",
"<  c #3E3431",
"1  c #482B25",
"2  c #432E28",
"3  c #43322C",
"4  c #49352D",
"5  c #56352C",
"6  c #433632",
"7  c #433936",
"8  c #4A3C36",
"9  c #543A35",
"0  c #553D34",
"q  c #5C3C33",
"w  c #62382D",
"e  c #673D32",
"r  c #4B413D",
"t  c #5A4137",
"y  c #54423B",
"u  c #5E453B",
"i  c #63463B",
"p  c #69463A",
"a  c #734235",
"s  c #754B3C",
"d  c #7C4B3C",
"f  c #7F503F",
"g  c #4E4441",
"h  c #524641",
"j  c #534945",
"k  c #5C4B45",
"l  c #584E4A",
"z  c #5C524D",
"x  c #5F5450",
"c  c #644C43",
"v  c #6B4D43",
"b  c #774D41",
"n  c #685148",
"m  c #6C534B",
"M  c #755143",
"N  c #795648",
"B  c #645A55",
"V  c #675A56",
"C  c #775C51",
"Z  c #6D635D",
"A  c #78625A",
"S  c #6F6762",
"D  c #746A63",
"F  c #786C67",
"G  c #7C716B",
"H  c #7E7874",
"J  c #854D3D",
"K  c #89503F",
"L  c #835443",
"P  c #8C5543",
"I  c #875847",
"U  c #835C4C",
"Y  c #8C5D4B",
"T  c #955A47",
"R  c #8E614E",
"E  c #93614E",
"W  c #8B6252",
"Q  c #84665A",
"!  c #946552",
"~  c #996A56",
"^  c #9D715D",
"/  c #A36A56",
"(  c #A4735C",
")  c #AA745C",
"_  c #AF785E",
"`  c #B0795D",
"'  c #83736E",
"]  c #977566",
"[  c #857975",
"{  c #857B74",
"}  c #8A7E78",
"|  c #947C76",
" . c #A47661",
".. c #A97660",
"X. c #A47965",
"o. c #AB7B64",
"O. c #A57D6B",
"+. c #AA7E6A",
"@. c #B37D63",
"#. c #B87F64",
"$. c #8A8077",
"%. c #8C827C",
"&. c #91877F",
"*. c #A6826E",
"=. c #AC836D",
"-. c #B58165",
";. c #B4846B",
":. c #BA8368",
">. c #BE8C6F",
",. c #AA8675",
"<. c #B38671",
"1. c #B38A74",
"2. c #BC8D73",
"3. c #BC8A76",
"4. c #BB9178",
"5. c #BC937B",
"6. c #C18B6F",
"7. c #C18E73",
"8. c #C28E7D",
"9. c #C39275",
"0. c #C4967A",
"q. c #C7977B",
"w. c #C9957A",
"e. c #CA9B7D",
"r. c #8D8682",
"t. c #948A83",
"y. c #958A86",
"u. c #9B8B86",
"i. c #9A8E89",
"p. c #96908C",
"a. c #9C928B",
"s. c #9C9793",
"d. c #A88A83",
"f. c #B28E84",
"g. c #A1948D",
"h. c #AC928A",
"j. c #B89787",
"k. c #A29592",
"l. c #A59B94",
"z. c #A99D96",
"x. c #A59E9A",
"c. c #AA9E9A",
"v. c #B29D98",
"b. c #A7A39F",
"n. c #ADA29D",
"m. c #B1A49E",
"M. c #BAA198",
"N. c #ADA8A4",
"B. c #B3A5A2",
"V. c #B4AAA5",
"C. c #BAADA4",
"Z. c #B6AEA9",
"A. c #BAAEAA",
"S. c #B6B1AD",
"D. c #BCB2AD",
"F. c #BEB5B1",
"G. c #BEBAB6",
"H. c #C59B84",
"J. c #C69B87",
"K. c #CC9D83",
"L. c #C29E90",
"P. c #CEA186",
"I. c #C6A28D",
"U. c #CDA28B",
"Y. c #D3A68B",
"T. c #D1A58D",
"R. c #C7A897",
"E. c #D2A692",
"W. c #D4AB94",
"Q. c #D3AE9A",
"!. c #D6B19C",
"~. c #D8B19C",
"^. c #C3AEA6",
"/. c #C6B2AA",
"(. c #D9B6A2",
"). c #D8B9A8",
"_. c #DCBDAB",
"`. c #C2B5B2",
"'. c #C3BAB5",
"]. c #CBBDB4",
"[. c #C5BDB9",
"{. c #C9BEBA",
"}. c #D1BFB8",
"|. c #C6C1BD",
" X c #CAC2BD",
".X c #D7C2B7",
"XX c #E1C6B8",
"oX c #C7C3C0",
"OX c #CCC5C2",
"+X c #CDCAC6",
"@X c #CECDC9",
"#X c #D1C6C2",
"$X c #D2CAC6",
"%X c #DAC8C2",
"&X c #D1CECA",
"*X c #D1CECB",
"=X c #D2CECB",
"-X c #D9CFCB",
";X c #D3D0CC",
":X c #D5D1CE",
">X c #D4D2CE",
",X c #D9D2CE",
"<X c #D6D4D0",
"1X c #D9D5D1",
"2X c #DED9D5",
"3X c #E0D7D4",
"4X c #E1DAD6",
"5X c #E3DDDA",
"6X c #E8DFDD",
"7X c #E6E1DD",
"8X c #E9E1DE",
"9X c #EAE5E1",
"0X c #E9E5E2",
"qX c #F0E8E6",
/* pixels */
"+X+X+X+X+X+X+X+X+X+X@X+X@X@X@X@X@X&X&X&X&X&X&X@X@X@X@X@X@X@X&X&X&X&X&X;X;X;X;X;X;X;X;X;X;X;X&X;X;X;X;X;X;X;X;X;X;X;X;X;X>X;X;X;X>X>X;X>X>X>X;X>X>X>X>X>X>X>X>X>X>X>X;X>X>X",
"+X+X+X+X+X+X+X+X+X+X+X@X@X@X@X@X@X@X@X&X@X@X@X&X@X@X@X&X&X@X&X&X&X;X;X;X;X;X;X&X;X;X;X;X;X;X;X;X;X>X;X;X;X;X;X;X;X;X;X;X;X>X;X;X;X>X>X>X>X>X;X>X;X>X>X>X>X>X>X>X>X>X&X;X>X",
"+X+X+X+X+X+X+X+X@X@X@X@X@X@X@X@X@X@X@X@X@X@X@X@X@X@X@X@X&X&X&X;X;X;X;X;X;X;X;X;X;X;X;X;X;X;X;X;X;X;X;X;X;X;X;X;X;X;X;X;X;X;X;X;X;X;X>X>X;X;X;X>X;X>X>X>X;X>X>X>X>X>X;X;X;X",
"+X+X+X+X+X+X+X@X@X@X@X@X@X@X@X@X@X@X@X@X@X@X@X@X@X@X&X&X&X&X;X;X;X;X;X;X;X;X;X;X;X;X;X;X;X;X>X;X;X;X>X;X;X;X;X;X;X;X;X;X;X;X;X;X;X;X;X>X>X;X>X>X;X;X;X;X>X>X>X>X>X>X;X;X;X",
"+X+X+X+X+X+X+X@X@X@X@X@X@X@X@X@X@X@X@X@X@X@X@X@X@X@X&X&X&X;X;X;X;X;X;X;X;X;X;X;X;X;X;X;X;X&X|.[.G.[.+X>X;X;X;X;X;X>X>X;X>X>X;X;X;X;X;X;X;X>X>X>X;X;X;X;X>X>X;X>X>X>X>X;X;X",
"+X+X+X+X+X@X@X@X@X@X@X@X@X@X@X@X@X@X@X@X@X@X@X@X&X&X&X&X;X;X;X;X;X;X;X;X;X;X;X;X;X&XG.p.S r % % # # % V x.+X>X>X;X>X>X>X>X>X>X>X;X>X>X>X>X>X>X>X;X;X>X>X>X>X>X>X>X>X>X>X;X",
"+X+X+X+X+X+X@X@X@X@X@X@X@X@X@X@X@X@X@X@X@X@X&X&X&X&X&X;X;X;X;X;X;X;X;X;X;X;X>X;XN.Z % # O O # # % + O O . j S.>X>X>X>X>X>X>X>X>X>X>X>X>X>X>X>X>X>X;X>X>X>X>X>X>X>X>X>X>X>X",
"+X+X+X+X+X@X@X@X@X@X@X@X@X@X@X@X@X@X@X@X&X&X&X&X;X;X;X;X;X;X;X;X;X;X;X;X;X;X+XH : % # # % - > 3 3 > ; # O . : b.>X>X>X>X>X>X>X>X>X>X>X>X>X>X>X>X>X>X>X>X;X>X>X>X>X>X>X>X>X",
"+X+X+X+X@X@X@X@X@X@X@X@X@X@X@X@X@X@X@X@X@X&X&X;X;X;X;X;X;X;X;X;X;X;X;X;X>XG.V % * : 8 6 : - 3 0 t t 0 3 ; + . - N.;X>X>X>X>X>X>X>X>X>X>X>X>X>X>X>X>X>X>X>X>X>X>X>X>X>X>X>X",
"+X+X@X@X@X@X@X@X@X@X@X@X@X@X@X@X@X@X@X@X@X@X;X;X;X;X;X;X;X;X;X;X;X;X;X>XG.g % - 7 j x j g 6 : > u i u 9 4 - O . & Z.>X>X>X>X>X>X>X>X>X>X>X>X>X>X>X>X>X>X>X>X>X>X>X>X>X>X>X",
"+X@X@X@X@X@X@X@X@X@X@X@X@X@X@X@X@X@X@X@X&X&X&X;X;X;X;X;X;X;X;X;X;X;X;X+XV : : 6 h z k 8 8 h r 7 , 0 0 c y - % O . r oX>X>X>X>X>X>X>X>X>X>X>X>X>X>X>X>X>X>X>X>X>X>X>X>X>X>X",
"+X@X@X@X@X@X@X@X@X@X@X@X@X@X@X@X@X@X&X@X&X&X;X;X;X;X;X;X;X;X;X;X;X;X>XN.6 < g V V V i i N W A m y 0 0 u u 3 ; # O . H >X>X>X>X>X>X>X>X>X>X>X>X>X>X>X>X>X>X>X>X>X>X>X>X>X>X",
"@X@X@X@X@X@X@X@X@X@X@X@X@X@X@X@X@X@X&X&X&X&X;X;X;X;X;X;X;X;X;X;X;X>X>Xr.< l V n m i Y ..;.9.0.5.<.^ U 0 4 0 4 * # . O S.>X>X>X>X>X>X>X>X>X>X>X>X>X>X>X>X>X>X>X>X>X>X>X>X>X",
"@X@X@X@X@X@X@X@X@X@X@X@X@X@X@X@X@X@X&X&X;X;X;X;X;X;X;X;X;X;X;X;X;X>X&XV 8 j k k M ~ -.9.e.P.!.Q.U.P.H.O.U M q 4 - O . [ >X>X>X>X>X>X>X>X>X>X>X>X>X>X>X>X>X>X>X>X>X>X>X>X>X",
"@X@X@X@X@X@X@X@X@X@X@X@X@X@X@X@X@X&X&X&X;X;X;X;X;X;X;X;X;X;X>X>X>X>XG.j h h k i U ) 9.w.P.Q.).).(.E.P.0.5.-.o.W 5 * . < +X<X<X>X>X<X>X<X<X>X>X>X<X<X<X>X>X<X>X>X>X>X>X>X>X",
"@X@X@X@X@X@X@X@X@X@X@X@X@X@X@X@X&X&X;X;X;X;X;X;X;X;X;X;X;X>X>X>X>X>Xp.j h r y 0 R :.0.K.P.Q._._.(.!.U.P.P.7.:.) E 4 O O S.>X<X<X<X<X>X>X<X<X<X<X<X<X<X<X<X<X<X>X>X>X>X>X>X",
"@X@X@X@X@X@X@X@X@X@X@X@X@X&X@X@X&X&X&X;X;X;X;X;X;X;X;X;X;X;X>X>X>X@XV z y h 4 p ^ 7.0.K.Y.!.(.).!.!.E.E.P.9.6.#.~ i * O x.>X<X<X<X<X<X<X<X<X<X<X<X<X<X<X<X<X<X>X>X>X>X>X>X",
"@X@X@X@X@X@X@X@X@X@X@X@X@X@X@X&X&X&X;X;X;X;X;X;X;X;X;X;X>X>X>X>X>XZ.j r r 6 t ~ ;.9.e.K.E.!.Q.(.!.K.K.T.e.0.6.-.! i , % p.>X<X<X<X<X<X<X<X<X<X<X<X<X<X<X<X<X<X>X>X>X>X>X>X",
"@X@X@X@X@X@X@X@X@X@X@X@X&X&X&X&X&X&X;X;X;X;X;X;X;X;X;X;X>X>X>X>Xh.;.N y 8 v =.5.4.2.2.H.Q.(._.!.W.T.T.!.K.9.#.) Y p > - [ >X<X<X<X<X<X<X<X<X<X<X<X<X<X<X<X<X<X>X>X>X>X>X<X",
"@X@X@X@X@X@X@X@X@X@X@X&X&X&X&X&X;X;X;X;X;X;X;X;X;X;X;X;X;X>X>X]._ ) 2.v n ~ 1.1.1.~ N U ] j.Q.(.(.P.T.W.K.7.:.) Y p 2 % H <X<X<X<X<X<X<X<X<X<X<X<X<X<X<X<X<X<X>X<X>X>X>X>X",
"@X@X@X@X@X@X@X@X@X@X@X@X@X&X&X&X&X;X;X;X;X;X;X;X;X;X;X>X>X>X>XI.w.0.j.Q k ] ,.O.! M N c u 0 W =.Q.E.Q.W.K.0.:.( Y p ; # } <X<X<X<X<X<X<X<X<X<X<X<X1X1X1X<X<X<X>X<X>X>X>X>X",
"@X@X@X@X@X@X@X@X@X@X@X&X&X&X&X;X;X;X;X;X;X;X;X;X;X;X;X;X>X>X>XI.K.!.I.C v ( X.] A y q 1 5 q s ( U.K.!.H.3.;...~ ! p ; % p.<X<X<X<X<X<X<X<X<X<X<X1X<X1X1X<X<X<X<X<X<X>X>X>X",
"@X@X@X@X@X@X@X@X&X&X&X&X&X&X;X;X;X;X;X;X;X;X;X;X;X;X;X;X>X>X>XR.0.P.@.m W =.^ ( ~ @ @ o o @ $ I 0.U.K.W M i i M U M ; % s.<X<X<X<X<X<X<X<X<X<X<X<X1X<X<X<X>X<X>X>X<X>X>X>X",
"@X@X@X@X@X@X@X@X@X&X&X&X&X&X;X;X;X;X;X;X;X;X;X;X;X;X;X>X>X>X>XR.H.9.E.*.1.1.o.=.W + X X X X o 1 =.H.( q i 5 ; 8 0 i - % s.<X<X<X<X<X<X<X<X<X<X<X<X1X1X<X<X<X<X<X>X<X<X>X>X",
"@X@X@X@X@X@X@X&X&X&X&X&X&X&X&X;X;X;X;X;X;X;X;X;X;X>X>X>X>X>X<X].9.7.Q.j.R.4.2.0.1.@ o o o o o 6 X.;.u 6 2 1 $ + * 6 % % p.<X<X<X<X1X<X<X<X<X<X<X<X1X1X1X<X<X<X<X>X<X<X<X<X",
"@X@X@X@X@X@X&X&X&X&X&X&X;X&X;X;X;X;X;X;X;X;X;X;X;X>X>X>X>X>X<X#X9.K.2.R.R.H.0.e.I.i = $ $ $ = W K.6.i @ +     X X % * 8 %.<X<X<X<X<X<X<X<X<X<X<X<X<X1X1X1X<X<X<X>X<X>X>X<X",
"@X@X@X@X@X@X&X&X&X&X&X&X;X&X;X;X;X;X;X;X;X;X;X>X>X>X>X>X>X>X<X>XL.P.0.R.R.I.e.E._.H.e 2 2 0 X.P.w.#.c X X o X   X : 7 c z.<X<X<X<X<X<X<X<X<X<X<X1X1X1X1X1X<X<X<X<X<X<X<X>X",
"@X@X@X@X@X&X&X&X&X;X;X;X;X;X;X;X;X;X;X;X;X;X;X;X>X>X>X>X>X<X<X<X/.Y.I.^.R.W.U.Q.XXXXK.! L ) w.T.e.:.e X o o o X X - = 5 |.<X<X<X<X<X<X<X<X<X<X1X1X1X1X1X1X1X<X<X<X<X<X<X<X",
"@X@X@X@X&X&X@X&X&X&X;X;X;X;X;X;X;X;X;X;X;X;X;X;X>X>X>X>X>X<X<X<X$XH.R.R.I.E.P.E.~.P.@.H.7.K.K.E.Q.>.p 5 @ @ @ $ , , = ' 1X<X<X<X<X<X<X<X<X<X<X<X<X1X1X1X1X1X<X<X<X<X<X<X<X",
"@X@X@X@X@X&X&X&X&X;X;X;X;X;X;X;X;X;X;X;X;X;X;X>X>X>X>X>X>X<X<X<X>X| M.R.0.0.e.P.0. .H.!.7.K.E.(..X2.L I W 5 2 2 2 3 ; [.1X<X<X<X<X<X<X<X<X<X<X<X1X1X1X1X1X1X1X1X<X<X<X<X<X",
"@X@X@X@X&X&X&X;X;X;X;X;X;X;X;X;X;X;X;X;X;X;X;X>X>X>X>X>X<X<X<X<X>X] j.j.9.>.9.o. .U.W.T.H.X.3.E.P.@.~ P <.7.@.~ p > r.1X1X<X<X<X<X<X<X<X<X<X<X<X1X<X1X1X1X1X<X1X1X1X1X1X<X",
"@X@X&X&X&X&X&X;X;X;X;X;X;X;X;X;X;X;X;X;X;X;X>X>X>X>X>X>X<X<X<X<X&X,.f.4.0.>.>.O.5.H.I.K.K.!.H.;.+.p s w E e.9.-.N 6 OX1X1X1X<X<X<X<X<X<X<X<X<X<X1X<X1X1X1X1X1X1X1X<X<X1X<X",
"@X@X&X&X&X&X;X;X;X&X&X;X;X;X;X;X;X;X;X;X;X;X>X>X>X>X>X>X<X<X<X>X#X,.1.2.0.>.0.;.<.<.K.K.U.!.K._ d 5 5 e / :.9.) v p.1X1X<X1X1X1X<X1X<X1X<X<X<X1X1X1X1X1X1X1X<X1X1X<X1X1X1X",
"@X@X@X&X&X&X;X;X;X;X;X;X;X;X;X;X;X;X;X;X;X;X>X>X>X>X>X>X<X<X<X>XOX,.*.1.e.>.e.2.K.O.j.j.H.!.K.9.-.P d d ! ( ;.! m |.1X1X<X1X1X<X<X<X<X1X<X<X1X1X1X1X1X1X1X<X1X<X1X1X<X1X1X",
"@X&X&X&X&X;X;X;X;X;X;X;X;X;X;X;X;X;X;X;X;X;X;X>X>X>X>X>X<X<X>X1X-Xf.*.=.0.2.0.0.Q.E.j.]..Xj.3.;./ P s a L ! o.M Z.<X1X1X1X1X1X<X<X<X<X<X<X<X1X1X1X1X1X1X1X<X1X1X1X<X1X<X<X",
"&X&X&X&X;X;X;X;X;X;X;X;X;X;X;X;X;X;X;X;X;X;X;X>X>X>X>X>X>X>X1X2X1X^.*.X.4.9.7.9.W.W.K.8.R.]..XC.A n 1 L ;.H.) m +X<X1X<X1X1X1X1X<X<X1X<X<X<X<X<X1X1X1X1X1X<X1X1X1X1X<X<X1X",
"&X&X&X&X&X&X;X;X;X;X;X;X;X;X;X;X;X;X;X;X;X;X;X>X>X>X>X<X>X>X5X5X5X%X*.O.+.0.7.0.P.E.K.K.).H.3.+.^ L T o.9.H.N a.1X1X1X1X1X1X1X1X<X<X1X<X1X1X1X1X1X1X1X1X1X1X1X1X1X<X<X1X1X",
"&X&X&X&X;X;X;X;X;X;X;X;X;X;X;X;X;X;X;X;X;X;X;X>X>X>X>X2X$X1X5X5X5X4Xj.,.X.4.0.P.E.E.K.T.T.0.>.@./ L L +.0.R Q +X1X1X1X1X1X1X1X1X1X<X1X1X1X1X<X<X<X<X1X1X<X1X1X1X<X1X1X1X1X",
"&X@X@X&X;X&X;X;X;X;X;X;X;X;X;X;X;X;X;X;X;X;X;X>X>X>X1X1X$X4X5X5X7X5X}.,.+.=.9.P.Q.T.E.!.W.K.6.#.) s L <.W Q |.<X<X1X1X<X1X1X1X1X1X1X1X1X1X1X1X1X1X1X1X1X1X<X<X<X1X<X1X1X1X",
"&X&X&X&X&X;X;X;X;X&X;X;X;X;X;X;X;X;X;X;X>X>X>X>X>X1X2X1X$X5X5X5X7X8X4X5.=.X.;.5.Q.W.T.(._.W.w.:.~ d ~ U m [.<X<X1X1X1X1X1X1X1X1X1X1X1X<X<X1X1X1X<X<X1X<X1X1X1X1X<X<X1X1X1X",
"&X&X&X&X&X;X;X;X;X;X;X;X;X;X;X;X;X>X;X;X;X>X>X<X1X1X2X,X X1X5X7X7X9X5X%X=.o.o.+.H.Q.E.).XX~.K.6.T R W i z V r.s.F.>X1X1X1X1X1X1X1X1X1X1X1X<X1X1X1X1X1X<X<X1X1X1X1X1X<X1X<X",
"&X&X&X&X;X;X;X;X;X;X;X;X;X;X;X;X;X;X;X>X;X>X1X1X2X2X2X,X{.4X7X7X7X9X5X8XR.;...o.+.H.W.(._.E.w.@.Y Y v 8 : r h j j H +X1X1X1X1X1X1X1X1X1X1X1X<X1X<X<X1X<X<X<X1X1X1X<X1X1X1X",
"&X&X&X;X;X;X;X;X;X;X;X;X;X;X;X;X;X;X>X>X>X1X2X2X2X2X2X,X{.4X7X7X7X9X7X5X8Xj.;.) o.X.2.K.P.K.7./ b i y % & : 7 h z z F oX1X<X1X1X1X1X1X<X<X1X<X<X<X<X<X<X<X<X1X1X1X1X1X1X1X",
"&X;X&X;X;X;X;X;X;X;X;X;X;X;X;X;X>X>X>X<X1X2X2X4X4X1X1X1XOX$X7X8X7X9X9X4XqX4X1.` ( ..~ ~ ~  .^ U i i 6 % % : 7 h z V D t.>X<X1X1X1X<X<X1X<X1X<X<X<X<X<X1X<X1X1X1X1X1X1X1X1X",
";X;X;X;X;X;X;X;X;X;X;X;X>X;X>X>X>X,X1X1X1X4X4X2X2X1X,X1X$X X7X8X7X9X9X5X6XqX%Xo._ ( ! R E M s v v 3 , 7 - < r l V Z F &.N.<X<X1X1X1X1X1X1X<X<X<X<X<X<X1X1X1X<X1X1X1X1X1X1X",
"&X;X&X&X;X;X;X;X;X;X;X;X>X;X>X>X1X1X1X2X2X1X2X2X2X2X1X,X%X'.4X7X7X9X9X8X4XqX9X/.@.( ! Y ! Y M i t # r j 8 r z V Z G ' t.a.&X1X1X1X<X1X<X<X<X<X<X<X<X<X<X<X<X1X1X1X1X1X1X1X",
";X;X;X;X;X;X;X;X;X;X;X;X&X>X>X>X,X1X2X2X2X1X2X4X2X2X1X,X&X'.-X5X7X9X9X9X2X9X9X8XL.( Y E ! Y s i 3 , V Z z l V F G [ t.t.l.S.1X1X1X1X1X<X<X<X<X<X<X<X<X<X<X<X1X1X<X<X<X1X1X",
";X;X;X;X;X;X&X;X;X;X;X>X>X,X1X1X1X1X,X2X4X2X4X4X1X2X1X1X&XOX|.3X5X7X9X9X5X3XqX9X4XO.L I Y L i q * l } [ D V Z } %.t.k.i.n.l.1X1X<X1X<X<X<X<X<X<X<X<X<X<X<X<X<X<X<X<X1X1X1X",
";X&X;X;X;X>X&X;X;X;X>X1X1X4X2X5X4X5X5X,X2X4X2X4X4X2X1X1X&XOX'.1X4X5X7X8X5X,X9X9X9X Xb L P d e 4 : r.D.t.t.D D t.a.l.z.l.l.n.$X1X<X<X<X>X<X>X>X>X>X<X<X<X<X<X<X<X<X1X1X1X1X",
"&X&X;X;X;X&X;X;X;X>X1X2X1X5X2X5X6X5X7X5X,X,X4X4X5X5X1X1X>X$XD.,X4X5X7X9X7X4X4X9X9X8Xv.I f s q $ V n.} l.C.[ F a.z.m.B.V.l.V.|.1X<X<X<X>X<X>X>X>X>X>X<X>X<X<X<X1X1X1X1X1X1X",
";X;X;X;X>X&X;X;X;X1X2X2X2X5X2X5X5X5X7X7X7X#X2X5X5X5X4X2X1X&X'.%X1X4X5X7X7X5X&X9X9X9X1XQ L d q $ A.V u.c.{.a.$.g.V.A.D.D.B.A.V.<X<X<X<X>X>X>X>X>X>X>X<X>X<X<X<X1X<X<X<X1X1X",
";X;X;X;X>X;X&X;X>X1X1X2X4X5X7X4X5X4X7X7X7X2X$X5X5X4X2X2X2X1XOX{.,X1X4X6X5X5X&X5X9X9X6X`.s s 1 Z a.3 k.B.,XV.a.g.Z.'.[.'.'.V.y.+X<X<X>X>X>X>X>X>X>X>X>X>X<X<X<X<X<X<X<X1X1X",
";X;X;X;X;X;X&X>X&X,X1X1X5X4X5X6X1X2X5X7X5X5X,X>X4X4X>X1X2X5X1X'.,X,X,X4X5X5X,X-X9X9X8X4X' e 1 k.} m v.A.3X|.l.l.B. X$X$XOXB.[ S.1X>X>X>X>X>X>X>X>X>X>X>X<X<X<X<X<X<X<X1X1X",
";X;X;X;X;X&X&X1X1X$X>X1X7X6X7X7X5X>X1X7X4X5X4X$X1X2X,X1X2X5X5XG.'.&X&X4X5X5X1X#X8X9X9XF.i e w m.v.| A.n.4X1Xn.l.l.'.&X&X&XD.%.n.>X>X>X>X>X>X>X>X>X>X<X>X>X>X<X<X<X<X<X1X1X",
";X;X;X;X;X&X&X1X5X1X|.+X2X7X7X7X9X1X&X2X5X2X2X>X&X4X>X>X1X5X7X,X%.A.,X2X1X5X2X$X4X9X{.} m a a h.OXz.`.-X3X7X'.l.l.D.>X1X>X'.[ n.>X>X>X>X>X>X>X>X>X>X>X>X>X>X>X>X<X<X1X1X1X",
";X&X;X;X;X&X>X1X2X4X1X$X|.1X5X7X9X7X1X>X5X5X1X>X$X1X>X&X1X5X9X5XD.{.D.,X1X2X2X,X%XA.[ ' e d L d  XB.{.4X-X6X,Xn.n.V.,X4X1X|.' Z.+X>X>X>X>X>X>X>X>X>X>X>X>X>X>X>X<X<X1X1X1X",
"&X&X;X>X;X&X1X>X1X2X2X4X1XOX$X4X4X7X7X2X1X5X2X>X&X&X>X&X,X7X9X7XS.{.,X,X2X2X2X,X'.k V q p J P W #X`.#X8XOX5X5XD.n.B.&X4X1X+Xa.S.oX>X>X>X>X>X>X>X>X>X>X>X>X>X>X>X<X<X<X1X1X",
";X;X;X;X;X&X>X1X1X1X1X2X5X5X5X$X>X4X5X9X1X1X4X1X&XOX>X$X,X7X9X7XF.'.,X>X2X1X2X1X&XV.t.p a K T O.1X XOX8XD.4X8X$Xl.n.OX4X2X$Xz.B.'.>X>X>X>X>X>X>X>X>X>X>X>X>X>X>X>X>X<X1X1X",
";X;X;X;X;X;X2X1X1X1X1X1X4X5X7X7X1X>X5X5X7X1X&X1X&X+X$X&X,X9X9X7X'.`.&X$X1X1X2X1X1XF.-X`.U K T ,.1X'.'.8XA.&X7X2XB.z.'.1X2X+Xa.n.Z.>X&X>X>X>X>X>X>X>X>X>X>X>X>X>X>X<X<X<X1X",
";X;X;X&X&X>X4X1X1X1X1X1X2X4X5X7X7X1X,X5X5X7X,X&X1X&X+X&X,X7X9X7X|.[.$X$X1X2X2X2X,X'.OX&X'.P T d.,Xv.`.8X{.'.5X7X|.n.A.&X5X+Xa.n.V.&X&X&X&X&X>X>X>X>X>X>X>X>X>X>X>X>X<X>X<X",
";X;X;X;X&X>X5X2X1X1X1X1X2X2X5X5X7X9X4X1X2X2X5X1X>X&X+X,X&X7X8X7X$Xn.>X$X>X2X4X1X1XoX'.&X&Xd.T j.&X| {.6X&XA.5X8X2XZ.B.$X2X&Xa.t.n.&X&X&X&X&X>X>X>X>X>X>X>X>X>X>X>X>X>X>X<X",
";X;X;X&X&X>X5X4X1X1X2X2X2X2X5X5X5X7X9X7X2X4X1X5X4X>X[.&X&X9X7X7X,Xa.$X+X&X1X5X2X1X&XA.OX{.,.T f.A.d.-X8X3XB.4X7X9X+XB.|.>X&XZ.l.k.&X&X&X&X&X&X>X>X>X>X>X>X>X>X>X>X>X>X>X>X",
";X;X&X&X&X>X2X4X,X>X1X2X4X2X4X5X6X5X7X7X5X5X1X1X4X,X|.OX&X6X9X7X1XB.OX>X>X1X2X1X1X1XA.V.z.b P f.u./.5X8X5XA.,X5X9X2XF.D.OX+XS.} t.+X&X&X&X&X&X&X&X&X>X>X>X>X>X>X>X>X>X>X>X",
";X;X;X;X&X>X2X4X1X1X1X4X5X5X5X5X5X5X2X1X2X4X2X1X&X|.'.[.&X2X8X7X4XZ.,X>X&X1X1X,X1X>X{.d.A w K v.u.-X8X8X5X'.$X4X7X9X&XD.[.|.B.D %.Z.&X&X&X&X&X&X&X&X>X>X>X>X>X>X>X>X>X>X>X",
";X;X;X;X&X&X2X5X1X1X1X1X5X6X7X5X5X2X2X2X1X2X2X1X&X'.D.F.&X,X9X7X5XS.>X1X1X>X1X>X,X>X&X| 9 w J M.B.5X8X8X8X{. X4X5X9X5X[.V.V.x.Z } n.@X&X&X&X&X&X&X&X&X&X>X>X>X>X>X>X>X>X>X",
";X;X&X&X&X&X1X5X4X2X1X1X5X2X7X6X5X5X7X7X7X7X7X5X&XoXA.F.&X,X8X7X7X'.$X4X1X>X1X>X&X>X&Xz.q e P ^.#X6X8X8X6XOX{.1X4X7X9X,XF.z.a.V [ l.oX&X&X&X&X&X&X&X&X&X&X>X>X>X>X>X>X>X>X",
"&X&X;X;X&X&X>X5X5X2X2X2X5X2X5X6X7X7X7X9X7X7X7X2X$X'.C.'.&X,X7X7X7X X X2X2X1X,X&X&X&X&X'.' a P /.-X6X8X9X8X,X`.-X4X5X9X7X&XS.t.V [ Z.oX&X&X&X&X&X&X&X&X&X&X>X>X>X>X>X>X>X>X",
"&X;X;X&X&X>X&X1X5X5X2X5X5X5X4X5X7X5X5X7X5X5X2X1X&X'.n.[.$X1X7X7X5X>X|.1X1X$X,X>X&X&X&X+Xg.e J ^.1X6X6X9X8X4X`.$X3X4X7X9X5X&XB.V t.D. X&X&X&X&X&X&X&X&X&X&X>X>X>X>X>X>X>X&X",
"&X&X&X&X&X>X>X&X2X7X5X2X5X7X6X5X5X5X5X5X5X4X1X,X&X[.u.|.$X4X7X5X5X,XOX&X&X$X[.>X>X&X&X&Xn.Q d M.,X6X8X8X8X5X`.OX3X4X5X9X9X2X$Xa.a.n.1X+X&X&X&X&X&X&X&X&X&X&X&X&X&X>X>X&X&X",
"&X&X&X&X&X>X>X>X>X5X7X7X2X5X7X7X4X4X5X7X5X5X2X>X+X'.l.$X X7X5X7X5X1X&X&X+X'.m.$X>X>X$X$XF.B.| f.$X8X8X6X6X5X{.'.4X4X4X5X9X7X1XOXz. X1XoX&X&X&X&X&X&X&X&X&X&X&X&X&X&X&X&X&X",
";X;X>X&X&X,X>X&X&X1X2X5X7X5X4X7X5X2X4X5X2X4X1X>XOX`.m.'.1X7X5X7X4X,X$X$XOX'.D.D.,X&X&X$X|.n.'.M.#X8X9X6X6X5X$XA.1X4X4X4X7X9X5X1XOXOX&X|.&X&X&X&X&X&X&X&X&X&X&X&X&X&X&X&X&X",
"&X&X&X&X&X,X>X>X>X>X1X2X5X7X5X7X5X2X4X2X1X>X>X>X>X'.g.#X9X7X5X7X4X>X&X+X|.'.'.'.|.&X&X&XOXz.A.{. X5X8X6X8X6X1Xm.,X3X1X1X4X7X7X5X1XOX|.S.@X&X&X&X&X&X&X&X&X&X&X&X&X&X&X&X&X",
"&X&X&X&X&X>X2X1X1X1X1X1X2X5X5X5X7X5X7X5X5X2X2X>X+X Xn.1X9X7X5X7X5X>X&X+XoX X'.$X'.&X&X>X$XZ.B.{.{.-X9X6X6X5X4XB.OX3X1X1X2X6X9X7X5X&X'.[ oX+X@X@X@X&X&X&X&X&X&X@X@X@X@X+X@X",
"&X&X&X&X+X&X1X1X2X4X5X1X1X5X7X5X5X5X5X2X1X1X1X,X[.Z.m.,X7X5X7X5X2X1X&X+XOX{.'.&X$X[.&X>X&XD.A.$X%X X9X8X6X6X4XF./.1X2X,X,X2X8X9X7X4XA.D V.+X+X+X@X@X@X@X@X&X@X+X+X+X+X+X+X",
"&X&X&X&X+X&X&X1X2X4X5X5X5X5X5X5X5X2X4X1X>X&X X'.'.'.n.&X5X5X8X7X4X1X&X+XOX X'.&X1X$X X1X&X[.V.'.OX,X8X8X6X8X5X|.z.,X4X1X,X1X4X9X9X7XS.t.A.oX+X+X+X+X+X+X+X+X+X+X+X+X+X+X+X",
"&X&X&X&X+X>X>X1X2X5X7X7X7X4X5X5X5X5X4X4X2X1X>X>X+X'.z.&X5X5X7X7X5X1X>X+X+X|.'.&X2X1X#X$X&X|.n.D.{.$X5X8X6X8X5X-X[ %X1X2X1X&X1X5X9X9X&XZ.'.|.+X+X+X+X+X+X+X+X+X+X+X+X+X+X+X",
"&X&X&X&X$X1X<X1X2X5X7X7X5X4X5X5X5X2X2X4X1X1X1X&X`.n.g.,X4X5X7X7X5X1X&X&X+X|.`.&X2X4X1X X&XOXz.V.c.$X5X9X6X6X6X1XD '.,X4X4X&X&X1X7X9X7XZ.F.V.[.+X+X+X+X+X+X+XOXOX+X+X+X+X+X",
"&X&X&X&X+X>X1X>X1X5X7X7X7X5X7X5X5X4X5X5X4X2X1X$X|.S.m.1X5X5X5X5X5X1X&X&X+XOX'.&X2X5X5X1X#X&Xn.z.u.#X5X9X6X5X5X2X%.z.,X1X4X4X&X-X2X7X9Xa.' G [ [.oXOXOXoX+X+XoXoXoXoXoXOX+X",
"&X&X&X&X+X>X>X>X1X4X7X7X7X7X7X7X7X7X5X4X1X,X$X[.'.`.'.5X5X7X5X5X4X1X&X>X$XOX'.&X2X5X5X5X1X&X'.k.i. X1X8X5X4X4X4XV.} &X1X1X4X,X$X,X5X7XV.F D z s.oXoXoXoXOXOXOXoXoXoXoXOXOX",
"&X&X&X&X+X&X1X1X1X5X5X7X7X7X5X7X5X5X2X1X>X+X+XoX[.D.'.4X5X5X5X5X5X1X>X&X&XoX'.&X2X5X5X7X5X4X>Xz.k.'.-X5X4X4X5X5X$X' |.,X1X1X4X&X&X2X5X+Xu.t.' G [.oXoXoXoXOXOXOXoXoXoXoXoX",
"&X&X&X&XoX&X1X1X1X5X5X7X5X7X5X5X4X2X1X1X&XOX+XoX|. X#X5X5X5X5X5X2X1X>X&X+X X'.,X2X5X7X7X7X9X4X[.i.A.-X4X2X5X5X5X1Xk.V.,X,X3X4X1X$X&X2X2Xa.l.V.Z.Z.[.oXoXoXoXoXoXoXoXOXOXOX",
"&X&X&X&XoX+X>X>X1X5X5X7X5X7X4X2X2X1X1X1X>X>X1X,X,X&X X5X5X5X5X5X1X>X&X&X+X|.'.,X2X5X5X7X9XqX7X1Xk.V.OX1X4X8X8X5X4X[.i.&X1X1X4X2X&XOX,X4XZ.z.Z.i.%.a.F.|.|.oXoXoXOXOXOXOXOX",
"&X&X&X&X+X+X>X>X1X5X5X7X5X5X5X5X5X4X5X5X5X1X1X&X|.A.D.4X5X5X5X7X4X>X&X$X+X X{.>X2X5X7X9X9XqX9X5XA.B.{.,X5X8X8X5X4X-Xu.{.1X1X1X1X1X$X$X,XOXa.B.k.t.[ t.[.|.|.oXoXOXoXOXOXoX",
"&X&X&X&X+XOX1X>X1X4X5X7X5X5X5X7X5X4X4X5X1XOX'.D.D.a.F.4X5X5X7X5X2X>X&X&X+X X{.,X2X7X7X7X7X9X9X7X|.c.`.-X,X,X6X5X5X1XB.V.&X,X,X1X2X,XOX$X1Xn.m.z.n.l.i.Z.|.|.oXoXoXoXoXoXoX",
"&X&X&X&X+X$X>X>X1X4X4X5X5X5X5X5X4X2X4X2X&X'.D.'.`.G |.4X5X5X5X5X1X>X&X&XOX X X,X4X7X7X7X7X9X9X9X,Xc.A. X-X%X5X8X5X1X[.g.$X1X1X1X2X1X&XOX&X'.a.t.t.t.a.l.S.|.|.oXoXoXoXoX|."
};
